<?xml version="1.0" standalone="no"?>
<!DOCTYPE svg PUBLIC "-//W3C//DTD SVG 20010904//EN"
 "http://www.w3.org/TR/2001/REC-SVG-20010904/DTD/svg10.dtd">
<svg version="1.0" xmlns="http://www.w3.org/2000/svg"
 width="590.000000pt" height="370.000000pt" viewBox="0 0 590.000000 370.000000"
 preserveAspectRatio="xMidYMid meet">
<metadata>
Created by potrace 1.16, written by Peter Selinger 2001-2019
</metadata>
<g transform="translate(0.000000,370.000000) scale(0.100000,-0.100000)"
fill="#000000" stroke="none">
<path d="M955 3548 c-29 -15 -45 -39 -45 -65 0 -18 6 -23 25 -23 18 0 25 5 25
20 0 46 84 51 96 5 8 -32 -11 -61 -77 -116 -51 -44 -79 -84 -79 -114 0 -13 17
-15 105 -15 l105 0 0 25 c0 24 -2 25 -72 25 l-73 0 58 51 c82 73 101 117 76
172 -19 43 -97 61 -144 35z"/>
<path d="M1650 3277 c0 -14 -9 -31 -21 -39 -21 -14 -21 -14 28 -103 93 -168
172 -355 227 -538 37 -121 86 -331 86 -366 l0 -21 -800 0 -800 0 0 -25 0 -25
805 0 805 0 5 -22 c32 -142 32 -624 0 -765 l-5 -23 -805 0 -805 0 0 -25 0 -25
801 0 802 0 -7 -52 c-12 -88 -81 -346 -126 -468 -52 -142 -118 -287 -183 -405
-49 -89 -49 -89 -28 -103 12 -8 21 -25 21 -39 l0 -24 558 3 557 3 125 43 c505
173 915 512 1165 963 54 97 125 259 151 342 18 57 27 67 40 46 3 -6 25 -20 48
-30 107 -48 235 2 271 108 l13 38 456 3 456 2 0 25 0 25 -456 2 -456 3 -13 38
c-26 75 -100 127 -180 127 -49 0 -108 -20 -137 -47 -10 -9 -20 -14 -21 -12 -2
2 -18 47 -36 99 -142 413 -465 811 -853 1052 -120 74 -304 161 -448 210 l-125
43 -557 3 -558 3 0 -24z m1216 -121 c474 -160 870 -491 1116 -936 54 -97 125
-270 155 -374 l26 -92 -27 -92 c-123 -427 -423 -829 -811 -1085 -130 -85 -309
-172 -459 -223 l-131 -44 -497 0 c-274 0 -498 2 -498 4 0 2 33 73 74 157 198
411 289 816 289 1284 0 288 -23 473 -93 750 -49 193 -104 343 -196 534 -41 84
-74 155 -74 157 0 2 224 4 498 4 l497 0 131 -44z"/>
<path d="M2853 2324 c-24 -24 -43 -53 -43 -65 l0 -21 35 21 35 20 0 -114 0
-115 25 0 25 0 0 160 c0 185 -3 189 -77 114z"/>
<path d="M2480 2268 c0 -124 8 -163 37 -192 48 -48 151 -42 193 11 18 23 20
41 20 149 l0 124 -25 0 -25 0 0 -115 c0 -102 -2 -117 -20 -135 -25 -25 -71
-26 -101 -1 -21 17 -23 28 -27 135 -4 114 -5 116 -28 116 -24 0 -24 -2 -24
-92z"/>
<path d="M3223 2343 c-6 -16 -80 -208 -104 -270 -8 -21 -6 -23 20 -23 26 0 31
6 43 43 l15 42 60 3 61 3 17 -46 c16 -39 21 -45 47 -45 20 0 29 4 25 13 -2 6
-31 76 -63 155 -55 136 -59 142 -86 142 -18 0 -31 -6 -35 -17z"/>
<path d="M2527 1414 c-38 -54 -67 -105 -67 -120 0 -23 3 -24 65 -24 l65 0 0
-35 c0 -31 3 -35 25 -35 22 0 25 4 25 35 0 28 4 35 20 35 13 0 20 7 20 20 0
13 -7 20 -20 20 -19 0 -20 7 -20 100 0 98 -1 100 -23 100 -18 0 -38 -22 -90
-96z"/>
<path d="M2757 1499 c-32 -19 -47 -65 -47 -146 0 -102 20 -144 73 -157 85 -21
127 29 127 152 0 80 -17 135 -48 151 -26 14 -81 14 -105 0z m89 -54 c20 -31
23 -149 5 -182 -15 -29 -49 -39 -68 -20 -21 20 -35 94 -28 142 14 81 58 110
91 60z"/>
<path d="M2980 1482 c-55 -55 -50 -227 7 -272 51 -40 122 -18 149 46 16 38 19
150 5 187 -27 71 -109 90 -161 39z m104 -34 c18 -25 22 -141 7 -181 -14 -36
-48 -44 -75 -18 -18 18 -21 33 -21 100 0 64 4 83 19 100 25 27 51 27 70 -1z"/>
<path d="M3216 1488 c-14 -13 -28 -35 -32 -50 -5 -25 -3 -28 20 -28 15 0 26 6
26 13 0 20 33 47 57 47 28 0 56 -34 48 -59 -3 -10 -39 -53 -80 -94 -47 -46
-75 -82 -75 -95 0 -21 4 -22 105 -22 98 0 105 1 105 20 0 18 -7 20 -72 20
l-72 0 64 64 c70 70 84 96 75 138 -15 65 -116 92 -169 46z"/>
<path d="M370 3035 l0 -25 640 0 640 0 0 25 0 25 -640 0 -640 0 0 -25z"/>
<path d="M1130 2698 c-13 -8 -31 -26 -40 -41 -13 -24 -13 -29 0 -37 23 -15 37
-12 43 9 8 31 40 43 66 25 32 -23 24 -57 -16 -69 -40 -11 -47 -45 -9 -45 32 0
56 -25 56 -59 0 -35 -17 -51 -52 -51 -20 0 -33 8 -46 28 -10 17 -24 26 -34 24
-26 -5 -22 -39 7 -67 19 -20 34 -25 75 -25 41 0 56 5 75 25 32 32 35 98 5 130
-18 20 -19 23 -5 35 22 18 18 65 -7 94 -28 30 -83 41 -118 24z"/>
<path d="M4818 2237 c-46 -42 -62 -77 -35 -77 7 0 22 7 33 15 10 8 22 15 27
15 4 0 7 -52 7 -115 l0 -115 25 0 25 0 0 160 c0 186 -2 189 -82 117z"/>
<path d="M1130 1751 c-38 -55 -70 -109 -70 -120 0 -19 6 -21 65 -21 l65 0 0
-35 c0 -31 3 -35 25 -35 22 0 25 4 25 35 0 28 4 35 20 35 13 0 20 7 20 20 0
13 -7 20 -20 20 -19 0 -20 7 -20 100 0 93 -1 100 -20 100 -13 0 -41 -31 -90
-99z"/>
<path d="M936 968 c-25 -117 -26 -132 -14 -140 19 -12 34 -10 48 7 15 18 50
19 73 3 28 -22 31 -61 6 -91 -27 -35 -68 -34 -86 3 -7 14 -17 25 -23 24 -40
-4 -39 -3 -28 -34 14 -41 44 -60 94 -60 77 0 128 71 104 145 -15 45 -49 68
-101 67 -37 -1 -40 1 -35 21 3 12 6 25 6 30 0 4 27 7 60 7 53 0 60 2 60 20 0
18 -7 20 -80 20 -75 0 -80 -1 -84 -22z"/>
<path d="M370 475 l0 -25 640 0 640 0 0 25 0 25 -640 0 -640 0 0 -25z"/>
</g>
</svg>
