<?xml version="1.0" standalone="no"?>
<!DOCTYPE svg PUBLIC "-//W3C//DTD SVG 20010904//EN"
 "http://www.w3.org/TR/2001/REC-SVG-20010904/DTD/svg10.dtd">
<svg version="1.0" xmlns="http://www.w3.org/2000/svg"
 width="427.000000pt" height="240.000000pt" viewBox="0 0 427.000000 240.000000"
 preserveAspectRatio="xMidYMid meet">
<metadata>
Created by potrace 1.16, written by Peter Selinger 2001-2019
</metadata>
<g transform="translate(0.000000,240.000000) scale(0.100000,-0.100000)"
fill="#000000" stroke="none">
<path d="M2265 1719 c-37 -33 -65 -104 -65 -166 l0 -33 -325 0 c-297 0 -325
-1 -325 -17 0 -9 -8 -25 -17 -35 -16 -18 -5 -31 285 -321 l302 -302 -29 -27
c-38 -37 -56 -105 -55 -213 2 -160 53 -230 163 -222 47 3 59 9 87 40 41 44 54
91 54 193 0 96 -20 171 -55 204 l-26 24 303 303 c290 290 301 303 285 321 -9
10 -17 26 -17 35 0 15 -17 17 -160 17 l-160 0 0 25 c0 66 -23 131 -60 168 -35
34 -42 37 -93 37 -49 0 -61 -4 -92 -31z m137 -47 c21 -17 38 -73 38 -119 l0
-33 -85 0 -85 0 0 40 c0 107 70 167 132 112z m-198 -244 c21 -74 42 -112 70
-129 40 -24 118 -25 157 -2 31 19 69 85 69 121 0 21 4 22 112 22 l113 0 -268
-267 -267 -268 -267 268 -268 267 273 0 c209 0 273 -3 276 -12z m31 -652 c31
-31 38 -75 33 -191 -3 -82 -7 -98 -28 -120 -23 -25 -52 -31 -85 -19 -63 25
-73 267 -13 331 28 30 63 29 93 -1z"/>
</g>
</svg>
