<?xml version="1.0" encoding="UTF-8"?>
<svg xmlns="http://www.w3.org/2000/svg" xmlns:xlink="http://www.w3.org/1999/xlink"
     width="500" height="200" viewBox="-250.0 -100.0 500 200">
<defs>
</defs>
<path d="M-100.00007615433562,-0.08726641829491544 A50,50,0,0,0,-199.9999238456644,-0.08726641829491613" stroke="black" stroke-width="6" fill-opacity="0" />
<path d="M-7.615433561625196e-05,-0.08726641829491544 A50,50,0,0,0,-99.99992384566438,-0.08726641829491613" stroke="black" stroke-width="6" fill-opacity="0" />
<path d="M99.99992384566438,-0.08726641829491544 A50,50,0,0,0,7.615433561625196e-05,-0.08726641829491613" stroke="black" stroke-width="6" fill-opacity="0" />
<path d="M199.9999238456644,-0.08726641829491544 A50,50,0,0,0,100.00007615433562,-0.08726641829491613" stroke="black" stroke-width="6" fill-opacity="0" />
<text x="-225.0" y="-17" font-size="23.333333333333332" fill="black" text-anchor="middle" transform="translate(0,6.999999999999999)"></text>
<text x="-187" y="0" font-size="35.0" text-anchor="middle" transform="translate(0,10.5)"></text>
<path d="M-250,0 L-200,0" stroke="black" stroke-width="5" />
<text x="225.0" y="-17" font-size="23.333333333333332" fill="black" text-anchor="middle" transform="translate(0,6.999999999999999)"></text>
<text x="187" y="0" font-size="35.0" text-anchor="middle" transform="translate(0,10.5)"></text>
<path d="M250,0 L200,0" stroke="black" stroke-width="5" />
<metadata width="500" height="200" symbolPrefix="L" cmpPartDmgLabel="1:A" nameOfSymbol="L-INDUCTOR-1-A"><p-1><x>-250</x><y>0</y><type>I
                        </type><name>1</name><orientation>R</orientation>
                        <length>50</length>
                        </p-1><p-2><x>250</x><y>0</y><type>I
                        </type><name>2</name><orientation>L</orientation>
                        <length>50</length>
                        </p-2></metadata></svg>