<?xml version="1.0" encoding="UTF-8"?>
<svg xmlns="http://www.w3.org/2000/svg" xmlns:xlink="http://www.w3.org/1999/xlink"
     width="600" height="300" viewBox="-300.0 -150.0 600 300">
<defs>
</defs>
<text x="0" y="-50" font-size="50.0" text-anchor="middle" transform="translate(0,15.0)">U1:B</text>
<text x="0" y="50" font-size="50.0" text-anchor="middle" transform="translate(0,15.0)">4011</text>
<path d="M0.2617992548847392,-149.99977153699317 A150,150,0,0,1,0.2617992548848357,149.99977153699317" stroke="black" stroke-width="10" fill-opacity="0" />
<path d="M-150,-150 L0,-150" stroke="black" stroke-width="10" />
<path d="M-150,150 L-150,-150" stroke="black" stroke-width="10" />
<path d="M0,150 L-150,150" stroke="black" stroke-width="10" />
<text x="225.0" y="-40" font-size="25.0" fill="black" text-anchor="middle" transform="translate(0,7.5)">4</text>
<circle cx="175" cy="0" r="25" stroke-width="5" stroke="black" fill="black" />
<path d="M300,0 L150,0" stroke="black" stroke-width="5" />
<text x="-225.0" y="-140" font-size="25.0" fill="black" text-anchor="middle" transform="translate(0,7.5)">5</text>
<path d="M-300,-100 L-150,-100" stroke="black" stroke-width="5" />
<text x="-225.0" y="60" font-size="25.0" fill="black" text-anchor="middle" transform="translate(0,7.5)">6</text>
<path d="M-300,100 L-150,100" stroke="black" stroke-width="5" />
<metadata width="600" height="300"><p-4><x>300</x><y>0</y><type>O
                     </type></p-4><p-5><x>-300</x><y>100</y><type>I
                     </type></p-5><p-6><x>-300</x><y>-100</y><type>I
                     </type></p-6></metadata></svg>