<?xml version="1.0" encoding="UTF-8"?>
<svg xmlns="http://www.w3.org/2000/svg" xmlns:xlink="http://www.w3.org/1999/xlink"
     width="600" height="600" viewBox="-300.0 -300.0 600 600">
<defs>
</defs>
<path d="M200,0 L-200,-200 L-200,200 L200,0" stroke-width="10" stroke="black" fill-opacity="0" />
<text x="-250.0" y="-117" font-size="23.333333333333332" fill="black" text-anchor="middle" transform="translate(0,6.999999999999999)"></text>
<text x="-177" y="-100" font-size="35.0" text-anchor="middle" transform="translate(0,10.5)"></text>
<path d="M-300,-100 L-200,-100" stroke="black" stroke-width="5" />
<text x="-250.0" y="83" font-size="23.333333333333332" fill="black" text-anchor="middle" transform="translate(0,6.999999999999999)"></text>
<text x="-177" y="100" font-size="35.0" text-anchor="middle" transform="translate(0,10.5)"></text>
<path d="M-300,100 L-200,100" stroke="black" stroke-width="5" />
<text x="250.0" y="-17" font-size="23.333333333333332" fill="black" text-anchor="middle" transform="translate(0,6.999999999999999)"></text>
<text x="177" y="0" font-size="35.0" text-anchor="middle" transform="translate(0,10.5)"></text>
<path d="M300,0 L200,0" stroke="black" stroke-width="5" />
<text x="-117" y="-200.0" font-size="23.333333333333332" fill="black" text-anchor="middle" transform="translate(0,6.999999999999999)"></text>
<text x="-100" y="-114" font-size="35.0" text-anchor="middle" transform="translate(0,10.5)"></text>
<path d="M-100,-300 L-100,-150" stroke="black" stroke-width="5" />
<text x="-117" y="200.0" font-size="23.333333333333332" fill="black" text-anchor="middle" transform="translate(0,6.999999999999999)"></text>
<text x="-100" y="114" font-size="35.0" text-anchor="middle" transform="translate(0,10.5)"></text>
<path d="M-100,300 L-100,150" stroke="black" stroke-width="5" />
<metadata width="600" height="600" symbolPrefix="U" cmpPartDmgLabel="1:A" nameOfSymbol="U-OPAMP-1-A"><p-1><x>-300</x><y>100</y><type>I
                        </type><name>+</name><orientation>R</orientation>
                        <length>100</length>
                        </p-1><p-2><x>-300</x><y>-100</y><type>I
                        </type><name>-</name><orientation>R</orientation>
                        <length>100</length>
                        </p-2><p-3><x>300</x><y>0</y><type>O
                        </type><name>~</name><orientation>L</orientation>
                        <length>100</length>
                        </p-3><p-4><x>-100</x><y>300</y><type>W
                        </type><name>V+</name><orientation>D</orientation>
                        <length>150</length>
                        </p-4><p-5><x>-100</x><y>-300</y><type>W
                        </type><name>V-</name><orientation>U</orientation>
                        <length>150</length>
                        </p-5></metadata></svg>