<?xml version="1.0" standalone="no"?>
<!DOCTYPE svg PUBLIC "-//W3C//DTD SVG 20010904//EN"
 "http://www.w3.org/TR/2001/REC-SVG-20010904/DTD/svg10.dtd">
<svg version="1.0" xmlns="http://www.w3.org/2000/svg"
 width="1095.000000pt" height="1533.000000pt" viewBox="0 0 1095.000000 1533.000000"
 preserveAspectRatio="xMidYMid meet">
<metadata>
Created by potrace 1.16, written by Peter Selinger 2001-2019
</metadata>
<g transform="translate(0.000000,1533.000000) scale(0.100000,-0.100000)"
fill="#000000" stroke="none">
<path d="M0 15276 l0 -55 86 -3 86 -3 52 -135 51 -135 74 -3 c88 -4 89 -24 -8
213 l-70 170 -135 3 -136 3 0 -55z"/>
<path d="M5360 14092 l0 -1239 -157 -7 c-1043 -45 -2058 -407 -2888 -1029
-384 -288 -761 -664 -1043 -1040 -505 -675 -833 -1441 -972 -2271 -54 -323
-65 -467 -65 -861 1 -385 10 -515 60 -824 209 -1289 887 -2443 1910 -3253 657
-520 1450 -880 2275 -1032 245 -45 632 -86 814 -86 l66 0 0 -1225 0 -1225 70
0 70 0 0 1223 0 1224 150 7 c756 34 1445 213 2115 551 512 258 900 534 1304
930 791 775 1307 1763 1490 2855 55 325 66 470 66 860 0 390 -11 535 -66 860
-176 1052 -660 2006 -1404 2769 -427 437 -867 758 -1415 1030 -657 326 -1351
505 -2082 537 l-158 7 0 1239 0 1238 -70 0 -70 0 0 -1238z m495 -1422 c658
-62 1224 -221 1800 -505 1004 -494 1798 -1288 2290 -2290 697 -1418 697 -3032
0 -4450 -492 -1001 -1289 -1798 -2290 -2290 -1402 -689 -3012 -697 -4410 -21
-1023 494 -1831 1296 -2330 2311 -697 1417 -697 3033 0 4450 250 509 556 937
955 1335 398 399 826 705 1335 955 609 300 1245 470 1921 514 164 11 572 6
729 -9z"/>
<path d="M4740 11155 l0 -465 350 0 350 0 0 60 0 60 -285 0 -285 0 0 150 0
150 255 0 255 0 0 60 0 60 -255 0 -255 0 0 135 0 135 270 0 270 0 0 60 0 60
-335 0 -335 0 0 -465z"/>
<path d="M5874 11578 c-35 -51 -132 -132 -191 -161 l-43 -21 0 -62 0 -63 34
14 c49 21 137 73 164 98 l22 20 0 -356 0 -357 60 0 60 0 0 465 0 465 -39 0
c-34 0 -42 -5 -67 -42z"/>
<path d="M3393 8181 c-79 -27 -125 -62 -157 -120 -25 -47 -28 -60 -24 -126 7
-139 69 -190 317 -255 85 -22 169 -50 188 -61 45 -28 67 -72 60 -122 -11 -80
-94 -131 -217 -130 -131 1 -230 62 -254 158 -7 25 -15 46 -19 45 -4 0 -32 0
-63 0 l-57 0 7 -46 c15 -110 77 -193 180 -241 57 -26 69 -28 196 -28 133 0
136 1 203 33 209 103 208 371 0 464 -24 10 -103 34 -175 53 -170 43 -204 58
-228 98 -26 42 -25 66 3 108 34 52 85 72 181 72 121 0 196 -46 212 -129 3 -19
10 -37 15 -40 5 -3 34 -2 64 1 49 7 55 10 55 31 0 52 -41 133 -87 174 -86 76
-275 105 -400 61z"/>
<path d="M4344 8189 c-123 -29 -244 -148 -286 -282 -33 -103 -33 -274 0 -369
32 -91 89 -168 163 -217 80 -53 142 -71 251 -71 273 0 441 182 440 475 0 104
-12 166 -48 241 -39 83 -104 148 -192 191 -72 36 -81 38 -181 40 -58 1 -125
-3 -147 -8z m261 -133 c66 -33 117 -90 147 -165 18 -46 22 -76 23 -171 0 -106
-2 -120 -29 -178 -97 -209 -368 -246 -508 -69 -50 64 -71 139 -70 249 1 144
37 238 114 300 93 73 216 86 323 34z"/>
<path d="M7160 8178 c-178 -62 -268 -196 -278 -411 -8 -190 39 -330 144 -426
79 -72 155 -95 302 -89 91 3 116 8 163 31 92 44 168 139 199 248 8 27 6 29
-29 39 -97 26 -95 26 -110 -25 -54 -183 -286 -245 -433 -116 -82 73 -123 226
-100 376 21 133 66 206 156 252 42 22 65 27 131 27 117 1 175 -34 225 -134 12
-25 24 -47 25 -48 6 -6 116 21 121 30 10 15 -44 116 -85 160 -22 25 -66 57
-98 73 -50 25 -72 29 -163 32 -90 3 -114 0 -170 -19z"/>
<path d="M2260 8188 c0 -2 80 -210 179 -463 l178 -460 68 0 69 0 178 455 c98
250 178 458 178 463 0 4 -30 7 -67 5 l-66 -3 -75 -200 c-41 -110 -106 -289
-146 -397 l-72 -196 -37 111 c-21 62 -83 240 -140 397 l-102 285 -73 3 c-39 2
-72 2 -72 0z"/>
<path d="M5062 7853 c4 -286 8 -346 22 -392 50 -155 158 -216 370 -210 97 4
118 8 168 32 67 33 119 90 145 156 15 40 18 91 21 399 l3 352 -65 0 -65 0 -3
-337 c-3 -287 -5 -343 -19 -374 -36 -78 -101 -111 -221 -111 -79 0 -146 27
-176 70 -41 59 -45 87 -50 425 l-4 327 -65 0 -65 0 4 -337z"/>
<path d="M5990 7725 l0 -465 65 0 65 0 0 205 0 205 93 0 c155 -1 182 -22 340
-267 l91 -143 84 0 84 0 -14 23 c-8 12 -50 78 -94 147 -43 69 -107 153 -141
188 -34 35 -57 65 -50 67 7 2 29 9 49 15 64 19 117 66 145 127 22 47 25 66 21
122 -7 100 -47 166 -124 204 -54 28 -152 37 -386 37 l-228 0 0 -465z m525 329
c49 -26 78 -72 77 -124 -1 -55 -29 -97 -82 -122 -40 -20 -65 -23 -217 -26
l-173 -4 0 152 0 152 178 -4 c155 -3 183 -7 217 -24z"/>
<path d="M7840 7725 l0 -465 345 0 345 0 0 60 0 60 -280 0 -280 0 0 150 0 150
255 0 255 0 0 60 0 60 -255 0 -255 0 0 135 0 135 270 0 270 0 0 60 0 60 -335
0 -335 0 0 -465z"/>
<path d="M4740 4295 l0 -465 350 0 350 0 0 60 0 60 -285 0 -285 0 0 150 0 150
255 0 255 0 0 60 0 60 -255 0 -255 0 0 135 0 135 270 0 270 0 0 60 0 60 -335
0 -335 0 0 -465z"/>
<path d="M5748 4746 c-49 -13 -63 -22 -116 -70 -51 -47 -93 -180 -59 -191 6
-2 33 -5 58 -8 l47 -4 6 37 c12 77 95 150 171 150 45 0 116 -40 142 -79 30
-44 30 -108 2 -163 -28 -55 -97 -127 -233 -242 -153 -131 -226 -230 -226 -311
l0 -35 305 0 305 0 0 60 0 60 -221 0 -220 0 23 29 c13 16 80 78 149 139 202
177 253 244 266 350 10 84 -12 147 -71 208 -39 40 -64 56 -105 68 -64 19 -157
20 -223 2z"/>
<path d="M4407 13871 c-10 -17 -40 -44 -67 -62 -41 -26 -50 -38 -50 -61 0 -36
14 -36 73 2 l47 30 0 -175 0 -175 30 0 30 0 0 235 0 235 -23 0 c-15 0 -29 -11
-40 -29z"/>
<path d="M1 12107 l-1 -187 116 -233 c64 -127 118 -233 119 -235 7 -8 145 69
144 81 0 6 -85 181 -189 387 l-189 375 0 -188z"/>
<path d="M4335 1936 c-39 -17 -63 -45 -75 -86 -11 -39 -12 -38 27 -46 28 -6
32 -3 38 25 16 74 129 85 155 15 16 -41 -11 -84 -109 -174 -82 -75 -131 -142
-131 -178 0 -9 43 -12 160 -12 l160 0 0 30 0 30 -110 0 c-84 0 -108 3 -104 13
3 6 35 37 70 67 102 86 127 123 132 189 3 47 0 61 -19 85 -41 52 -128 71 -194
42z"/>
</g>
</svg>
