<?xml version="1.0" encoding="UTF-8" standalone="no"?>
<!-- Created with Inkscape (http://www.inkscape.org/) -->

<svg
   xmlns:dc="http://purl.org/dc/elements/1.1/"
   xmlns:cc="http://creativecommons.org/ns#"
   xmlns:rdf="http://www.w3.org/1999/02/22-rdf-syntax-ns#"
   xmlns:svg="http://www.w3.org/2000/svg"
   xmlns="http://www.w3.org/2000/svg"
   xmlns:sodipodi="http://sodipodi.sourceforge.net/DTD/sodipodi-0.dtd"
   xmlns:inkscape="http://www.inkscape.org/namespaces/inkscape"
   width="210mm"
   height="297mm"
   viewBox="0 0 210 297"
   version="1.1"
   id="svg1517"
   inkscape:version="0.92.5 (2060ec1f9f, 2020-04-08)"
   sodipodi:docname="coincell.svg">
  <defs
     id="defs1511" />
  <sodipodi:namedview
     id="base"
     pagecolor="#ffffff"
     bordercolor="#666666"
     borderopacity="1.0"
     inkscape:pageopacity="0.0"
     inkscape:pageshadow="2"
     inkscape:zoom="0.7"
     inkscape:cx="240.86079"
     inkscape:cy="624.40184"
     inkscape:document-units="mm"
     inkscape:current-layer="layer1"
     showgrid="false"
     showguides="false"
     inkscape:window-width="1920"
     inkscape:window-height="1001"
     inkscape:window-x="-9"
     inkscape:window-y="-9"
     inkscape:window-maximized="1" />
  <metadata
     id="metadata1514">
    <rdf:RDF>
      <cc:Work
         rdf:about="">
        <dc:format>image/svg+xml</dc:format>
        <dc:type
           rdf:resource="http://purl.org/dc/dcmitype/StillImage" />
        <dc:title />
      </cc:Work>
    </rdf:RDF>
  </metadata>
  <g
     inkscape:label="Layer 1"
     inkscape:groupmode="layer"
     id="layer1">
    <path
       class="cgfx__selected"
       display="none"
       d="m -42.21,2.36 c 0,20.46 14.56,37.51 33.88,41.38 v 6.46 c 0,0.28 0.22,0.5 0.5,0.5 H 7.83 c 0.28,0 0.5,-0.22 0.5,-0.5 V 43.74 C 27.65,39.87 42.21,22.82 42.21,2.36 c 0,0 0,-7 0,-7.22 0,-20.46 -14.56,-37.51 -33.88,-41.38 v -3.94 c 0,-0.29 -0.24,-0.53 -0.53,-0.53 H -7.8 c -0.29,0 -0.53,0.24 -0.53,0.53 v 3.94 c -19.32,3.87 -33.88,20.92 -33.88,41.38 0,0.22 0,7.22 0,7.22 z"
       id="path1215"
       inkscape:connector-curvature="0"
       style="display:none;fill:none;stroke:#3b8ed7;stroke-width:3;stroke-linecap:round;stroke-linejoin:round" />
    <polygon
       class="cgfx__breakdown"
       transform="scale(4)"
       display="none"
       style="display:none;opacity:0.7;fill:#ff0000;stroke:#f7e60b;stroke-miterlimit:10"
       points="-8.854,-7.513 -3.289,-5.371 -1.401,-10.527 2.415,-5.161 7.901,-7.299 5.471,-2.294 11.953,-0.565 5.126,1.63 8.332,8.197 2.59,5.053 -0.137,10.527 -2.24,4.375 -7.565,7.957 -6.133,2.443 -11.953,0.87 -5.945,-1.796 "
       id="polygon1283" />
    <path
       class="cgfx__hitarea"
       style="display:none;opacity:0;fill:#ff0000"
       display="none"
       d="m -42.21,2.36 c 0,20.46 14.56,37.51 33.88,41.38 v 6.46 c 0,0.28 0.22,0.5 0.5,0.5 H 7.83 c 0.28,0 0.5,-0.22 0.5,-0.5 V 43.74 C 27.65,39.87 42.21,22.82 42.21,2.36 c 0,0 0,-7 0,-7.22 0,-20.46 -14.56,-37.51 -33.88,-41.38 v -3.94 c 0,-0.29 -0.24,-0.53 -0.53,-0.53 H -7.8 c -0.29,0 -0.53,0.24 -0.53,0.53 v 3.94 c -19.32,3.87 -33.88,20.92 -33.88,41.38 0,0.22 0,7.22 0,7.22 z"
       id="path1285"
       inkscape:connector-curvature="0" />
    <g
       class="cgfx__terminal"
       id="g1293">
      <desc
         class="cgfx__terminalname"
         id="desc1287">Positive</desc>
      <desc
         class="cgfx__terminaltype"
         id="desc1289">breadboard</desc>
      <line
         class="cgfx__origin cgfx__direction cgfx__reference cgfx__debug"
         x1="0"
         y1="-60"
         x2="0"
         y2="-85"
         style="display:none;opacity:0.5;stroke:#ff0000;stroke-width:2;stroke-dasharray:10, 2, 3, 2, 3, 2, 3"
         display="none"
         id="line1291" />
    </g>
    <g
       class="cgfx__terminal"
       id="g1301">
      <desc
         class="cgfx__terminalname"
         id="desc1295">Negative</desc>
      <desc
         class="cgfx__terminaltype"
         id="desc1297">breadboard</desc>
      <line
         class="cgfx__origin cgfx__direction cgfx__reference cgfx__debug"
         x1="0"
         y1="60"
         x2="0"
         y2="85"
         style="display:none;opacity:0.5;stroke:#ff0000;stroke-width:2;stroke-dasharray:10, 2, 3, 2, 3, 2, 3"
         display="none"
         id="line1299" />
    </g>
    <line
       style="display:none;fill:none;stroke:#3b8ed7;stroke-width:2;stroke-linecap:round;stroke-linejoin:round;stroke-miterlimit:10"
       id="line1177"
       y2="49.800343"
       x2="147.18063"
       y1="57.734344"
       x1="147.18063"
       stroke-miterlimit="10"
       display="none"
       class="cgfx__selected" />
    <path
       inkscape:connector-curvature="0"
       id="path1181"
       d="m 145.18064,52.520343 c 0,-0.55 0.45,-1 1,-1 h 2 c 0.55,0 1,0.45 1,1 v 2.483 h -4 z"
       style="display:none;fill:#3b8ed7;stroke:none;stroke-miterlimit:10"
       display="none"
       class="cgfx__selected" />
    <path
       inkscape:connector-curvature="0"
       id="path1187"
       d="m 144.18064,55.020343 c 0,-0.55 0.45,-1 1,-1 h 4 c 0.55,0 1,0.45 1,1 v 5.983 h -6 z"
       style="display:none;fill:#3b8ed7;stroke:none;stroke-miterlimit:10"
       display="none"
       class="cgfx__selected" />
    <path
       inkscape:connector-curvature="0"
       id="path1191"
       d="m 149.18064,54.020343 v -1.5 c 0,-0.55 -0.45,-1 -1,-1 v -1.72 c 0,-0.552 -0.448,-1 -1,-1 -0.552,0 -1,0.448 -1,1 v 1.72 c -0.55,0 -1,0.45 -1,1 v 1.5 c -0.55,0 -1,0.45 -1,1 v 5.983 h 6 v -5.983 c 0,-0.55 -0.45,-1 -1,-1 z"
       display="none"
       style="display:none;opacity:0;fill:#ff0000"
       class="cgfx__hitarea" />
    <line
       style="display:none;fill:none;stroke:#3b8ed7;stroke-width:2;stroke-linecap:round;stroke-linejoin:round;stroke-miterlimit:10"
       id="line1197"
       y2="107.81225"
       x2="135.0854"
       y1="99.87825"
       x1="135.0854"
       stroke-miterlimit="10"
       display="none"
       class="cgfx__selected" />
    <path
       inkscape:connector-curvature="0"
       id="path1201"
       d="m 137.0854,105.09225 c 0,0.55 -0.45,1 -1,1 h -2 c -0.55,0 -1,-0.45 -1,-1 v -2.483 h 4 z"
       style="display:none;fill:#3b8ed7;stroke:none;stroke-miterlimit:10"
       display="none"
       class="cgfx__selected" />
    <path
       inkscape:connector-curvature="0"
       id="path1207"
       d="m 138.0854,102.59225 c 0,0.55 -0.45,1 -1,1 h -4 c -0.55,0 -1,-0.45 -1,-1 v -5.983002 h 6 z"
       style="display:none;fill:#3b8ed7;stroke:none;stroke-miterlimit:10"
       display="none"
       class="cgfx__selected" />
    <path
       inkscape:connector-curvature="0"
       id="path1211"
       d="m 133.0854,103.59225 v 1.5 c 0,0.55 0.45,1 1,1 v 1.72 c 0,0.552 0.448,1 1,1 0.552,0 1,-0.448 1,-1 v -1.72 c 0.55,0 1,-0.45 1,-1 v -1.5 c 0.55,0 1,-0.45 1,-1 v -5.983002 h -6 v 5.983002 c 0,0.55 0.45,1 1,1 z"
       display="none"
       style="display:none;opacity:0;fill:#ff0000"
       class="cgfx__hitarea" />
    <g
       id="g1133">
      <path
         d="m 19.403027,5.5052604 c 0,-0.3194258 0.352533,-0.5807743 0.783407,-0.5807743 h 3.133629 c 0.430875,0 0.783407,0.2613485 0.783407,0.5807743 v 3.4747729 h -4.700443 z"
         id="path1185"
         inkscape:connector-curvature="0"
         style="fill:#ff0000;stroke-width:0.67452413" />
      <path
         d="m 24.816691,56.504608 c 0,0.333032 -0.393408,0.605515 -0.874241,0.605515 h -3.496963 c -0.480832,0 -0.87424,-0.272483 -0.87424,-0.605515 v -3.622796 h 5.245444 z"
         id="path1205"
         inkscape:connector-curvature="0"
         style="fill:#333333;stroke-width:0.72757512" />
      <path
         inkscape:connector-curvature="0"
         id="path1217"
         d="m 1.7831421,31.998188 c 0,9.351697 6.9979685,17.144779 16.2837349,18.913648 v 2.952686 c 0,0.12798 0.105739,0.228536 0.240315,0.228536 h 7.526662 c 0.134576,0 0.240314,-0.100556 0.240314,-0.228536 v -2.952686 c 9.285766,-1.768869 16.283735,-9.561951 16.283735,-18.913648 0,0 0,-3.199505 0,-3.300061 0,-9.351697 -6.997969,-17.144778 -16.283735,-18.9136472 V 7.9836155 c 0,-0.132551 -0.115351,-0.2422483 -0.254734,-0.2422483 h -7.497823 c -0.139383,0 -0.254734,0.1096973 -0.254734,0.2422483 V 9.7844798 C 8.7811106,11.553349 1.7831421,19.34643 1.7831421,28.698127 c 0,0.100556 0,3.300061 0,3.300061 z"
         style="fill:#333333;stroke-width:0.46870297" />
      <path
         inkscape:connector-curvature="0"
         id="path1219"
         d="m 7.9063645,17.89294 c 3.5518545,-3.720567 8.5840475,-6.741814 14.1641585,-6.741814 4.98413,0 9.535693,2.550462 12.981809,5.603705"
         style="fill:none;stroke:#d3d3d3;stroke-width:0.1406109;stroke-miterlimit:10" />
      <rect
         id="rect1221"
         height="2.463619"
         width="5.3397961"
         style="fill:#bfbfbf;stroke-width:0.46870297"
         y="8.9800329"
         x="19.403027" />
      <rect
         id="rect1223"
         height="0.34737486"
         width="5.3397961"
         style="opacity:0.4;fill:#ffffff;stroke-width:0.46870297"
         y="11.091706"
         x="19.403027" />
      <rect
         id="rect1225"
         height="1.823718"
         width="4.998549"
         style="fill:#bfbfbf;stroke-width:0.46870297"
         y="51.291206"
         x="19.571247" />
      <rect
         id="rect1227"
         height="0.23310681"
         width="4.998549"
         style="opacity:0.3;fill:#ffffff;stroke-width:0.46870297"
         y="52.881813"
         x="19.571247" />
      <rect
         id="rect1229"
         height="2.8338475"
         width="4.998549"
         style="fill:#7f7f7f;stroke-width:0.46870297"
         y="48.457352"
         x="19.571247" />
      <rect
         id="rect1231"
         height="0.23310681"
         width="4.998549"
         style="opacity:0.3;fill:#ffffff;stroke-width:0.46870297"
         y="52.881813"
         x="19.571247" />
      <ellipse
         ry="17.994932"
         rx="18.922392"
         id="circle1233"
         cy="31.376572"
         cx="22.070522"
         style="fill:#e6e6e6;stroke:#5e5e5e;stroke-width:0.18748119;stroke-miterlimit:10" />
      <path
         inkscape:connector-curvature="0"
         id="path1235"
         d="m 25.194616,21.924317 h -3.051999 v -2.902408 c 0,-0.03657 -0.03364,-0.06856 -0.07209,-0.06856 -0.03845,0 -0.0721,0.032 -0.0721,0.06856 v 2.902408 H 18.94643 c -0.03845,0 -0.0721,0.032 -0.0721,0.06856 0,0.03657 0.03364,0.06856 0.0721,0.06856 h 3.051998 v 2.902408 c 0,0.03657 0.03364,0.06856 0.0721,0.06856 0.03845,0 0.07209,-0.03199 0.07209,-0.06856 v -2.902408 h 3.051999 c 0.03845,0 0.07209,-0.03199 0.07209,-0.06856 0,-0.03657 -0.03364,-0.06856 -0.07209,-0.06856 z"
         style="fill:#ffffff;stroke-width:0.46870297" />
      <path
         inkscape:connector-curvature="0"
         id="path1237"
         d="m 7.0989066,30.389294 c 0,-0.365658 0.1201574,-0.676467 0.355666,-0.900432 0.2307023,-0.219395 0.5575305,-0.338234 0.9468405,-0.338234 0.2787653,0 0.5383053,0.0777 0.7882328,0.228536 0.033644,0.02285 0.052869,0.05942 0.052869,0.09142 0,0.05485 -0.048063,0.100556 -0.1105448,0.100556 -0.024032,0 -0.048063,-0.0046 -0.062482,-0.01828 -0.211477,-0.132551 -0.437373,-0.201112 -0.6680753,-0.201112 -0.663269,0 -1.0718042,0.406794 -1.0718042,1.037554 v 1.476343 c 0,0.630759 0.4085352,1.037554 1.0718042,1.037554 0.2307023,0 0.4565983,-0.0777 0.6680753,-0.210253 0.019225,-0.0091 0.033644,-0.01828 0.057676,-0.01828 0.052869,0 0.1153511,0.03656 0.1153511,0.105126 0,0.032 -0.019225,0.07313 -0.052869,0.09141 -0.2547338,0.155404 -0.5142738,0.228536 -0.7882328,0.228536 -0.3845037,0 -0.7161382,-0.118839 -0.9468405,-0.338234 -0.2355086,-0.223965 -0.355666,-0.530203 -0.355666,-0.900432 z"
         style="fill:#ffffff;stroke-width:0.46870297" />
      <path
         inkscape:connector-curvature="0"
         id="path1239"
         d="m 12.246451,31.929627 c 0,0.351946 -0.120157,0.639901 -0.341247,0.850154 -0.22109,0.214824 -0.528693,0.324521 -0.893971,0.324521 -0.365279,0 -0.668076,-0.109697 -0.893971,-0.324521 -0.22109,-0.210253 -0.3364411,-0.498208 -0.3364411,-0.850154 v -1.613465 c 0,-0.347375 0.1105448,-0.63533 0.3364411,-0.850154 0.225895,-0.214824 0.528692,-0.319951 0.893971,-0.319951 0.365279,0 0.672881,0.109698 0.893971,0.319951 0.22109,0.214824 0.341247,0.502779 0.341247,0.850154 z m -0.230702,-1.618036 c 0,-0.585052 -0.379697,-0.959851 -1.004516,-0.959851 -0.615207,0 -0.99971,0.374799 -0.99971,0.959851 v 1.622607 c 0,0.594194 0.379697,0.964422 0.99971,0.964422 0.620012,0 1.004516,-0.374799 1.004516,-0.964422 z"
         style="fill:#ffffff;stroke-width:0.46870297" />
      <path
         inkscape:connector-curvature="0"
         id="path1241"
         d="m 13.063522,29.255755 c 0,-0.05942 0.05767,-0.109698 0.115351,-0.109698 0.06248,0 0.115351,0.05028 0.115351,0.109698 v 3.734279 c 0,0.05942 -0.05287,0.109698 -0.115351,0.109698 -0.05768,0 -0.115351,-0.05028 -0.115351,-0.109698 z"
         style="fill:#ffffff;stroke-width:0.46870297" />
      <path
         inkscape:connector-curvature="0"
         id="path1243"
         d="m 14.471766,29.60313 v 3.386904 c 0,0.07313 -0.05287,0.109698 -0.115351,0.109698 -0.05767,0 -0.115351,-0.03657 -0.115351,-0.109698 V 29.28775 c 0,-0.0777 0.06729,-0.141693 0.148995,-0.141693 0.05768,0 0.110545,0.032 0.134577,0.0777 l 1.874456,3.4189 v -3.382335 c 0,-0.06399 0.03845,-0.114268 0.110545,-0.114268 0.06729,0 0.120157,0.05028 0.120157,0.114268 v 3.693144 c 0,0.0777 -0.06729,0.141692 -0.148995,0.141692 -0.05768,0 -0.105739,-0.02742 -0.134577,-0.0777 z"
         style="fill:#ffffff;stroke-width:0.46870297" />
      <path
         inkscape:connector-curvature="0"
         id="path1245"
         d="m 19.201163,33.044883 c -0.105738,0 -0.182639,-0.0777 -0.182639,-0.173687 v -3.492032 c 0,-0.100556 0.08171,-0.173687 0.182639,-0.173687 h 0.855521 c 0.629625,0 1.038161,0.38394 1.038161,0.973564 0,0.269672 -0.115352,0.521062 -0.336442,0.703891 -0.08171,0.06399 -0.16822,0.114268 -0.278765,0.155404 0.144189,0.05485 0.264346,0.118839 0.370085,0.210253 0.230702,0.196541 0.355666,0.466214 0.355666,0.749599 0,0.63533 -0.437373,1.046695 -1.119867,1.046695 z m 0.754589,-2.097961 c 0.509468,0 0.903584,-0.333663 0.903584,-0.767881 0,-0.475356 -0.29799,-0.767882 -0.807458,-0.767882 H 19.24442 v 1.535763 z m 0.134576,1.892279 c 0.278766,0 0.495049,-0.0777 0.653657,-0.223966 0.153801,-0.141692 0.235508,-0.361087 0.235508,-0.612476 0,-0.223966 -0.105738,-0.443361 -0.283571,-0.598765 -0.192252,-0.159975 -0.432567,-0.246819 -0.70172,-0.246819 h -0.744976 v 1.682026 z"
         style="fill:#ffffff;stroke-width:0.46870297" />
      <path
         inkscape:connector-curvature="0"
         id="path1247"
         d="m 22.219518,31.906773 -0.384504,1.115256 c -0.01923,0.05028 -0.06248,0.0777 -0.110545,0.0777 -0.05767,0 -0.110544,-0.05028 -0.110544,-0.109698 0,-0.0046 0,-0.01828 0.0048,-0.032 l 1.268862,-3.711426 c 0.01923,-0.05485 0.08171,-0.100556 0.144189,-0.100556 0.06248,0 0.120158,0.04114 0.144189,0.100556 l 1.268862,3.711426 c 0.0048,0.01828 0.0048,0.02743 0.0048,0.03657 0,0.05028 -0.04806,0.105127 -0.110544,0.105127 -0.04806,0 -0.09132,-0.02743 -0.110545,-0.0777 0,0 -0.16822,-0.498208 -0.379697,-1.119826 h -1.629335 z m 0.817071,-2.385916 -0.744976,2.175663 h 1.480339 z"
         style="fill:#ffffff;stroke-width:0.46870297" />
      <path
         inkscape:connector-curvature="0"
         id="path1249"
         d="m 25.209035,29.411159 h -1.03816 c -0.05768,0 -0.110545,-0.04571 -0.110545,-0.105126 0,-0.05942 0.05287,-0.105127 0.110545,-0.105127 h 2.311829 c 0.06248,0 0.110545,0.04571 0.110545,0.105127 0,0.05942 -0.04806,0.105126 -0.110545,0.105126 h -1.042967 v 3.578875 c 0,0.05942 -0.05767,0.109698 -0.115351,0.109698 -0.06248,0 -0.115351,-0.05028 -0.115351,-0.109698 z"
         style="fill:#ffffff;stroke-width:0.46870297" />
      <path
         inkscape:connector-curvature="0"
         id="path1251"
         d="m 27.799629,29.411159 h -1.038161 c -0.05767,0 -0.110544,-0.04571 -0.110544,-0.105126 0,-0.05942 0.05287,-0.105127 0.110544,-0.105127 h 2.311829 c 0.06248,0 0.110545,0.04571 0.110545,0.105127 0,0.05942 -0.04806,0.105126 -0.110545,0.105126 h -1.042966 v 3.578875 c 0,0.05942 -0.05768,0.109698 -0.115351,0.109698 -0.06248,0 -0.115351,-0.05028 -0.115351,-0.109698 z"
         style="fill:#ffffff;stroke-width:0.46870297" />
      <path
         inkscape:connector-curvature="0"
         id="path1253"
         d="m 29.808661,33.044883 c -0.105739,0 -0.182639,-0.0777 -0.182639,-0.173687 v -3.492032 c 0,-0.100556 0.08171,-0.173687 0.182639,-0.173687 h 1.677398 c 0.06248,0 0.110544,0.04571 0.110544,0.105126 0,0.05942 -0.04806,0.105127 -0.110544,0.105127 h -1.629335 v 1.540333 h 1.55724 c 0.06248,0 0.115351,0.04571 0.115351,0.105127 0,0.05485 -0.05287,0.105126 -0.115351,0.105126 h -1.55724 v 1.672885 h 1.672591 c 0.05768,0 0.110545,0.04571 0.110545,0.105126 0,0.05485 -0.05287,0.105127 -0.110545,0.105127 h -1.720654 z"
         style="fill:#ffffff;stroke-width:0.46870297" />
      <path
         inkscape:connector-curvature="0"
         id="path1255"
         d="m 33.374933,31.257731 h -0.81707 v 1.732303 c 0,0.05942 -0.05287,0.109698 -0.115351,0.109698 -0.05768,0 -0.115351,-0.05028 -0.115351,-0.109698 v -3.61087 c 0,-0.100556 0.08171,-0.173687 0.182639,-0.173687 h 0.985291 c 0.317215,0 0.586368,0.100556 0.77862,0.278814 0.201865,0.19197 0.307603,0.457072 0.307603,0.767881 0,0.301668 -0.105738,0.553057 -0.29799,0.735886 -0.158608,0.155405 -0.384504,0.246819 -0.64885,0.269673 l 0.956453,1.686596 c 0.0048,0.01828 0.0096,0.032 0.0096,0.05028 0,0.05028 -0.04806,0.109697 -0.110545,0.109697 -0.03845,0 -0.08171,-0.02285 -0.09613,-0.05485 z m -0.81707,-0.205683 c 0.124964,0 0.942034,0 0.942034,0 0.264346,0 0.485436,-0.07313 0.634431,-0.210253 0.144189,-0.137121 0.225896,-0.347375 0.225896,-0.594194 0,-0.25596 -0.08171,-0.470784 -0.235508,-0.617047 -0.148995,-0.146263 -0.370085,-0.219395 -0.624819,-0.219395 0,0 -0.86994,0 -0.942034,0 z"
         style="fill:#ffffff;stroke-width:0.46870297" />
      <path
         inkscape:connector-curvature="0"
         id="path1257"
         d="m 35.941497,31.31258 -1.139093,-2.006547 c -0.0096,-0.02285 -0.0096,-0.03199 -0.0096,-0.05028 0,-0.05485 0.03845,-0.109698 0.110545,-0.109698 0.05287,0 0.08651,0.02285 0.105738,0.05485 l 1.057386,1.869425 1.047773,-1.869425 c 0.01922,-0.03199 0.05287,-0.05485 0.105738,-0.05485 0.05768,0 0.110545,0.04571 0.110545,0.105127 0,0.0091 0,0.032 -0.0096,0.05485 l -1.143898,2.006547 v 1.677454 c 0,0.05942 -0.05287,0.109698 -0.110545,0.109698 -0.06248,0 -0.115351,-0.05028 -0.115351,-0.109698 V 31.31258 Z"
         style="fill:#ffffff;stroke-width:0.46870297" />
      <path
         inkscape:connector-curvature="0"
         id="path1259"
         d="m 13.183679,35.87416 c 0,-0.365658 0.120158,-0.676467 0.355666,-0.900432 0.230702,-0.219395 0.55753,-0.338234 0.946841,-0.338234 0.278765,0 0.538305,0.0777 0.788233,0.228536 0.03364,0.02285 0.05287,0.05942 0.05287,0.09141 0,0.05485 -0.04806,0.100556 -0.110545,0.100556 -0.02403,0 -0.04806,-0.0046 -0.06248,-0.01828 -0.211477,-0.132551 -0.437373,-0.201112 -0.668075,-0.201112 -0.66327,0 -1.071804,0.406794 -1.071804,1.037554 v 1.476343 c 0,0.63076 0.408535,1.037554 1.071804,1.037554 0.230702,0 0.456598,-0.0777 0.668075,-0.210253 0.01923,-0.0091 0.03364,-0.01828 0.05767,-0.01828 0.05287,0 0.115352,0.03657 0.115352,0.105126 0,0.032 -0.01922,0.07313 -0.05287,0.09142 -0.254734,0.155404 -0.514274,0.228536 -0.788233,0.228536 -0.384504,0 -0.716139,-0.118839 -0.946841,-0.338234 -0.235508,-0.223965 -0.355666,-0.530203 -0.355666,-0.900432 z"
         style="fill:#ffffff;stroke-width:0.46870297" />
      <path
         inkscape:connector-curvature="0"
         id="path1261"
         d="m 17.03833,36.742597 h -0.817071 v 1.732304 c 0,0.05942 -0.05287,0.109697 -0.115351,0.109697 -0.05768,0 -0.115352,-0.05028 -0.115352,-0.109697 V 34.86403 c 0,-0.100556 0.08171,-0.173687 0.18264,-0.173687 h 0.985291 c 0.317215,0 0.586368,0.100556 0.77862,0.278814 0.201864,0.19197 0.307603,0.457072 0.307603,0.767881 0,0.301668 -0.105739,0.553058 -0.297991,0.735886 -0.158607,0.155405 -0.384503,0.246819 -0.64885,0.269673 l 0.956453,1.686596 c 0.0048,0.01828 0.0096,0.032 0.0096,0.05028 0,0.05028 -0.04806,0.109698 -0.110545,0.109698 -0.03845,0 -0.08171,-0.02285 -0.09613,-0.05485 z m -0.817071,-0.205682 c 0.124963,0 0.942034,0 0.942034,0 0.264346,0 0.485436,-0.07313 0.634432,-0.210254 0.144188,-0.137121 0.225896,-0.347375 0.225896,-0.594194 0,-0.25596 -0.08171,-0.470784 -0.235509,-0.617047 -0.148996,-0.146263 -0.370085,-0.219395 -0.624819,-0.219395 0,0 -0.86994,0 -0.942034,0 z"
         style="fill:#ffffff;stroke-width:0.46870297" />
      <path
         inkscape:connector-curvature="0"
         id="path1263"
         d="m 20.234517,38.529749 c -0.08171,0 -0.148995,-0.06399 -0.148995,-0.141692 0,-0.032 0.0096,-0.05942 0.02884,-0.08227 l 1.437083,-1.919703 c 0.139383,-0.1874 0.307603,-0.470785 0.307603,-0.790735 0,-0.466214 -0.29799,-0.772452 -0.783426,-0.772452 -0.264346,0 -0.495049,0.03657 -0.764202,0.182829 -0.01922,0.0091 -0.03364,0.0091 -0.05287,0.0091 -0.05767,0 -0.110545,-0.032 -0.110545,-0.100556 0,-0.03656 0.02403,-0.0777 0.05768,-0.09141 0.336441,-0.164546 0.581562,-0.19197 0.86994,-0.19197 0.29799,0 0.552724,0.09141 0.730557,0.265101 0.177833,0.173688 0.278765,0.415936 0.278765,0.703892 0,0.379369 -0.206671,0.703891 -0.365278,0.909573 l -1.360182,1.819147 h 1.64856 c 0.06248,0 0.110544,0.04571 0.110544,0.105127 0,0.05485 -0.04806,0.100556 -0.110544,0.100556 h -1.773524 z"
         style="fill:#ffffff;stroke-width:0.46870297" />
      <path
         inkscape:connector-curvature="0"
         id="path1265"
         d="m 25.141747,37.505908 c 0,0.31995 -0.105739,0.585052 -0.31241,0.781593 -0.201864,0.19197 -0.490242,0.297097 -0.826683,0.297097 -0.33644,0 -0.620012,-0.105127 -0.821876,-0.297097 -0.201865,-0.196541 -0.31241,-0.466214 -0.31241,-0.781593 v -1.791723 c 0,-0.319951 0.110545,-0.594194 0.31241,-0.786165 0.201864,-0.19197 0.490242,-0.297096 0.821876,-0.297096 0.336441,0 0.624819,0.105126 0.826683,0.297096 0.206671,0.191971 0.31241,0.466214 0.31241,0.786165 z m -0.22109,-1.810006 c 0,-0.530204 -0.346053,-0.868437 -0.913196,-0.868437 -0.562337,0 -0.908391,0.333662 -0.908391,0.868437 v 1.823718 c 0,0.530203 0.346054,0.863866 0.908391,0.863866 0.567143,0 0.913196,-0.333663 0.913196,-0.863866 z"
         style="fill:#ffffff;stroke-width:0.46870297" />
      <path
         inkscape:connector-curvature="0"
         id="path1267"
         d="m 26.540379,36.6329 c -0.05768,0 -0.110545,-0.03657 -0.110545,-0.100556 0,-0.06399 0.05287,-0.100556 0.110545,-0.100556 h 0.0769 c 0.235508,0 0.461404,-0.0777 0.620012,-0.223965 0.16822,-0.146264 0.254734,-0.356517 0.254734,-0.56677 0,-0.502779 -0.288378,-0.818159 -0.778621,-0.818159 -0.264345,0 -0.480629,0.032 -0.773813,0.187399 -0.01923,0.0091 -0.03364,0.0091 -0.04806,0.0091 -0.05287,0 -0.110545,-0.04571 -0.110545,-0.105127 0,-0.03656 0.01922,-0.06399 0.05767,-0.08684 0.326829,-0.173688 0.576757,-0.201112 0.869941,-0.201112 0.29799,0 0.552723,0.09141 0.730557,0.274243 0.177833,0.182829 0.269152,0.434219 0.269152,0.740457 0,0.269673 -0.115351,0.521062 -0.322021,0.708462 -0.0769,0.06399 -0.163415,0.12798 -0.249928,0.169117 0.120158,0.05028 0.235509,0.118838 0.341247,0.210253 0.230702,0.196541 0.346054,0.475355 0.346054,0.772452 0,0.329092 -0.110545,0.603335 -0.317216,0.795305 -0.197058,0.1874 -0.48063,0.283385 -0.802652,0.283385 -0.346053,0 -0.644044,-0.06399 -0.913196,-0.196541 -0.03364,-0.01828 -0.05768,-0.05942 -0.05768,-0.100556 0,-0.05028 0.05287,-0.100556 0.110545,-0.100556 0.01923,0 0.03364,0.0046 0.05287,0.0091 0.254734,0.12798 0.490243,0.187399 0.807458,0.187399 0.552725,0 0.893972,-0.347374 0.893972,-0.882149 0,-0.237677 -0.09613,-0.466214 -0.278766,-0.630759 -0.177833,-0.159976 -0.413341,-0.242249 -0.672881,-0.242249 h -0.105739 z"
         style="fill:#ffffff;stroke-width:0.46870297" />
      <path
         inkscape:connector-curvature="0"
         id="path1269"
         d="m 18.177422,42.117766 c -0.05767,0 -0.110545,-0.03657 -0.110545,-0.100556 0,-0.06399 0.05287,-0.100556 0.110545,-0.100556 h 0.0769 c 0.235509,0 0.461405,-0.0777 0.620013,-0.223965 0.16822,-0.146263 0.254733,-0.356517 0.254733,-0.56677 0,-0.502779 -0.288377,-0.818159 -0.778619,-0.818159 -0.264347,0 -0.48063,0.03199 -0.773814,0.1874 -0.01922,0.0091 -0.03364,0.0091 -0.04806,0.0091 -0.05287,0 -0.110545,-0.04571 -0.110545,-0.105127 0,-0.03657 0.01923,-0.06399 0.05767,-0.08684 0.326828,-0.173688 0.576756,-0.201112 0.869941,-0.201112 0.297989,0 0.552724,0.09141 0.730557,0.274243 0.177833,0.182829 0.269152,0.434219 0.269152,0.740457 0,0.269673 -0.115351,0.521063 -0.322022,0.708462 -0.0769,0.06399 -0.163414,0.12798 -0.249927,0.169117 0.120157,0.05028 0.235509,0.118839 0.341247,0.210253 0.230702,0.196541 0.346053,0.475355 0.346053,0.772452 0,0.329092 -0.110544,0.603335 -0.317215,0.795306 -0.197058,0.187399 -0.48063,0.283384 -0.802652,0.283384 -0.346053,0 -0.644044,-0.06399 -0.913196,-0.196541 -0.03364,-0.01828 -0.05768,-0.05942 -0.05768,-0.100556 0,-0.05028 0.05287,-0.100555 0.110545,-0.100555 0.01922,0 0.03364,0.0046 0.05287,0.0091 0.254734,0.12798 0.490243,0.1874 0.807458,0.1874 0.552724,0 0.893972,-0.347375 0.893972,-0.88215 0,-0.237677 -0.09613,-0.466213 -0.278766,-0.630759 -0.177833,-0.159976 -0.413341,-0.242249 -0.672881,-0.242249 h -0.105739 z"
         style="fill:#ffffff;stroke-width:0.46870297" />
      <path
         inkscape:connector-curvature="0"
         id="path1271"
         d="m 28.539798,38.529749 c -0.08171,0 -0.148995,-0.06399 -0.148995,-0.141692 0,-0.032 0.0096,-0.05942 0.02884,-0.08227 l 1.437083,-1.919703 c 0.139382,-0.1874 0.307603,-0.470785 0.307603,-0.790735 0,-0.466214 -0.297991,-0.772452 -0.783427,-0.772452 -0.264346,0 -0.495048,0.03657 -0.764201,0.182829 -0.01923,0.0091 -0.03364,0.0091 -0.05287,0.0091 -0.05768,0 -0.110545,-0.032 -0.110545,-0.100556 0,-0.03656 0.02403,-0.0777 0.05768,-0.09141 0.33644,-0.164546 0.581562,-0.19197 0.869939,-0.19197 0.297991,0 0.552725,0.09141 0.730558,0.265101 0.177833,0.173688 0.278765,0.415936 0.278765,0.703892 0,0.379369 -0.206671,0.703891 -0.365279,0.909573 l -1.360182,1.819147 h 1.64856 c 0.06248,0 0.110545,0.04571 0.110545,0.105127 0,0.05485 -0.04806,0.100556 -0.110545,0.100556 h -1.773524 z"
         style="fill:#ffffff;stroke-width:0.46870297" />
      <path
         inkscape:connector-curvature="0"
         id="path1273"
         d="m 20.426769,44.069464 c -0.105738,0 -0.18264,-0.08227 -0.18264,-0.182829 0,-0.09141 0.08171,-0.173687 0.18264,-0.173687 0.100932,0 0.192252,0.08227 0.192252,0.173687 0,0.100556 -0.08651,0.182829 -0.192252,0.182829 z"
         style="fill:#ffffff;stroke-width:0.46870297" />
      <path
         inkscape:connector-curvature="0"
         id="path1275"
         d="m 23.690245,42.990774 c 0,0.31995 -0.105739,0.585052 -0.312409,0.781593 -0.201865,0.19197 -0.490243,0.297097 -0.826683,0.297097 -0.336442,0 -0.620013,-0.105127 -0.821877,-0.297097 -0.201865,-0.196541 -0.31241,-0.466213 -0.31241,-0.781593 v -1.791723 c 0,-0.319951 0.110545,-0.594194 0.31241,-0.786164 0.201864,-0.191971 0.490242,-0.297097 0.821877,-0.297097 0.33644,0 0.624818,0.105126 0.826683,0.297097 0.20667,0.19197 0.312409,0.466213 0.312409,0.786164 z m -0.225896,-1.810006 c 0,-0.530204 -0.346053,-0.868437 -0.913196,-0.868437 -0.562337,0 -0.908391,0.333662 -0.908391,0.868437 v 1.823718 c 0,0.530204 0.346054,0.863866 0.908391,0.863866 0.567143,0 0.913196,-0.333662 0.913196,-0.863866 z"
         style="fill:#ffffff;stroke-width:0.46870297" />
      <path
         inkscape:connector-curvature="0"
         id="path1277"
         d="m 24.175681,40.275765 c -0.0096,-0.032 -0.0096,-0.04571 -0.0096,-0.05485 0,-0.05028 0.03364,-0.105126 0.110545,-0.105126 0.05767,0 0.105738,0.032 0.115351,0.0777 l 1.134286,3.492031 1.143899,-3.492031 c 0.0096,-0.04571 0.05767,-0.0777 0.115351,-0.0777 0.0769,0 0.110545,0.05485 0.110545,0.105126 0,0.0091 0,0.02285 -0.0096,0.05485 l -1.215993,3.693143 c -0.01922,0.05942 -0.0769,0.100556 -0.139383,0.100556 -0.06248,0 -0.120157,-0.032 -0.144189,-0.100556 z"
         style="fill:#ffffff;stroke-width:0.46870297" />
      <path
         inkscape:connector-curvature="0"
         id="path1279"
         d="m 31.644667,12.289235 2.802071,1.695738 2.210896,1.778011 1.99942,2.46819 h -6.651915 c -0.201865,0 -0.365279,-0.155405 -0.365279,-0.347375 v -5.594564 z m -19.148288,0.242249 -2.8789727,1.416923 -2.6771075,2.545892 -1.7014292,1.736875 h 6.8970374 c 0.201864,0 0.365278,-0.155405 0.365278,-0.347375 v -5.352315 z"
         style="fill:#4d4d4d;stroke-width:0.46870297" />
      <path
         inkscape:connector-curvature="0"
         id="path1281"
         d="m 29.808661,48.457358 -5.238864,1.416924 v -0.991847 c 0,-0.28796 0.225896,-0.525633 0.528693,-0.557628 0.692106,-0.06399 2.018645,-0.260535 3.672011,-0.873007 1.77833,-0.653614 2.98471,-1.50834 3.417277,-1.846573 0.120157,-0.09141 0.269153,-0.137122 0.418148,-0.127981 l 2.446406,0.173688 z m -15.481083,0 5.24367,1.416924 v -0.991847 c 0,-0.28796 -0.225896,-0.525633 -0.528693,-0.557628 -0.692106,-0.06399 -2.018645,-0.260535 -3.672011,-0.873007 -1.77833,-0.653614 -2.98471,-1.50834 -3.417277,-1.846573 -0.120158,-0.09141 -0.269153,-0.137122 -0.418148,-0.127981 l -2.4464054,0.173688 z"
         style="fill:#333333;stroke-width:0.46870297" />
    </g>
  </g>
</svg>
