<?xml version="1.0" encoding="UTF-8" standalone="no"?>
<!-- Created with Inkscape (http://www.inkscape.org/) -->

<svg
   xmlns:dc="http://purl.org/dc/elements/1.1/"
   xmlns:cc="http://creativecommons.org/ns#"
   xmlns:rdf="http://www.w3.org/1999/02/22-rdf-syntax-ns#"
   xmlns:svg="http://www.w3.org/2000/svg"
   xmlns="http://www.w3.org/2000/svg"
   xmlns:sodipodi="http://sodipodi.sourceforge.net/DTD/sodipodi-0.dtd"
   xmlns:inkscape="http://www.inkscape.org/namespaces/inkscape"
   width="210mm"
   height="297mm"
   viewBox="0 0 210 297"
   version="1.1"
   id="svg1517"
   inkscape:version="0.92.5 (2060ec1f9f, 2020-04-08)"
   sodipodi:docname="coincell.svg">
  <defs
     id="defs1511" />
  <sodipodi:namedview
     id="base"
     pagecolor="#ffffff"
     bordercolor="#666666"
     borderopacity="1.0"
     inkscape:pageopacity="0.0"
     inkscape:pageshadow="2"
     inkscape:zoom="0.7"
     inkscape:cx="237.03591"
     inkscape:cy="700.52244"
     inkscape:document-units="mm"
     inkscape:current-layer="layer1"
     showgrid="false"
     showguides="false"
     inkscape:window-width="1920"
     inkscape:window-height="1001"
     inkscape:window-x="-9"
     inkscape:window-y="-9"
     inkscape:window-maximized="1" />
  <metadata
     id="metadata1514">
    <rdf:RDF>
      <cc:Work
         rdf:about="">
        <dc:format>image/svg+xml</dc:format>
        <dc:type
           rdf:resource="http://purl.org/dc/dcmitype/StillImage" />
        <dc:title />
      </cc:Work>
    </rdf:RDF>
  </metadata>
  <g
     inkscape:label="Layer 1"
     inkscape:groupmode="layer"
     id="layer1">
    <path
       class="cgfx__selected"
       display="none"
       d="m -42.21,2.36 c 0,20.46 14.56,37.51 33.88,41.38 v 6.46 c 0,0.28 0.22,0.5 0.5,0.5 H 7.83 c 0.28,0 0.5,-0.22 0.5,-0.5 V 43.74 C 27.65,39.87 42.21,22.82 42.21,2.36 c 0,0 0,-7 0,-7.22 0,-20.46 -14.56,-37.51 -33.88,-41.38 v -3.94 c 0,-0.29 -0.24,-0.53 -0.53,-0.53 H -7.8 c -0.29,0 -0.53,0.24 -0.53,0.53 v 3.94 c -19.32,3.87 -33.88,20.92 -33.88,41.38 0,0.22 0,7.22 0,7.22 z"
       id="path1215"
       inkscape:connector-curvature="0"
       style="display:none;fill:none;stroke:#3b8ed7;stroke-width:3;stroke-linecap:round;stroke-linejoin:round" />
    <polygon
       class="cgfx__breakdown"
       transform="scale(4)"
       display="none"
       style="display:none;opacity:0.7;fill:#ff0000;stroke:#f7e60b;stroke-miterlimit:10"
       points="-8.854,-7.513 -3.289,-5.371 -1.401,-10.527 2.415,-5.161 7.901,-7.299 5.471,-2.294 11.953,-0.565 5.126,1.63 8.332,8.197 2.59,5.053 -0.137,10.527 -2.24,4.375 -7.565,7.957 -6.133,2.443 -11.953,0.87 -5.945,-1.796 "
       id="polygon1283" />
    <path
       class="cgfx__hitarea"
       style="display:none;opacity:0;fill:#ff0000"
       display="none"
       d="m -42.21,2.36 c 0,20.46 14.56,37.51 33.88,41.38 v 6.46 c 0,0.28 0.22,0.5 0.5,0.5 H 7.83 c 0.28,0 0.5,-0.22 0.5,-0.5 V 43.74 C 27.65,39.87 42.21,22.82 42.21,2.36 c 0,0 0,-7 0,-7.22 0,-20.46 -14.56,-37.51 -33.88,-41.38 v -3.94 c 0,-0.29 -0.24,-0.53 -0.53,-0.53 H -7.8 c -0.29,0 -0.53,0.24 -0.53,0.53 v 3.94 c -19.32,3.87 -33.88,20.92 -33.88,41.38 0,0.22 0,7.22 0,7.22 z"
       id="path1285"
       inkscape:connector-curvature="0" />
    <g
       class="cgfx__terminal"
       id="g1293">
      <desc
         class="cgfx__terminalname"
         id="desc1287">Positive</desc>
      <desc
         class="cgfx__terminaltype"
         id="desc1289">breadboard</desc>
      <line
         class="cgfx__origin cgfx__direction cgfx__reference cgfx__debug"
         x1="0"
         y1="-60"
         x2="0"
         y2="-85"
         style="display:none;opacity:0.5;stroke:#ff0000;stroke-width:2;stroke-dasharray:10, 2, 3, 2, 3, 2, 3"
         display="none"
         id="line1291" />
    </g>
    <g
       class="cgfx__terminal"
       id="g1301">
      <desc
         class="cgfx__terminalname"
         id="desc1295">Negative</desc>
      <desc
         class="cgfx__terminaltype"
         id="desc1297">breadboard</desc>
      <line
         class="cgfx__origin cgfx__direction cgfx__reference cgfx__debug"
         x1="0"
         y1="60"
         x2="0"
         y2="85"
         style="display:none;opacity:0.5;stroke:#ff0000;stroke-width:2;stroke-dasharray:10, 2, 3, 2, 3, 2, 3"
         display="none"
         id="line1299" />
    </g>
    <g
       id="g1006"
       transform="translate(-3.0238095,0.75595238)">
      <g
         id="g1193"
         transform="translate(51.552666,5.955105)"
         class="cgfx__terminalred cgfx__wire-terminal">
        <line
           style="fill:none;stroke:#8c8c8c;stroke-width:2;stroke-linecap:round;stroke-miterlimit:10"
           id="line1175"
           y2="0"
           x2="0"
           y1="7.934"
           x1="0"
           stroke-miterlimit="10" />
        <line
           style="display:none;fill:none;stroke:#3b8ed7;stroke-width:2;stroke-linecap:round;stroke-linejoin:round;stroke-miterlimit:10"
           id="line1177"
           y2="0"
           x2="0"
           y1="7.934"
           x1="0"
           stroke-miterlimit="10"
           display="none"
           class="cgfx__selected" />
        <path
           style="fill:#af1c1c"
           inkscape:connector-curvature="0"
           id="path1179"
           d="m -2,2.72 c 0,-0.55 0.45,-1 1,-1 h 2 c 0.55,0 1,0.45 1,1 v 2.483 h -4 z" />
        <path
           inkscape:connector-curvature="0"
           id="path1181"
           d="m -2,2.72 c 0,-0.55 0.45,-1 1,-1 h 2 c 0.55,0 1,0.45 1,1 v 2.483 h -4 z"
           style="display:none;fill:#3b8ed7;stroke:none;stroke-miterlimit:10"
           display="none"
           class="cgfx__selected" />
        <path
           inkscape:connector-curvature="0"
           id="path1183"
           d="m -2,3.488 c 0,0 0.828,0.372 2,0.372 1.172,0 2,-0.372 2,-0.372 V 5.22 h -4 z"
           style="fill:#000000;fill-opacity:0.3" />
        <path
           style="fill:#af1c1c"
           inkscape:connector-curvature="0"
           id="path1185"
           d="m -3,5.22 c 0,-0.55 0.45,-1 1,-1 h 4 c 0.55,0 1,0.45 1,1 v 5.983 h -6 z" />
        <path
           inkscape:connector-curvature="0"
           id="path1187"
           d="m -3,5.22 c 0,-0.55 0.45,-1 1,-1 h 4 c 0.55,0 1,0.45 1,1 v 5.983 h -6 z"
           style="display:none;fill:#3b8ed7;stroke:none;stroke-miterlimit:10"
           display="none"
           class="cgfx__selected" />
        <path
           inkscape:connector-curvature="0"
           id="path1189"
           d="m -3,6.443 c 0,0 1.415,0.536 3,0.536 1.585,0 3,-0.536 3,-0.536 v 4.761 h -6 z"
           style="fill:#000000;fill-opacity:0.3" />
        <path
           inkscape:connector-curvature="0"
           id="path1191"
           d="m 2,4.22 v -1.5 c 0,-0.55 -0.45,-1 -1,-1 V 0 c 0,-0.552 -0.448,-1 -1,-1 -0.552,0 -1,0.448 -1,1 v 1.72 c -0.55,0 -1,0.45 -1,1 v 1.5 c -0.55,0 -1,0.45 -1,1 v 5.983 H 3 V 5.22 c 0,-0.55 -0.45,-1 -1,-1 z"
           display="none"
           style="display:none;opacity:0;fill:#ff0000"
           class="cgfx__hitarea" />
      </g>
      <g
         id="g1213"
         transform="rotate(180,25.776333,62.977553)"
         class="cgfx__terminalblack cgfx__wire-terminal">
        <line
           style="fill:none;stroke:#8c8c8c;stroke-width:2;stroke-linecap:round;stroke-miterlimit:10"
           id="line1195"
           y2="0"
           x2="0"
           y1="7.934"
           x1="0"
           stroke-miterlimit="10" />
        <line
           style="display:none;fill:none;stroke:#3b8ed7;stroke-width:2;stroke-linecap:round;stroke-linejoin:round;stroke-miterlimit:10"
           id="line1197"
           y2="0"
           x2="0"
           y1="7.934"
           x1="0"
           stroke-miterlimit="10"
           display="none"
           class="cgfx__selected" />
        <path
           style="fill:#333333"
           inkscape:connector-curvature="0"
           id="path1199"
           d="m -2,2.72 c 0,-0.55 0.45,-1 1,-1 h 2 c 0.55,0 1,0.45 1,1 v 2.483 h -4 z" />
        <path
           inkscape:connector-curvature="0"
           id="path1201"
           d="m -2,2.72 c 0,-0.55 0.45,-1 1,-1 h 2 c 0.55,0 1,0.45 1,1 v 2.483 h -4 z"
           style="display:none;fill:#3b8ed7;stroke:none;stroke-miterlimit:10"
           display="none"
           class="cgfx__selected" />
        <path
           inkscape:connector-curvature="0"
           id="path1203"
           d="m -2,3.488 c 0,0 0.828,0.372 2,0.372 1.172,0 2,-0.372 2,-0.372 V 5.22 h -4 z"
           style="fill:#000000;fill-opacity:0.3" />
        <path
           style="fill:#333333"
           inkscape:connector-curvature="0"
           id="path1205"
           d="m -3,5.22 c 0,-0.55 0.45,-1 1,-1 h 4 c 0.55,0 1,0.45 1,1 v 5.983 h -6 z" />
        <path
           inkscape:connector-curvature="0"
           id="path1207"
           d="m -3,5.22 c 0,-0.55 0.45,-1 1,-1 h 4 c 0.55,0 1,0.45 1,1 v 5.983 h -6 z"
           style="display:none;fill:#3b8ed7;stroke:none;stroke-miterlimit:10"
           display="none"
           class="cgfx__selected" />
        <path
           inkscape:connector-curvature="0"
           id="path1209"
           d="m -3,6.443 c 0,0 1.415,0.536 3,0.536 1.585,0 3,-0.536 3,-0.536 v 4.761 h -6 z"
           style="fill:#000000;fill-opacity:0.3" />
        <path
           inkscape:connector-curvature="0"
           id="path1211"
           d="m 2,4.22 v -1.5 c 0,-0.55 -0.45,-1 -1,-1 V 0 c 0,-0.552 -0.448,-1 -1,-1 -0.552,0 -1,0.448 -1,1 v 1.72 c -0.55,0 -1,0.45 -1,1 v 1.5 c -0.55,0 -1,0.45 -1,1 v 5.983 H 3 V 5.22 c 0,-0.55 -0.45,-1 -1,-1 z"
           display="none"
           style="display:none;opacity:0;fill:#ff0000"
           class="cgfx__hitarea" />
      </g>
      <path
         inkscape:connector-curvature="0"
         id="path1217"
         d="m 9.342666,68.315105 c 0,20.46 14.56,37.510005 33.88,41.380005 v 6.46 c 0,0.28 0.22,0.5 0.5,0.5 h 15.66 c 0.28,0 0.5,-0.22 0.5,-0.5 v -6.46 c 19.32,-3.87 33.88,-20.920005 33.88,-41.380005 0,0 0,-7 0,-7.22 0,-20.46 -14.56,-37.51 -33.88,-41.38 v -3.94 c 0,-0.29 -0.24,-0.53 -0.53,-0.53 h -15.6 c -0.29,0 -0.53,0.24 -0.53,0.53 v 3.94 c -19.32,3.87 -33.88,20.92 -33.88,41.38 0,0.22 0,7.22 0,7.22 z"
         style="fill:#333333" />
      <path
         inkscape:connector-curvature="0"
         id="path1219"
         d="m 22.082666,37.455105 c 7.39,-8.14 17.86,-14.75 29.47,-14.75 10.37,0 19.84,5.58 27.01,12.26"
         style="fill:none;stroke:#d3d3d3;stroke-width:0.30000001;stroke-miterlimit:10" />
      <rect
         id="rect1221"
         height="5.3899999"
         width="11.11"
         style="fill:#bfbfbf"
         y="17.955105"
         x="46.002666" />
      <rect
         id="rect1223"
         height="0.75999999"
         width="11.11"
         style="opacity:0.4;fill:#ffffff"
         y="22.575104"
         x="46.002666" />
      <rect
         id="rect1225"
         height="3.99"
         width="10.4"
         style="fill:#bfbfbf"
         y="110.52511"
         x="46.352665" />
      <rect
         id="rect1227"
         height="0.50999999"
         width="10.4"
         style="opacity:0.3;fill:#ffffff"
         y="114.0051"
         x="46.352665" />
      <rect
         id="rect1229"
         height="6.1999998"
         width="10.4"
         style="fill:#7f7f7f"
         y="104.3251"
         x="46.352665" />
      <rect
         id="rect1231"
         height="0.50999999"
         width="10.4"
         style="opacity:0.3;fill:#ffffff"
         y="114.0051"
         x="46.352665" />
      <circle
         id="circle1233"
         r="39.369999"
         cy="66.955109"
         cx="51.552666"
         style="fill:#bfbfbf;stroke:#5e5e5e;stroke-width:0.40000001;stroke-miterlimit:10" />
      <path
         inkscape:connector-curvature="0"
         id="path1235"
         d="m 58.052666,46.275105 h -6.35 v -6.35 c 0,-0.08 -0.07,-0.15 -0.15,-0.15 -0.08,0 -0.15,0.07 -0.15,0.15 v 6.35 h -6.35 c -0.08,0 -0.15,0.07 -0.15,0.15 0,0.08 0.07,0.15 0.15,0.15 h 6.35 v 6.35 c 0,0.08 0.07,0.15 0.15,0.15 0.08,0 0.15,-0.07 0.15,-0.15 v -6.35 h 6.35 c 0.08,0 0.15,-0.07 0.15,-0.15 0,-0.08 -0.07,-0.15 -0.15,-0.15 z"
         style="fill:#ffffff" />
      <path
         inkscape:connector-curvature="0"
         id="path1237"
         d="m 20.402666,64.795105 c 0,-0.8 0.25,-1.48 0.74,-1.97 0.48,-0.48 1.16,-0.74 1.97,-0.74 0.58,0 1.12,0.17 1.64,0.5 0.07,0.05 0.11,0.13 0.11,0.2 0,0.12 -0.1,0.22 -0.23,0.22 -0.05,0 -0.1,-0.01 -0.13,-0.04 -0.44,-0.29 -0.91,-0.44 -1.39,-0.44 -1.38,0 -2.23,0.89 -2.23,2.27 v 3.23 c 0,1.38 0.85,2.27 2.23,2.27 0.48,0 0.95,-0.17 1.39,-0.46 0.04,-0.02 0.07,-0.04 0.12,-0.04 0.11,0 0.24,0.08 0.24,0.23 0,0.07 -0.04,0.16 -0.11,0.2 -0.53,0.34 -1.07,0.5 -1.64,0.5 -0.8,0 -1.49,-0.26 -1.97,-0.74 -0.49,-0.49 -0.74,-1.16 -0.74,-1.97 z"
         style="fill:#ffffff" />
      <path
         inkscape:connector-curvature="0"
         id="path1239"
         d="m 31.112666,68.165105 c 0,0.77 -0.25,1.4 -0.71,1.86 -0.46,0.47 -1.1,0.71 -1.86,0.71 -0.76,0 -1.39,-0.24 -1.86,-0.71 -0.46,-0.46 -0.7,-1.09 -0.7,-1.86 v -3.53 c 0,-0.76 0.23,-1.39 0.7,-1.86 0.47,-0.47 1.1,-0.7 1.86,-0.7 0.76,0 1.4,0.24 1.86,0.7 0.46,0.47 0.71,1.1 0.71,1.86 z m -0.48,-3.54 c 0,-1.28 -0.79,-2.1 -2.09,-2.1 -1.28,0 -2.08,0.82 -2.08,2.1 v 3.55 c 0,1.3 0.79,2.11 2.08,2.11 1.29,0 2.09,-0.82 2.09,-2.11 z"
         style="fill:#ffffff" />
      <path
         inkscape:connector-curvature="0"
         id="path1241"
         d="m 32.812666,62.315105 c 0,-0.13 0.12,-0.24 0.24,-0.24 0.13,0 0.24,0.11 0.24,0.24 v 8.17 c 0,0.13 -0.11,0.24 -0.24,0.24 -0.12,0 -0.24,-0.11 -0.24,-0.24 z"
         style="fill:#ffffff" />
      <path
         inkscape:connector-curvature="0"
         id="path1243"
         d="m 35.742666,63.075105 v 7.41 c 0,0.16 -0.11,0.24 -0.24,0.24 -0.12,0 -0.24,-0.08 -0.24,-0.24 v -8.1 c 0,-0.17 0.14,-0.31 0.31,-0.31 0.12,0 0.23,0.07 0.28,0.17 l 3.9,7.48 v -7.4 c 0,-0.14 0.08,-0.25 0.23,-0.25 0.14,0 0.25,0.11 0.25,0.25 v 8.08 c 0,0.17 -0.14,0.31 -0.31,0.31 -0.12,0 -0.22,-0.06 -0.28,-0.17 z"
         style="fill:#ffffff" />
      <path
         inkscape:connector-curvature="0"
         id="path1245"
         d="m 45.582666,70.605105 c -0.22,0 -0.38,-0.17 -0.38,-0.38 v -7.64 c 0,-0.22 0.17,-0.38 0.38,-0.38 h 1.78 c 1.31,0 2.16,0.84 2.16,2.13 0,0.59 -0.24,1.14 -0.7,1.54 -0.17,0.14 -0.35,0.25 -0.58,0.34 0.3,0.12 0.55,0.26 0.77,0.46 0.48,0.43 0.74,1.02 0.74,1.64 0,1.39 -0.91,2.29 -2.33,2.29 z m 1.57,-4.59 c 1.06,0 1.88,-0.73 1.88,-1.68 0,-1.04 -0.62,-1.68 -1.68,-1.68 h -1.68 v 3.36 z m 0.28,4.14 c 0.58,0 1.03,-0.17 1.36,-0.49 0.32,-0.31 0.49,-0.79 0.49,-1.34 0,-0.49 -0.22,-0.97 -0.59,-1.31 -0.4,-0.35 -0.9,-0.54 -1.46,-0.54 h -1.55 v 3.68 z"
         style="fill:#ffffff" />
      <path
         inkscape:connector-curvature="0"
         id="path1247"
         d="m 51.862666,68.115105 -0.8,2.44 c -0.04,0.11 -0.13,0.17 -0.23,0.17 -0.12,0 -0.23,-0.11 -0.23,-0.24 0,-0.01 0,-0.04 0.01,-0.07 l 2.64,-8.12 c 0.04,-0.12 0.17,-0.22 0.3,-0.22 0.13,0 0.25,0.09 0.3,0.22 l 2.64,8.12 c 0.01,0.04 0.01,0.06 0.01,0.08 0,0.11 -0.1,0.23 -0.23,0.23 -0.1,0 -0.19,-0.06 -0.23,-0.17 0,0 -0.35,-1.09 -0.79,-2.45 h -3.39 z m 1.7,-5.22 -1.55,4.76 h 3.08 z"
         style="fill:#ffffff" />
      <path
         inkscape:connector-curvature="0"
         id="path1249"
         d="m 58.082666,62.655105 h -2.16 c -0.12,0 -0.23,-0.1 -0.23,-0.23 0,-0.13 0.11,-0.23 0.23,-0.23 h 4.81 c 0.13,0 0.23,0.1 0.23,0.23 0,0.13 -0.1,0.23 -0.23,0.23 h -2.17 v 7.83 c 0,0.13 -0.12,0.24 -0.24,0.24 -0.13,0 -0.24,-0.11 -0.24,-0.24 z"
         style="fill:#ffffff" />
      <path
         inkscape:connector-curvature="0"
         id="path1251"
         d="m 63.472666,62.655105 h -2.16 c -0.12,0 -0.23,-0.1 -0.23,-0.23 0,-0.13 0.11,-0.23 0.23,-0.23 h 4.81 c 0.13,0 0.23,0.1 0.23,0.23 0,0.13 -0.1,0.23 -0.23,0.23 h -2.17 v 7.83 c 0,0.13 -0.12,0.24 -0.24,0.24 -0.13,0 -0.24,-0.11 -0.24,-0.24 z"
         style="fill:#ffffff" />
      <path
         inkscape:connector-curvature="0"
         id="path1253"
         d="m 67.652666,70.605105 c -0.22,0 -0.38,-0.17 -0.38,-0.38 v -7.64 c 0,-0.22 0.17,-0.38 0.38,-0.38 h 3.49 c 0.13,0 0.23,0.1 0.23,0.23 0,0.13 -0.1,0.23 -0.23,0.23 h -3.39 v 3.37 h 3.24 c 0.13,0 0.24,0.1 0.24,0.23 0,0.12 -0.11,0.23 -0.24,0.23 h -3.24 v 3.66 h 3.48 c 0.12,0 0.23,0.1 0.23,0.23 0,0.12 -0.11,0.23 -0.23,0.23 h -3.58 z"
         style="fill:#ffffff" />
      <path
         inkscape:connector-curvature="0"
         id="path1255"
         d="m 75.072666,66.695105 h -1.7 v 3.79 c 0,0.13 -0.11,0.24 -0.24,0.24 -0.12,0 -0.24,-0.11 -0.24,-0.24 v -7.9 c 0,-0.22 0.17,-0.38 0.38,-0.38 h 2.05 c 0.66,0 1.22,0.22 1.62,0.61 0.42,0.42 0.64,1 0.64,1.68 0,0.66 -0.22,1.21 -0.62,1.61 -0.33,0.34 -0.8,0.54 -1.35,0.59 l 1.99,3.69 c 0.01,0.04 0.02,0.07 0.02,0.11 0,0.11 -0.1,0.24 -0.23,0.24 -0.08,0 -0.17,-0.05 -0.2,-0.12 z m -1.7,-0.45 c 0.26,0 1.96,0 1.96,0 0.55,0 1.01,-0.16 1.32,-0.46 0.3,-0.3 0.47,-0.76 0.47,-1.3 0,-0.56 -0.17,-1.03 -0.49,-1.35 -0.31,-0.32 -0.77,-0.48 -1.3,-0.48 0,0 -1.81,0 -1.96,0 z"
         style="fill:#ffffff" />
      <path
         inkscape:connector-curvature="0"
         id="path1257"
         d="m 80.412666,66.815105 -2.37,-4.39 c -0.02,-0.05 -0.02,-0.07 -0.02,-0.11 0,-0.12 0.08,-0.24 0.23,-0.24 0.11,0 0.18,0.05 0.22,0.12 l 2.2,4.09 2.18,-4.09 c 0.04,-0.07 0.11,-0.12 0.22,-0.12 0.12,0 0.23,0.1 0.23,0.23 0,0.02 0,0.07 -0.02,0.12 l -2.38,4.39 v 3.67 c 0,0.13 -0.11,0.24 -0.23,0.24 -0.13,0 -0.24,-0.11 -0.24,-0.24 v -3.67 z"
         style="fill:#ffffff" />
      <path
         inkscape:connector-curvature="0"
         id="path1259"
         d="m 33.062666,76.795105 c 0,-0.8 0.25,-1.48 0.74,-1.97 0.48,-0.48 1.16,-0.74 1.97,-0.74 0.58,0 1.12,0.17 1.64,0.5 0.07,0.05 0.11,0.13 0.11,0.2 0,0.12 -0.1,0.22 -0.23,0.22 -0.05,0 -0.1,-0.01 -0.13,-0.04 -0.44,-0.29 -0.91,-0.44 -1.39,-0.44 -1.38,0 -2.23,0.89 -2.23,2.27 v 3.23 c 0,1.38 0.85,2.27 2.23,2.27 0.48,0 0.95,-0.17 1.39,-0.46 0.04,-0.02 0.07,-0.04 0.12,-0.04 0.11,0 0.24,0.08 0.24,0.23 0,0.07 -0.04,0.16 -0.11,0.2 -0.53,0.34 -1.07,0.5 -1.64,0.5 -0.8,0 -1.49,-0.26 -1.97,-0.74 -0.49,-0.49 -0.74,-1.16 -0.74,-1.97 z"
         style="fill:#ffffff" />
      <path
         inkscape:connector-curvature="0"
         id="path1261"
         d="m 41.082666,78.695105 h -1.7 v 3.79 c 0,0.13 -0.11,0.24 -0.24,0.24 -0.12,0 -0.24,-0.11 -0.24,-0.24 v -7.9 c 0,-0.22 0.17,-0.38 0.38,-0.38 h 2.05 c 0.66,0 1.22,0.22 1.62,0.61 0.42,0.42 0.64,1 0.64,1.68 0,0.66 -0.22,1.21 -0.62,1.61 -0.33,0.34 -0.8,0.54 -1.35,0.59 l 1.99,3.69 c 0.01,0.04 0.02,0.07 0.02,0.11 0,0.11 -0.1,0.24 -0.23,0.24 -0.08,0 -0.17,-0.05 -0.2,-0.12 z m -1.7,-0.45 c 0.26,0 1.96,0 1.96,0 0.55,0 1.01,-0.16 1.32,-0.46 0.3,-0.3 0.47,-0.76 0.47,-1.3 0,-0.56 -0.17,-1.03 -0.49,-1.35 -0.31,-0.32 -0.77,-0.48 -1.3,-0.48 0,0 -1.81,0 -1.96,0 z"
         style="fill:#ffffff" />
      <path
         inkscape:connector-curvature="0"
         id="path1263"
         d="m 47.732666,82.605105 c -0.17,0 -0.31,-0.14 -0.31,-0.31 0,-0.07 0.02,-0.13 0.06,-0.18 l 2.99,-4.2 c 0.29,-0.41 0.64,-1.03 0.64,-1.73 0,-1.02 -0.62,-1.69 -1.63,-1.69 -0.55,0 -1.03,0.08 -1.59,0.4 -0.04,0.02 -0.07,0.02 -0.11,0.02 -0.12,0 -0.23,-0.07 -0.23,-0.22 0,-0.08 0.05,-0.17 0.12,-0.2 0.7,-0.36 1.21,-0.42 1.81,-0.42 0.62,0 1.15,0.2 1.52,0.58 0.37,0.38 0.58,0.91 0.58,1.54 0,0.83 -0.43,1.54 -0.76,1.99 l -2.83,3.98 h 3.43 c 0.13,0 0.23,0.1 0.23,0.23 0,0.12 -0.1,0.22 -0.23,0.22 h -3.69 z"
         style="fill:#ffffff" />
      <path
         inkscape:connector-curvature="0"
         id="path1265"
         d="m 57.942666,80.365105 c 0,0.7 -0.22,1.28 -0.65,1.71 -0.42,0.42 -1.02,0.65 -1.72,0.65 -0.7,0 -1.29,-0.23 -1.71,-0.65 -0.42,-0.43 -0.65,-1.02 -0.65,-1.71 v -3.92 c 0,-0.7 0.23,-1.3 0.65,-1.72 0.42,-0.42 1.02,-0.65 1.71,-0.65 0.7,0 1.3,0.23 1.72,0.65 0.43,0.42 0.65,1.02 0.65,1.72 z m -0.46,-3.96 c 0,-1.16 -0.72,-1.9 -1.9,-1.9 -1.17,0 -1.89,0.73 -1.89,1.9 v 3.99 c 0,1.16 0.72,1.89 1.89,1.89 1.18,0 1.9,-0.73 1.9,-1.89 z"
         style="fill:#ffffff" />
      <path
         inkscape:connector-curvature="0"
         id="path1267"
         d="m 60.852666,78.455105 c -0.12,0 -0.23,-0.08 -0.23,-0.22 0,-0.14 0.11,-0.22 0.23,-0.22 h 0.16 c 0.49,0 0.96,-0.17 1.29,-0.49 0.35,-0.32 0.53,-0.78 0.53,-1.24 0,-1.1 -0.6,-1.79 -1.62,-1.79 -0.55,0 -1,0.07 -1.61,0.41 -0.04,0.02 -0.07,0.02 -0.1,0.02 -0.11,0 -0.23,-0.1 -0.23,-0.23 0,-0.08 0.04,-0.14 0.12,-0.19 0.68,-0.38 1.2,-0.44 1.81,-0.44 0.62,0 1.15,0.2 1.52,0.6 0.37,0.4 0.56,0.95 0.56,1.62 0,0.59 -0.24,1.14 -0.67,1.55 -0.16,0.14 -0.34,0.28 -0.52,0.37 0.25,0.11 0.49,0.26 0.71,0.46 0.48,0.43 0.72,1.04 0.72,1.69 0,0.72 -0.23,1.32 -0.66,1.74 -0.41,0.41 -1,0.62 -1.67,0.62 -0.72,0 -1.34,-0.14 -1.9,-0.43 -0.07,-0.04 -0.12,-0.13 -0.12,-0.22 0,-0.11 0.11,-0.22 0.23,-0.22 0.04,0 0.07,0.01 0.11,0.02 0.53,0.28 1.02,0.41 1.68,0.41 1.15,0 1.86,-0.76 1.86,-1.93 0,-0.52 -0.2,-1.02 -0.58,-1.38 -0.37,-0.35 -0.86,-0.53 -1.4,-0.53 h -0.22 z"
         style="fill:#ffffff" />
      <path
         inkscape:connector-curvature="0"
         id="path1269"
         d="m 43.452666,90.455105 c -0.12,0 -0.23,-0.08 -0.23,-0.22 0,-0.14 0.11,-0.22 0.23,-0.22 h 0.16 c 0.49,0 0.96,-0.17 1.29,-0.49 0.35,-0.32 0.53,-0.78 0.53,-1.24 0,-1.1 -0.6,-1.79 -1.62,-1.79 -0.55,0 -1,0.07 -1.61,0.41 -0.04,0.02 -0.07,0.02 -0.1,0.02 -0.11,0 -0.23,-0.1 -0.23,-0.23 0,-0.08 0.04,-0.14 0.12,-0.19 0.68,-0.38 1.2,-0.44 1.81,-0.44 0.62,0 1.15,0.2 1.52,0.6 0.37,0.4 0.56,0.95 0.56,1.62 0,0.59 -0.24,1.14 -0.67,1.55 -0.16,0.14 -0.34,0.28 -0.52,0.37 0.25,0.11 0.49,0.26 0.71,0.46 0.48,0.43 0.72,1.04 0.72,1.69 0,0.72 -0.23,1.32 -0.66,1.74 -0.41,0.41 -1,0.62 -1.67,0.62 -0.72,0 -1.34,-0.14 -1.9,-0.43 -0.07,-0.04 -0.12,-0.13 -0.12,-0.22 0,-0.11 0.11,-0.22 0.23,-0.22 0.04,0 0.07,0.01 0.11,0.02 0.53,0.28 1.02,0.41 1.68,0.41 1.15,0 1.86,-0.76 1.86,-1.93 0,-0.52 -0.2,-1.02 -0.58,-1.38 -0.37,-0.35 -0.86,-0.53 -1.4,-0.53 h -0.22 z"
         style="fill:#ffffff" />
      <path
         inkscape:connector-curvature="0"
         id="path1271"
         d="m 65.012666,82.605105 c -0.17,0 -0.31,-0.14 -0.31,-0.31 0,-0.07 0.02,-0.13 0.06,-0.18 l 2.99,-4.2 c 0.29,-0.41 0.64,-1.03 0.64,-1.73 0,-1.02 -0.62,-1.69 -1.63,-1.69 -0.55,0 -1.03,0.08 -1.59,0.4 -0.04,0.02 -0.07,0.02 -0.11,0.02 -0.12,0 -0.23,-0.07 -0.23,-0.22 0,-0.08 0.05,-0.17 0.12,-0.2 0.7,-0.36 1.21,-0.42 1.81,-0.42 0.62,0 1.15,0.2 1.52,0.58 0.37,0.38 0.58,0.91 0.58,1.54 0,0.83 -0.43,1.54 -0.76,1.99 l -2.83,3.98 h 3.43 c 0.13,0 0.23,0.1 0.23,0.23 0,0.12 -0.1,0.22 -0.23,0.22 h -3.69 z"
         style="fill:#ffffff" />
      <path
         inkscape:connector-curvature="0"
         id="path1273"
         d="m 48.132666,94.725105 c -0.22,0 -0.38,-0.18 -0.38,-0.4 0,-0.2 0.17,-0.38 0.38,-0.38 0.21,0 0.4,0.18 0.4,0.38 0,0.22 -0.18,0.4 -0.4,0.4 z"
         style="fill:#ffffff" />
      <path
         inkscape:connector-curvature="0"
         id="path1275"
         d="m 54.922666,92.365105 c 0,0.7 -0.22,1.28 -0.65,1.71 -0.42,0.42 -1.02,0.65 -1.72,0.65 -0.7,0 -1.29,-0.23 -1.71,-0.65 -0.42,-0.43 -0.65,-1.02 -0.65,-1.71 v -3.92 c 0,-0.7 0.23,-1.3 0.65,-1.72 0.42,-0.42 1.02,-0.65 1.71,-0.65 0.7,0 1.3,0.23 1.72,0.65 0.43,0.42 0.65,1.02 0.65,1.72 z m -0.47,-3.96 c 0,-1.16 -0.72,-1.9 -1.9,-1.9 -1.17,0 -1.89,0.73 -1.89,1.9 v 3.99 c 0,1.16 0.72,1.89 1.89,1.89 1.18,0 1.9,-0.73 1.9,-1.89 z"
         style="fill:#ffffff" />
      <path
         inkscape:connector-curvature="0"
         id="path1277"
         d="m 55.932666,86.425105 c -0.02,-0.07 -0.02,-0.1 -0.02,-0.12 0,-0.11 0.07,-0.23 0.23,-0.23 0.12,0 0.22,0.07 0.24,0.17 l 2.36,7.64 2.38,-7.64 c 0.02,-0.1 0.12,-0.17 0.24,-0.17 0.16,0 0.23,0.12 0.23,0.23 0,0.02 0,0.05 -0.02,0.12 l -2.53,8.08 c -0.04,0.13 -0.16,0.22 -0.29,0.22 -0.13,0 -0.25,-0.07 -0.3,-0.22 z"
         style="fill:#ffffff" />
      <path
         inkscape:connector-curvature="0"
         id="path1279"
         d="m 71.472666,25.195105 5.83,3.71 4.6,3.89 4.16,5.4 h -13.84 c -0.42,0 -0.76,-0.34 -0.76,-0.76 v -12.24 z m -39.84,0.53 -5.99,3.1 -5.57,5.57 -3.54,3.8 h 14.35 c 0.42,0 0.76,-0.34 0.76,-0.76 v -11.71 z"
         style="fill:#333333" />
      <path
         inkscape:connector-curvature="0"
         id="path1281"
         d="m 67.652666,104.32511 -10.9,3.1 v -2.17 c 0,-0.63001 0.47,-1.15 1.1,-1.22 1.44,-0.14 4.2,-0.57001 7.64,-1.91 3.7,-1.43 6.21,-3.300005 7.11,-4.040005 0.25,-0.2 0.56,-0.3 0.87,-0.28 l 5.09,0.38 z m -32.21,0 10.91,3.1 v -2.17 c 0,-0.63001 -0.47,-1.15 -1.1,-1.22 -1.44,-0.14 -4.2,-0.57001 -7.64,-1.91 -3.7,-1.43 -6.21,-3.300005 -7.11,-4.040005 -0.25,-0.2 -0.56,-0.3 -0.87,-0.28 l -5.09,0.38 z"
         style="fill:#333333" />
    </g>
  </g>
</svg>
