<?xml version="1.0" encoding="UTF-8" standalone="no"?>
<!-- Created with Inkscape (http://www.inkscape.org/) -->

<svg
   xmlns:dc="http://purl.org/dc/elements/1.1/"
   xmlns:cc="http://creativecommons.org/ns#"
   xmlns:rdf="http://www.w3.org/1999/02/22-rdf-syntax-ns#"
   xmlns:svg="http://www.w3.org/2000/svg"
   xmlns="http://www.w3.org/2000/svg"
   xmlns:sodipodi="http://sodipodi.sourceforge.net/DTD/sodipodi-0.dtd"
   xmlns:inkscape="http://www.inkscape.org/namespaces/inkscape"
   width="210mm"
   height="297mm"
   viewBox="0 0 210 297"
   version="1.1"
   id="svg2367"
   inkscape:version="0.92.5 (2060ec1f9f, 2020-04-08)"
   sodipodi:docname="LM35Temperature Sensor.svg">
  <defs
     id="defs2361" />
  <sodipodi:namedview
     id="base"
     pagecolor="#ffffff"
     bordercolor="#666666"
     borderopacity="1.0"
     inkscape:pageopacity="0.0"
     inkscape:pageshadow="2"
     inkscape:zoom="1.4"
     inkscape:cx="-8.66486"
     inkscape:cy="938.5386"
     inkscape:document-units="mm"
     inkscape:current-layer="layer1"
     showgrid="false"
     inkscape:window-width="1920"
     inkscape:window-height="1001"
     inkscape:window-x="-9"
     inkscape:window-y="-9"
     inkscape:window-maximized="1">
    <inkscape:grid
       type="xygrid"
       id="grid5858" />
  </sodipodi:namedview>
  <metadata
     id="metadata2364">
    <rdf:RDF>
      <cc:Work
         rdf:about="">
        <dc:format>image/svg+xml</dc:format>
        <dc:type
           rdf:resource="http://purl.org/dc/dcmitype/StillImage" />
        <dc:title />
      </cc:Work>
    </rdf:RDF>
  </metadata>
  <g
     inkscape:label="Layer 1"
     inkscape:groupmode="layer"
     id="layer1">
    <g
       id="g5868">
      <path
         sodipodi:nodetypes="cssc"
         inkscape:connector-curvature="0"
         id="path1168"
         d="M 29.293155,56.985119 29.147367,35.63445 c -0.01126,-1.649379 -3.525858,-1.657124 -3.525858,-3.190936 v -4.786397"
         style="fill:none;stroke:#8c8c8c;stroke-width:1.7648567;stroke-linecap:round;stroke-miterlimit:10" />
      <path
         sodipodi:nodetypes="cssc"
         inkscape:connector-curvature="0"
         id="path1170"
         d="M 10.961309,56.796131 10.80501,35.541722 c -0.01213,-1.649372 3.546081,-1.672542 3.546081,-3.206348 V 27.56439"
         style="fill:none;stroke:#8c8c8c;stroke-width:1.7648567;stroke-linecap:round;stroke-miterlimit:10" />
      <path
         sodipodi:nodetypes="cc"
         inkscape:connector-curvature="0"
         id="path1172"
         d="M 20.032738,56.985119 20.01558,22.377315"
         style="fill:none;stroke:#8c8c8c;stroke-width:1.7648567;stroke-linecap:round;stroke-miterlimit:10" />
      <path
         inkscape:connector-curvature="0"
         id="path1182"
         d="m 31.134262,28.623539 c 0.535466,-0.51641 0.838532,-1.079058 0.838532,-1.672542 V 10.772808 c 0,-2.5126701 -5.303983,-4.5474734 -11.850627,-4.5474734 -6.546584,0 -11.8505675,2.0348033 -11.8505675,4.5474734 v 16.178189 c 0,0.593484 0.3030662,1.156132 0.8385323,1.672542 z"
         style="fill:#333333;stroke-width:0.88242835" />
      <path
         inkscape:connector-curvature="0"
         id="path1184"
         d="M 29.669314,13.01571 V 27.4674 H 10.625581 V 13.01571 h 19.043733 m 1.515449,-1.156139 H 9.1101318 V 28.623539 H 31.184763 Z"
         style="fill:#595959;stroke-width:0.88242835" />
      <path
         inkscape:connector-curvature="0"
         id="path1186"
         d="m 10.453794,11.859565 -0.01,-0.57036 c -0.414181,-0.354548 -0.6465807,-0.724509 -0.6465807,-1.08677 0,-1.5954676 4.4149497,-3.3913281 10.3351777,-3.3913281 5.910116,0 10.335178,1.7881543 10.335178,3.3913281 0,0.362261 -0.2324,0.724516 -0.646581,1.08677 l 0.01,0.508698 1.353775,0.03084 c 0.50513,-0.508697 0.798084,-1.055932 0.798084,-1.626292 0,-2.51267 -5.303924,-4.5474733 -11.850568,-4.5474733 -6.546584,0 -11.8505675,2.0348033 -11.8505675,4.5474733 0,0.585772 0.3030662,1.14072 0.8283615,1.657123 z"
         style="fill:#595959;stroke-width:0.88242835" />
      <text
         transform="scale(0.75272972,1.3284981)"
         id="text2349"
         y="16.015072"
         x="18.18977"
         style="font-style:normal;font-weight:normal;font-size:6.07886028px;line-height:1.25;font-family:sans-serif;letter-spacing:0px;word-spacing:0px;fill:#ffffff;fill-opacity:1;stroke:none;stroke-width:1.13978636"
         xml:space="preserve"><tspan
           style="stroke-width:1.13978636"
           y="16.015072"
           x="18.18977"
           id="tspan2347"
           sodipodi:role="line">LM35</tspan></text>
    </g>
  </g>
</svg>
