<?xml version="1.0" encoding="UTF-8" standalone="no"?>
<!-- Created with Inkscape (http://www.inkscape.org/) -->

<svg
   xmlns:dc="http://purl.org/dc/elements/1.1/"
   xmlns:cc="http://creativecommons.org/ns#"
   xmlns:rdf="http://www.w3.org/1999/02/22-rdf-syntax-ns#"
   xmlns:svg="http://www.w3.org/2000/svg"
   xmlns="http://www.w3.org/2000/svg"
   xmlns:sodipodi="http://sodipodi.sourceforge.net/DTD/sodipodi-0.dtd"
   xmlns:inkscape="http://www.inkscape.org/namespaces/inkscape"
   width="210mm"
   height="297mm"
   viewBox="0 0 210 297"
   version="1.1"
   id="svg4700"
   inkscape:version="0.92.5 (2060ec1f9f, 2020-04-08)"
   sodipodi:docname="Photoresistor.svg">
  <defs
     id="defs4694" />
  <sodipodi:namedview
     id="base"
     pagecolor="#ffffff"
     bordercolor="#666666"
     borderopacity="1.0"
     inkscape:pageopacity="0.0"
     inkscape:pageshadow="2"
     inkscape:zoom="1.4"
     inkscape:cx="60.312976"
     inkscape:cy="929.66857"
     inkscape:document-units="mm"
     inkscape:current-layer="layer1"
     showgrid="false"
     inkscape:window-width="1920"
     inkscape:window-height="1001"
     inkscape:window-x="-9"
     inkscape:window-y="-9"
     inkscape:window-maximized="1">
    <inkscape:grid
       type="xygrid"
       id="grid5269" />
  </sodipodi:namedview>
  <metadata
     id="metadata4697">
    <rdf:RDF>
      <cc:Work
         rdf:about="">
        <dc:format>image/svg+xml</dc:format>
        <dc:type
           rdf:resource="http://purl.org/dc/dcmitype/StillImage" />
        <dc:title></dc:title>
      </cc:Work>
    </rdf:RDF>
  </metadata>
  <g
     inkscape:label="Layer 1"
     inkscape:groupmode="layer"
     id="layer1">
    <g
       id="g5277">
      <path
         sodipodi:nodetypes="csssssc"
         inkscape:connector-curvature="0"
         id="path3198"
         d="M 12.284226,61.142857 11.935967,28.246066 C 11.90393,25.219869 9.0342333,20.93821 9.0342333,16.281358 c 0,-4.668582 3.5713647,-9.2198619 7.9746957,-9.2198619 4.403331,0 7.974696,4.0116959 7.974696,9.2081319 0,5.196437 -2.921599,8.504383 -2.901734,11.976438 l 0.188988,33.032417"
         style="fill:none;stroke:#8c8c8c;stroke-width:2.18185902;stroke-linecap:round;stroke-miterlimit:10" />
      <ellipse
         id="ellipse3204"
         ry="10.69388"
         rx="11.667812"
         cy="16.116465"
         cx="17.386906"
         style="fill:#b4622b;stroke-width:1.04162991" />
      <ellipse
         id="ellipse3206"
         ry="9.089798"
         rx="10.145924"
         cy="16.116465"
         cx="17.386906"
         style="fill:#dbddaf;stroke-width:1.04162991" />
      <ellipse
         ry="1.069388"
         rx="1.0145924"
         id="circle3208"
         cy="16.084385"
         cx="9.5238132"
         style="fill:#cecba7;stroke-width:1.04162991" />
      <ellipse
         ry="1.069388"
         rx="1.0145924"
         id="circle3210"
         cy="16.148546"
         cx="25.249996"
         style="fill:#cecba7;stroke-width:1.04162991" />
      <path
         inkscape:connector-curvature="0"
         id="path3212"
         d="m 22.669371,23.726748 c 0,-0.737878 -0.568172,-1.336735 -1.26824,-1.336735 h -8.350096 c -0.700069,0 -1.26824,-0.598857 -1.26824,-1.336735 0,-0.737878 0.568171,-1.336735 1.26824,-1.336735 h 8.350096 c 0.700068,0 1.26824,-0.598857 1.26824,-1.336735 0,-0.737878 -0.568172,-1.336735 -1.26824,-1.336735 h -8.350096 c -0.700069,0 -1.26824,-0.598857 -1.26824,-1.336735 0,-0.737878 0.568171,-1.336735 1.26824,-1.336735 h 8.350096 c 0.700068,0 1.26824,-0.598857 1.26824,-1.336735 0,-0.737878 -0.568172,-1.336735 -1.26824,-1.336735 h -8.350096 c -0.700069,0 -1.26824,-0.598857 -1.26824,-1.336735 0,-0.7378776 0.568171,-1.3367349 1.26824,-1.3367349 h 8.350096 c 0.700068,0 1.26824,-0.5988573 1.26824,-1.336735"
         style="fill:none;stroke:#b4622b;stroke-width:1.56244493;stroke-miterlimit:10" />
    </g>
  </g>
</svg>
