<?xml version="1.0" encoding="UTF-8" standalone="no"?>
<!-- Created with Inkscape (http://www.inkscape.org/) -->

<svg
   xmlns:dc="http://purl.org/dc/elements/1.1/"
   xmlns:cc="http://creativecommons.org/ns#"
   xmlns:rdf="http://www.w3.org/1999/02/22-rdf-syntax-ns#"
   xmlns:svg="http://www.w3.org/2000/svg"
   xmlns="http://www.w3.org/2000/svg"
   xmlns:sodipodi="http://sodipodi.sourceforge.net/DTD/sodipodi-0.dtd"
   xmlns:inkscape="http://www.inkscape.org/namespaces/inkscape"
   width="210mm"
   height="297mm"
   viewBox="0 0 210 297"
   version="1.1"
   id="svg2028"
   inkscape:version="0.92.5 (2060ec1f9f, 2020-04-08)"
   sodipodi:docname="Potentiometer Above.svg">
  <defs
     id="defs2022" />
  <sodipodi:namedview
     id="base"
     pagecolor="#ffffff"
     bordercolor="#666666"
     borderopacity="1.0"
     inkscape:pageopacity="0.0"
     inkscape:pageshadow="2"
     inkscape:zoom="0.35"
     inkscape:cx="-70"
     inkscape:cy="560"
     inkscape:document-units="mm"
     inkscape:current-layer="layer1"
     showgrid="false"
     inkscape:window-width="1920"
     inkscape:window-height="1001"
     inkscape:window-x="-9"
     inkscape:window-y="-9"
     inkscape:window-maximized="1" />
  <metadata
     id="metadata2025">
    <rdf:RDF>
      <cc:Work
         rdf:about="">
        <dc:format>image/svg+xml</dc:format>
        <dc:type
           rdf:resource="http://purl.org/dc/dcmitype/StillImage" />
        <dc:title></dc:title>
      </cc:Work>
    </rdf:RDF>
  </metadata>
  <g
     inkscape:label="Layer 1"
     inkscape:groupmode="layer"
     id="layer1">
    <g
       transform="matrix(0.1480999,0,0,0.14964972,-108.2477,26.269674)"
       id="g2577">
      <path
         style="fill:none;stroke:#132b3a;stroke-width:6.52247953;stroke-miterlimit:10"
         d="m 955.36553,47.489859 c 0.19374,-0.175669 0.43592,-0.30742 0.62966,-0.483088 1.84054,-1.66885 3.53577,-3.469451 5.23101,-5.270051 L 950.522,31.504037 c 0.48435,-0.527005 1.06558,-1.05401 1.54993,-1.581015 l 13.02909,7.685491 c 1.79211,-2.064104 3.48734,-4.128207 5.08571,-6.280144 l -11.86665,-9.003004 c 0.43592,-0.570923 0.8234,-1.185762 1.30776,-1.800601 l 13.94936,6.236227 c 1.50149,-2.239772 3.05142,-4.435626 4.40761,-6.719315 l -13.07753,-7.729409 c 0.38748,-0.614839 0.62966,-1.273595 0.96871,-1.932352 l 14.67589,4.699129 c 1.21088,-2.327606 2.42176,-4.743046 3.43891,-7.158486 L 969.89612,1.6404137 c 0.24217,-0.65875639 0.53278,-1.36142988 0.77496,-2.02018628 L 985.83133,2.738341 c 0.92027,-2.50327427 1.69523,-4.9626315 2.37333,-7.5098229 l -14.6759,-4.6991289 c 0.19374,-0.7026732 0.38749,-1.4053472 0.53279,-2.0641032 l 15.54773,1.449264 c 0.58122,-2.547192 0.92027,-5.1383 1.30775,-7.685491 l -15.16024,-3.118114 c 0.0969,-0.702673 0.24217,-1.449264 0.29061,-2.10802 l 15.49929,-0.175669 c 0.24218,-2.591108 0.38748,-5.182217 0.43592,-7.773325 l -15.45086,-1.449264 c 0,-0.702674 -0.0969,-1.405347 -0.1453,-2.151938 l 15.40242,-1.844518 c -0.14531,-2.591108 -0.24218,-5.226134 -0.53279,-7.773325 l -15.54773,0.131751 c -0.0969,-0.702674 -0.19374,-1.405347 -0.29061,-2.10802 l 15.11181,-3.513368 c -0.43592,-2.591108 -1.01714,-5.1383 -1.6468,-7.641574 l -15.45086,1.888435 c -0.19374,-0.702674 -0.38748,-1.405347 -0.53279,-2.064103 l 14.57903,-5.1383 c -0.77497,-2.459358 -1.69524,-4.962632 -2.66394,-7.421989 l -15.01494,3.513367 c -0.29062,-0.702673 -0.53279,-1.36143 -0.77497,-2.020186 l 13.70719,-6.631481 c -1.11401,-2.41544 -2.3249,-4.743046 -3.63265,-7.070652 l -14.43371,5.094383 c -0.38749,-0.614839 -0.77497,-1.229679 -1.11402,-1.888435 l 12.73848,-8.036828 c -1.40462,-2.239772 -2.76081,-4.523461 -4.40761,-6.719315 l -13.80405,6.631481 c -0.43592,-0.570923 -0.96871,-1.141845 -1.40463,-1.712767 l 11.57604,-9.354341 c -1.69524,-2.064104 -3.43891,-4.172124 -5.27945,-6.192314 l -12.78692,8.080749 c -0.58122,-0.439171 -1.16244,-0.966176 -1.69523,-1.537098 l 10.36515,-10.540101 c -1.01714,-0.92226 -1.88898,-1.97627 -2.90612,-2.89853 -1.01714,-0.92226 -2.13115,-1.75668 -3.19673,-2.63503 l -11.62446,9.39826 c -0.62966,-0.48309 -1.16245,-0.96617 -1.74367,-1.40534 l 8.91209,-11.59412 c -2.17959,-1.71276 -4.45605,-3.24986 -6.82938,-4.78696 l -10.31671,10.49619 c -0.62966,-0.39526 -1.25932,-0.87835 -1.88898,-1.2736 l 7.31373,-12.51637 c -2.37333,-1.44927 -4.89197,-2.67894 -7.4106,-3.99646 l -8.86366,11.5502 c -0.67809,-0.35134 -1.35619,-0.70268 -2.08272,-1.01009 l 5.6185,-13.0873 c -2.56707,-1.18576 -5.13414,-2.28369 -7.79808,-3.29378 l -7.31373,12.42854 c -0.77497,-0.26351 -1.5015,-0.48309 -2.22803,-0.70268 l 3.87483,-13.6143 c -2.71238,-0.87834 -5.42475,-1.75668 -8.13713,-2.45935 l -5.66693,13.21904 c -0.77496,-0.17567 -1.54993,-0.35133 -2.27646,-0.48309 l 2.08272,-14.00955 c -2.80925,-0.61484 -5.61849,-1.05401 -8.42774,-1.49318 l -3.87482,13.70213 c -0.77497,-0.0878 -1.59837,-0.21958 -2.3249,-0.2635 l 0.19374,-14.1413 c -2.85768,-0.30742 -5.71536,-0.43917 -8.57304,-0.48309 l -2.03428,13.96563 c -0.77497,0 -1.54993,-0.0878 -2.37333,-0.13175 l -1.59837,-14.00955 c -2.85768,0.0439 -5.71536,0.17567 -8.57304,0.39525 l -0.19375,14.05347 c -0.77496,0.0878 -1.54992,0.17567 -2.32489,0.26351 l -3.4389,-13.74605 c -2.85769,0.30742 -5.66693,0.65875 -8.47618,1.18576 l 1.59836,14.09738 c -0.77496,0.17567 -1.54992,0.35134 -2.27645,0.48309 l -5.18258,-13.30688 c -2.80925,0.61484 -5.57006,1.36143 -8.28243,2.15194 l 3.4389,13.74605 c -0.72653,0.21959 -1.45306,0.43917 -2.22802,0.70267 l -6.92625,-12.69204 c -2.66394,0.92226 -5.27944,1.97627 -7.89495,3.11812 l 5.18258,13.30688 c -0.72653,0.30742 -1.40463,0.57092 -2.13116,0.87834 l -8.52461,-11.85762 c -2.51863,1.22968 -4.98883,2.59111 -7.4106,3.99646 l 6.92625,12.60421 c -0.62966,0.39525 -1.30775,0.74659 -1.98585,1.18576 l -9.92923,-10.75969 c -2.42177,1.40535 -4.74666,2.89853 -7.02312,4.52346 l 8.47618,11.8137 c -0.58123,0.43917 -1.16245,0.96617 -1.74367,1.40534 l -11.33386,-9.66176 c -1.93741,1.58102 -3.92326,3.03028 -5.81223,4.74305 -0.19375,0.17567 -0.33905,0.39525 -0.53279,0.57092 l 10.0261,10.847525 c -0.53279,0.483088 -1.06557,1.05401 -1.54993,1.581015 l -12.44787,-8.38816 c -1.93741,1.93235 -3.82638,3.90862 -5.57005,5.9288 l 11.33385,9.661763 c -0.43591,0.570922 -0.92027,1.097928 -1.35619,1.66885 l -13.51344,-6.982818 c -1.69524,2.151938 -3.24517,4.347792 -4.69822,6.543647 l 12.54474,8.388165 c -0.38749,0.614839 -0.8234,1.185761 -1.21089,1.8006 l -14.38528,-5.489636 c -1.35618,2.283689 -2.56707,4.699129 -3.72951,7.070652 l 13.51344,6.982818 c -0.33905,0.658756 -0.72653,1.273595 -0.9687,1.932352 l -14.86964,-3.908622 c -1.06557,2.459358 -1.98584,4.874798 -2.80924,7.378072 l 14.28841,5.489637 c -0.24218,0.658756 -0.33905,1.36143 -0.58123,2.020186 l -15.30555,-2.283689 c -0.72653,2.503274 -1.45306,5.094383 -1.98585,7.597657 l 15.01494,3.952539 c -0.1453,0.658756 -0.19374,1.405347 -0.33904,2.064103 l -15.54773,-0.658756 c -0.43592,2.591108 -0.6781,5.182217 -0.92027,7.773325 l 15.40242,2.283689 c -0.0484,0.658756 -0.0969,1.405347 -0.0969,2.10802 l -15.54773,1.010093 c -0.0484,2.591109 0.0484,5.226135 0.19374,7.817243 l 15.4993,0.614839 c 0.0484,0.658757 0.0484,1.36143 0.0969,2.108021 l -15.30556,2.72286 c 0.24218,2.591108 0.77497,5.182217 1.25932,7.729408 l 15.49929,-1.05401 c 0.14531,0.658756 0.33905,1.36143 0.43592,2.064103 l -14.77276,4.3477922 c 0.58122,2.5471914 1.25932,5.0943828 2.08272,7.59765713 l 15.30555,-2.72285973 c 0.24217,0.6587564 0.48435,1.3175128 0.72653,1.9762692 L 752.3248,4.7146102 c 0.96871,2.4593572 1.93741,4.9187144 3.09986,7.2902378 l 14.8212,-4.3038755 c 0.29061,0.6148393 0.62966,1.2735957 0.96871,1.8445179 L 757.9433,16.923562 c 1.25931,2.371523 2.66394,4.611295 4.117,6.894984 l 14.1431,-5.884891 c 0.38748,0.61484 0.72653,1.185762 1.16245,1.756684 l -12.25413,8.739501 c 1.54993,2.195855 3.2936,4.303876 4.98883,6.367979 l 13.22284,-7.334155 c 0.48435,0.527006 0.87183,1.141845 1.35619,1.66885 l -10.99482,9.96918 c 1.79211,1.976269 3.82639,3.908621 5.81224,5.797056 l 12.20569,-8.695584 c 0.29061,0.263502 0.48435,0.527005 0.77497,0.790508 0.29061,0.263502 0.58122,0.43917 0.87183,0.702673 l -9.59019,11.067107 c 1.93742,1.844518 4.02013,3.645119 6.24816,5.313969 l 10.99481,-9.96918 c 0.58122,0.439171 1.25931,0.790507 1.84054,1.229678 l -8.08869,11.989367 c 2.32489,1.581015 4.64978,3.16203 7.02311,4.52346 l 9.63862,-11.111024 c 0.62966,0.395254 1.35619,0.702673 1.93742,1.05401 l -6.49033,12.823791 c 2.51863,1.317513 5.03727,2.547191 7.60434,3.732953 l 8.13713,-12.033284 c 0.67809,0.263503 1.35618,0.61484 2.03428,0.878342 l -4.7951,13.482548 c 2.66395,1.010093 5.32789,1.932352 8.04026,2.810694 l 6.5872,-12.911625 c 0.72653,0.219585 1.40462,0.483088 2.17959,0.658756 l -3.00299,13.877801 c 2.76081,0.746591 5.57006,1.273596 8.37931,1.888435 l 4.79509,-13.394713 c 0.72653,0.131751 1.50149,0.30742 2.27646,0.395254 l -1.16245,14.05347 c 2.80925,0.43917 5.66693,0.834424 8.52461,1.141844 l 3.00299,-13.877801 c 0.77496,0.08783 1.50149,0.04392 2.32489,0.08783 l 0.6781,14.053469 c 2.85768,0.131752 5.7638,0.219586 8.62148,0.175669 l 1.11401,-14.097387 c 0.77497,0 1.50149,-0.04392 2.32489,-0.08783 l 2.51864,13.965635 c 2.90612,-0.175668 5.71536,-0.439171 8.57305,-0.834424 l -0.72653,-14.097387 c 0.77496,-0.08783 1.54993,-0.175669 2.27645,-0.30742 l 4.35918,13.614299 c 2.85768,-0.483088 5.61849,-1.141844 8.37931,-1.800601 l -2.51864,-13.877801 c 0.77497,-0.175669 1.50149,-0.30742 2.22802,-0.527005 l 6.05441,12.955542 c 2.71238,-0.790508 5.47319,-1.624932 8.13713,-2.547191 l -4.31074,-13.482548 c 0.6781,-0.263502 1.40463,-0.570922 2.13116,-0.878342 l 7.70121,12.252869 c 2.6155,-1.05401 5.23101,-2.10802 7.79808,-3.381616 l -6.05441,-13.043377 c 0.67809,-0.351336 1.35618,-0.702673 1.98584,-1.097927 l 9.25114,11.374527 c 2.42177,-1.317513 4.89197,-2.766777 7.21686,-4.259958 l -7.70121,-12.252869 c 0.62966,-0.395254 1.25932,-0.790507 1.84054,-1.229678 l 10.65576,10.276599 c 2.22803,-1.581015 4.40762,-3.293782 6.53877,-5.050465 l -9.25114,-11.286693 c 0.58122,-0.439171 1.16245,-0.878342 1.74367,-1.405347 z"
         id="path1150"
         inkscape:connector-curvature="0" />
      <path
         style="fill:#132b3a;stroke-width:6.52247953"
         d="m 805.94267,47.182439 c -2.42177,2.459357 -18.01793,8.871253 -26.3488,1.317513 -8.33087,-7.55374 -1.16245,-21.695044 1.50149,-23.846982 l 56.8146,-42.555663 c 2.71237,-2.195854 6.97468,-2.10802 9.54175,0.219586 l 5.18257,4.699129 c 2.56707,2.327606 2.66395,6.1923098 0.24218,8.6516671 z"
         id="path1152"
         inkscape:connector-curvature="0" />
    </g>
  </g>
</svg>
