<?xml version="1.0" encoding="UTF-8" standalone="no"?>
<!-- Created with Inkscape (http://www.inkscape.org/) -->

<svg
   xmlns:dc="http://purl.org/dc/elements/1.1/"
   xmlns:cc="http://creativecommons.org/ns#"
   xmlns:rdf="http://www.w3.org/1999/02/22-rdf-syntax-ns#"
   xmlns:svg="http://www.w3.org/2000/svg"
   xmlns="http://www.w3.org/2000/svg"
   xmlns:sodipodi="http://sodipodi.sourceforge.net/DTD/sodipodi-0.dtd"
   xmlns:inkscape="http://www.inkscape.org/namespaces/inkscape"
   width="210mm"
   height="297mm"
   viewBox="0 0 210 297"
   version="1.1"
   id="svg1836"
   inkscape:version="0.92.5 (2060ec1f9f, 2020-04-08)"
   sodipodi:docname="rbgled.svg">
  <defs
     id="defs1830" />
  <sodipodi:namedview
     id="base"
     pagecolor="#ffffff"
     bordercolor="#666666"
     borderopacity="1.0"
     inkscape:pageopacity="0.0"
     inkscape:pageshadow="2"
     inkscape:zoom="1.28"
     inkscape:cx="170.10836"
     inkscape:cy="976.37552"
     inkscape:document-units="mm"
     inkscape:current-layer="layer1"
     showgrid="false"
     inkscape:window-width="1920"
     inkscape:window-height="1001"
     inkscape:window-x="-9"
     inkscape:window-y="-9"
     inkscape:window-maximized="1" />
  <metadata
     id="metadata1833">
    <rdf:RDF>
      <cc:Work
         rdf:about="">
        <dc:format>image/svg+xml</dc:format>
        <dc:type
           rdf:resource="http://purl.org/dc/dcmitype/StillImage" />
        <dc:title />
      </cc:Work>
    </rdf:RDF>
  </metadata>
  <g
     inkscape:label="Layer 1"
     inkscape:groupmode="layer"
     id="layer1">
    <g
       id="g886"
       transform="matrix(0.76640579,0,0,0.77081075,0.58346696,0.64986907)">
      <path
         sodipodi:nodetypes="cssc"
         style="fill:none;stroke:#8c8c8c;stroke-width:1.96127295;stroke-linecap:round;stroke-miterlimit:10"
         d="M 3.5566567,65.817341 V 33.000475 c 0,-2.459647 9.9256283,-5.899155 9.9256283,-8.158831 v -3.689471"
         id="path1086"
         inkscape:connector-curvature="0" />
      <path
         sodipodi:nodetypes="cssc"
         style="fill:none;stroke:#8c8c8c;stroke-width:1.96127295;stroke-linecap:round;stroke-miterlimit:10"
         d="M 13.285262,65.571909 13.174513,32.000618 c -0.0052,-1.569764 3.193129,-4.73932 3.193129,-6.159117 v -4.1894"
         id="path1088"
         inkscape:connector-curvature="0" />
      <path
         sodipodi:nodetypes="cssc"
         style="fill:none;stroke:#8c8c8c;stroke-width:1.96127295;stroke-linecap:round;stroke-miterlimit:10"
         d="m 32.299478,65.940057 0.11075,-32.939582 c 0.0083,-2.45963 -9.790979,-5.899155 -9.790979,-8.158831 v -3.689471"
         id="path1090"
         inkscape:connector-curvature="0" />
      <path
         sodipodi:nodetypes="cssc"
         style="fill:none;stroke:#8c8c8c;stroke-width:1.96127295;stroke-linecap:round;stroke-miterlimit:10"
         d="m 22.903121,65.817341 -0.11075,-33.816723 c -0.0051,-1.569764 -3.058479,-4.73932 -3.058479,-6.159117 v -4.1894"
         id="path1092"
         inkscape:connector-curvature="0" />
      <g
         transform="matrix(0.96178572,0,0,0.99985671,17.983442,36.120028)"
         id="g1108">
        <path
           d="m 2.69,-16.916 c -0.172,0 -0.311,-0.136 -0.311,-0.303 v -0.656 c 0,-0.166 -0.093,-0.404 -0.207,-0.528 l -1.039,-1.131 c -0.114,-0.124 -0.207,-0.362 -0.207,-0.528 v -1.926 c 0,-0.166 0.103,-0.396 0.228,-0.51 l 0.998,-0.91 c 0.125,-0.114 0.227,-0.343 0.227,-0.51 v -0.577 c 0,-0.166 0.14,-0.303 0.31,-0.303 H 3.56 c 0.172,0 0.311,0.136 0.311,0.303 v 1.152 c 0,0.166 -0.089,0.408 -0.197,0.537 l -0.907,1.078 c -0.108,0.129 -0.196,0.37 -0.196,0.537 l -0.001,0.566 c 0,0.166 0.088,0.408 0.196,0.536 l 1.264,1.496 c 0.107,0.129 0.196,0.37 0.196,0.536 v 0.839 c 0,0.166 -0.14,0.303 -0.309,0.303 z"
           id="path1104"
           inkscape:connector-curvature="0"
           style="fill:#8c8c8c" />
        <path
           d="m -2.874,-16.916 c 0.171,0 0.31,-0.136 0.31,-0.303 v -0.656 c 0,-0.166 0.094,-0.404 0.207,-0.528 l 1.039,-1.131 c 0.114,-0.124 0.207,-0.362 0.207,-0.528 v -1.926 c 0,-0.166 0.141,-0.303 0.311,-0.303 h 0.66 c 0.171,0 0.411,-0.093 0.536,-0.207 l 1.015,-0.927 c 0.124,-0.114 0.226,-0.343 0.226,-0.51 v -0.56 c 0,-0.166 -0.14,-0.303 -0.31,-0.303 h -5.069 c -0.171,0 -0.31,0.136 -0.31,0.303 v 1.152 c 0,0.166 0.089,0.408 0.196,0.537 l 0.907,1.078 c 0.108,0.129 0.197,0.37 0.197,0.537 l 10e-4,0.566 c 0,0.166 -0.088,0.408 -0.197,0.536 l -1.263,1.496 c -0.108,0.129 -0.197,0.37 -0.197,0.536 v 0.839 c 0,0.166 0.141,0.303 0.311,0.303 z"
           id="path1106"
           inkscape:connector-curvature="0"
           style="fill:#8c8c8c" />
      </g>
      <path
         class="cgfx__background"
         d="M 24.542821,17.902639 V 9.6438223 c 0,-3.7594608 -2.923829,-6.7990262 -6.540143,-6.7990262 -3.616315,0 -6.540144,3.0395654 -6.540144,6.7990262 v 8.2588167 2.029709 3.369517 c 1.327265,1.139837 3.750965,1.909726 6.540144,1.909726 4.203003,0 7.607725,-1.73975 7.607725,-3.879444 0,-0.229967 0,-1.149835 0,-1.399799 0,-0.739894 -0.394332,-1.429795 -1.067582,-2.029709 z"
         id="path1110"
         inkscape:connector-curvature="0"
         style="opacity:0;fill:#ffffff;stroke-width:0.98063648" />
      <path
         class="cgfx__basecolor"
         d="M 24.542821,17.902639 V 9.6438223 c 0,-3.7594608 -2.923829,-6.7990262 -6.540143,-6.7990262 -3.616315,0 -6.540144,3.0395654 -6.540144,6.7990262 v 8.2588167 2.029709 3.369517 c 1.327265,1.139837 3.750965,1.909726 6.540144,1.909726 4.203003,0 7.607725,-1.73975 7.607725,-3.879444 0,-0.229967 0,-1.149835 0,-1.399799 0,-0.739894 -0.394332,-1.429795 -1.067582,-2.029709 z"
         id="path1112"
         inkscape:connector-curvature="0"
         style="opacity:0;fill:#000000;stroke-width:0.98063648" />
      <path
         style="opacity:0.01000001;fill:#000000;stroke-width:0.98063648"
         d="m 18.002678,16.972772 c 3.616314,0 6.540143,1.329809 6.540143,2.959576 v -2.029709 c -1.327265,-1.169833 -3.750965,-1.959719 -6.540143,-1.959719 -2.789179,0 -5.212879,0.789886 -6.540144,1.959719 v 2.029709 c 0,-1.639765 2.923829,-2.959576 6.540144,-2.959576 z"
         id="path1114"
         inkscape:connector-curvature="0" />
      <path
         class="cgfx__highlightborderback"
         style="opacity:0;fill:#ffffff;fill-opacity:0.3;stroke-width:0.98063648"
         d="m 18.002678,16.972772 c 3.616314,0 6.540143,1.329809 6.540143,2.959576 v -2.029709 c -1.327265,-1.169833 -3.750965,-1.959719 -6.540143,-1.959719 -2.789179,0 -5.212879,0.789886 -6.540144,1.959719 v 2.029709 c 0,-1.639765 2.923829,-2.959576 6.540144,-2.959576 z"
         id="path1116"
         inkscape:connector-curvature="0" />
      <path
         style="opacity:0.1;fill:#ffffff;stroke-width:0.98063648"
         d="m 24.542821,17.902639 v 2.029709 c 0,1.639765 -2.933447,2.959576 -6.540143,2.959576 -3.616315,0 -6.540144,-1.32981 -6.540144,-2.959576 v 2.029709 c 1.327265,1.169832 3.750965,1.959719 6.540144,1.959719 4.203003,0 7.607725,-1.789743 7.607725,-3.989428 0,-0.739894 -0.394332,-1.429795 -1.067582,-2.029709 z"
         id="path1118"
         inkscape:connector-curvature="0" />
      <path
         d="M 24.542821,17.902639 V 9.6438223 c 0,-3.7594608 -2.923829,-6.7990262 -6.540143,-6.7990262 -3.616315,0 -6.540144,3.0395654 -6.540144,6.7990262 v 8.2588167 2.029709 3.369517 c 1.327265,1.139837 3.750965,1.909726 6.540144,1.909726 4.203003,0 7.607725,-1.73975 7.607725,-3.879444 0,-0.229967 0,-1.149835 0,-1.399799 0,-0.739894 -0.394332,-1.429795 -1.067582,-2.029709 z"
         id="path1120"
         inkscape:connector-curvature="0"
         style="fill:none;stroke:#888888;stroke-width:0.14709547" />
      <path
         d="m 24.542821,17.902639 v 2.029709 c 0,1.639765 -2.933447,2.959576 -6.540143,2.959576 -3.616315,0 -6.540144,-1.32981 -6.540144,-2.959576 v 2.029709 c 1.327265,1.169832 3.750965,1.959719 6.540144,1.959719 4.203003,0 7.607725,-1.789743 7.607725,-3.989428 0,-0.739894 -0.394332,-1.429795 -1.067582,-2.029709 z"
         id="path1122"
         inkscape:connector-curvature="0"
         style="fill:none;stroke:#888888;stroke-width:0.14709547" />
    </g>
  </g>
</svg>
