<?xml version="1.0" encoding="UTF-8" standalone="no"?>
<!-- Created with Inkscape (http://www.inkscape.org/) -->

<svg
   xmlns:dc="http://purl.org/dc/elements/1.1/"
   xmlns:cc="http://creativecommons.org/ns#"
   xmlns:rdf="http://www.w3.org/1999/02/22-rdf-syntax-ns#"
   xmlns:svg="http://www.w3.org/2000/svg"
   xmlns="http://www.w3.org/2000/svg"
   xmlns:sodipodi="http://sodipodi.sourceforge.net/DTD/sodipodi-0.dtd"
   xmlns:inkscape="http://www.inkscape.org/namespaces/inkscape"
   width="210mm"
   height="297mm"
   viewBox="0 0 210 297"
   version="1.1"
   id="svg8568"
   inkscape:version="0.92.5 (2060ec1f9f, 2020-04-08)"
   sodipodi:docname="ServoMotorAbove.svg">
  <defs
     id="defs8562" />
  <sodipodi:namedview
     id="base"
     pagecolor="#ffffff"
     bordercolor="#666666"
     borderopacity="1.0"
     inkscape:pageopacity="0.0"
     inkscape:pageshadow="2"
     inkscape:zoom="0.35"
     inkscape:cx="-70"
     inkscape:cy="560"
     inkscape:document-units="mm"
     inkscape:current-layer="layer1"
     showgrid="false"
     inkscape:window-width="1920"
     inkscape:window-height="1001"
     inkscape:window-x="-9"
     inkscape:window-y="-9"
     inkscape:window-maximized="1" />
  <metadata
     id="metadata8565">
    <rdf:RDF>
      <cc:Work
         rdf:about="">
        <dc:format>image/svg+xml</dc:format>
        <dc:type
           rdf:resource="http://purl.org/dc/dcmitype/StillImage" />
        <dc:title></dc:title>
      </cc:Work>
    </rdf:RDF>
  </metadata>
  <g
     inkscape:label="Layer 1"
     inkscape:groupmode="layer"
     id="layer1">
    <g
       id="g6285"
       transform="matrix(0.9131713,0,0,0.65500924,28.351555,41.49857)"
       class="cgfx__servohorn cgfx__eg-servohorn">
      <path
         style="fill:#ededed;stroke:#5a5b60;stroke-width:0.5;stroke-miterlimit:10"
         inkscape:connector-curvature="0"
         id="path6275"
         d="M 6.7,52.169 8.964,11.179 C 9.143,8.933 11.018,7.202 13.27,7.202 h 7.268 c 3.943,0 7.382,-3.039 7.5,-6.98 0.122,-4.078 -3.147,-7.423 -7.198,-7.423 H 13.497 C 11.236,-7.201 9.359,-8.945 9.19,-11.2 8.017,-26.842 6.7,-52.175 6.7,-52.175 c 0,0 -0.102,-6.228 -6.7,-6.228 -6.598,0 -6.7,6.234 -6.7,6.234 0,0 -1.317,25.33 -2.49,40.969 -0.169,2.255 -2.045,3.999 -4.306,3.999 h -7.042 c -3.943,0 -7.382,3.039 -7.5,6.98 -0.122,4.078 3.147,7.423 7.198,7.423 h 7.57 c 2.253,0 4.128,1.731 4.306,3.977 L -6.7,52.175 c 0,0 0.146,6.228 6.7,6.228 6.553,0 6.7,-6.234 6.7,-6.234 z M -1.534,-52.944 c 0,-0.847 0.687,-1.534 1.534,-1.534 0.847,0 1.534,0.687 1.534,1.534 0,0.847 -0.687,1.534 -1.534,1.534 -0.847,0 -1.534,-0.687 -1.534,-1.534 z m 0,6.23 c 0,-0.847 0.687,-1.534 1.534,-1.534 0.847,0 1.534,0.687 1.534,1.534 0,0.847 -0.687,1.534 -1.534,1.534 -0.847,0 -1.534,-0.686 -1.534,-1.534 z m 0,6.231 c 0,-0.847 0.687,-1.534 1.534,-1.534 0.847,0 1.534,0.687 1.534,1.534 0,0.847 -0.687,1.534 -1.534,1.534 -0.847,0 -1.534,-0.686 -1.534,-1.534 z m 0,6.231 c 0,-0.847 0.687,-1.534 1.534,-1.534 0.847,0 1.534,0.687 1.534,1.534 0,0.847 -0.687,1.534 -1.534,1.534 -0.847,0 -1.534,-0.686 -1.534,-1.534 z m 0,6.231 c 0,-0.847 0.687,-1.534 1.534,-1.534 0.847,0 1.534,0.687 1.534,1.534 0,0.847 -0.687,1.534 -1.534,1.534 -0.847,0 -1.534,-0.687 -1.534,-1.534 z m 0,6.231 c 0,-0.847 0.687,-1.534 1.534,-1.534 0.847,0 1.534,0.687 1.534,1.534 0,0.847 -0.687,1.534 -1.534,1.534 -0.847,0 -1.534,-0.687 -1.534,-1.534 z m 0,6.231 c 0,-0.847 0.687,-1.534 1.534,-1.534 0.847,0 1.534,0.687 1.534,1.534 0,0.847 -0.687,1.534 -1.534,1.534 -0.847,0 -1.534,-0.687 -1.534,-1.534 z M 23.225,0 c 0,0.847 -0.687,1.534 -1.534,1.534 -0.847,0 -1.534,-0.687 -1.534,-1.534 0,-0.847 0.687,-1.534 1.534,-1.534 0.847,0 1.534,0.687 1.534,1.534 z M -14.16,0 c 0,0.847 -0.687,1.534 -1.534,1.534 -0.847,0 -1.534,-0.687 -1.534,-1.534 0,-0.847 0.687,-1.534 1.534,-1.534 0.847,0 1.534,0.687 1.534,1.534 z m -9.3,0.018 c 0,-0.847 0.687,-1.534 1.534,-1.534 0.847,0 1.534,0.687 1.534,1.534 0,0.847 -0.687,1.534 -1.534,1.534 -0.847,0 -1.534,-0.687 -1.534,-1.534 z m 37.385,0 c 0,-0.847 0.687,-1.534 1.534,-1.534 0.847,0 1.534,0.687 1.534,1.534 0,0.847 -0.687,1.534 -1.534,1.534 -0.847,0 -1.534,-0.687 -1.534,-1.534 z M -1.534,15.595 c 0,-0.847 0.687,-1.534 1.534,-1.534 0.847,0 1.534,0.687 1.534,1.534 0,0.847 -0.687,1.534 -1.534,1.534 -0.847,0 -1.534,-0.687 -1.534,-1.534 z m 0,6.231 c 0,-0.847 0.687,-1.534 1.534,-1.534 0.847,0 1.534,0.687 1.534,1.534 0,0.847 -0.687,1.534 -1.534,1.534 -0.847,0 -1.534,-0.687 -1.534,-1.534 z m 0,6.231 c 0,-0.847 0.687,-1.534 1.534,-1.534 0.847,0 1.534,0.687 1.534,1.534 0,0.847 -0.687,1.534 -1.534,1.534 -0.847,0 -1.534,-0.687 -1.534,-1.534 z m 0,6.23 c 0,-0.847 0.687,-1.534 1.534,-1.534 0.847,0 1.534,0.687 1.534,1.534 0,0.847 -0.687,1.534 -1.534,1.534 -0.847,0 -1.534,-0.686 -1.534,-1.534 z m 0,6.231 c 0,-0.847 0.687,-1.534 1.534,-1.534 0.847,0 1.534,0.687 1.534,1.534 0,0.847 -0.687,1.534 -1.534,1.534 -0.847,0 -1.534,-0.686 -1.534,-1.534 z m 0,6.231 c 0,-0.847 0.687,-1.534 1.534,-1.534 0.847,0 1.534,0.687 1.534,1.534 0,0.847 -0.687,1.534 -1.534,1.534 -0.847,0 -1.534,-0.686 -1.534,-1.534 z m 0,6.231 c 0,-0.847 0.687,-1.534 1.534,-1.534 0.847,0 1.534,0.687 1.534,1.534 0,0.847 -0.687,1.535 -1.534,1.535 -0.847,0 -1.534,-0.688 -1.534,-1.535 z"
         stroke-miterlimit="10"
         class="cgfx__arm" />
      <circle
         style="fill:#e0e0e0;stroke:#636363;stroke-width:0.5;stroke-miterlimit:10"
         id="circle6277"
         r="9.5089998"
         cy="0"
         cx="0"
         stroke-miterlimit="10" />
      <circle
         style="fill:#cccccc;stroke:#636363;stroke-width:0.5;stroke-miterlimit:10"
         id="circle6279"
         r="5.0159998"
         cy="0.017999999"
         cx="0"
         stroke-miterlimit="10" />
      <line
         style="fill:none;stroke:#636363;stroke-linecap:round;stroke-miterlimit:10"
         id="line6281"
         y2="0"
         x2="2.5840001"
         y1="0"
         x1="-2.5840001"
         stroke-miterlimit="10" />
      <line
         style="fill:none;stroke:#636363;stroke-linecap:round;stroke-miterlimit:10"
         id="line6283"
         y2="2.5840001"
         x2="0"
         y1="-2.5840001"
         x1="0"
         stroke-miterlimit="10" />
    </g>
  </g>
</svg>
