<?xml version="1.0" encoding="utf-8"?>
<!-- Generator: Adobe Illustrator 18.0.0, SVG Export Plug-In . SVG Version: 6.00 Build 0)  -->
<!DOCTYPE svg PUBLIC "-//W3C//DTD SVG 1.1//EN" "http://www.w3.org/Graphics/SVG/1.1/DTD/svg11.dtd">
<svg version="1.1"
	 id="svg8" xmlns:dc="http://purl.org/dc/elements/1.1/" xmlns:rdf="http://www.w3.org/1999/02/22-rdf-syntax-ns#" xmlns:svg="http://www.w3.org/2000/svg" xmlns:cc="http://creativecommons.org/ns#"
	 xmlns="http://www.w3.org/2000/svg" xmlns:xlink="http://www.w3.org/1999/xlink" x="0px" y="0px" viewBox="0 0 327 290"
	 enable-background="new 0 0 327 290" xml:space="preserve">
<path id="path8415" opacity="0.8014" fill="#4D4D4D" enable-background="new    " d="M101.6,120.1l1-11.5c0.4-0.2,0.8-0.6,1-1
	c0.3-0.5,0.4-1,0.5-1.5c0.1-0.5,0.2-1,0.5-1.5c0.3-0.6,0.9-1,1.4-1.4s1.1-0.7,1.6-1.1c0.7-0.6,1.3-1.4,2-2c0.6-0.5,1.4-0.7,2.2-0.8
	c0.8-0.1,1.6-0.1,2.4-0.2c2.2-0.2,4.4-0.6,6.6-0.5c1.2,0.1,2.5,0.3,3.6,1c0.9,0.6,1.6,1.4,2.3,2.1c0.4,0.4,0.8,0.7,1.3,0.9
	c0.5,0.3,1,0.4,1.5,0.4c0.6,0,1.1-0.2,1.6-0.5c0.5-0.3,0.9-0.7,1.1-1.2c0.5-1,0.6-2.2,0.3-3.3c-0.3-1.1-0.8-2.1-1.4-3.1
	c-0.6-1-1.2-1.9-1.7-2.9c-0.5-1.2-0.9-2.4-0.8-3.7c0.1-0.6,0.2-1.3,0.5-1.8c0.3-0.6,0.7-1.1,1.3-1.4c0.2-0.1,0.4-0.3,0.6-0.4
	c0.2-0.2,0.4-0.3,0.4-0.6c0-0.2,0-0.3,0-0.5c0-0.2,0-0.3,0-0.5c0-0.2,0.1-0.4,0.2-0.6c0.1-0.2,0.2-0.3,0.4-0.5
	c0.3-0.3,0.7-0.4,1.1-0.6c0.4-0.2,0.8-0.3,1.1-0.5c0.3-0.2,0.7-0.5,0.8-0.9c0.1-0.2,0.1-0.4,0.2-0.5c0-0.1,0.1-0.2,0.1-0.3
	c0.1-0.1,0.1-0.1,0.2-0.2c0.2-0.1,0.3-0.1,0.5-0.1c0.2,0,0.3,0.1,0.5,0.1c0.3,0,0.6-0.1,0.8-0.3c0.2-0.2,0.4-0.4,0.6-0.6
	c0.3-0.5,0.4-1.1,0.7-1.6c0.3-0.7,0.9-1.4,1.5-1.9c0.7-0.5,1.4-0.9,2.2-1.1c1.6-0.5,3.3-0.5,4.9-0.5c3.3,0,6.7,0.1,9.8,1.1
	c1.6,0.5,3.1,1.2,4.4,2.2c1.3,1,2.4,2.3,3.1,3.7c0.5,1,0.8,2.1,1.5,3c0.5,0.6,1.3,1.1,2,1.3c0.8,0.2,1.6,0.3,2.4,0.2
	c1.6-0.2,3.2-0.8,4.7-1.5c1.5-0.7,3-1.3,4.7-1.5c0.8-0.1,1.7,0,2.4,0.2c0.8,0.2,1.5,0.7,2.1,1.3c0.6,0.7,0.9,1.6,1.1,2.6
	c0.2,0.9,0.1,1.9,0.1,2.8c0,0.9,0.1,1.9,0.3,2.8c0.3,0.9,0.7,1.8,1.5,2.3c0.8,0.6,1.9,0.8,3,0.9c1,0.1,2.1,0,3.1,0.1
	c1.3,0.2,2.6,0.8,3.8,1.3c1.2,0.5,2.5,1.1,3.8,1.2c0.7,0.1,1.4,0,2,0c1.5-0.1,3-0.1,4.4,0.3c0.7,0.2,1.4,0.5,2,1s1,1.1,1.3,1.8
	c0.2,0.6,0.2,1.2,0.3,1.8c0,0.3,0.1,0.6,0.2,0.9c0.1,0.3,0.3,0.6,0.5,0.8c0.3,0.3,0.7,0.5,1,0.6c0.4,0.1,0.8,0.1,1.2,0
	c0.8-0.1,1.6-0.4,2.3-0.6c2-0.5,4.1-0.2,6,0.4c1.9,0.7,3.6,1.8,5.2,3.1c2.4,1.9,4.5,4.2,5.6,7c0.3,0.6,0.5,1.3,0.5,2
	c0,0.9-0.3,1.9-0.4,2.8c-0.1,0.5-0.1,0.9-0.1,1.4c0.1,0.5,0.2,0.9,0.5,1.3c0.2,0.3,0.5,0.5,0.8,0.7c0.3,0.2,0.6,0.5,0.8,0.8
	c0.3,0.4,0.4,0.8,0.5,1.2c0.1,0.4,0.2,0.9,0.5,1.3c0.4,0.6,1,1,1.5,1.5c1.1,1,1.6,2.5,1.9,4c0.2,1.5,0.2,3,0.2,4.5c0,0.7,0,1.3,0,2
	c-0.2,2.5-1.3,4.8-3.1,6.6s-4.1,2.9-6.6,3.4c-1.3,0.3-2.6,0.3-3.9,0.5c-1.3,0.2-2.6,0.4-3.8,1c-2,1-3.4,2.9-4.4,4.9
	c-1,2-1.7,4.1-2.7,6.1c-0.5,1-1.1,1.9-2,2.5c-0.8,0.5-1.7,0.7-2.5,1c-1.8,0.7-3.2,2.1-4.6,3.5c-1.1,1.1-2.1,2.2-3.4,3.1
	c-1.3,0.9-2.7,1.5-4.3,1.4c-0.9,0-1.8-0.3-2.6-0.7c-0.8-0.4-1.6-0.8-2.4-1.3c-0.8-0.4-1.6-0.9-2.5-1.2c-0.9-0.3-1.8-0.5-2.7-0.4
	c-0.2,0-0.3,0-0.5,0.1c-0.2,0-0.3,0-0.5-0.1c-0.2-0.1-0.3-0.2-0.5-0.3c-0.1-0.1-0.2-0.3-0.3-0.4c-0.2-0.3-0.4-0.6-0.7-0.8
	c-0.2-0.1-0.5-0.2-0.7-0.2c-0.3,0-0.5,0.1-0.8,0.2c-0.5,0.2-0.8,0.7-1,1.1c-0.5,0.9-0.5,2-1,2.9c-0.5,0.9-1.3,1.5-2.2,1.9
	c-0.9,0.4-1.9,0.7-2.9,1c-2.6,0.9-5,2.2-7.5,3.4c-2.5,1.2-5.1,2.2-7.8,2.6c-2.9,0.4-5.8-0.1-8.7,0c-0.3,0-0.7,0-1,0
	c-0.7-0.1-1.4-0.3-2-0.6c-0.6-0.3-1.2-0.8-1.7-1.2c-1.1-0.9-2.1-2-3.4-2.6c-1.7-0.8-3.7-0.8-5.5-0.4c-1.8,0.4-3.5,1.2-5.2,2
	c-1.7,0.8-3.5,1.5-5.3,1.7c-0.9,0.1-1.9,0.1-2.8-0.1c-0.9-0.2-1.8-0.6-2.5-1.2c-0.9-0.7-1.5-1.8-1.9-2.8c-0.4-1.1-0.6-2.2-0.7-3.4
	c-0.2-2.3-0.1-4.6-1-6.8c-0.1-0.3-0.2-0.5-0.3-0.8c-0.1-0.3-0.1-0.6,0-0.9c0-0.1,0.1-0.3,0.2-0.4c0.1-0.1,0.2-0.2,0.4-0.2
	c0.1,0,0.3,0,0.4,0c0.1,0.1,0.3,0.2,0.3,0.3c0.1,0.2,0,0.3,0,0.5c-0.1,0.3-0.3,0.6-0.6,0.8c-0.3,0.2-0.6,0.3-1,0.3
	c-0.7,0-1.3-0.2-1.9-0.6s-1-0.9-1.5-1.3c-0.5-0.5-1-0.9-1.7-1.1c-0.6-0.2-1.2-0.2-1.8-0.2c-0.6,0-1.2,0.1-1.8,0.2
	c-2.5,0.2-5-0.6-7-2c-2-1.4-3.6-3.3-4.7-5.5c-1.4-2.7-2.1-5.6-3.1-8.5c-1.1-3.3-2.6-6.6-2.9-10c-0.2-1.7-0.1-3.5,0.5-5.2
	c0.5-1.7,1.6-3.2,3-4.2c0.5-0.4,1-0.6,1.5-1C99.9,123.1,101,121.7,101.6,120.1L101.6,120.1z"/>
<path id="path8411" stroke="#000000" stroke-width="0.2646" d="M134.7,113.6c2.2-4.7,6.6-8.5,11.7-10c0.8-0.2,1.7-0.4,2.6-0.5
	c0.9,0,1.8,0.1,2.5,0.5c0.7,0.3,1.3,0.8,1.8,1.3c0.5,0.5,1.1,1.1,1.6,1.6s1.3,0.9,2,1c0.4,0.1,0.8,0.1,1.1,0c0.4-0.1,0.7-0.2,1-0.5
	c0.4-0.4,0.7-0.9,0.9-1.4c0.2-0.5,0.4-1.1,0.6-1.6c0.5-1.1,1.5-1.8,2.5-2.5c2.4-1.5,5.1-2.6,7.9-2.8c2.8-0.2,5.8,0.5,7.9,2.3
	c1.3,1.1,2.2,2.5,3.5,3.6c0.6,0.6,1.3,1,2.1,1.3c0.8,0.3,1.7,0.3,2.5,0.1c0.4-0.1,0.8-0.4,1.2-0.6c0.4-0.2,0.8-0.4,1.3-0.4
	c0.4,0,0.7,0.1,1.1,0c0.2,0,0.4-0.1,0.5-0.1c0.2-0.1,0.3-0.2,0.4-0.4c0.1-0.2,0.1-0.3,0-0.5c0.3-0.2,0.7-0.3,1-0.5
	c1.6-0.7,3.3-1.1,5-1c1.7,0.1,3.4,0.8,4.6,2c0.6,0.6,1.1,1.4,1.6,2.1c0.5,0.7,1.1,1.4,1.9,1.8c0.3,0.2,0.7,0.3,1,0.5
	c0.3,0.2,0.6,0.5,0.8,0.9s0.3,0.7,0.4,1.1c0.1,0.8-0.1,1.6-0.3,2.3c-0.2,0.8-0.5,1.5-0.7,2.3c-0.2,0.8-0.3,1.6-0.1,2.4
	c0.2,0.8,0.7,1.6,1.2,2.2c0.6,0.6,1.2,1.2,1.8,1.8c1.9,1.9,3.1,4.5,3.1,7.2c0,1.3-0.3,2.7-0.9,3.9c-0.6,1.2-1.6,2.2-2.7,2.9
	c-0.4,0.3-0.9,0.5-1.3,0.8c-0.2,0.2-0.4,0.3-0.5,0.5c-0.1,0.2-0.2,0.4-0.3,0.7c0,0.3,0.1,0.7,0,1c-0.1,0.3-0.3,0.5-0.5,0.7
	c-0.2,0.2-0.5,0.3-0.8,0.4c-0.6,0.1-1.2,0.2-1.8,0.4c-0.4,0.2-0.8,0.5-1.1,0.9c-0.3,0.4-0.6,0.8-0.9,1.1c-0.9,1-2.2,1.7-3.6,1.7
	c-0.7,0-1.4-0.1-2-0.4c-0.6-0.3-1.2-0.7-1.5-1.3c-0.2-0.3-0.4-0.7-0.6-1.1c-0.2-0.4-0.5-0.7-0.9-0.9c-0.4-0.2-0.9-0.2-1.3-0.1
	c-0.4,0.1-0.8,0.4-1.1,0.7c-0.6,0.7-0.8,1.6-0.9,2.4c-0.1,0.9-0.3,1.8-0.7,2.5c-0.2,0.4-0.5,0.7-0.9,1c-0.4,0.3-0.8,0.4-1.3,0.4
	c-0.2,0-0.3-0.1-0.5-0.1c-0.2,0-0.4,0-0.5,0.1c-0.1,0.1-0.2,0.2-0.3,0.3c-0.1,0.1-0.1,0.3-0.1,0.4c0,0.3,0,0.6-0.1,0.8
	c-0.1,0.5-0.3,0.9-0.6,1.2s-0.7,0.6-1.2,0.8c-0.9,0.4-1.8,0.4-2.8,0.5c-3.8,0.2-7.6,0.5-11.2-0.5c-1.1-0.3-2.2-0.7-3.1-1.3
	c-0.9-0.7-1.7-1.6-2-2.6c-0.1-0.3-0.1-0.5-0.2-0.8c-0.1-0.3-0.2-0.5-0.3-0.7c-0.3-0.3-0.7-0.6-1.1-0.6c-0.4-0.1-0.9,0-1.3,0.2
	c-0.8,0.3-1.5,0.9-2.2,1.5c-2.1,1.6-4.7,2.5-7.3,3.1c-2.6,0.5-5.3,0.7-8,0.9c-1,0.1-2.1,0.2-3.1,0c-1.1-0.2-2.1-0.8-2.8-1.6
	c-0.7-0.8-1.2-1.8-1.3-2.9c-0.1-0.8,0-1.7,0-2.5c0-0.6-0.1-1.2-0.1-1.8c0-0.6,0.2-1.2,0.6-1.7c0.2-0.2,0.4-0.3,0.5-0.5
	c0.3-0.4,0.5-0.9,0.4-1.4c-0.1-0.5-0.3-1-0.7-1.3c-0.4-0.4-0.8-0.6-1.3-0.7c-0.5-0.1-1-0.1-1.5,0c-1,0.2-1.9,0.6-2.8,1.1
	c-0.9,0.5-1.8,1-2.7,1.4c-0.2,0.1-0.5,0.1-0.8,0.2c-0.3,0-0.5,0-0.8-0.2c-0.2-0.1-0.4-0.4-0.5-0.6c-0.1-0.2-0.2-0.5-0.2-0.8
	c-0.1-0.5-0.1-1.1-0.3-1.6c-0.2-0.3-0.4-0.6-0.7-0.8c-0.3-0.2-0.6-0.4-0.9-0.7c-1.6-1.2-2.7-3-2.9-4.9c-0.1-1,0.1-2,0.5-2.8
	c0.4-0.9,1.1-1.7,1.9-2.2c0.5-0.3,1.1-0.6,1.5-1c0.3-0.3,0.6-0.8,0.8-1.2c0.2-0.4,0.3-0.9,0.4-1.4c0.1-0.5,0.3-0.9,0.5-1.3
	c0.2-0.4,0.5-0.8,0.9-1.1c0.3-0.2,0.7-0.3,1-0.5C132.4,116.8,133.9,115.4,134.7,113.6L134.7,113.6z"/>
<path id="path8415-2" opacity="0.5319" fill="#4D4D4D" enable-background="new    " d="M116.3,117.8l1-11.5c0.4-0.2,0.8-0.6,1-1
	c0.3-0.5,0.4-1,0.5-1.5c0.1-0.5,0.2-1,0.5-1.5c0.3-0.6,0.9-1,1.4-1.4s1.1-0.7,1.6-1.1c0.7-0.6,1.3-1.4,2-2c0.6-0.5,1.4-0.7,2.2-0.8
	c0.8-0.1,1.6-0.1,2.4-0.2c2.2-0.2,4.4-0.6,6.6-0.5c1.2,0.1,2.5,0.3,3.6,1c0.9,0.6,1.6,1.4,2.3,2.1c0.4,0.4,0.8,0.7,1.3,0.9
	c0.5,0.3,1,0.4,1.5,0.4c0.6,0,1.1-0.2,1.6-0.5c0.5-0.3,0.9-0.7,1.1-1.2c0.5-1,0.6-2.2,0.3-3.3c-0.3-1.1-0.8-2.1-1.4-3.1
	c-0.6-1-1.2-1.9-1.7-2.9c-0.5-1.2-0.9-2.4-0.8-3.7c0.1-0.6,0.2-1.3,0.5-1.8c0.3-0.6,0.7-1.1,1.3-1.4c0.2-0.1,0.4-0.3,0.6-0.4
	c0.2-0.2,0.4-0.3,0.4-0.6c0-0.2,0-0.3,0-0.5c0-0.2,0-0.3,0-0.5c0-0.2,0.1-0.4,0.2-0.6c0.1-0.2,0.2-0.3,0.4-0.5
	c0.3-0.3,0.7-0.4,1.1-0.6c0.4-0.2,0.8-0.3,1.1-0.5c0.3-0.2,0.7-0.5,0.8-0.9c0.1-0.2,0.1-0.4,0.2-0.5c0-0.1,0.1-0.2,0.1-0.3
	c0.1-0.1,0.1-0.1,0.2-0.2c0.2-0.1,0.3-0.1,0.5-0.1c0.2,0,0.3,0.1,0.5,0.1c0.3,0,0.6-0.1,0.8-0.3c0.2-0.2,0.4-0.4,0.6-0.6
	c0.3-0.5,0.4-1.1,0.7-1.6c0.3-0.7,0.9-1.4,1.5-1.9c0.7-0.5,1.4-0.9,2.2-1.1c1.6-0.5,3.3-0.5,4.9-0.5c3.3,0,6.7,0.1,9.8,1.1
	c1.6,0.5,3.1,1.2,4.4,2.2c1.3,1,2.4,2.3,3.1,3.7c0.5,1,0.8,2.1,1.5,3c0.5,0.6,1.3,1.1,2,1.3c0.8,0.2,1.6,0.3,2.4,0.2
	c1.6-0.2,3.2-0.8,4.7-1.5c1.5-0.7,3-1.3,4.7-1.5c0.8-0.1,1.7,0,2.4,0.2c0.8,0.2,1.5,0.7,2.1,1.3c0.6,0.7,0.9,1.6,1.1,2.6
	c0.2,0.9,0.1,1.9,0.1,2.8c0,0.9,0.1,1.9,0.3,2.8c0.3,0.9,0.7,1.8,1.5,2.3c0.8,0.6,1.9,0.8,3,0.9c1,0.1,2.1,0,3.1,0.1
	c1.3,0.2,2.6,0.8,3.8,1.3c1.2,0.5,2.5,1.1,3.8,1.2c0.7,0.1,1.4,0,2,0c1.5-0.1,3-0.1,4.4,0.3c0.7,0.2,1.4,0.5,2,1s1,1.1,1.3,1.8
	c0.2,0.6,0.2,1.2,0.3,1.8c0,0.3,0.1,0.6,0.2,0.9c0.1,0.3,0.3,0.6,0.5,0.8c0.3,0.3,0.7,0.5,1,0.6c0.4,0.1,0.8,0.1,1.2,0
	c0.8-0.1,1.6-0.4,2.3-0.6c2-0.5,4.1-0.2,6,0.4c1.9,0.7,3.6,1.8,5.2,3.1c2.4,1.9,4.5,4.2,5.6,7c0.3,0.6,0.5,1.3,0.5,2
	c0,0.9-0.3,1.9-0.4,2.8c-0.1,0.5-0.1,0.9-0.1,1.4c0.1,0.5,0.2,0.9,0.5,1.3c0.2,0.3,0.5,0.5,0.8,0.7c0.3,0.2,0.6,0.5,0.8,0.8
	c0.3,0.4,0.4,0.8,0.5,1.2c0.1,0.4,0.2,0.9,0.5,1.3c0.4,0.6,1,1,1.5,1.5c1.1,1,1.6,2.5,1.9,4c0.2,1.5,0.2,3,0.2,4.5c0,0.7,0,1.3,0,2
	c-0.2,2.5-1.3,4.8-3.1,6.6s-4.1,2.9-6.6,3.4c-1.3,0.3-2.6,0.3-3.9,0.5c-1.3,0.2-2.6,0.4-3.8,1c-2,1-3.4,2.9-4.4,4.9
	c-1,2-1.7,4.1-2.7,6.1c-0.5,1-1.1,1.9-2,2.5c-0.8,0.5-1.7,0.7-2.5,1c-1.8,0.7-3.2,2.1-4.6,3.5c-1.1,1.1-2.1,2.2-3.4,3.1
	c-1.3,0.9-2.7,1.5-4.3,1.4c-0.9,0-1.8-0.3-2.6-0.7c-0.8-0.4-1.6-0.8-2.4-1.3c-0.8-0.4-1.6-0.9-2.5-1.2c-0.9-0.3-1.8-0.5-2.7-0.4
	c-0.2,0-0.3,0-0.5,0.1c-0.2,0-0.3,0-0.5-0.1c-0.2-0.1-0.3-0.2-0.5-0.3c-0.1-0.1-0.2-0.3-0.3-0.4c-0.2-0.3-0.4-0.6-0.7-0.8
	c-0.2-0.1-0.5-0.2-0.7-0.2c-0.3,0-0.5,0.1-0.8,0.2c-0.5,0.2-0.8,0.7-1,1.1c-0.5,0.9-0.5,2-1,2.9c-0.5,0.9-1.3,1.5-2.2,1.9
	c-0.9,0.4-1.9,0.7-2.9,1c-2.6,0.9-5,2.2-7.5,3.4c-2.5,1.2-5.1,2.2-7.8,2.6c-2.9,0.4-5.8-0.1-8.7,0c-0.3,0-0.7,0-1,0
	c-0.7-0.1-1.4-0.3-2-0.6c-0.6-0.3-1.2-0.8-1.7-1.2c-1.1-0.9-2.1-2-3.4-2.6c-1.7-0.8-3.7-0.8-5.5-0.4c-1.8,0.4-3.5,1.2-5.2,2
	c-1.7,0.8-3.5,1.5-5.3,1.7c-0.9,0.1-1.9,0.1-2.8-0.1c-0.9-0.2-1.8-0.6-2.5-1.2c-0.9-0.7-1.5-1.8-1.9-2.8c-0.4-1.1-0.6-2.2-0.7-3.4
	c-0.2-2.3-0.1-4.6-1-6.8c-0.1-0.3-0.2-0.5-0.3-0.8c-0.1-0.3-0.1-0.6,0-0.9c0-0.1,0.1-0.3,0.2-0.4c0.1-0.1,0.2-0.2,0.4-0.2
	c0.1,0,0.3,0,0.4,0c0.1,0.1,0.3,0.2,0.3,0.3c0.1,0.2,0,0.3,0,0.5c-0.1,0.3-0.3,0.6-0.6,0.8c-0.3,0.2-0.6,0.3-1,0.3
	c-0.7,0-1.3-0.2-1.9-0.6s-1-0.9-1.5-1.3c-0.5-0.5-1-0.9-1.7-1.1c-0.6-0.2-1.2-0.2-1.8-0.2c-0.6,0-1.2,0.1-1.8,0.2
	c-2.5,0.2-5-0.6-7-2c-2-1.4-3.6-3.3-4.7-5.5c-1.4-2.7-2.1-5.6-3.1-8.5c-1.1-3.3-2.6-6.6-2.9-10c-0.2-1.7-0.1-3.5,0.5-5.2
	c0.5-1.7,1.6-3.2,3-4.2c0.5-0.4,1-0.6,1.5-1C114.7,120.8,115.8,119.4,116.3,117.8L116.3,117.8z"/>
<path id="path8415-1" opacity="0.2624" fill="#4D4D4D" enable-background="new    " d="M90.3,141.2l1-11.5c0.4-0.2,0.8-0.6,1-1
	c0.3-0.5,0.4-1,0.5-1.5c0.1-0.5,0.2-1,0.5-1.5c0.3-0.6,0.9-1,1.4-1.4c0.6-0.4,1.1-0.7,1.6-1.1c0.7-0.6,1.3-1.4,2-2
	c0.6-0.5,1.4-0.7,2.2-0.8c0.8-0.1,1.6-0.1,2.4-0.2c2.2-0.2,4.4-0.6,6.6-0.5c1.2,0.1,2.5,0.3,3.6,1c0.9,0.6,1.6,1.4,2.3,2.1
	c0.4,0.4,0.8,0.7,1.3,0.9c0.5,0.3,1,0.4,1.5,0.4c0.6,0,1.1-0.2,1.6-0.5c0.5-0.3,0.9-0.7,1.1-1.2c0.5-1,0.6-2.2,0.3-3.3
	c-0.3-1.1-0.8-2.1-1.4-3.1s-1.2-1.9-1.7-2.9c-0.5-1.2-0.9-2.4-0.8-3.7c0.1-0.6,0.2-1.3,0.5-1.8c0.3-0.6,0.7-1.1,1.3-1.4
	c0.2-0.1,0.4-0.3,0.6-0.4c0.2-0.2,0.4-0.3,0.4-0.6c0-0.2,0-0.3,0-0.5c0-0.2,0-0.3,0-0.5c0-0.2,0.1-0.4,0.2-0.6
	c0.1-0.2,0.2-0.3,0.4-0.5c0.3-0.3,0.7-0.4,1.1-0.6c0.4-0.2,0.8-0.3,1.1-0.5c0.3-0.2,0.7-0.5,0.8-0.9c0.1-0.2,0.1-0.4,0.2-0.5
	c0-0.1,0.1-0.2,0.1-0.3c0.1-0.1,0.1-0.1,0.2-0.2c0.2-0.1,0.3-0.1,0.5-0.1c0.2,0,0.3,0.1,0.5,0.1c0.3,0,0.6-0.1,0.8-0.3
	c0.2-0.2,0.4-0.4,0.6-0.6c0.3-0.5,0.4-1.1,0.7-1.6c0.3-0.7,0.9-1.4,1.5-1.9c0.7-0.5,1.4-0.9,2.2-1.1c1.6-0.5,3.3-0.5,4.9-0.5
	c3.3,0,6.7,0.1,9.8,1.1c1.6,0.5,3.1,1.2,4.4,2.2c1.3,1,2.4,2.3,3.1,3.7c0.5,1,0.8,2.1,1.5,3c0.5,0.6,1.3,1.1,2,1.3
	c0.8,0.2,1.6,0.3,2.4,0.2c1.6-0.2,3.2-0.8,4.7-1.5c1.5-0.7,3-1.3,4.7-1.5c0.8-0.1,1.7,0,2.4,0.2c0.8,0.2,1.5,0.7,2.1,1.3
	c0.6,0.7,0.9,1.6,1.1,2.6c0.2,0.9,0.1,1.9,0.1,2.8c0,0.9,0.1,1.9,0.3,2.8c0.3,0.9,0.7,1.8,1.5,2.3c0.8,0.6,1.9,0.8,3,0.9
	c1,0.1,2.1,0,3.1,0.1c1.3,0.2,2.6,0.8,3.8,1.3c1.2,0.5,2.5,1.1,3.8,1.2c0.7,0.1,1.4,0,2,0c1.5-0.1,3-0.1,4.4,0.3
	c0.7,0.2,1.4,0.5,2,1s1,1.1,1.3,1.8c0.2,0.6,0.2,1.2,0.3,1.8c0,0.3,0.1,0.6,0.2,0.9c0.1,0.3,0.3,0.6,0.5,0.8c0.3,0.3,0.7,0.5,1,0.6
	c0.4,0.1,0.8,0.1,1.2,0c0.8-0.1,1.6-0.4,2.3-0.6c2-0.5,4.1-0.2,6,0.4c1.9,0.7,3.6,1.8,5.2,3.1c2.4,1.9,4.5,4.2,5.6,7
	c0.3,0.6,0.5,1.3,0.5,2c0,0.9-0.3,1.9-0.4,2.8c-0.1,0.5-0.1,0.9-0.1,1.4c0.1,0.5,0.2,0.9,0.5,1.3c0.2,0.3,0.5,0.5,0.8,0.7
	c0.3,0.2,0.6,0.5,0.8,0.8c0.3,0.4,0.4,0.8,0.5,1.2c0.1,0.4,0.2,0.9,0.5,1.3c0.4,0.6,1,1,1.5,1.5c1.1,1,1.6,2.5,1.9,4
	c0.2,1.5,0.2,3,0.2,4.5c0,0.7,0,1.3,0,2c-0.2,2.5-1.3,4.8-3.1,6.6c-1.8,1.8-4.1,2.9-6.6,3.4c-1.3,0.3-2.6,0.3-3.9,0.5
	c-1.3,0.2-2.6,0.4-3.8,1c-2,1-3.4,2.9-4.4,4.9c-1,2-1.7,4.1-2.7,6.1c-0.5,1-1.1,1.9-2,2.5c-0.8,0.5-1.7,0.7-2.5,1
	c-1.8,0.7-3.2,2.1-4.6,3.5c-1.1,1.1-2.1,2.2-3.4,3.1c-1.3,0.9-2.7,1.5-4.3,1.4c-0.9,0-1.8-0.3-2.6-0.7c-0.8-0.4-1.6-0.8-2.4-1.3
	c-0.8-0.4-1.6-0.9-2.5-1.2c-0.9-0.3-1.8-0.5-2.7-0.4c-0.2,0-0.3,0-0.5,0.1c-0.2,0-0.3,0-0.5-0.1c-0.2-0.1-0.3-0.2-0.5-0.3
	c-0.1-0.1-0.2-0.3-0.3-0.4c-0.2-0.3-0.4-0.6-0.7-0.8c-0.2-0.1-0.5-0.2-0.7-0.2c-0.3,0-0.5,0.1-0.8,0.2c-0.5,0.2-0.8,0.7-1,1.1
	c-0.5,0.9-0.5,2-1,2.9c-0.5,0.9-1.3,1.5-2.2,1.9c-0.9,0.4-1.9,0.7-2.9,1c-2.6,0.9-5,2.2-7.5,3.4c-2.5,1.2-5.1,2.2-7.8,2.6
	c-2.9,0.4-5.8-0.1-8.7,0c-0.3,0-0.7,0-1,0c-0.7-0.1-1.4-0.3-2-0.6c-0.6-0.3-1.2-0.8-1.7-1.2c-1.1-0.9-2.1-2-3.4-2.6
	c-1.7-0.8-3.7-0.8-5.5-0.4c-1.8,0.4-3.5,1.2-5.2,2c-1.7,0.8-3.5,1.5-5.3,1.7c-0.9,0.1-1.9,0.1-2.8-0.1c-0.9-0.2-1.8-0.6-2.5-1.2
	c-0.9-0.7-1.5-1.8-1.9-2.8s-0.6-2.2-0.7-3.4c-0.2-2.3-0.1-4.6-1-6.8c-0.1-0.3-0.2-0.5-0.3-0.8c-0.1-0.3-0.1-0.6,0-0.9
	c0-0.1,0.1-0.3,0.2-0.4c0.1-0.1,0.2-0.2,0.4-0.2c0.1,0,0.3,0,0.4,0c0.1,0.1,0.3,0.2,0.3,0.3c0.1,0.2,0,0.3,0,0.5
	c-0.1,0.3-0.3,0.6-0.6,0.8c-0.3,0.2-0.6,0.3-1,0.3c-0.7,0-1.3-0.2-1.9-0.6c-0.6-0.4-1-0.9-1.5-1.3c-0.5-0.5-1-0.9-1.7-1.1
	c-0.6-0.2-1.2-0.2-1.8-0.2c-0.6,0-1.2,0.1-1.8,0.2c-2.5,0.2-5-0.6-7-2c-2-1.4-3.6-3.3-4.7-5.5c-1.4-2.7-2.1-5.6-3.1-8.5
	c-1.1-3.3-2.6-6.6-2.9-10c-0.2-1.7-0.1-3.5,0.5-5.2c0.5-1.7,1.6-3.2,3-4.2c0.5-0.4,1-0.6,1.5-1C88.7,144.2,89.8,142.8,90.3,141.2
	L90.3,141.2z"/>
<path id="path8415-5" opacity="0.3972" fill="#4D4D4D" enable-background="new    " d="M131.6,98.8l1-11.5c0.4-0.2,0.8-0.6,1-1
	c0.3-0.5,0.4-1,0.5-1.5c0.1-0.5,0.2-1,0.5-1.5c0.3-0.6,0.9-1,1.4-1.4s1.1-0.7,1.6-1.1c0.7-0.6,1.3-1.4,2-2c0.6-0.5,1.4-0.7,2.2-0.8
	c0.8-0.1,1.6-0.1,2.4-0.2c2.2-0.2,4.4-0.6,6.6-0.5c1.2,0.1,2.5,0.3,3.6,1c0.9,0.6,1.6,1.4,2.3,2.1c0.4,0.4,0.8,0.7,1.3,0.9
	c0.5,0.3,1,0.4,1.5,0.4c0.6,0,1.1-0.2,1.6-0.5c0.5-0.3,0.9-0.7,1.1-1.2c0.5-1,0.6-2.2,0.3-3.3c-0.3-1.1-0.8-2.1-1.4-3.1
	c-0.6-1-1.2-1.9-1.7-2.9c-0.5-1.2-0.9-2.4-0.8-3.7c0.1-0.6,0.2-1.3,0.5-1.8c0.3-0.6,0.7-1.1,1.3-1.4c0.2-0.1,0.4-0.3,0.6-0.4
	c0.2-0.2,0.4-0.3,0.4-0.6c0-0.2,0-0.3,0-0.5c0-0.2,0-0.3,0-0.5c0-0.2,0.1-0.4,0.2-0.6c0.1-0.2,0.2-0.3,0.4-0.5
	c0.3-0.3,0.7-0.4,1.1-0.6c0.4-0.2,0.8-0.3,1.1-0.5c0.3-0.2,0.7-0.5,0.8-0.9c0.1-0.2,0.1-0.4,0.2-0.5c0-0.1,0.1-0.2,0.1-0.3
	c0.1-0.1,0.1-0.1,0.2-0.2c0.2-0.1,0.3-0.1,0.5-0.1c0.2,0,0.3,0.1,0.5,0.1c0.3,0,0.6-0.1,0.8-0.3c0.2-0.2,0.4-0.4,0.6-0.6
	c0.3-0.5,0.4-1.1,0.7-1.6c0.3-0.7,0.9-1.4,1.5-1.9c0.7-0.5,1.4-0.9,2.2-1.1c1.6-0.5,3.3-0.5,4.9-0.5c3.3,0,6.7,0.1,9.8,1.1
	c1.6,0.5,3.1,1.2,4.4,2.2c1.3,1,2.4,2.3,3.1,3.7c0.5,1,0.8,2.1,1.5,3c0.5,0.6,1.3,1.1,2,1.3c0.8,0.2,1.6,0.3,2.4,0.2
	c1.6-0.2,3.2-0.8,4.7-1.5c1.5-0.7,3-1.3,4.7-1.5c0.8-0.1,1.7,0,2.4,0.2c0.8,0.2,1.5,0.7,2.1,1.3c0.6,0.7,0.9,1.6,1.1,2.6
	c0.2,0.9,0.1,1.9,0.1,2.8c0,0.9,0.1,1.9,0.3,2.8c0.3,0.9,0.7,1.8,1.5,2.3c0.8,0.6,1.9,0.8,3,0.9c1,0.1,2.1,0,3.1,0.1
	c1.3,0.2,2.6,0.8,3.8,1.3c1.2,0.5,2.5,1.1,3.8,1.2c0.7,0.1,1.4,0,2,0c1.5-0.1,3-0.1,4.4,0.3c0.7,0.2,1.4,0.5,2,1
	c0.6,0.5,1,1.1,1.3,1.8c0.2,0.6,0.2,1.2,0.3,1.8c0,0.3,0.1,0.6,0.2,0.9c0.1,0.3,0.3,0.6,0.5,0.8c0.3,0.3,0.7,0.5,1,0.6
	c0.4,0.1,0.8,0.1,1.2,0c0.8-0.1,1.6-0.4,2.3-0.6c2-0.5,4.1-0.2,6,0.4s3.6,1.8,5.2,3.1c2.4,1.9,4.5,4.2,5.6,7c0.3,0.6,0.5,1.3,0.5,2
	c0,0.9-0.3,1.9-0.4,2.8c-0.1,0.5-0.1,0.9-0.1,1.4c0.1,0.5,0.2,0.9,0.5,1.3c0.2,0.3,0.5,0.5,0.8,0.7c0.3,0.2,0.6,0.5,0.8,0.8
	c0.3,0.4,0.4,0.8,0.5,1.2c0.1,0.4,0.2,0.9,0.5,1.3c0.4,0.6,1,1,1.5,1.5c1.1,1,1.6,2.5,1.9,4c0.2,1.5,0.2,3,0.2,4.5c0,0.7,0,1.3,0,2
	c-0.2,2.5-1.3,4.8-3.1,6.6c-1.8,1.8-4.1,2.9-6.6,3.4c-1.3,0.3-2.6,0.3-3.9,0.5c-1.3,0.2-2.6,0.4-3.8,1c-2,1-3.4,2.9-4.4,4.9
	c-1,2-1.7,4.1-2.7,6.1c-0.5,1-1.1,1.9-2,2.5c-0.8,0.5-1.7,0.7-2.5,1c-1.8,0.7-3.2,2.1-4.6,3.5c-1.1,1.1-2.1,2.2-3.4,3.1
	c-1.3,0.9-2.7,1.5-4.3,1.4c-0.9,0-1.8-0.3-2.6-0.7c-0.8-0.4-1.6-0.8-2.4-1.3c-0.8-0.4-1.6-0.9-2.5-1.2c-0.9-0.3-1.8-0.5-2.7-0.4
	c-0.2,0-0.3,0-0.5,0.1c-0.2,0-0.3,0-0.5-0.1c-0.2-0.1-0.3-0.2-0.5-0.3c-0.1-0.1-0.2-0.3-0.3-0.4c-0.2-0.3-0.4-0.6-0.7-0.8
	c-0.2-0.1-0.5-0.2-0.7-0.2c-0.3,0-0.5,0.1-0.8,0.2c-0.5,0.2-0.8,0.7-1,1.1c-0.5,0.9-0.5,2-1,2.9c-0.5,0.9-1.3,1.5-2.2,1.9
	s-1.9,0.7-2.9,1c-2.6,0.9-5,2.2-7.5,3.4c-2.5,1.2-5.1,2.2-7.8,2.6c-2.9,0.4-5.8-0.1-8.7,0c-0.3,0-0.7,0-1,0c-0.7-0.1-1.4-0.3-2-0.6
	c-0.6-0.3-1.2-0.8-1.7-1.2c-1.1-0.9-2.1-2-3.4-2.6c-1.7-0.8-3.7-0.8-5.5-0.4c-1.8,0.4-3.5,1.2-5.2,2s-3.5,1.5-5.3,1.7
	c-0.9,0.1-1.9,0.1-2.8-0.1c-0.9-0.2-1.8-0.6-2.5-1.2c-0.9-0.7-1.5-1.8-1.9-2.8s-0.6-2.2-0.7-3.4c-0.2-2.3-0.1-4.6-1-6.8
	c-0.1-0.3-0.2-0.5-0.3-0.8c-0.1-0.3-0.1-0.6,0-0.9c0-0.1,0.1-0.3,0.2-0.4c0.1-0.1,0.2-0.2,0.4-0.2c0.1,0,0.3,0,0.4,0
	c0.1,0.1,0.3,0.2,0.3,0.3c0.1,0.2,0,0.3,0,0.5c-0.1,0.3-0.3,0.6-0.6,0.8c-0.3,0.2-0.6,0.3-1,0.3c-0.7,0-1.3-0.2-1.9-0.6
	s-1-0.9-1.5-1.3c-0.5-0.5-1-0.9-1.7-1.1c-0.6-0.2-1.2-0.2-1.8-0.2c-0.6,0-1.2,0.1-1.8,0.2c-2.5,0.2-5-0.6-7-2
	c-2-1.4-3.6-3.3-4.7-5.5c-1.4-2.7-2.1-5.6-3.1-8.5c-1.1-3.3-2.6-6.6-2.9-10c-0.2-1.7-0.1-3.5,0.5-5.2c0.5-1.7,1.6-3.2,3-4.2
	c0.5-0.4,1-0.6,1.5-1C130,101.8,131,100.4,131.6,98.8L131.6,98.8z"/>
<path id="path8415-22" opacity="0.5177" fill="#4D4D4D" enable-background="new    " d="M84.2,93.4l1-11.5c0.4-0.2,0.8-0.6,1-1
	c0.3-0.5,0.4-1,0.5-1.5c0.1-0.5,0.2-1,0.5-1.5c0.3-0.6,0.9-1,1.4-1.4s1.1-0.7,1.6-1.1c0.7-0.6,1.3-1.4,2-2c0.6-0.5,1.4-0.7,2.2-0.8
	c0.8-0.1,1.6-0.1,2.4-0.2c2.2-0.2,4.4-0.6,6.6-0.5c1.2,0.1,2.5,0.3,3.6,1c0.9,0.6,1.6,1.4,2.3,2.1c0.4,0.4,0.8,0.7,1.3,0.9
	c0.5,0.3,1,0.4,1.5,0.4c0.6,0,1.1-0.2,1.6-0.5c0.5-0.3,0.9-0.7,1.1-1.2c0.5-1,0.6-2.2,0.3-3.3c-0.3-1.1-0.8-2.1-1.4-3.1
	c-0.6-1-1.2-1.9-1.7-2.9c-0.5-1.2-0.9-2.4-0.8-3.7c0.1-0.6,0.2-1.3,0.5-1.8c0.3-0.6,0.7-1.1,1.3-1.4c0.2-0.1,0.4-0.3,0.6-0.4
	c0.2-0.2,0.4-0.3,0.4-0.6c0-0.2,0-0.3,0-0.5c0-0.2,0-0.3,0-0.5c0-0.2,0.1-0.4,0.2-0.6c0.1-0.2,0.2-0.3,0.4-0.5
	c0.3-0.3,0.7-0.4,1.1-0.6c0.4-0.2,0.8-0.3,1.1-0.5c0.3-0.2,0.7-0.5,0.8-0.9c0.1-0.2,0.1-0.4,0.2-0.5c0-0.1,0.1-0.2,0.1-0.3
	c0.1-0.1,0.1-0.1,0.2-0.2c0.2-0.1,0.3-0.1,0.5-0.1c0.2,0,0.3,0.1,0.5,0.1c0.3,0,0.6-0.1,0.8-0.3c0.2-0.2,0.4-0.4,0.6-0.6
	c0.3-0.5,0.4-1.1,0.7-1.6c0.3-0.7,0.9-1.4,1.5-1.9c0.7-0.5,1.4-0.9,2.2-1.1c1.6-0.5,3.3-0.5,4.9-0.5c3.3,0,6.7,0.1,9.8,1.1
	c1.6,0.5,3.1,1.2,4.4,2.2c1.3,1,2.4,2.3,3.1,3.7c0.5,1,0.8,2.1,1.5,3c0.5,0.6,1.3,1.1,2,1.3c0.8,0.2,1.6,0.3,2.4,0.2
	c1.6-0.2,3.2-0.8,4.7-1.5c1.5-0.7,3-1.3,4.7-1.5c0.8-0.1,1.7,0,2.4,0.2c0.8,0.2,1.5,0.7,2.1,1.3c0.6,0.7,0.9,1.6,1.1,2.6
	c0.2,0.9,0.1,1.9,0.1,2.8c0,0.9,0.1,1.9,0.3,2.8c0.3,0.9,0.7,1.8,1.5,2.3c0.8,0.6,1.9,0.8,3,0.9c1,0.1,2.1,0,3.1,0.1
	c1.3,0.2,2.6,0.8,3.8,1.3c1.2,0.5,2.5,1.1,3.8,1.2c0.7,0.1,1.4,0,2,0c1.5-0.1,3-0.1,4.4,0.3c0.7,0.2,1.4,0.5,2,1s1,1.1,1.3,1.8
	c0.2,0.6,0.2,1.2,0.3,1.8c0,0.3,0.1,0.6,0.2,0.9c0.1,0.3,0.3,0.6,0.5,0.8c0.3,0.3,0.7,0.5,1,0.6c0.4,0.1,0.8,0.1,1.2,0
	c0.8-0.1,1.6-0.4,2.3-0.6c2-0.5,4.1-0.2,6,0.4c1.9,0.7,3.6,1.8,5.2,3.1c2.4,1.9,4.5,4.2,5.6,7c0.3,0.6,0.5,1.3,0.5,2
	c0,0.9-0.3,1.9-0.4,2.8c-0.1,0.5-0.1,0.9-0.1,1.4c0.1,0.5,0.2,0.9,0.5,1.3c0.2,0.3,0.5,0.5,0.8,0.7c0.3,0.2,0.6,0.5,0.8,0.8
	c0.3,0.4,0.4,0.8,0.5,1.2c0.1,0.4,0.2,0.9,0.5,1.3c0.4,0.6,1,1,1.5,1.5c1.1,1,1.6,2.5,1.9,4c0.2,1.5,0.2,3,0.2,4.5c0,0.7,0,1.3,0,2
	c-0.2,2.5-1.3,4.8-3.1,6.6s-4.1,2.9-6.6,3.4c-1.3,0.3-2.6,0.3-3.9,0.5c-1.3,0.2-2.6,0.4-3.8,1c-2,1-3.4,2.9-4.4,4.9
	c-1,2-1.7,4.1-2.7,6.1c-0.5,1-1.1,1.9-2,2.5c-0.8,0.5-1.7,0.7-2.5,1c-1.8,0.7-3.2,2.1-4.6,3.5c-1.1,1.1-2.1,2.2-3.4,3.1
	c-1.3,0.9-2.7,1.5-4.3,1.4c-0.9,0-1.8-0.3-2.6-0.7c-0.8-0.4-1.6-0.8-2.4-1.3c-0.8-0.4-1.6-0.9-2.5-1.2c-0.9-0.3-1.8-0.5-2.7-0.4
	c-0.2,0-0.3,0-0.5,0.1c-0.2,0-0.3,0-0.5-0.1c-0.2-0.1-0.3-0.2-0.5-0.3c-0.1-0.1-0.2-0.3-0.3-0.4c-0.2-0.3-0.4-0.6-0.7-0.8
	c-0.2-0.1-0.5-0.2-0.7-0.2c-0.3,0-0.5,0.1-0.8,0.2c-0.5,0.2-0.8,0.7-1,1.1c-0.5,0.9-0.5,2-1,2.9c-0.5,0.9-1.3,1.5-2.2,1.9
	c-0.9,0.4-1.9,0.7-2.9,1c-2.6,0.9-5,2.2-7.5,3.4c-2.5,1.2-5.1,2.2-7.8,2.6c-2.9,0.4-5.8-0.1-8.7,0c-0.3,0-0.7,0-1,0
	c-0.7-0.1-1.4-0.3-2-0.6c-0.6-0.3-1.2-0.8-1.7-1.2c-1.1-0.9-2.1-2-3.4-2.6c-1.7-0.8-3.7-0.8-5.5-0.4c-1.8,0.4-3.5,1.2-5.2,2
	c-1.7,0.8-3.5,1.5-5.3,1.7c-0.9,0.1-1.9,0.1-2.8-0.1c-0.9-0.2-1.8-0.6-2.5-1.2c-0.9-0.7-1.5-1.8-1.9-2.8s-0.6-2.2-0.7-3.4
	c-0.2-2.3-0.1-4.6-1-6.8c-0.1-0.3-0.2-0.5-0.3-0.8c-0.1-0.3-0.1-0.6,0-0.9c0-0.1,0.1-0.3,0.2-0.4c0.1-0.1,0.2-0.2,0.4-0.2
	c0.1,0,0.3,0,0.4,0c0.1,0.1,0.3,0.2,0.3,0.3c0.1,0.2,0,0.3,0,0.5c-0.1,0.3-0.3,0.6-0.6,0.8c-0.3,0.2-0.6,0.3-1,0.3
	c-0.7,0-1.3-0.2-1.9-0.6c-0.6-0.4-1-0.9-1.5-1.3c-0.5-0.5-1-0.9-1.7-1.1c-0.6-0.2-1.2-0.2-1.8-0.2c-0.6,0-1.2,0.1-1.8,0.2
	c-2.5,0.2-5-0.6-7-2c-2-1.4-3.6-3.3-4.7-5.5c-1.4-2.7-2.1-5.6-3.1-8.5c-1.1-3.3-2.6-6.6-2.9-10c-0.2-1.7-0.1-3.5,0.5-5.2
	c0.5-1.7,1.6-3.2,3-4.2c0.5-0.4,1-0.6,1.5-1C82.6,96.4,83.7,94.9,84.2,93.4L84.2,93.4z"/>
<path id="path8415-55" opacity="0.539" fill="#4D4D4D" enable-background="new    " d="M78.6,154.7l1-11.5c0.4-0.2,0.8-0.6,1-1
	c0.3-0.5,0.4-1,0.5-1.5c0.1-0.5,0.2-1,0.5-1.5c0.3-0.6,0.9-1,1.4-1.4c0.6-0.4,1.1-0.7,1.6-1.1c0.7-0.6,1.3-1.4,2-2
	c0.6-0.5,1.4-0.7,2.2-0.8c0.8-0.1,1.6-0.1,2.4-0.2c2.2-0.2,4.4-0.6,6.6-0.5c1.2,0.1,2.5,0.3,3.6,1c0.9,0.6,1.6,1.4,2.3,2.1
	c0.4,0.4,0.8,0.7,1.3,0.9c0.5,0.3,1,0.4,1.5,0.4c0.6,0,1.1-0.2,1.6-0.5c0.5-0.3,0.9-0.7,1.1-1.2c0.5-1,0.6-2.2,0.3-3.3
	c-0.3-1.1-0.8-2.1-1.4-3.1s-1.2-1.9-1.7-2.9c-0.5-1.2-0.9-2.4-0.8-3.7c0.1-0.6,0.2-1.3,0.5-1.8c0.3-0.6,0.7-1.1,1.3-1.4
	c0.2-0.1,0.4-0.3,0.6-0.4c0.2-0.2,0.4-0.3,0.4-0.6c0-0.2,0-0.3,0-0.5c0-0.2,0-0.3,0-0.5c0-0.2,0.1-0.4,0.2-0.6
	c0.1-0.2,0.2-0.3,0.4-0.5c0.3-0.3,0.7-0.4,1.1-0.6c0.4-0.2,0.8-0.3,1.1-0.5c0.3-0.2,0.7-0.5,0.8-0.9c0.1-0.2,0.1-0.4,0.2-0.5
	c0-0.1,0.1-0.2,0.1-0.3c0.1-0.1,0.1-0.1,0.2-0.2c0.2-0.1,0.3-0.1,0.5-0.1c0.2,0,0.3,0.1,0.5,0.1c0.3,0,0.6-0.1,0.8-0.3
	c0.2-0.2,0.4-0.4,0.6-0.6c0.3-0.5,0.4-1.1,0.7-1.6c0.3-0.7,0.9-1.4,1.5-1.9c0.7-0.5,1.4-0.9,2.2-1.1c1.6-0.5,3.3-0.5,4.9-0.5
	c3.3,0,6.7,0.1,9.8,1.1c1.6,0.5,3.1,1.2,4.4,2.2c1.3,1,2.4,2.3,3.1,3.7c0.5,1,0.8,2.1,1.5,3c0.5,0.6,1.3,1.1,2,1.3
	c0.8,0.2,1.6,0.3,2.4,0.2c1.6-0.2,3.2-0.8,4.7-1.5c1.5-0.7,3-1.3,4.7-1.5c0.8-0.1,1.7,0,2.4,0.2c0.8,0.2,1.5,0.7,2.1,1.3
	c0.6,0.7,0.9,1.6,1.1,2.6c0.2,0.9,0.1,1.9,0.1,2.8c0,0.9,0.1,1.9,0.3,2.8c0.3,0.9,0.7,1.8,1.5,2.3c0.8,0.6,1.9,0.8,3,0.9
	c1,0.1,2.1,0,3.1,0.1c1.3,0.2,2.6,0.8,3.8,1.3c1.2,0.5,2.5,1.1,3.8,1.2c0.7,0.1,1.4,0,2,0c1.5-0.1,3-0.1,4.4,0.3
	c0.7,0.2,1.4,0.5,2,1c0.6,0.5,1,1.1,1.3,1.8c0.2,0.6,0.2,1.2,0.3,1.8c0,0.3,0.1,0.6,0.2,0.9c0.1,0.3,0.3,0.6,0.5,0.8
	c0.3,0.3,0.7,0.5,1,0.6c0.4,0.1,0.8,0.1,1.2,0c0.8-0.1,1.6-0.4,2.3-0.6c2-0.5,4.1-0.2,6,0.4c1.9,0.7,3.6,1.8,5.2,3.1
	c2.4,1.9,4.5,4.2,5.6,7c0.3,0.6,0.5,1.3,0.5,2c0,0.9-0.3,1.9-0.4,2.8c-0.1,0.5-0.1,0.9-0.1,1.4c0.1,0.5,0.2,0.9,0.5,1.3
	c0.2,0.3,0.5,0.5,0.8,0.7c0.3,0.2,0.6,0.5,0.8,0.8c0.3,0.4,0.4,0.8,0.5,1.2c0.1,0.4,0.2,0.9,0.5,1.3c0.4,0.6,1,1,1.5,1.5
	c1.1,1,1.6,2.5,1.9,4c0.2,1.5,0.2,3,0.2,4.5c0,0.7,0,1.3,0,2c-0.2,2.5-1.3,4.8-3.1,6.6c-1.8,1.8-4.1,2.9-6.6,3.4
	c-1.3,0.3-2.6,0.3-3.9,0.5c-1.3,0.2-2.6,0.4-3.8,1c-2,1-3.4,2.9-4.4,4.9c-1,2-1.7,4.1-2.7,6.1c-0.5,1-1.1,1.9-2,2.5
	c-0.8,0.5-1.7,0.7-2.5,1c-1.8,0.7-3.2,2.1-4.6,3.5c-1.1,1.1-2.1,2.2-3.4,3.1c-1.3,0.9-2.7,1.5-4.3,1.4c-0.9,0-1.8-0.3-2.6-0.7
	c-0.8-0.4-1.6-0.8-2.4-1.3c-0.8-0.4-1.6-0.9-2.5-1.2c-0.9-0.3-1.8-0.5-2.7-0.4c-0.2,0-0.3,0-0.5,0.1c-0.2,0-0.3,0-0.5-0.1
	c-0.2-0.1-0.3-0.2-0.5-0.3c-0.1-0.1-0.2-0.3-0.3-0.4c-0.2-0.3-0.4-0.6-0.7-0.8c-0.2-0.1-0.5-0.2-0.7-0.2c-0.3,0-0.5,0.1-0.8,0.2
	c-0.5,0.2-0.8,0.7-1,1.1c-0.5,0.9-0.5,2-1,2.9c-0.5,0.9-1.3,1.5-2.2,1.9c-0.9,0.4-1.9,0.7-2.9,1c-2.6,0.9-5,2.2-7.5,3.4
	c-2.5,1.2-5.1,2.2-7.8,2.6c-2.9,0.4-5.8-0.1-8.7,0c-0.3,0-0.7,0-1,0c-0.7-0.1-1.4-0.3-2-0.6c-0.6-0.3-1.2-0.8-1.7-1.2
	c-1.1-0.9-2.1-2-3.4-2.6c-1.7-0.8-3.7-0.8-5.5-0.4c-1.8,0.4-3.5,1.2-5.2,2c-1.7,0.8-3.5,1.5-5.3,1.7c-0.9,0.1-1.9,0.1-2.8-0.1
	c-0.9-0.2-1.8-0.6-2.5-1.2c-0.9-0.7-1.5-1.8-1.9-2.8s-0.6-2.2-0.7-3.4c-0.2-2.3-0.1-4.6-1-6.8c-0.1-0.3-0.2-0.5-0.3-0.8
	c-0.1-0.3-0.1-0.6,0-0.9c0-0.1,0.1-0.3,0.2-0.4c0.1-0.1,0.2-0.2,0.4-0.2c0.1,0,0.3,0,0.4,0c0.1,0.1,0.3,0.2,0.3,0.3
	c0.1,0.2,0,0.3,0,0.5c-0.1,0.3-0.3,0.6-0.6,0.8c-0.3,0.2-0.6,0.3-1,0.3c-0.7,0-1.3-0.2-1.9-0.6c-0.6-0.4-1-0.9-1.5-1.3
	c-0.5-0.5-1-0.9-1.7-1.1c-0.6-0.2-1.2-0.2-1.8-0.2c-0.6,0-1.2,0.1-1.8,0.2c-2.5,0.2-5-0.6-7-2c-2-1.4-3.6-3.3-4.7-5.5
	c-1.4-2.7-2.1-5.6-3.1-8.5c-1.1-3.3-2.6-6.6-2.9-10c-0.2-1.7-0.1-3.5,0.5-5.2c0.5-1.7,1.6-3.2,3-4.2c0.5-0.4,1-0.6,1.5-1
	C77,157.7,78.1,156.3,78.6,154.7L78.6,154.7z"/>
<path id="path8415-7" opacity="0.539" fill="#4D4D4D" enable-background="new    " d="M148.4,159.1l1-11.5c0.4-0.2,0.8-0.6,1-1
	c0.3-0.5,0.4-1,0.5-1.5c0.1-0.5,0.2-1,0.5-1.5c0.3-0.6,0.9-1,1.4-1.4c0.6-0.4,1.1-0.7,1.6-1.1c0.7-0.6,1.3-1.4,2-2
	c0.6-0.5,1.4-0.7,2.2-0.8c0.8-0.1,1.6-0.1,2.4-0.2c2.2-0.2,4.4-0.6,6.6-0.5c1.2,0.1,2.5,0.3,3.6,1c0.9,0.6,1.6,1.4,2.3,2.1
	c0.4,0.4,0.8,0.7,1.3,0.9c0.5,0.3,1,0.4,1.5,0.4c0.6,0,1.1-0.2,1.6-0.5c0.5-0.3,0.9-0.7,1.1-1.2c0.5-1,0.6-2.2,0.3-3.3
	c-0.3-1.1-0.8-2.1-1.4-3.1c-0.6-1-1.2-1.9-1.7-2.9c-0.5-1.2-0.9-2.4-0.8-3.7c0.1-0.6,0.2-1.3,0.5-1.8c0.3-0.6,0.7-1.1,1.3-1.4
	c0.2-0.1,0.4-0.3,0.6-0.4c0.2-0.2,0.4-0.3,0.4-0.6c0-0.2,0-0.3,0-0.5c0-0.2,0-0.3,0-0.5c0-0.2,0.1-0.4,0.2-0.6
	c0.1-0.2,0.2-0.3,0.4-0.5c0.3-0.3,0.7-0.4,1.1-0.6c0.4-0.2,0.8-0.3,1.1-0.5c0.3-0.2,0.7-0.5,0.8-0.9c0.1-0.2,0.1-0.4,0.2-0.5
	c0-0.1,0.1-0.2,0.1-0.3c0.1-0.1,0.1-0.1,0.2-0.2c0.2-0.1,0.3-0.1,0.5-0.1c0.2,0,0.3,0.1,0.5,0.1c0.3,0,0.6-0.1,0.8-0.3
	c0.2-0.2,0.4-0.4,0.6-0.6c0.3-0.5,0.4-1.1,0.7-1.6c0.3-0.7,0.9-1.4,1.5-1.9c0.7-0.5,1.4-0.9,2.2-1.1c1.6-0.5,3.3-0.5,4.9-0.5
	c3.3,0,6.7,0.1,9.8,1.1c1.6,0.5,3.1,1.2,4.4,2.2c1.3,1,2.4,2.3,3.1,3.7c0.5,1,0.8,2.1,1.5,3c0.5,0.6,1.3,1.1,2,1.3
	c0.8,0.2,1.6,0.3,2.4,0.2c1.6-0.2,3.2-0.8,4.7-1.5c1.5-0.7,3-1.3,4.7-1.5c0.8-0.1,1.7,0,2.4,0.2c0.8,0.2,1.5,0.7,2.1,1.3
	c0.6,0.7,0.9,1.6,1.1,2.6c0.2,0.9,0.1,1.9,0.1,2.8c0,0.9,0.1,1.9,0.3,2.8c0.3,0.9,0.7,1.8,1.5,2.3c0.8,0.6,1.9,0.8,3,0.9
	c1,0.1,2.1,0,3.1,0.1c1.3,0.2,2.6,0.8,3.8,1.3c1.2,0.5,2.5,1.1,3.8,1.2c0.7,0.1,1.4,0,2,0c1.5-0.1,3-0.1,4.4,0.3
	c0.7,0.2,1.4,0.5,2,1c0.6,0.5,1,1.1,1.3,1.8c0.2,0.6,0.2,1.2,0.3,1.8c0,0.3,0.1,0.6,0.2,0.9c0.1,0.3,0.3,0.6,0.5,0.8
	c0.3,0.3,0.7,0.5,1,0.6c0.4,0.1,0.8,0.1,1.2,0c0.8-0.1,1.6-0.4,2.3-0.6c2-0.5,4.1-0.2,6,0.4c1.9,0.7,3.6,1.8,5.2,3.1
	c2.4,1.9,4.5,4.2,5.6,7c0.3,0.6,0.5,1.3,0.5,2c0,0.9-0.3,1.9-0.4,2.8c-0.1,0.5-0.1,0.9-0.1,1.4c0.1,0.5,0.2,0.9,0.5,1.3
	c0.2,0.3,0.5,0.5,0.8,0.7c0.3,0.2,0.6,0.5,0.8,0.8c0.3,0.4,0.4,0.8,0.5,1.2c0.1,0.4,0.2,0.9,0.5,1.3c0.4,0.6,1,1,1.5,1.5
	c1.1,1,1.6,2.5,1.9,4c0.2,1.5,0.2,3,0.2,4.5c0,0.7,0,1.3,0,2c-0.2,2.5-1.3,4.8-3.1,6.6c-1.8,1.8-4.1,2.9-6.6,3.4
	c-1.3,0.3-2.6,0.3-3.9,0.5c-1.3,0.2-2.6,0.4-3.8,1c-2,1-3.4,2.9-4.4,4.9c-1,2-1.7,4.1-2.7,6.1c-0.5,1-1.1,1.9-2,2.5
	c-0.8,0.5-1.7,0.7-2.5,1c-1.8,0.7-3.2,2.1-4.6,3.5c-1.1,1.1-2.1,2.2-3.4,3.1c-1.3,0.9-2.7,1.5-4.3,1.4c-0.9,0-1.8-0.3-2.6-0.7
	c-0.8-0.4-1.6-0.8-2.4-1.3c-0.8-0.4-1.6-0.9-2.5-1.2c-0.9-0.3-1.8-0.5-2.7-0.4c-0.2,0-0.3,0-0.5,0.1c-0.2,0-0.3,0-0.5-0.1
	c-0.2-0.1-0.3-0.2-0.5-0.3c-0.1-0.1-0.2-0.3-0.3-0.4c-0.2-0.3-0.4-0.6-0.7-0.8c-0.2-0.1-0.5-0.2-0.7-0.2c-0.3,0-0.5,0.1-0.8,0.2
	c-0.5,0.2-0.8,0.7-1,1.1c-0.5,0.9-0.5,2-1,2.9c-0.5,0.9-1.3,1.5-2.2,1.9c-0.9,0.4-1.9,0.7-2.9,1c-2.6,0.9-5,2.2-7.5,3.4
	c-2.5,1.2-5.1,2.2-7.8,2.6c-2.9,0.4-5.8-0.1-8.7,0c-0.3,0-0.7,0-1,0c-0.7-0.1-1.4-0.3-2-0.6c-0.6-0.3-1.2-0.8-1.7-1.2
	c-1.1-0.9-2.1-2-3.4-2.6c-1.7-0.8-3.7-0.8-5.5-0.4c-1.8,0.4-3.5,1.2-5.2,2c-1.7,0.8-3.5,1.5-5.3,1.7c-0.9,0.1-1.9,0.1-2.8-0.1
	c-0.9-0.2-1.8-0.6-2.5-1.2c-0.9-0.7-1.5-1.8-1.9-2.8s-0.6-2.2-0.7-3.4c-0.2-2.3-0.1-4.6-1-6.8c-0.1-0.3-0.2-0.5-0.3-0.8
	c-0.1-0.3-0.1-0.6,0-0.9c0-0.1,0.1-0.3,0.2-0.4c0.1-0.1,0.2-0.2,0.4-0.2c0.1,0,0.3,0,0.4,0c0.1,0.1,0.3,0.2,0.3,0.3
	c0.1,0.2,0,0.3,0,0.5c-0.1,0.3-0.3,0.6-0.6,0.8c-0.3,0.2-0.6,0.3-1,0.3c-0.7,0-1.3-0.2-1.9-0.6s-1-0.9-1.5-1.3
	c-0.5-0.5-1-0.9-1.7-1.1c-0.6-0.2-1.2-0.2-1.8-0.2c-0.6,0-1.2,0.1-1.8,0.2c-2.5,0.2-5-0.6-7-2c-2-1.4-3.6-3.3-4.7-5.5
	c-1.4-2.7-2.1-5.6-3.1-8.5c-1.1-3.3-2.6-6.6-2.9-10c-0.2-1.7-0.1-3.5,0.5-5.2c0.5-1.7,1.6-3.2,3-4.2c0.5-0.4,1-0.6,1.5-1
	C146.8,162.2,147.8,160.7,148.4,159.1L148.4,159.1z"/>
<path id="path8415-15" opacity="0.1702" fill="#4D4D4D" enable-background="new    " d="M31.6,74.5l1.4-15c0.6-0.3,1.1-0.8,1.4-1.3
	c0.4-0.6,0.6-1.3,0.7-2c0.2-0.7,0.3-1.4,0.7-2c0.5-0.7,1.2-1.3,2-1.8c0.8-0.5,1.6-0.9,2.3-1.5c1-0.8,1.8-1.9,2.9-2.6
	c0.9-0.6,2-0.9,3.1-1.1c1.1-0.2,2.2-0.2,3.4-0.2c3.1-0.2,6.2-0.8,9.4-0.7c1.8,0.1,3.6,0.4,5.1,1.3c1.3,0.7,2.2,1.8,3.3,2.8
	c0.5,0.5,1.1,0.9,1.8,1.2c0.7,0.3,1.4,0.5,2.1,0.6c0.8,0,1.6-0.2,2.3-0.6c0.7-0.4,1.2-1,1.6-1.6c0.7-1.3,0.8-2.9,0.4-4.3
	c-0.4-1.4-1.1-2.7-1.9-4s-1.7-2.5-2.4-3.8c-0.8-1.5-1.2-3.2-1.1-4.9c0.1-0.8,0.3-1.7,0.7-2.4c0.4-0.7,1-1.4,1.8-1.9
	c0.3-0.2,0.6-0.3,0.9-0.5c0.3-0.2,0.5-0.5,0.6-0.8c0.1-0.2,0.1-0.4,0-0.7c0-0.2-0.1-0.4,0-0.7c0-0.3,0.1-0.5,0.3-0.7
	c0.1-0.2,0.3-0.4,0.6-0.6c0.4-0.3,1-0.6,1.5-0.8c0.5-0.2,1.1-0.4,1.6-0.7c0.5-0.3,0.9-0.7,1.1-1.1c0.1-0.2,0.1-0.5,0.2-0.7
	c0-0.1,0.1-0.2,0.2-0.3c0.1-0.1,0.2-0.2,0.3-0.3c0.2-0.1,0.5-0.1,0.7-0.1c0.2,0,0.5,0.1,0.7,0.1c0.4,0,0.8-0.1,1.1-0.4
	c0.3-0.2,0.6-0.5,0.8-0.8c0.4-0.6,0.6-1.4,0.9-2.1c0.5-1,1.3-1.8,2.2-2.4c0.9-0.6,2-1.1,3.1-1.4c2.2-0.6,4.6-0.7,7-0.7
	c4.7,0,9.4,0.1,13.9,1.4c2.2,0.6,4.4,1.6,6.2,2.9c1.9,1.3,3.4,2.9,4.4,4.9c0.7,1.3,1.1,2.8,2.2,3.9c0.8,0.8,1.8,1.4,2.9,1.7
	c1.1,0.3,2.3,0.4,3.5,0.3c2.3-0.2,4.5-1.1,6.6-2c2.1-0.9,4.3-1.7,6.6-2c1.2-0.1,2.3,0,3.5,0.3c1.1,0.3,2.2,0.9,2.9,1.7
	c0.9,0.9,1.3,2.1,1.6,3.3c0.2,1.2,0.2,2.4,0.2,3.7c0,1.2,0.1,2.5,0.4,3.6c0.4,1.2,1,2.3,2.1,3.1c1.2,0.8,2.7,1.1,4.2,1.1
	c1.5,0.1,3,0,4.5,0.2c1.9,0.3,3.7,1,5.4,1.7c1.7,0.7,3.5,1.4,5.4,1.6c1,0.1,1.9,0,2.9,0c2.1-0.1,4.2-0.2,6.3,0.3
	c1,0.3,2,0.7,2.8,1.3c0.8,0.6,1.5,1.4,1.8,2.3c0.3,0.8,0.3,1.6,0.4,2.4c0.1,0.4,0.2,0.8,0.3,1.2c0.2,0.4,0.4,0.7,0.7,1
	c0.4,0.4,0.9,0.6,1.5,0.7c0.6,0.1,1.1,0.1,1.7,0.1c1.1-0.1,2.2-0.5,3.3-0.8c2.8-0.6,5.8-0.3,8.5,0.6c2.7,0.9,5.2,2.3,7.4,4
	c3.3,2.5,6.3,5.5,7.9,9.1c0.4,0.8,0.7,1.7,0.7,2.6c0.1,1.2-0.4,2.4-0.6,3.6c-0.1,0.6-0.2,1.2-0.1,1.8c0.1,0.6,0.3,1.2,0.7,1.7
	c0.3,0.4,0.7,0.7,1.1,1c0.4,0.3,0.8,0.6,1.1,1c0.4,0.5,0.6,1.1,0.7,1.6c0.2,0.6,0.4,1.1,0.7,1.6c0.5,0.8,1.4,1.3,2.2,2
	c1.5,1.4,2.3,3.3,2.6,5.2c0.3,1.9,0.2,3.9,0.2,5.9c0,0.9,0.1,1.7,0,2.6c-0.2,3.2-1.9,6.3-4.4,8.6s-5.8,3.8-9.3,4.4
	c-1.8,0.3-3.7,0.4-5.5,0.6c-1.8,0.2-3.7,0.6-5.3,1.3c-2.8,1.3-4.8,3.8-6.3,6.4c-1.4,2.6-2.4,5.4-3.8,8c-0.7,1.3-1.6,2.5-2.9,3.3
	c-1.1,0.6-2.4,0.9-3.6,1.3c-2.6,0.9-4.6,2.8-6.5,4.6c-1.5,1.4-3,2.9-4.8,4s-3.9,1.9-6.1,1.9c-1.3,0-2.6-0.4-3.7-0.9
	c-1.2-0.5-2.3-1.1-3.4-1.7c-1.1-0.6-2.3-1.1-3.5-1.5c-1.2-0.4-2.5-0.6-3.8-0.5c-0.2,0-0.5,0.1-0.7,0.1c-0.2,0-0.5,0-0.7-0.1
	c-0.2-0.1-0.5-0.2-0.7-0.4c-0.2-0.2-0.3-0.3-0.5-0.5c-0.3-0.4-0.6-0.8-1-1c-0.3-0.2-0.7-0.3-1.1-0.3c-0.4,0-0.7,0.1-1.1,0.2
	c-0.7,0.3-1.1,0.9-1.5,1.5c-0.7,1.2-0.8,2.6-1.5,3.8c-0.7,1.1-1.9,2-3.2,2.6c-1.3,0.6-2.7,0.9-4,1.4c-3.7,1.2-7.1,2.9-10.6,4.4
	c-3.5,1.5-7.2,2.9-11,3.4c-4.1,0.5-8.2-0.1-12.3,0c-0.5,0-1,0-1.4,0c-1-0.1-2-0.4-2.9-0.8c-0.9-0.5-1.7-1-2.4-1.6
	c-1.5-1.2-3-2.6-4.8-3.4c-2.4-1.1-5.2-1-7.8-0.5c-2.6,0.6-5,1.6-7.4,2.6c-2.4,1-4.9,1.9-7.6,2.2c-1.3,0.1-2.7,0.1-4-0.2
	c-1.3-0.3-2.5-0.8-3.6-1.6c-1.3-1-2.2-2.3-2.7-3.7c-0.6-1.4-0.8-2.9-0.9-4.4c-0.3-3-0.2-6.1-1.4-8.9c-0.2-0.4-0.3-0.7-0.5-1.1
	c-0.1-0.4-0.2-0.8,0-1.1c0.1-0.2,0.2-0.4,0.3-0.5c0.1-0.1,0.3-0.3,0.5-0.3c0.2-0.1,0.4,0,0.6,0c0.2,0.1,0.4,0.2,0.4,0.4
	c0.1,0.2,0.1,0.4,0,0.7c-0.1,0.4-0.4,0.8-0.8,1c-0.4,0.2-0.9,0.4-1.4,0.4c-1,0-1.9-0.3-2.7-0.8c-0.8-0.5-1.4-1.2-2.1-1.8
	c-0.7-0.6-1.5-1.2-2.4-1.5c-0.8-0.3-1.7-0.3-2.5-0.2c-0.8,0.1-1.7,0.2-2.5,0.2c-3.5,0.2-7-0.8-9.9-2.6c-2.9-1.8-5.1-4.4-6.7-7.2
	c-2-3.5-3-7.4-4.3-11.1c-1.6-4.3-3.6-8.6-4.2-13.1c-0.3-2.3-0.1-4.6,0.6-6.8c0.8-2.2,2.2-4.2,4.2-5.5c0.7-0.5,1.5-0.8,2.2-1.3
	C29.3,78.4,30.8,76.5,31.6,74.5L31.6,74.5z"/>
<path id="path8415-0" opacity="0.1773" fill="#4D4D4D" enable-background="new    " d="M11,126.2l1.1-12.5c0.5-0.3,0.8-0.6,1.1-1.1
	c0.3-0.5,0.4-1.1,0.5-1.6c0.1-0.6,0.3-1.1,0.6-1.6c0.4-0.6,0.9-1.1,1.5-1.5s1.2-0.8,1.8-1.2c0.8-0.7,1.4-1.6,2.2-2.2
	c0.7-0.5,1.5-0.7,2.4-0.9c0.8-0.1,1.7-0.1,2.6-0.2c2.4-0.2,4.8-0.7,7.2-0.5c1.3,0.1,2.7,0.4,3.9,1.1c1,0.6,1.7,1.5,2.5,2.3
	c0.4,0.4,0.9,0.8,1.4,1c0.5,0.3,1.1,0.5,1.6,0.5c0.6,0,1.2-0.2,1.7-0.5c0.5-0.3,0.9-0.8,1.2-1.4c0.6-1.1,0.6-2.4,0.3-3.6
	c-0.3-1.2-0.8-2.3-1.5-3.3c-0.6-1.1-1.3-2.1-1.8-3.2c-0.6-1.3-0.9-2.7-0.8-4.1c0.1-0.7,0.2-1.4,0.6-2c0.3-0.6,0.8-1.2,1.4-1.6
	c0.2-0.2,0.4-0.3,0.6-0.5c0.2-0.2,0.4-0.4,0.5-0.6c0-0.2,0-0.4,0-0.5c0-0.2,0-0.4,0-0.5c0-0.2,0.1-0.4,0.2-0.6
	c0.1-0.2,0.3-0.4,0.4-0.5c0.3-0.3,0.7-0.5,1.1-0.6c0.4-0.2,0.8-0.3,1.2-0.6c0.4-0.2,0.7-0.6,0.9-1c0.1-0.2,0.1-0.4,0.2-0.6
	c0-0.1,0.1-0.2,0.1-0.3c0.1-0.1,0.1-0.2,0.2-0.2c0.2-0.1,0.4-0.1,0.5-0.1c0.2,0,0.4,0.1,0.6,0.1c0.3,0,0.6-0.1,0.9-0.3
	c0.3-0.2,0.5-0.4,0.6-0.7c0.3-0.5,0.5-1.2,0.7-1.7c0.4-0.8,1-1.5,1.7-2c0.7-0.5,1.5-0.9,2.4-1.2c1.7-0.5,3.5-0.6,5.3-0.6
	c3.6,0,7.2,0.1,10.6,1.2c1.7,0.5,3.3,1.3,4.7,2.4c1.4,1.1,2.6,2.5,3.4,4.1c0.5,1.1,0.9,2.3,1.7,3.3c0.6,0.7,1.4,1.2,2.2,1.4
	c0.8,0.3,1.8,0.3,2.6,0.2c1.8-0.2,3.4-0.9,5-1.6c1.6-0.7,3.3-1.5,5-1.6c0.9-0.1,1.8,0,2.6,0.2c0.8,0.3,1.6,0.7,2.2,1.4
	c0.7,0.8,1,1.8,1.2,2.8c0.2,1,0.1,2,0.2,3.1c0,1,0.1,2.1,0.3,3c0.3,1,0.8,1.9,1.6,2.5c0.9,0.7,2.1,0.9,3.2,1c1.1,0.1,2.3,0,3.4,0.1
	c1.4,0.2,2.8,0.8,4.1,1.4c1.3,0.6,2.7,1.2,4.1,1.3c0.7,0.1,1.5,0,2.2,0c1.6-0.1,3.2-0.2,4.8,0.3c0.8,0.2,1.5,0.6,2.1,1.1
	c0.6,0.5,1.1,1.2,1.4,1.9c0.2,0.6,0.2,1.3,0.3,2c0,0.3,0.1,0.7,0.2,1c0.1,0.3,0.3,0.6,0.5,0.9c0.3,0.3,0.7,0.5,1.1,0.6
	c0.4,0.1,0.9,0.1,1.3,0c0.9-0.1,1.7-0.4,2.5-0.6c2.1-0.5,4.4-0.3,6.5,0.5c2.1,0.7,3.9,2,5.6,3.3c2.6,2.1,4.8,4.6,6.1,7.6
	c0.3,0.7,0.5,1.4,0.6,2.2c0,1-0.3,2-0.4,3c-0.1,0.5-0.1,1-0.1,1.5c0.1,0.5,0.2,1,0.5,1.4c0.2,0.3,0.5,0.6,0.8,0.8
	c0.3,0.2,0.6,0.5,0.8,0.8c0.3,0.4,0.4,0.9,0.6,1.4c0.1,0.5,0.3,1,0.5,1.4c0.4,0.7,1.1,1.1,1.7,1.6c1.2,1.1,1.8,2.8,2,4.4
	c0.2,1.6,0.2,3.3,0.2,4.9c0,0.7,0,1.5,0,2.2c-0.2,2.7-1.4,5.3-3.3,7.2s-4.5,3.2-7.1,3.7c-1.4,0.3-2.8,0.4-4.2,0.5
	c-1.4,0.2-2.8,0.5-4.1,1.1c-2.2,1.1-3.7,3.2-4.8,5.3c-1.1,2.2-1.8,4.5-2.9,6.6c-0.5,1-1.2,2.1-2.2,2.7c-0.8,0.5-1.8,0.7-2.8,1.1
	c-2,0.8-3.5,2.3-5,3.8c-1.1,1.2-2.3,2.4-3.6,3.3c-1.4,0.9-3,1.6-4.6,1.6c-1,0-1.9-0.3-2.8-0.7c-0.9-0.4-1.7-0.9-2.6-1.4
	c-0.9-0.5-1.7-1-2.6-1.3c-0.9-0.3-1.9-0.5-2.9-0.4c-0.2,0-0.4,0-0.6,0.1c-0.2,0-0.4,0-0.5-0.1c-0.2-0.1-0.4-0.2-0.5-0.3
	c-0.1-0.1-0.3-0.3-0.4-0.5c-0.2-0.3-0.4-0.7-0.8-0.9c-0.2-0.2-0.5-0.2-0.8-0.2c-0.3,0-0.6,0.1-0.8,0.2c-0.5,0.3-0.9,0.7-1.1,1.2
	c-0.5,1-0.6,2.2-1.1,3.2c-0.5,1-1.4,1.6-2.4,2.1c-1,0.5-2,0.8-3.1,1.1c-2.8,1-5.4,2.4-8.1,3.7c-2.7,1.3-5.5,2.5-8.4,2.8
	c-3.1,0.4-6.2-0.1-9.4,0c-0.4,0-0.7,0-1.1,0c-0.8-0.1-1.5-0.3-2.2-0.7c-0.7-0.4-1.3-0.9-1.9-1.4c-1.2-1-2.3-2.2-3.6-2.8
	c-1.8-0.9-4-0.9-5.9-0.4c-2,0.5-3.8,1.4-5.7,2.2s-3.8,1.6-5.8,1.8c-1,0.1-2,0.1-3-0.1c-1-0.2-1.9-0.7-2.7-1.3
	c-1-0.8-1.6-1.9-2.1-3.1s-0.6-2.4-0.7-3.7c-0.2-2.5-0.1-5.1-1.1-7.4c-0.1-0.3-0.3-0.6-0.3-0.9c-0.1-0.3-0.1-0.6,0-1
	c0-0.2,0.1-0.3,0.2-0.4c0.1-0.1,0.3-0.2,0.4-0.3c0.2,0,0.3,0,0.5,0c0.2,0.1,0.3,0.2,0.3,0.3c0.1,0.2,0.1,0.4,0,0.5
	c-0.1,0.3-0.3,0.7-0.6,0.9c-0.3,0.2-0.7,0.3-1,0.3c-0.7,0-1.4-0.3-2-0.7c-0.6-0.4-1.1-1-1.6-1.5c-0.5-0.5-1.1-1-1.8-1.2
	c-0.6-0.2-1.3-0.2-1.9-0.2c-0.6,0-1.3,0.2-1.9,0.2c-2.7,0.2-5.3-0.7-7.5-2.2c-2.2-1.5-3.9-3.6-5.1-6c-1.5-2.9-2.3-6.2-3.3-9.3
	c-1.2-3.6-2.8-7.2-3.2-11c-0.2-1.9-0.1-3.8,0.5-5.7c0.6-1.8,1.7-3.5,3.2-4.6c0.5-0.4,1.1-0.7,1.7-1.1C9.2,129.4,10.4,127.9,11,126.2
	L11,126.2z"/>
<path id="path8415-9" opacity="0.1773" fill="#4D4D4D" enable-background="new    " d="M29.6,162.4l2.2-20.5c0.9-0.4,1.6-1,2.2-1.8
	c0.6-0.8,0.8-1.8,1.1-2.7c0.3-0.9,0.5-1.9,1.1-2.7c0.7-1,1.8-1.8,3-2.4c1.2-0.7,2.4-1.2,3.5-2c1.5-1.1,2.6-2.6,4.3-3.6
	c1.4-0.8,3-1.2,4.7-1.4c1.7-0.2,3.3-0.2,5-0.3c4.7-0.3,9.3-1.1,14-0.9c2.6,0.1,5.3,0.6,7.5,1.8c1.9,1,3.3,2.5,4.9,3.8
	c0.8,0.6,1.7,1.2,2.7,1.7c1,0.5,2.1,0.7,3.2,0.8c1.2,0,2.4-0.3,3.4-0.9c1-0.6,1.8-1.3,2.4-2.2c1.1-1.8,1.2-3.9,0.6-5.9
	c-0.5-1.9-1.7-3.8-2.9-5.5s-2.5-3.4-3.5-5.2c-1.1-2.1-1.8-4.4-1.6-6.6c0.1-1.1,0.5-2.3,1.1-3.3c0.6-1,1.5-1.9,2.6-2.6
	c0.4-0.3,0.9-0.5,1.3-0.7c0.4-0.3,0.7-0.6,0.9-1c0.1-0.3,0.1-0.6,0-0.9c0-0.3-0.1-0.6,0-0.9c0-0.4,0.2-0.7,0.4-1
	c0.2-0.3,0.5-0.6,0.8-0.8c0.7-0.5,1.5-0.8,2.2-1c0.8-0.3,1.6-0.5,2.3-0.9c0.7-0.4,1.4-0.9,1.7-1.6c0.1-0.3,0.2-0.7,0.4-1
	c0.1-0.2,0.2-0.3,0.3-0.5c0.1-0.1,0.3-0.3,0.4-0.3c0.3-0.1,0.7-0.2,1.1-0.1c0.4,0,0.7,0.1,1.1,0.1c0.6,0,1.2-0.2,1.7-0.5
	c0.5-0.3,0.9-0.7,1.2-1.2c0.6-0.9,0.9-1.9,1.4-2.8c0.7-1.3,1.9-2.5,3.3-3.3c1.4-0.9,3-1.5,4.6-2c3.3-0.9,6.9-0.9,10.4-0.9
	c7,0,14.1,0.1,20.7,1.9c3.3,0.9,6.5,2.2,9.3,3.9c2.8,1.8,5.1,4,6.6,6.7c1,1.8,1.7,3.8,3.2,5.4c1.1,1.1,2.7,1.9,4.3,2.3
	c1.7,0.4,3.4,0.5,5.2,0.4c3.5-0.3,6.7-1.5,9.9-2.7c3.2-1.2,6.4-2.4,9.9-2.7c1.7-0.1,3.5-0.1,5.2,0.4c1.7,0.4,3.2,1.2,4.3,2.3
	c1.3,1.3,2,2.9,2.3,4.6c0.3,1.7,0.3,3.3,0.3,5c0,1.7,0.1,3.4,0.6,5c0.5,1.6,1.6,3.2,3.2,4.2c1.8,1.1,4.1,1.5,6.3,1.6
	c2.2,0.1,4.4,0,6.6,0.2c2.8,0.3,5.4,1.3,8,2.3c2.6,1,5.3,1.9,8.1,2.2c1.4,0.1,2.9,0.1,4.3,0c3.1-0.1,6.3-0.3,9.3,0.5
	c1.5,0.4,2.9,0.9,4.2,1.8c1.2,0.8,2.2,1.9,2.6,3.2c0.4,1.1,0.4,2.2,0.6,3.3c0.1,0.5,0.2,1.1,0.5,1.6c0.2,0.5,0.6,1,1,1.4
	c0.6,0.5,1.4,0.8,2.2,1c0.8,0.2,1.7,0.2,2.5,0.1c1.7-0.2,3.3-0.7,4.9-1.1c4.2-0.9,8.6-0.4,12.7,0.8c4,1.2,7.7,3.2,11,5.5
	c5,3.4,9.4,7.5,11.8,12.5c0.6,1.1,1,2.3,1.1,3.6c0.1,1.7-0.5,3.3-0.9,5c-0.2,0.8-0.3,1.7-0.2,2.5c0.1,0.8,0.4,1.7,1,2.3
	c0.4,0.5,1,0.9,1.6,1.3c0.6,0.4,1.2,0.8,1.6,1.3c0.6,0.7,0.8,1.4,1.1,2.2c0.3,0.8,0.5,1.6,1,2.2c0.8,1.1,2.1,1.8,3.2,2.7
	c2.3,1.9,3.5,4.5,3.9,7.2c0.5,2.6,0.3,5.3,0.4,8c0,1.2,0.1,2.4,0,3.6c-0.3,4.4-2.8,8.6-6.5,11.8c-3.7,3.1-8.7,5.2-13.9,6.1
	c-2.7,0.4-5.5,0.6-8.2,0.9s-5.5,0.8-7.9,1.8c-4.2,1.8-7.2,5.2-9.3,8.8c-2.1,3.6-3.6,7.4-5.7,10.9c-1.1,1.7-2.3,3.4-4.3,4.5
	c-1.6,0.9-3.6,1.2-5.4,1.8c-3.8,1.3-6.8,3.8-9.7,6.3c-2.2,1.9-4.4,3.9-7.1,5.5c-2.6,1.5-5.8,2.6-9,2.6c-1.9-0.1-3.8-0.5-5.6-1.2
	c-1.8-0.6-3.4-1.5-5.1-2.3c-1.7-0.8-3.4-1.6-5.2-2.1c-1.8-0.5-3.8-0.9-5.7-0.7c-0.4,0-0.7,0.1-1.1,0.1c-0.4,0-0.7,0-1.1-0.1
	c-0.4-0.1-0.7-0.3-1-0.5c-0.3-0.2-0.5-0.5-0.7-0.7c-0.4-0.5-0.9-1.1-1.5-1.4c-0.5-0.2-1-0.4-1.6-0.4c-0.6,0-1.1,0.1-1.6,0.3
	c-1,0.4-1.7,1.2-2.2,2c-1,1.6-1.1,3.6-2.2,5.2c-1,1.6-2.8,2.7-4.7,3.5c-1.9,0.8-4,1.3-6,1.9c-5.5,1.6-10.6,3.9-15.8,6.1
	c-5.2,2.1-10.7,4-16.4,4.7c-6,0.7-12.2-0.1-18.3,0c-0.7,0-1.4,0-2.2,0c-1.5-0.1-3-0.5-4.3-1.2c-1.3-0.6-2.5-1.4-3.6-2.2
	c-2.3-1.7-4.4-3.5-7.1-4.6c-3.6-1.4-7.8-1.4-11.6-0.7c-3.9,0.8-7.4,2.2-11.1,3.6c-3.6,1.4-7.3,2.6-11.3,3c-2,0.2-4,0.1-5.9-0.2
	c-1.9-0.4-3.8-1.1-5.3-2.2c-1.9-1.3-3.2-3.1-4-5.1c-0.8-1.9-1.2-4-1.4-6c-0.4-4.1-0.3-8.3-2.1-12.1c-0.2-0.5-0.5-1-0.7-1.5
	c-0.2-0.5-0.2-1.1,0-1.6c0.1-0.3,0.2-0.5,0.5-0.7c0.2-0.2,0.5-0.3,0.8-0.4c0.3-0.1,0.6-0.1,0.9,0c0.3,0.1,0.5,0.3,0.7,0.5
	c0.1,0.3,0.1,0.6,0,0.9c-0.2,0.6-0.7,1.1-1.3,1.4c-0.6,0.3-1.3,0.5-2,0.5c-1.4,0.1-2.8-0.4-4-1.1c-1.2-0.7-2.1-1.6-3.2-2.4
	c-1-0.8-2.2-1.6-3.5-2c-1.2-0.4-2.5-0.4-3.8-0.3c-1.3,0.1-2.5,0.2-3.8,0.3c-5.2,0.3-10.5-1.1-14.7-3.6c-4.3-2.5-7.6-6-10-9.8
	c-2.9-4.8-4.4-10.1-6.5-15.2c-2.3-5.9-5.4-11.8-6.2-18c-0.4-3.1-0.2-6.3,1-9.3c1.2-3,3.3-5.7,6.3-7.6c1-0.6,2.2-1.2,3.2-1.8
	C26.1,167.8,28.4,165.2,29.6,162.4L29.6,162.4z"/>
<path id="path8415-8" opacity="0.1773" fill="#4D4D4D" enable-background="new    " d="M161.1,203l1-11.5c0.4-0.2,0.8-0.6,1-1
	c0.3-0.5,0.4-1,0.5-1.5c0.1-0.5,0.2-1,0.5-1.5c0.3-0.6,0.9-1,1.4-1.4c0.6-0.4,1.1-0.7,1.6-1.1c0.7-0.6,1.3-1.4,2-2
	c0.6-0.5,1.4-0.7,2.2-0.8c0.8-0.1,1.6-0.1,2.4-0.2c2.2-0.2,4.4-0.6,6.6-0.5c1.2,0.1,2.5,0.3,3.6,1c0.9,0.6,1.6,1.4,2.3,2.1
	c0.4,0.4,0.8,0.7,1.3,0.9c0.5,0.3,1,0.4,1.5,0.4c0.6,0,1.1-0.2,1.6-0.5c0.5-0.3,0.9-0.7,1.1-1.2c0.5-1,0.6-2.2,0.3-3.3
	c-0.3-1.1-0.8-2.1-1.4-3.1c-0.6-1-1.2-1.9-1.7-2.9c-0.5-1.2-0.9-2.4-0.8-3.7c0.1-0.6,0.2-1.3,0.5-1.8c0.3-0.6,0.7-1.1,1.3-1.4
	c0.2-0.1,0.4-0.3,0.6-0.4c0.2-0.2,0.4-0.3,0.4-0.6c0-0.2,0-0.3,0-0.5c0-0.2,0-0.3,0-0.5c0-0.2,0.1-0.4,0.2-0.6
	c0.1-0.2,0.2-0.3,0.4-0.5c0.3-0.3,0.7-0.4,1.1-0.6c0.4-0.2,0.8-0.3,1.1-0.5c0.3-0.2,0.7-0.5,0.8-0.9c0.1-0.2,0.1-0.4,0.2-0.5
	c0-0.1,0.1-0.2,0.1-0.3c0.1-0.1,0.1-0.1,0.2-0.2c0.2-0.1,0.3-0.1,0.5-0.1c0.2,0,0.3,0.1,0.5,0.1c0.3,0,0.6-0.1,0.8-0.3
	c0.2-0.2,0.4-0.4,0.6-0.6c0.3-0.5,0.4-1.1,0.7-1.6c0.3-0.7,0.9-1.4,1.5-1.9c0.7-0.5,1.4-0.9,2.2-1.1c1.6-0.5,3.3-0.5,4.9-0.5
	c3.3,0,6.7,0.1,9.8,1.1c1.6,0.5,3.1,1.2,4.4,2.2c1.3,1,2.4,2.3,3.1,3.7c0.5,1,0.8,2.1,1.5,3c0.5,0.6,1.3,1.1,2,1.3
	c0.8,0.2,1.6,0.3,2.4,0.2c1.6-0.2,3.2-0.8,4.7-1.5c1.5-0.7,3-1.3,4.7-1.5c0.8-0.1,1.7,0,2.4,0.2c0.8,0.2,1.5,0.7,2.1,1.3
	c0.6,0.7,0.9,1.6,1.1,2.6c0.2,0.9,0.1,1.9,0.1,2.8c0,0.9,0.1,1.9,0.3,2.8c0.3,0.9,0.7,1.8,1.5,2.3c0.8,0.6,1.9,0.8,3,0.9
	c1,0.1,2.1,0,3.1,0.1c1.3,0.2,2.6,0.8,3.8,1.3c1.2,0.5,2.5,1.1,3.8,1.2c0.7,0.1,1.4,0,2,0c1.5-0.1,3-0.1,4.4,0.3
	c0.7,0.2,1.4,0.5,2,1s1,1.1,1.3,1.8c0.2,0.6,0.2,1.2,0.3,1.8c0,0.3,0.1,0.6,0.2,0.9c0.1,0.3,0.3,0.6,0.5,0.8c0.3,0.3,0.7,0.5,1,0.6
	c0.4,0.1,0.8,0.1,1.2,0c0.8-0.1,1.6-0.4,2.3-0.6c2-0.5,4.1-0.2,6,0.4c1.9,0.7,3.6,1.8,5.2,3.1c2.4,1.9,4.5,4.2,5.6,7
	c0.3,0.6,0.5,1.3,0.5,2c0,0.9-0.3,1.9-0.4,2.8c-0.1,0.5-0.1,0.9-0.1,1.4c0.1,0.5,0.2,0.9,0.5,1.3c0.2,0.3,0.5,0.5,0.8,0.7
	c0.3,0.2,0.6,0.5,0.8,0.8c0.3,0.4,0.4,0.8,0.5,1.2c0.1,0.4,0.2,0.9,0.5,1.3c0.4,0.6,1,1,1.5,1.5c1.1,1,1.6,2.5,1.9,4
	c0.2,1.5,0.2,3,0.2,4.5c0,0.7,0,1.3,0,2c-0.2,2.5-1.3,4.8-3.1,6.6c-1.8,1.8-4.1,2.9-6.6,3.4c-1.3,0.3-2.6,0.3-3.9,0.5
	c-1.3,0.2-2.6,0.4-3.8,1c-2,1-3.4,2.9-4.4,4.9c-1,2-1.7,4.1-2.7,6.1c-0.5,1-1.1,1.9-2,2.5c-0.8,0.5-1.7,0.7-2.5,1
	c-1.8,0.7-3.2,2.1-4.6,3.5c-1.1,1.1-2.1,2.2-3.4,3.1c-1.3,0.9-2.7,1.5-4.3,1.4c-0.9,0-1.8-0.3-2.6-0.7c-0.8-0.4-1.6-0.8-2.4-1.3
	c-0.8-0.4-1.6-0.9-2.5-1.2c-0.9-0.3-1.8-0.5-2.7-0.4c-0.2,0-0.3,0-0.5,0.1c-0.2,0-0.3,0-0.5-0.1c-0.2-0.1-0.3-0.2-0.5-0.3
	c-0.1-0.1-0.2-0.3-0.3-0.4c-0.2-0.3-0.4-0.6-0.7-0.8c-0.2-0.1-0.5-0.2-0.7-0.2c-0.3,0-0.5,0.1-0.8,0.2c-0.5,0.2-0.8,0.7-1,1.1
	c-0.5,0.9-0.5,2-1,2.9c-0.5,0.9-1.3,1.5-2.2,1.9s-1.9,0.7-2.9,1c-2.6,0.9-5,2.2-7.5,3.4c-2.5,1.2-5.1,2.2-7.8,2.6
	c-2.9,0.4-5.8-0.1-8.7,0c-0.3,0-0.7,0-1,0c-0.7-0.1-1.4-0.3-2-0.6c-0.6-0.3-1.2-0.8-1.7-1.2c-1.1-0.9-2.1-2-3.4-2.6
	c-1.7-0.8-3.7-0.8-5.5-0.4s-3.5,1.2-5.2,2c-1.7,0.8-3.5,1.5-5.3,1.7c-0.9,0.1-1.9,0.1-2.8-0.1c-0.9-0.2-1.8-0.6-2.5-1.2
	c-0.9-0.7-1.5-1.8-1.9-2.8s-0.6-2.2-0.7-3.4c-0.2-2.3-0.1-4.6-1-6.8c-0.1-0.3-0.2-0.5-0.3-0.8c-0.1-0.3-0.1-0.6,0-0.9
	c0-0.1,0.1-0.3,0.2-0.4c0.1-0.1,0.2-0.2,0.4-0.2c0.1,0,0.3,0,0.4,0c0.1,0.1,0.3,0.2,0.3,0.3c0.1,0.2,0,0.3,0,0.5
	c-0.1,0.3-0.3,0.6-0.6,0.8c-0.3,0.2-0.6,0.3-1,0.3c-0.7,0-1.3-0.2-1.9-0.6c-0.6-0.4-1-0.9-1.5-1.3c-0.5-0.5-1-0.9-1.7-1.1
	c-0.6-0.2-1.2-0.2-1.8-0.2c-0.6,0-1.2,0.1-1.8,0.2c-2.5,0.2-5-0.6-7-2c-2-1.4-3.6-3.3-4.7-5.5c-1.4-2.7-2.1-5.6-3.1-8.5
	c-1.1-3.3-2.6-6.6-2.9-10c-0.2-1.7-0.1-3.5,0.5-5.2c0.5-1.7,1.6-3.2,3-4.2c0.5-0.4,1-0.6,1.5-1C159.5,206,160.6,204.6,161.1,203
	L161.1,203z"/>
<path id="path8415-558" opacity="0.1702" fill="#4D4D4D" enable-background="new    " d="M77,53.5l1.6-13.3c0.7-0.3,1.2-0.7,1.6-1.2
	c0.4-0.5,0.6-1.1,0.8-1.7c0.2-0.6,0.4-1.2,0.8-1.7c0.5-0.7,1.3-1.2,2.2-1.6s1.8-0.8,2.5-1.3c1.1-0.7,2-1.7,3.2-2.3
	c1-0.5,2.2-0.8,3.4-0.9c1.2-0.1,2.5-0.2,3.7-0.2c3.4-0.2,6.9-0.7,10.3-0.6c1.9,0.1,3.9,0.4,5.5,1.2c1.4,0.7,2.4,1.6,3.6,2.5
	c0.6,0.4,1.2,0.8,2,1.1c0.7,0.3,1.5,0.5,2.4,0.5c0.9,0,1.8-0.2,2.5-0.6c0.7-0.4,1.3-0.9,1.7-1.4c0.8-1.1,0.9-2.5,0.5-3.8
	c-0.4-1.3-1.2-2.4-2.1-3.5c-0.9-1.1-1.9-2.2-2.6-3.4c-0.8-1.3-1.4-2.8-1.2-4.3c0.1-0.7,0.4-1.5,0.8-2.1c0.5-0.7,1.1-1.2,1.9-1.7
	c0.3-0.2,0.6-0.3,0.9-0.5c0.3-0.2,0.5-0.4,0.6-0.7c0.1-0.2,0.1-0.4,0-0.6c0-0.2-0.1-0.4,0-0.6c0-0.2,0.1-0.5,0.3-0.7
	c0.2-0.2,0.4-0.4,0.6-0.5c0.5-0.3,1.1-0.5,1.7-0.7c0.6-0.2,1.2-0.3,1.7-0.6c0.5-0.2,1-0.6,1.3-1c0.1-0.2,0.2-0.4,0.3-0.6
	c0.1-0.1,0.1-0.2,0.2-0.3c0.1-0.1,0.2-0.2,0.3-0.2c0.2-0.1,0.5-0.1,0.8-0.1c0.3,0,0.5,0.1,0.8,0.1c0.5,0,0.9-0.1,1.3-0.3
	c0.4-0.2,0.6-0.5,0.9-0.7c0.4-0.6,0.7-1.2,1-1.8c0.5-0.9,1.4-1.6,2.4-2.2c1-0.6,2.2-1,3.4-1.3c2.5-0.6,5.1-0.6,7.6-0.6
	c5.1,0,10.4,0.1,15.3,1.2c2.4,0.6,4.8,1.4,6.8,2.5c2,1.1,3.8,2.6,4.8,4.3c0.8,1.2,1.2,2.5,2.4,3.5c0.8,0.7,2,1.2,3.2,1.5
	c1.2,0.3,2.5,0.3,3.8,0.2c2.5-0.2,4.9-1,7.3-1.7c2.3-0.8,4.7-1.5,7.3-1.7c1.3-0.1,2.6,0,3.8,0.2c1.2,0.3,2.4,0.8,3.2,1.5
	c1,0.8,1.5,1.9,1.7,3c0.2,1.1,0.2,2.2,0.2,3.2c0,1.1,0.1,2.2,0.5,3.2c0.4,1,1.1,2,2.3,2.7c1.3,0.7,3,0.9,4.6,1
	c1.6,0.1,3.3,0,4.9,0.1c2.1,0.2,4,0.9,5.9,1.5c1.9,0.6,3.9,1.2,6,1.4c1.1,0.1,2.1,0,3.2,0c2.3-0.1,4.7-0.2,6.9,0.3
	c1.1,0.2,2.2,0.6,3.1,1.1s1.6,1.2,1.9,2c0.3,0.7,0.3,1.4,0.5,2.1c0.1,0.4,0.2,0.7,0.3,1c0.2,0.3,0.4,0.6,0.8,0.9
	c0.4,0.3,1,0.5,1.6,0.6c0.6,0.1,1.2,0.1,1.9,0c1.2-0.1,2.4-0.5,3.6-0.7c3.1-0.6,6.4-0.3,9.3,0.5s5.7,2.1,8.1,3.5
	c3.7,2.2,6.9,4.9,8.7,8.1c0.4,0.7,0.7,1.5,0.8,2.3c0.1,1.1-0.4,2.1-0.6,3.2c-0.1,0.5-0.2,1.1-0.1,1.6c0.1,0.5,0.3,1.1,0.7,1.5
	c0.3,0.3,0.8,0.6,1.2,0.9c0.4,0.3,0.9,0.5,1.2,0.9c0.4,0.4,0.6,0.9,0.8,1.4c0.2,0.5,0.4,1,0.8,1.5c0.6,0.7,1.6,1.2,2.4,1.7
	c1.7,1.2,2.5,2.9,2.9,4.6c0.3,1.7,0.2,3.5,0.3,5.2c0,0.8,0.1,1.5,0,2.3c-0.2,2.9-2,5.6-4.8,7.6c-2.8,2-6.4,3.4-10.3,3.9
	c-2,0.3-4,0.4-6,0.6c-2,0.2-4,0.5-5.8,1.2c-3.1,1.2-5.3,3.4-6.9,5.7s-2.6,4.8-4.2,7c-0.8,1.1-1.7,2.2-3.2,2.9
	c-1.2,0.6-2.6,0.8-4,1.2c-2.8,0.8-5,2.4-7.1,4c-1.6,1.3-3.3,2.5-5.2,3.6c-1.9,1-4.3,1.7-6.7,1.7c-1.4,0-2.8-0.3-4.1-0.8
	c-1.3-0.4-2.5-1-3.8-1.5c-1.2-0.5-2.5-1-3.8-1.4c-1.3-0.4-2.8-0.6-4.2-0.4c-0.3,0-0.5,0.1-0.8,0.1c-0.3,0-0.5,0-0.8-0.1
	c-0.3-0.1-0.5-0.2-0.7-0.3c-0.2-0.1-0.4-0.3-0.5-0.5c-0.3-0.3-0.6-0.7-1.1-0.9c-0.3-0.2-0.8-0.2-1.2-0.2c-0.4,0-0.8,0.1-1.2,0.2
	c-0.7,0.3-1.3,0.8-1.6,1.3c-0.7,1.1-0.8,2.3-1.6,3.3c-0.8,1-2.1,1.7-3.5,2.3c-1.4,0.5-2.9,0.8-4.4,1.2c-4,1-7.8,2.6-11.7,3.9
	c-3.8,1.4-7.9,2.6-12.1,3c-4.5,0.4-9-0.1-13.5,0c-0.5,0-1.1,0-1.6,0c-1.1-0.1-2.2-0.4-3.2-0.8c-1-0.4-1.8-0.9-2.7-1.4
	c-1.7-1.1-3.2-2.3-5.3-3c-2.6-0.9-5.7-0.9-8.6-0.4c-2.8,0.5-5.5,1.4-8.1,2.3c-2.7,0.9-5.4,1.7-8.3,2c-1.5,0.1-2.9,0.1-4.4-0.2
	c-1.4-0.2-2.8-0.7-3.9-1.4c-1.4-0.9-2.4-2-3-3.3s-0.9-2.6-1-3.9c-0.3-2.6-0.2-5.4-1.5-7.8c-0.2-0.3-0.4-0.6-0.5-1
	c-0.1-0.3-0.2-0.7,0-1c0.1-0.2,0.2-0.3,0.3-0.4c0.2-0.1,0.4-0.2,0.6-0.3c0.2,0,0.5,0,0.7,0c0.2,0.1,0.4,0.2,0.5,0.4
	c0.1,0.2,0.1,0.4,0,0.6c-0.1,0.4-0.5,0.7-0.9,0.9c-0.4,0.2-1,0.3-1.5,0.4c-1.1,0-2.1-0.3-2.9-0.7c-0.9-0.5-1.6-1-2.3-1.6
	c-0.8-0.5-1.6-1-2.6-1.3c-0.9-0.2-1.8-0.3-2.8-0.2c-0.9,0-1.9,0.2-2.8,0.2c-3.8,0.2-7.7-0.7-10.9-2.3c-3.2-1.6-5.6-3.9-7.4-6.4
	c-2.2-3.1-3.3-6.5-4.8-9.8c-1.7-3.8-4-7.6-4.6-11.6c-0.3-2-0.1-4.1,0.7-6c0.9-1.9,2.4-3.7,4.7-4.9c0.8-0.4,1.6-0.8,2.4-1.2
	C74.5,57,76.2,55.3,77,53.5L77,53.5z"/>
<path id="path8415-01" opacity="0.1773" fill="#4D4D4D" enable-background="new    " d="M269.3,62.6l11.7-0.8
	c0.3,0.4,0.7,0.7,1.2,0.8c0.5,0.2,1.1,0.2,1.6,0.3c0.5,0,1.1,0.1,1.6,0.3c0.6,0.2,1.1,0.7,1.6,1.2c0.5,0.5,0.9,1,1.4,1.4
	c0.7,0.6,1.7,1,2.3,1.7c0.6,0.6,0.9,1.3,1.2,2s0.4,1.5,0.6,2.3c0.5,2.1,1.3,4.2,1.5,6.3c0.1,1.2,0.1,2.5-0.4,3.6
	c-0.4,0.9-1.2,1.7-1.8,2.6c-0.3,0.4-0.6,0.9-0.8,1.4c-0.2,0.5-0.3,1-0.2,1.5c0.1,0.6,0.4,1.1,0.7,1.5c0.4,0.4,0.9,0.7,1.4,0.9
	c1.1,0.4,2.3,0.2,3.3-0.2c1.1-0.4,2-1.1,2.9-1.8s1.7-1.5,2.7-2.1c1.1-0.7,2.3-1.2,3.6-1.3c0.6,0,1.3,0,1.9,0.2
	c0.6,0.2,1.2,0.5,1.7,1c0.2,0.2,0.3,0.4,0.5,0.5c0.2,0.2,0.4,0.3,0.7,0.3c0.2,0,0.3,0,0.5-0.1c0.2,0,0.3-0.1,0.5-0.1
	c0.2,0,0.4,0,0.6,0.1c0.2,0.1,0.4,0.2,0.5,0.3c0.3,0.3,0.5,0.6,0.8,0.9c0.2,0.3,0.4,0.7,0.7,1c0.3,0.3,0.6,0.6,1,0.6
	c0.2,0,0.4,0,0.6,0.1c0.1,0,0.2,0,0.3,0.1c0.1,0,0.2,0.1,0.2,0.2c0.1,0.1,0.1,0.3,0.1,0.5c0,0.2,0,0.3,0,0.5c0,0.3,0.2,0.5,0.4,0.7
	c0.2,0.2,0.5,0.3,0.7,0.4c0.5,0.2,1.1,0.2,1.7,0.4c0.8,0.2,1.5,0.6,2.1,1.2c0.6,0.6,1.1,1.2,1.4,2c0.7,1.4,1,3.1,1.3,4.7
	c0.5,3.2,1,6.5,0.5,9.7c-0.3,1.6-0.7,3.2-1.5,4.6s-1.9,2.7-3.3,3.6c-0.9,0.6-2,1.1-2.8,1.9c-0.5,0.6-0.9,1.4-1,2.2
	c-0.1,0.8,0,1.6,0.2,2.4c0.4,1.6,1.3,2.9,2.2,4.3s1.8,2.7,2.2,4.3c0.2,0.8,0.3,1.6,0.2,2.4s-0.4,1.6-1,2.2c-0.6,0.7-1.5,1.2-2.4,1.5
	c-0.9,0.3-1.9,0.4-2.8,0.6c-0.9,0.2-1.9,0.3-2.8,0.7c-0.9,0.4-1.7,1-2.1,1.8c-0.5,0.9-0.5,2-0.4,3c0.1,1,0.4,2,0.4,3.1
	c0,1.3-0.4,2.6-0.7,3.9c-0.3,1.3-0.7,2.6-0.6,3.9c0,0.7,0.2,1.3,0.3,2c0.3,1.4,0.6,2.9,0.4,4.3c-0.1,0.7-0.3,1.4-0.7,2.1
	c-0.4,0.6-0.9,1.2-1.6,1.5c-0.6,0.3-1.2,0.4-1.8,0.6c-0.3,0.1-0.6,0.2-0.9,0.4c-0.3,0.2-0.5,0.4-0.7,0.6c-0.2,0.3-0.4,0.7-0.4,1.1
	c0,0.4,0,0.8,0.1,1.2c0.2,0.8,0.6,1.4,1,2.2c0.8,1.8,0.9,3.9,0.5,5.9c-0.4,2-1.2,3.8-2.3,5.5c-1.5,2.6-3.5,5-6.2,6.5
	c-0.6,0.4-1.2,0.7-1.9,0.8c-0.9,0.2-1.9,0-2.9,0c-0.5,0-1,0-1.4,0.2c-0.5,0.1-0.9,0.3-1.2,0.7c-0.3,0.2-0.4,0.6-0.6,0.9
	c-0.2,0.3-0.4,0.6-0.6,0.9c-0.3,0.3-0.8,0.5-1.2,0.7c-0.4,0.2-0.8,0.4-1.2,0.7c-0.5,0.5-0.8,1.1-1.3,1.7c-0.9,1.2-2.3,2-3.7,2.4
	c-1.5,0.4-3,0.6-4.5,0.9c-0.7,0.1-1.3,0.2-2,0.3c-2.5,0.2-5.1-0.5-7.1-1.9c-2-1.4-3.6-3.5-4.5-5.8c-0.5-1.2-0.7-2.4-1.1-3.7
	c-0.4-1.2-0.8-2.4-1.6-3.5c-1.3-1.8-3.5-2.8-5.6-3.5c-2.2-0.7-4.4-1-6.6-1.7c-1-0.3-2.1-0.8-2.8-1.6c-0.6-0.7-0.9-1.5-1.4-2.3
	c-1-1.6-2.6-2.8-4.2-3.9c-1.3-0.9-2.5-1.7-3.6-2.8c-1.1-1.1-1.9-2.4-2.1-3.9c-0.1-0.9,0-1.8,0.2-2.7c0.2-0.9,0.6-1.7,0.9-2.5
	c0.3-0.8,0.6-1.7,0.8-2.6c0.2-0.9,0.2-1.8,0-2.7c0-0.2-0.1-0.3-0.1-0.5c0-0.2-0.1-0.3,0-0.5c0-0.2,0.1-0.3,0.2-0.5
	c0.1-0.1,0.2-0.3,0.4-0.4c0.3-0.3,0.5-0.5,0.7-0.8c0.1-0.2,0.1-0.5,0.1-0.8c0-0.3-0.2-0.5-0.3-0.7c-0.3-0.4-0.8-0.7-1.3-0.8
	c-1-0.3-2.1-0.2-3.1-0.5c-1-0.3-1.7-1-2.3-1.9c-0.6-0.8-1-1.7-1.5-2.6c-1.3-2.4-3-4.5-4.6-6.7c-1.6-2.2-3.1-4.5-3.8-7.1
	c-0.8-2.7-0.8-5.6-1.4-8.4c-0.1-0.3-0.1-0.7-0.2-1c-0.1-0.7,0.1-1.4,0.3-2.1c0.3-0.7,0.6-1.3,1-1.9c0.8-1.2,1.7-2.3,2.1-3.7
	c0.6-1.8,0.2-3.7-0.5-5.4c-0.7-1.7-1.8-3.2-2.8-4.7c-1-1.5-2-3.1-2.5-4.9c-0.3-0.9-0.4-1.8-0.3-2.7c0.1-0.9,0.3-1.8,0.8-2.6
	c0.6-1,1.5-1.7,2.6-2.3c1-0.5,2.2-0.9,3.3-1.2c2.3-0.5,4.7-0.8,6.7-2c0.3-0.2,0.5-0.3,0.8-0.4c0.3-0.1,0.6-0.2,0.9-0.2
	c0.2,0,0.3,0.1,0.4,0.2c0.1,0.1,0.2,0.2,0.3,0.3c0.1,0.1,0.1,0.3,0,0.4c0,0.1-0.1,0.3-0.3,0.4c-0.1,0.1-0.3,0.1-0.5,0.1
	c-0.3,0-0.7-0.2-0.9-0.5c-0.2-0.2-0.4-0.6-0.5-0.9c-0.1-0.6,0-1.3,0.3-1.9c0.3-0.6,0.7-1.1,1.1-1.7c0.4-0.5,0.7-1.1,0.9-1.8
	c0.1-0.6,0-1.2-0.1-1.7c-0.1-0.6-0.3-1.1-0.5-1.7c-0.6-2.4-0.2-4.9,0.9-7.1c1.1-2.2,2.8-4,4.8-5.4c2.5-1.8,5.3-2.9,8.1-4.3
	c3.2-1.6,6.2-3.5,9.7-4.4c1.7-0.5,3.5-0.6,5.3-0.4c1.8,0.3,3.5,1,4.7,2.2c0.4,0.4,0.8,0.9,1.2,1.3C266.1,61.4,267.7,62.3,269.3,62.6
	L269.3,62.6z"/>
<path id="path8415-0-0" opacity="0.1773" fill="#4D4D4D" enable-background="new    " d="M118.2,223.8l1.1-12.5
	c0.5-0.3,0.8-0.6,1.1-1.1c0.3-0.5,0.4-1.1,0.5-1.6c0.1-0.6,0.3-1.1,0.6-1.6c0.4-0.6,0.9-1.1,1.5-1.5c0.6-0.4,1.2-0.8,1.8-1.2
	c0.8-0.7,1.4-1.6,2.2-2.2c0.7-0.5,1.5-0.7,2.4-0.9c0.8-0.1,1.7-0.1,2.6-0.2c2.4-0.2,4.8-0.7,7.2-0.5c1.3,0.1,2.7,0.4,3.9,1.1
	c1,0.6,1.7,1.5,2.5,2.3c0.4,0.4,0.9,0.8,1.4,1c0.5,0.3,1.1,0.5,1.6,0.5c0.6,0,1.2-0.2,1.7-0.5c0.5-0.3,0.9-0.8,1.2-1.4
	c0.6-1.1,0.6-2.4,0.3-3.6c-0.3-1.2-0.8-2.3-1.5-3.3c-0.6-1.1-1.3-2.1-1.8-3.2c-0.6-1.3-0.9-2.7-0.8-4.1c0.1-0.7,0.2-1.4,0.6-2
	c0.3-0.6,0.8-1.2,1.4-1.6c0.2-0.2,0.4-0.3,0.6-0.5c0.2-0.2,0.4-0.4,0.5-0.6c0-0.2,0-0.4,0-0.5c0-0.2,0-0.4,0-0.5
	c0-0.2,0.1-0.4,0.2-0.6c0.1-0.2,0.3-0.4,0.4-0.5c0.3-0.3,0.7-0.5,1.1-0.6c0.4-0.2,0.8-0.3,1.2-0.6c0.4-0.2,0.7-0.6,0.9-1
	c0.1-0.2,0.1-0.4,0.2-0.6c0-0.1,0.1-0.2,0.1-0.3c0.1-0.1,0.1-0.2,0.2-0.2c0.2-0.1,0.4-0.1,0.5-0.1c0.2,0,0.4,0.1,0.6,0.1
	c0.3,0,0.6-0.1,0.9-0.3c0.3-0.2,0.5-0.4,0.6-0.7c0.3-0.5,0.5-1.2,0.7-1.7c0.4-0.8,1-1.5,1.7-2c0.7-0.5,1.5-0.9,2.4-1.2
	c1.7-0.5,3.5-0.6,5.3-0.6c3.6,0,7.2,0.1,10.6,1.2c1.7,0.5,3.3,1.3,4.7,2.4c1.4,1.1,2.6,2.5,3.4,4.1c0.5,1.1,0.9,2.3,1.7,3.3
	c0.6,0.7,1.4,1.2,2.2,1.4s1.8,0.3,2.6,0.2c1.8-0.2,3.4-0.9,5-1.6c1.6-0.7,3.3-1.5,5-1.6c0.9-0.1,1.8,0,2.6,0.2
	c0.8,0.3,1.6,0.7,2.2,1.4c0.7,0.8,1,1.8,1.2,2.8c0.2,1,0.1,2,0.2,3.1c0,1,0.1,2.1,0.3,3c0.3,1,0.8,1.9,1.6,2.5
	c0.9,0.7,2.1,0.9,3.2,1c1.1,0.1,2.3,0,3.4,0.1c1.4,0.2,2.8,0.8,4.1,1.4c1.3,0.6,2.7,1.2,4.1,1.3c0.7,0.1,1.5,0,2.2,0
	c1.6-0.1,3.2-0.2,4.8,0.3c0.8,0.2,1.5,0.6,2.1,1.1s1.1,1.2,1.4,1.9c0.2,0.6,0.2,1.3,0.3,2c0,0.3,0.1,0.7,0.2,1
	c0.1,0.3,0.3,0.6,0.5,0.9c0.3,0.3,0.7,0.5,1.1,0.6c0.4,0.1,0.9,0.1,1.3,0c0.9-0.1,1.7-0.4,2.5-0.6c2.1-0.5,4.4-0.3,6.5,0.5
	c2.1,0.7,3.9,2,5.6,3.3c2.6,2.1,4.8,4.6,6.1,7.6c0.3,0.7,0.5,1.4,0.6,2.2c0,1-0.3,2-0.4,3c-0.1,0.5-0.1,1-0.1,1.5
	c0.1,0.5,0.2,1,0.5,1.4c0.2,0.3,0.5,0.6,0.8,0.8c0.3,0.2,0.6,0.5,0.8,0.8c0.3,0.4,0.4,0.9,0.6,1.4c0.1,0.5,0.3,1,0.5,1.4
	c0.4,0.7,1.1,1.1,1.7,1.6c1.2,1.1,1.8,2.8,2,4.4c0.2,1.6,0.2,3.3,0.2,4.9c0,0.7,0,1.5,0,2.2c-0.2,2.7-1.4,5.3-3.3,7.2
	s-4.5,3.2-7.1,3.7c-1.4,0.3-2.8,0.4-4.2,0.5c-1.4,0.2-2.8,0.5-4.1,1.1c-2.2,1.1-3.7,3.2-4.8,5.3s-1.8,4.5-2.9,6.6
	c-0.5,1-1.2,2.1-2.2,2.7c-0.8,0.5-1.8,0.7-2.8,1.1c-2,0.8-3.5,2.3-5,3.8c-1.1,1.2-2.3,2.4-3.6,3.3c-1.4,0.9-3,1.6-4.6,1.6
	c-1,0-1.9-0.3-2.8-0.7c-0.9-0.4-1.7-0.9-2.6-1.4c-0.9-0.5-1.7-1-2.6-1.3c-0.9-0.3-1.9-0.5-2.9-0.4c-0.2,0-0.4,0-0.6,0.1
	c-0.2,0-0.4,0-0.5-0.1c-0.2-0.1-0.4-0.2-0.5-0.3c-0.1-0.1-0.3-0.3-0.4-0.5c-0.2-0.3-0.4-0.7-0.8-0.9c-0.2-0.2-0.5-0.2-0.8-0.2
	c-0.3,0-0.6,0.1-0.8,0.2c-0.5,0.3-0.9,0.7-1.1,1.2c-0.5,1-0.6,2.2-1.1,3.2c-0.5,1-1.4,1.6-2.4,2.1c-1,0.5-2,0.8-3.1,1.1
	c-2.8,1-5.4,2.4-8.1,3.7c-2.7,1.3-5.5,2.5-8.4,2.8c-3.1,0.4-6.2-0.1-9.4,0c-0.4,0-0.7,0-1.1,0c-0.8-0.1-1.5-0.3-2.2-0.7
	c-0.7-0.4-1.3-0.9-1.9-1.4c-1.2-1-2.3-2.2-3.6-2.8c-1.8-0.9-4-0.9-5.9-0.4s-3.8,1.4-5.7,2.2c-1.8,0.8-3.8,1.6-5.8,1.8
	c-1,0.1-2,0.1-3-0.1c-1-0.2-1.9-0.7-2.7-1.3c-1-0.8-1.6-1.9-2.1-3.1s-0.6-2.4-0.7-3.7c-0.2-2.5-0.1-5.1-1.1-7.4
	c-0.1-0.3-0.3-0.6-0.3-0.9c-0.1-0.3-0.1-0.6,0-1c0-0.2,0.1-0.3,0.2-0.4c0.1-0.1,0.3-0.2,0.4-0.3c0.2,0,0.3,0,0.5,0
	c0.2,0.1,0.3,0.2,0.3,0.3c0.1,0.2,0.1,0.4,0,0.5c-0.1,0.3-0.3,0.7-0.6,0.9c-0.3,0.2-0.7,0.3-1,0.3c-0.7,0-1.4-0.3-2-0.7
	s-1.1-1-1.6-1.5c-0.5-0.5-1.1-1-1.8-1.2c-0.6-0.2-1.3-0.2-1.9-0.2c-0.6,0-1.3,0.2-1.9,0.2c-2.7,0.2-5.3-0.7-7.5-2.2
	c-2.2-1.5-3.9-3.6-5.1-6c-1.5-2.9-2.3-6.2-3.3-9.3c-1.2-3.6-2.8-7.2-3.2-11c-0.2-1.9-0.1-3.8,0.5-5.7c0.6-1.8,1.7-3.5,3.2-4.6
	c0.5-0.4,1.1-0.7,1.7-1.1C116.5,227.1,117.6,225.6,118.2,223.8L118.2,223.8z"/>
</svg>
