<?xml version="1.0" encoding="utf-8"?>
<!-- Generator: Adobe Illustrator 18.0.0, SVG Export Plug-In . SVG Version: 6.00 Build 0)  -->
<!DOCTYPE svg PUBLIC "-//W3C//DTD SVG 1.1//EN" "http://www.w3.org/Graphics/SVG/1.1/DTD/svg11.dtd">
<svg version="1.1" id="Layer_1" xmlns="http://www.w3.org/2000/svg" xmlns:xlink="http://www.w3.org/1999/xlink"
x="0px" y="0px"
width="179"
height="99"
viewbox="0 0 179 99"
preserveAspectRatio="none"
xml:space="preserve" >
<path fill="#333333" d="M174.6,97.9H63.1V9h111.5c2.8,0,5,2.2,5,5v78.9C179.6,95.7,177.4,97.9,174.6,97.9z"/>
<path fill="#D28D51" d="M71.8,97.9H30.5c-2.8,0-5-2.2-5-5V14c0-2.8,2.2-5,5-5h41.3V97.9z"/>
<rect x="17" y="22" fill="#BCBCBC" width="8.5" height="20.8"/>
<rect x="12" y="61.5" transform="matrix(-1 -4.115959e-003 4.115959e-003 -1 32.2529 143.8707)" fill="#727172" width="8.5" height="20.8"/>
<rect x="17" y="59.5" fill="#BCBCBC" width="8.5" height="25"/>
<rect x="12.2" y="19.8" transform="matrix(-1 -4.115959e-003 4.115959e-003 -1 32.7422 64.6224)" fill="#727172" width="8.5" height="25"/>
<path d="M11,91.4L11,91.4c1.1,0,2-0.9,2-2v-76c0-1.1-0.9-2-2-2h0c-1.1,0-2,0.9-2,2v76C9,90.5,9.9,91.4,11,91.4z"/>
<text transform="matrix(0 -1 1 0 125.3703 60.4443)" fill="#CCCCCC" font-family="'MyriadPro-Regular'" font-size="17">9V</text>
</svg>
