<?xml version="1.0" encoding="utf-8"?>
<!DOCTYPE svg PUBLIC "-//W3C//DTD SVG 1.1//EN" "http://www.w3.org/Graphics/SVG/1.1/DTD/svg11.dtd">
<svg version="1.1"
	 id="svg836" xmlns:dc="http://purl.org/dc/elements/1.1/" xmlns:cc="http://creativecommons.org/ns#" xmlns:rdf="http://www.w3.org/1999/02/22-rdf-syntax-ns#" xmlns:svg="http://www.w3.org/2000/svg" xmlns:sodipodi="http://sodipodi.sourceforge.net/DTD/sodipodi-0.dtd" xmlns:inkscape="http://www.inkscape.org/namespaces/inkscape" inkscape:version="0.92.5 (2060ec1f9f, 2020-04-08)" sodipodi:docname="BATTERY9V.svg"
	 xmlns="http://www.w3.org/2000/svg" xmlns:xlink="http://www.w3.org/1999/xlink" x="0px" y="0px" viewBox="0 0 240 133"
	 enable-background="new 0 0 240 133" xml:space="preserve">
<g id="g836">
	<path id="rect1381" inkscape:connector-curvature="0" fill="#E25D03" enable-background="new    " d="M35.3,0h48.2
		v132.9H35.3c-5.3,0-9.6-4.3-9.6-9.6V9.6C25.6,4.3,29.9,0,35.3,0z"/>
	<g id="g1479" transform="translate(-46.640993,-46.062452)">
		<polygon id="rect8" fill="#727172" points="65.3,157.7 52.2,157.6 52.3,127.9 65.5,127.9 		"/>
		<rect id="rect10" x="59.4" y="124.5" fill="#BCBCBC" width="13.1" height="35.7"/>
	</g>
	<g id="g1475" transform="translate(-42.294267,-30.187452)">
		<rect id="rect6-1" x="54.8" y="54.6" fill="#BCBCBC" width="13.1" height="29.7"/>
		<polygon id="rect12" fill="#727172" points="58.4,87.5 45.2,87.5 45.4,50.5 58.5,50.6 		"/>
	</g>
	<path id="rect1481" inkscape:connector-curvature="0" enable-background="new" d="M83.5,0h145.6
		c5.5,0,9.9,4.4,9.9,9.9v112.4c0,5.5-4.4,9.9-9.9,9.9H83.5L83.5,0z"/>
	<path id="path14" inkscape:connector-curvature="0" d="M2.3,117.9L2.3,117.9c1.3,0,2.3-1.2,2.3-2.6V16.5c0-1.4-1-2.6-2.3-2.6l0,0
		C1,13.9,0,15.1,0,16.5v98.7C0,116.7,1,117.9,2.3,117.9z"/>

		<text transform="matrix(3.190125e-002 -0.9995 0.9995 3.190125e-002 165.4073 78.3589)" fill="#B3B3B3" font-family="'ArialMT'" font-size="28">9V</text>
</g>
</svg>
