<?xml version="1.0" encoding="utf-8"?>
<!-- Generator: Adobe Illustrator 18.0.0, SVG Export Plug-In . SVG Version: 6.00 Build 0)  -->
<!DOCTYPE svg PUBLIC "-//W3C//DTD SVG 1.1//EN" "http://www.w3.org/Graphics/SVG/1.1/DTD/svg11.dtd">
<svg version="1.1"
	 id="svg13385" xmlns:dc="http://purl.org/dc/elements/1.1/" xmlns:cc="http://creativecommons.org/ns#" xmlns:rdf="http://www.w3.org/1999/02/22-rdf-syntax-ns#" xmlns:svg="http://www.w3.org/2000/svg" xmlns:sodipodi="http://sodipodi.sourceforge.net/DTD/sodipodi-0.dtd" xmlns:inkscape="http://www.inkscape.org/namespaces/inkscape" sodipodi:docname="b.svg" inkscape:version="0.92.5 (2060ec1f9f, 2020-04-08)"
	 xmlns="http://www.w3.org/2000/svg" xmlns:xlink="http://www.w3.org/1999/xlink" x="0px" y="0px" viewBox="0 0 410 132"
	 enable-background="new 0 0 410 132" xml:space="preserve">
<sodipodi:namedview  id="base" inkscape:cy="716.4109" inkscape:cx="134.66886" inkscape:zoom="0.98994949" borderopacity="1.0" bordercolor="#666666" showgrid="false" pagecolor="#ffffff" inkscape:window-y="-9" inkscape:window-x="-9" inkscape:window-height="1001" inkscape:window-width="1920" inkscape:current-layer="layer1" inkscape:document-units="mm" inkscape:pageshadow="2" inkscape:pageopacity="0.0" inkscape:window-maximized="1">
	</sodipodi:namedview>
<g id="layer1" inkscape:label="Layer 1" inkscape:groupmode="layer">
	<g id="g13377" transform="matrix(1.3721077,0,0,1.5354908,27.654742,19.31569)">
		<path id="_x30_.1.0.0" inkscape:connector-curvature="0" fill="#008080" d="M-20.2,71.5v-84.1h252.9v84.1H-20.2 M222.6-2.9
			c0,1.4,1.3,2.6,2.9,2.6s2.9-1.2,2.9-2.6c0,0,0,0,0,0c0-1.4-1.3-2.6-2.9-2.6S222.6-4.3,222.6-2.9C222.6-2.9,222.6-2.9,222.6-2.9z
			 M222.6,10.1c0,1.4,1.3,2.6,2.9,2.6c1.6,0,2.9-1.2,2.9-2.6c0,0,0,0,0,0c0-1.4-1.3-2.6-2.9-2.6S222.6,8.6,222.6,10.1
			C222.6,10,222.6,10.1,222.6,10.1z M222.6,23c0,1.4,1.3,2.6,2.9,2.6s2.9-1.2,2.9-2.6c0,0,0,0,0,0c0-1.4-1.3-2.6-2.9-2.6
			S222.6,21.6,222.6,23C222.6,23,222.6,23,222.6,23z M222.6,35.9c0,1.4,1.3,2.6,2.9,2.6c1.6,0,2.9-1.2,2.9-2.6c0,0,0,0,0,0
			c0-1.4-1.3-2.6-2.9-2.6S222.6,34.5,222.6,35.9C222.6,35.9,222.6,35.9,222.6,35.9z M222.6,48.9c0,1.4,1.3,2.6,2.9,2.6
			c1.6,0,2.9-1.2,2.9-2.6c0,0,0,0,0,0c0-1.4-1.3-2.6-2.9-2.6S222.6,47.4,222.6,48.9C222.6,48.9,222.6,48.9,222.6,48.9z M222.6,61.8
			c0,1.4,1.3,2.6,2.9,2.6s2.9-1.2,2.9-2.6c0,0,0,0,0,0c0-1.4-1.3-2.6-2.9-2.6S222.6,60.4,222.6,61.8
			C222.6,61.8,222.6,61.8,222.6,61.8z"/>
		
			<ellipse id="connector13pin" inkscape:label="#connector13pin" fill="#0000FF" stroke="#000000" stroke-width="0.8102" cx="225.5" cy="-1.6" rx="4.1" ry="3.6">
		</ellipse>
		
			<ellipse id="connector15pin" inkscape:label="#connector15pin" fill="#0000FF" stroke="#000000" stroke-width="0.8102" cx="225.5" cy="11.1" rx="4.1" ry="3.6">
		</ellipse>
		
			<ellipse id="connector17pin" inkscape:label="#connector17pin" fill="#0000FF" stroke="#000000" stroke-width="0.8102" cx="225.5" cy="23.8" rx="4.1" ry="3.6">
		</ellipse>
		
			<ellipse id="connector14pin" inkscape:label="#connector14pin" fill="#0000FF" stroke="#000000" stroke-width="0.8102" cx="225.5" cy="36.4" rx="4.1" ry="3.6">
		</ellipse>
		<ellipse id="connector16pin" fill="#0000FF" stroke="#000000" stroke-width="0.8102" cx="225.5" cy="49.1" rx="4.1" ry="3.6"/>
		
			<ellipse id="connector12pin" inkscape:label="#connector12pin" fill="#0000FF" stroke="#000000" stroke-width="0.8102" cx="225.5" cy="61.8" rx="4.1" ry="3.6">
		</ellipse>
		<g id="g6442" transform="matrix(0.70491159,0,0,0.62151082,-9.2837734,-39.1608)">
			<rect id="rect5455-2" x="71.1" y="49.4" fill="#FF8080" width="4.7" height="34.2"/>
			<rect id="rect5455-9" x="86.4" y="49.4" fill="#FF8080" width="4.7" height="34.2"/>
			<rect id="rect5455-21" x="103" y="49.4" fill="#FF8080" width="4.7" height="34.2"/>
			<rect id="rect5455-219" x="118.3" y="49.4" fill="#FF8080" width="4.7" height="34.2"/>
			<rect id="rect5455-210" x="134.8" y="49.4" fill="#FF8080" width="4.7" height="34.2"/>
			<rect id="rect5455-0" x="150.2" y="49.4" fill="#FF8080" width="4.7" height="34.2"/>
			<rect id="rect5455-99" x="166.7" y="49.4" fill="#FF8080" width="4.7" height="34.2"/>
			<rect id="rect5455" x="54.5" y="49.4" fill="#FF8080" width="4.7" height="34.2"/>
			<rect id="rect5455-99-3" x="180.4" y="49" fill="#FF8080" width="4.7" height="34.2"/>
			<rect id="rect5455-99-1" x="196.9" y="49" fill="#FF8080" width="4.7" height="34.2"/>
			<rect id="rect5455-99-4" x="212.3" y="49" fill="#FF8080" width="4.7" height="34.2"/>
			<rect id="rect5455-99-9" x="228.8" y="49" fill="#FF8080" width="4.7" height="34.2"/>
			<rect id="rect5455-99-6" x="244.2" y="49" fill="#FF8080" width="4.7" height="34.2"/>
			<rect id="rect5455-99-8" x="265.4" y="89.1" fill="#FF8080" width="34.2" height="4.7"/>
			<rect id="rect5455-99-8-1" x="265.4" y="99.7" fill="#FF8080" width="34.2" height="4.7"/>
			<rect id="rect5455-99-8-4" x="265.4" y="110.4" fill="#FF8080" width="34.2" height="4.7"/>
			<rect id="rect5455-99-8-2" x="265.4" y="121" fill="#FF8080" width="34.2" height="4.7"/>
			<rect id="rect5455-99-8-22" x="265.4" y="131.6" fill="#FF8080" width="34.2" height="4.7"/>
			<rect id="rect5455-99-8-5" x="265.4" y="142.3" fill="#FF8080" width="34.2" height="4.7"/>
			<rect id="rect5455-99-8-27" x="265.4" y="152.9" fill="#FF8080" width="34.2" height="4.7"/>
			<rect id="rect5455-99-8-40" x="265.4" y="163.5" fill="#FF8080" width="34.2" height="4.7"/>
			<rect id="rect5455-1" x="199.2" y="142.3" fill="#FF8080" width="4.7" height="34.2"/>
			<rect id="rect5455-3" x="182.7" y="142.3" fill="#FF8080" width="4.7" height="34.2"/>
			<rect id="rect5455-10" x="167.4" y="142.3" fill="#FF8080" width="4.7" height="34.2"/>
			<rect id="rect5455-4" x="150.8" y="142.3" fill="#FF8080" width="4.7" height="34.2"/>
			<rect id="rect5455-215" x="135.5" y="142.3" fill="#FF8080" width="4.7" height="34.2"/>
			<rect id="rect5455-6" x="118.9" y="142.3" fill="#FF8080" width="4.7" height="34.2"/>
			<rect id="rect5455-27" x="103.6" y="142.3" fill="#FF8080" width="4.7" height="34.2"/>
			<rect id="rect5455-5" x="55.2" y="142.3" fill="#FF8080" width="4.7" height="34.2"/>
			<rect id="rect5455-45" x="71.7" y="142.3" fill="#FF8080" width="4.7" height="34.2"/>
			<rect id="rect5455-13" x="87.1" y="142.3" fill="#FF8080" width="4.7" height="34.2"/>
			<rect id="rect5455-62" x="214.6" y="142.3" fill="#FF8080" width="4.7" height="34.2"/>
			<rect id="rect5455-08" x="231.1" y="142.3" fill="#FF8080" width="4.7" height="34.2"/>
			<rect id="rect5455-06" x="246.5" y="142.3" fill="#FF8080" width="4.7" height="34.2"/>
			<rect id="rect5455-99-8-20" x="265.4" y="78.5" fill="#FF8080" width="34.5" height="4.7"/>
			<rect id="rect5455-99-8-8" x="264.9" y="66.5" fill="#FF8080" width="34.2" height="4.7"/>
			<rect id="rect5455-99-8-3" x="264.4" y="55.4" fill="#FF8080" width="34.2" height="4.7"/>
			<rect id="rect5538" x="125.9" y="179.9" fill="#FF8080" width="6.8" height="0.5"/>
			<rect id="rect5455-99-6-4" x="257.1" y="48.9" fill="#FF8080" width="4.7" height="34.2"/>
			<rect id="rect5455-99-6-9" x="267.8" y="48.9" fill="#FF8080" width="4.7" height="34.2"/>
			<rect id="rect5455-99-6-8" x="278.4" y="48.9" fill="#FF8080" width="4.7" height="34.2"/>
			<rect id="rect5455-99-6-44" x="257.1" y="142.3" fill="#FF8080" width="4.7" height="34.2"/>
			<rect id="rect5455-99-6-5" x="267.8" y="142.3" fill="#FF8080" width="4.7" height="34.2"/>
			<rect id="rect5455-99-6-6" x="278.4" y="142.3" fill="#FF8080" width="4.7" height="34.2"/>
		</g>
		<rect id="rect3273" x="-12.2" y="-5.2" opacity="0.96" fill="#008000" enable-background="new    " width="209.5" height="71.1"/>
		<rect id="rect3013" x="57.9" y="-4.9" width="70.8" height="64.9"/>
		<rect id="rect3015" x="143.8" y="-5.2" width="53.5" height="49.4"/>
		<rect id="rect3019" x="-11.6" y="-4.9" fill="#FFFF00" width="40.9" height="3.9"/>
		<rect id="rect3019-7" x="-11.5" y="6.6" fill="#FFFF00" width="32.5" height="3.9"/>
		<rect id="rect3019-4" x="-11.2" y="18.3" fill="#FFFF00" width="32.5" height="3.9"/>
		<rect id="rect3019-4-0" x="-11.2" y="29.6" fill="#FFFF00" width="32.5" height="3.9"/>
		<rect id="rect3019-4-0-9" x="-11.2" y="40.9" fill="#FFFF00" width="32.5" height="3.9"/>
		<rect id="rect3019-4-0-9-4" x="-11.6" y="51.9" fill="#FFFF00" width="32.5" height="3.9"/>
		<rect id="rect3019-8" x="-12.1" y="-4.8" fill="#FFFF00" width="4.5" height="14.6"/>
		<rect id="rect3019-8-2" x="16.5" y="7.4" fill="#FFFF00" width="4.5" height="14.6"/>
		<rect id="rect3019-8-2-4" x="-11.2" y="18.8" fill="#FFFF00" width="4.5" height="14.6"/>
		<rect id="rect3019-8-2-4-5" x="16.5" y="29.9" fill="#FFFF00" width="4.5" height="14.6"/>
		<rect id="rect3019-8-2-4-5-7" x="-11.5" y="40.7" fill="#FFFF00" width="4.5" height="14.6"/>
		<rect id="rect3019-8-2-4-5-1" x="16.2" y="52.1" fill="#FFFF00" width="4.5" height="14.6"/>
		<rect id="rect3019-4-0-9-4-1" x="-12.2" y="63" fill="#FFFF00" width="32.5" height="3.9"/>
		<rect id="rect4580" x="-11.2" y="18.3" fill="#FFFF00" width="32.5" height="3.9"/>
		<text transform="matrix(0.7058 0 0 0.6513 210.1319 -1.5958)" fill="#FFFFFF" font-family="'ArialMT'" font-size="7.9618">key</text>
		<text transform="matrix(0.7058 0 0 0.6513 207.7705 11.386)" fill="#FFFFFF" font-family="'ArialMT'" font-size="7.9618">VCC</text>
		<text transform="matrix(0.7058 0 0 0.6513 207.5089 24.8312)" fill="#FFFFFF" font-family="'ArialMT'" font-size="7.9618">GND</text>
		<text transform="matrix(0.7058 0 0 0.6513 208.5581 37.8118)" fill="#FFFFFF" font-family="'ArialMT'" font-size="7.9618">TXD</text>
		<text transform="matrix(0.7058 0 0 0.6513 207.7705 49.8586)" fill="#FFFFFF" font-family="'ArialMT'" font-size="7.9618">RXD</text>
		<text transform="matrix(0.7058 0 0 0.6513 204.6214 62.8514)" fill="#FFFFFF" font-family="'ArialMT'" font-size="7.9618">State</text>
		<path id="rect5369" sodipodi:nodetypes="sscscss" inkscape:connector-curvature="0" fill="#B3B3B3" d="M222.6-1.6
			c0-1.5,2.6-2.8,5.9-2.8l49.4-0.3c0,0,0.8,1.9,0.8,2.8c0,0.9-0.7,2.7-0.7,2.7l-49.4,0.3C225.3,1.1,222.6-0.1,222.6-1.6z"/>
		<path id="rect5369-4" sodipodi:nodetypes="sscscss" inkscape:connector-curvature="0" fill="#B3B3B3" d="M222.6,11.1
			c0-1.5,2.6-2.8,5.9-2.8l49.4-0.3c0,0,0.8,1.9,0.8,2.8c0,0.9-0.7,2.7-0.7,2.7l-49.4,0.3C225.3,13.8,222.6,12.6,222.6,11.1z"/>
		<path id="rect5369-7" sodipodi:nodetypes="sscscss" inkscape:connector-curvature="0" fill="#B3B3B3" d="M222.6,23.8
			c0-1.5,2.6-2.8,5.9-2.8l49.4-0.3c0,0,0.8,1.9,0.8,2.8c0,0.9-0.7,2.7-0.7,2.7l-49.4,0.3C225.3,26.5,222.6,25.3,222.6,23.8z"/>
		<path id="rect5369-75" sodipodi:nodetypes="sscscss" inkscape:connector-curvature="0" fill="#B3B3B3" d="M222.6,36.4
			c0-1.5,2.6-2.8,5.9-2.8l49.4-0.3c0,0,0.8,1.9,0.8,2.8c0,0.9-0.7,2.7-0.7,2.7l-49.4,0.3C225.3,39.2,222.6,38,222.6,36.4z"/>
		<path id="rect5369-8" sodipodi:nodetypes="sscscss" inkscape:connector-curvature="0" fill="#B3B3B3" d="M222.6,49.1
			c0-1.5,2.6-2.8,5.9-2.8l49.4-0.3c0,0,0.8,1.9,0.8,2.8c0,0.9-0.7,2.7-0.7,2.7l-49.4,0.3C225.3,51.9,222.6,50.7,222.6,49.1z"/>
		<path id="rect5369-88" sodipodi:nodetypes="sscscss" inkscape:connector-curvature="0" fill="#B3B3B3" d="M222.6,61.8
			c0-1.5,2.6-2.8,5.9-2.8l49.4-0.3c0,0,0.8,1.9,0.8,2.8c0,0.9-0.7,2.7-0.7,2.7l-49.4,0.3C225.3,64.6,222.6,63.3,222.6,61.8z"/>
		<text transform="matrix(0.6313 0 0 0.6513 65.5938 13.6965)" fill="#F9F9F9" font-family="'ArialMT'" font-size="25.4256">HC-05</text>
		<text transform="matrix(0.7213 0 0 0.6513 62.186 34.0592)" fill="#FFFFFF" font-family="'ArialMT'" font-size="17.9529">Bluetooth</text>
	</g>
</g>
</svg>
