<?xml version="1.0" encoding="utf-8"?>
<!-- Generator: Adobe Illustrator 18.0.0, SVG Export Plug-In . SVG Version: 6.00 Build 0)  -->
<!DOCTYPE svg PUBLIC "-//W3C//DTD SVG 1.1//EN" "http://www.w3.org/Graphics/SVG/1.1/DTD/svg11.dtd">
<svg version="1.1"
	 id="svg1517" xmlns:dc="http://purl.org/dc/elements/1.1/" xmlns:cc="http://creativecommons.org/ns#" xmlns:rdf="http://www.w3.org/1999/02/22-rdf-syntax-ns#" xmlns:svg="http://www.w3.org/2000/svg" xmlns:sodipodi="http://sodipodi.sourceforge.net/DTD/sodipodi-0.dtd" xmlns:inkscape="http://www.inkscape.org/namespaces/inkscape" sodipodi:docname="coincell.svg" inkscape:version="0.92.5 (2060ec1f9f, 2020-04-08)"
	 xmlns="http://www.w3.org/2000/svg" xmlns:xlink="http://www.w3.org/1999/xlink" x="0px" y="0px" viewBox="0 0 116 148"
	 enable-background="new 0 0 116 148" xml:space="preserve">
<path id="path1185" inkscape:connector-curvature="0" fill="#FF0000" d="M49.9,1.6c0-0.9,1-1.6,2.2-1.6H61c1.2,0,2.2,0.7,2.2,1.6
	v9.8H49.9V1.6z"/>
<path id="path1205" inkscape:connector-curvature="0" fill="#333333" d="M65.3,146.2c0,0.9-1.1,1.7-2.5,1.7h-9.9
	c-1.4,0-2.5-0.8-2.5-1.7v-10.3h14.9L65.3,146.2z"/>
<path id="path1217" inkscape:connector-curvature="0" fill="#333333" d="M0,76.7c0,26.5,19.8,48.6,46.2,53.6v8.4
	c0,0.4,0.3,0.6,0.7,0.6h21.3c0.4,0,0.7-0.3,0.7-0.6v-8.4c26.3-5,46.2-27.1,46.2-53.6c0,0,0-9.1,0-9.4c0-26.5-19.8-48.6-46.2-53.6
	V8.7c0-0.4-0.3-0.7-0.7-0.7H46.9c-0.4,0-0.7,0.3-0.7,0.7v5.1C19.8,18.8,0,40.9,0,67.4C0,67.7,0,76.7,0,76.7z"/>
<path id="path1219" inkscape:connector-curvature="0" fill="none" stroke="#D3D3D3" stroke-width="0.1406" stroke-miterlimit="10" d="
	M17.4,36.8c10.1-10.5,24.3-19.1,40.2-19.1c14.1,0,27,7.2,36.8,15.9"/>
<rect id="rect1221" x="49.9" y="11.5" fill="#BFBFBF" width="15.1" height="7"/>
<rect id="rect1223" x="49.9" y="17.5" opacity="0.4" fill="#FFFFFF" enable-background="new    " width="15.1" height="1"/>
<rect id="rect1225" x="50.4" y="131.4" fill="#BFBFBF" width="14.2" height="5.2"/>
<rect id="rect1227" x="50.4" y="135.9" opacity="0.3" fill="#FFFFFF" enable-background="new    " width="14.2" height="0.7"/>
<rect id="rect1229" x="50.4" y="123.4" fill="#7F7F7F" width="14.2" height="8"/>
<rect id="rect1231" x="50.4" y="135.9" opacity="0.3" fill="#FFFFFF" enable-background="new    " width="14.2" height="0.7"/>
<ellipse id="circle1233" fill="#E6E6E6" stroke="#5E5E5E" stroke-width="0.1875" stroke-miterlimit="10" cx="57.5" cy="75" rx="53.6" ry="51"/>
<path id="path1235" inkscape:connector-curvature="0" d="M66.4,48.2h-8.7V40c0-0.1-0.1-0.2-0.2-0.2s-0.2,0.1-0.2,0.2v8.2h-8.7
	c-0.1,0-0.2,0.1-0.2,0.2c0,0.1,0.1,0.2,0.2,0.2h8.7v8.2c0,0.1,0.1,0.2,0.2,0.2c0.1,0,0.2-0.1,0.2-0.2v-8.2h8.7
	c0.1,0,0.2-0.1,0.2-0.2S66.5,48.2,66.4,48.2z"/>
<path id="path1237" inkscape:connector-curvature="0" d="M15.1,72.2c0-1,0.3-1.9,1-2.6c0.7-0.6,1.6-1,2.7-1c0.8,0,1.5,0.2,2.2,0.6
	c0.1,0.1,0.1,0.2,0.1,0.3c0,0.2-0.1,0.3-0.3,0.3c-0.1,0-0.1,0-0.2-0.1c-0.6-0.4-1.2-0.6-1.9-0.6c-1.9,0-3,1.2-3,2.9v4.2
	c0,1.8,1.2,2.9,3,2.9c0.7,0,1.3-0.2,1.9-0.6c0.1,0,0.1-0.1,0.2-0.1c0.1,0,0.3,0.1,0.3,0.3c0,0.1-0.1,0.2-0.1,0.3
	c-0.7,0.4-1.5,0.6-2.2,0.6c-1.1,0-2-0.3-2.7-1c-0.7-0.6-1-1.5-1-2.6V72.2z"/>
<path id="path1239" inkscape:connector-curvature="0" d="M29.7,76.6c0,1-0.3,1.8-1,2.4c-0.6,0.6-1.5,0.9-2.5,0.9
	c-1,0-1.9-0.3-2.5-0.9c-0.6-0.6-1-1.4-1-2.4V72c0-1,0.3-1.8,1-2.4c0.6-0.6,1.5-0.9,2.5-0.9s1.9,0.3,2.5,0.9c0.6,0.6,1,1.4,1,2.4
	V76.6z M29,72c0-1.7-1.1-2.7-2.8-2.7c-1.7,0-2.8,1.1-2.8,2.7v4.6c0,1.7,1.1,2.7,2.8,2.7c1.8,0,2.8-1.1,2.8-2.7V72z"/>
<path id="path1241" inkscape:connector-curvature="0" d="M32,69c0-0.2,0.2-0.3,0.3-0.3c0.2,0,0.3,0.1,0.3,0.3v10.6
	c0,0.2-0.1,0.3-0.3,0.3c-0.2,0-0.3-0.1-0.3-0.3V69z"/>
<path id="path1243" inkscape:connector-curvature="0" d="M36,70v9.6c0,0.2-0.1,0.3-0.3,0.3c-0.2,0-0.3-0.1-0.3-0.3V69.1
	c0-0.2,0.2-0.4,0.4-0.4c0.2,0,0.3,0.1,0.4,0.2l5.3,9.7V69c0-0.2,0.1-0.3,0.3-0.3c0.2,0,0.3,0.1,0.3,0.3v10.5c0,0.2-0.2,0.4-0.4,0.4
	c-0.2,0-0.3-0.1-0.4-0.2L36,70z"/>
<path id="path1245" inkscape:connector-curvature="0" d="M49.4,79.7c-0.3,0-0.5-0.2-0.5-0.5v-9.9c0-0.3,0.2-0.5,0.5-0.5h2.4
	c1.8,0,2.9,1.1,2.9,2.8c0,0.8-0.3,1.5-1,2c-0.2,0.2-0.5,0.3-0.8,0.4c0.4,0.2,0.7,0.3,1,0.6c0.7,0.6,1,1.3,1,2.1c0,1.8-1.2,3-3.2,3
	H49.4z M51.5,73.8c1.4,0,2.6-0.9,2.6-2.2c0-1.3-0.8-2.2-2.3-2.2h-2.3v4.4H51.5z M51.9,79.1c0.8,0,1.4-0.2,1.9-0.6
	c0.4-0.4,0.7-1,0.7-1.7c0-0.6-0.3-1.3-0.8-1.7c-0.5-0.5-1.2-0.7-2-0.7h-2.1v4.8L51.9,79.1z"/>
<path id="path1247" inkscape:connector-curvature="0" d="M57.9,76.5l-1.1,3.2c-0.1,0.1-0.2,0.2-0.3,0.2c-0.2,0-0.3-0.1-0.3-0.3
	c0,0,0-0.1,0-0.1l3.6-10.5c0.1-0.2,0.2-0.3,0.4-0.3s0.3,0.1,0.4,0.3l3.6,10.5c0,0.1,0,0.1,0,0.1c0,0.1-0.1,0.3-0.3,0.3
	c-0.1,0-0.3-0.1-0.3-0.2c0,0-0.5-1.4-1.1-3.2L57.9,76.5L57.9,76.5z M60.2,69.7l-2.1,6.2h4.2L60.2,69.7z"/>
<path id="path1249" inkscape:connector-curvature="0" d="M66.4,69.4h-2.9c-0.2,0-0.3-0.1-0.3-0.3c0-0.2,0.1-0.3,0.3-0.3H70
	c0.2,0,0.3,0.1,0.3,0.3c0,0.2-0.1,0.3-0.3,0.3h-3v10.1c0,0.2-0.2,0.3-0.3,0.3c-0.2,0-0.3-0.1-0.3-0.3V69.4z"/>
<path id="path1251" inkscape:connector-curvature="0" d="M73.7,69.4h-2.9c-0.2,0-0.3-0.1-0.3-0.3c0-0.2,0.1-0.3,0.3-0.3h6.6
	c0.2,0,0.3,0.1,0.3,0.3c0,0.2-0.1,0.3-0.3,0.3h-3v10.1c0,0.2-0.2,0.3-0.3,0.3c-0.2,0-0.3-0.1-0.3-0.3V69.4z"/>
<path id="path1253" inkscape:connector-curvature="0" d="M79.4,79.7c-0.3,0-0.5-0.2-0.5-0.5v-9.9c0-0.3,0.2-0.5,0.5-0.5h4.8
	c0.2,0,0.3,0.1,0.3,0.3c0,0.2-0.1,0.3-0.3,0.3h-4.6v4.4H84c0.2,0,0.3,0.1,0.3,0.3c0,0.2-0.1,0.3-0.3,0.3h-4.4v4.7h4.7
	c0.2,0,0.3,0.1,0.3,0.3c0,0.2-0.1,0.3-0.3,0.3L79.4,79.7L79.4,79.7z"/>
<path id="path1255" inkscape:connector-curvature="0" d="M89.6,74.6h-2.3v4.9c0,0.2-0.1,0.3-0.3,0.3c-0.2,0-0.3-0.1-0.3-0.3V69.3
	c0-0.3,0.2-0.5,0.5-0.5h2.8c0.9,0,1.7,0.3,2.2,0.8c0.6,0.5,0.9,1.3,0.9,2.2c0,0.9-0.3,1.6-0.8,2.1c-0.4,0.4-1.1,0.7-1.8,0.8l2.7,4.8
	c0,0.1,0,0.1,0,0.1c0,0.1-0.1,0.3-0.3,0.3c-0.1,0-0.2-0.1-0.3-0.2L89.6,74.6z M87.2,74.1c0.4,0,2.7,0,2.7,0c0.7,0,1.4-0.2,1.8-0.6
	c0.4-0.4,0.6-1,0.6-1.7c0-0.7-0.2-1.3-0.7-1.7c-0.4-0.4-1-0.6-1.8-0.6c0,0-2.5,0-2.7,0L87.2,74.1z"/>
<path id="path1257" inkscape:connector-curvature="0" d="M96.8,74.8l-3.2-5.7c0-0.1,0-0.1,0-0.1c0-0.2,0.1-0.3,0.3-0.3
	c0.1,0,0.2,0.1,0.3,0.2l3,5.3l3-5.3c0.1-0.1,0.1-0.2,0.3-0.2c0.2,0,0.3,0.1,0.3,0.3c0,0,0,0.1,0,0.2l-3.2,5.7v4.8
	c0,0.2-0.1,0.3-0.3,0.3c-0.2,0-0.3-0.1-0.3-0.3L96.8,74.8L96.8,74.8z"/>
<path id="path1259" inkscape:connector-curvature="0" d="M32.3,87.7c0-1,0.3-1.9,1-2.6c0.7-0.6,1.6-1,2.7-1c0.8,0,1.5,0.2,2.2,0.6
	c0.1,0.1,0.1,0.2,0.1,0.3c0,0.2-0.1,0.3-0.3,0.3c-0.1,0-0.1,0-0.2-0.1c-0.6-0.4-1.2-0.6-1.9-0.6c-1.9,0-3,1.2-3,2.9v4.2
	c0,1.8,1.2,2.9,3,2.9c0.7,0,1.3-0.2,1.9-0.6c0.1,0,0.1-0.1,0.2-0.1c0.1,0,0.3,0.1,0.3,0.3c0,0.1-0.1,0.2-0.1,0.3
	c-0.7,0.4-1.5,0.6-2.2,0.6c-1.1,0-2-0.3-2.7-1c-0.7-0.6-1-1.5-1-2.6L32.3,87.7z"/>
<path id="path1261" inkscape:connector-curvature="0" d="M43.2,90.2h-2.3v4.9c0,0.2-0.1,0.3-0.3,0.3c-0.2,0-0.3-0.1-0.3-0.3V84.9
	c0-0.3,0.2-0.5,0.5-0.5h2.8c0.9,0,1.7,0.3,2.2,0.8c0.6,0.5,0.9,1.3,0.9,2.2c0,0.9-0.3,1.6-0.8,2.1c-0.4,0.4-1.1,0.7-1.8,0.8l2.7,4.8
	c0,0.1,0,0.1,0,0.1c0,0.1-0.1,0.3-0.3,0.3c-0.1,0-0.2-0.1-0.3-0.2L43.2,90.2z M40.9,89.6c0.4,0,2.7,0,2.7,0c0.7,0,1.4-0.2,1.8-0.6
	c0.4-0.4,0.6-1,0.6-1.7c0-0.7-0.2-1.3-0.7-1.7c-0.4-0.4-1-0.6-1.8-0.6c0,0-2.5,0-2.7,0V89.6z"/>
<path id="path1263" inkscape:connector-curvature="0" d="M52.3,95.3c-0.2,0-0.4-0.2-0.4-0.4c0-0.1,0-0.2,0.1-0.2l4.1-5.4
	c0.4-0.5,0.9-1.3,0.9-2.2c0-1.3-0.8-2.2-2.2-2.2c-0.7,0-1.4,0.1-2.2,0.5c-0.1,0-0.1,0-0.1,0c-0.2,0-0.3-0.1-0.3-0.3
	c0-0.1,0.1-0.2,0.2-0.3c1-0.5,1.6-0.5,2.5-0.5c0.8,0,1.6,0.3,2.1,0.8c0.5,0.5,0.8,1.2,0.8,2c0,1.1-0.6,2-1,2.6l-3.9,5.2h4.7
	c0.2,0,0.3,0.1,0.3,0.3c0,0.2-0.1,0.3-0.3,0.3L52.3,95.3L52.3,95.3z"/>
<path id="path1265" inkscape:connector-curvature="0" d="M66.2,92.4c0,0.9-0.3,1.7-0.9,2.2c-0.6,0.5-1.4,0.8-2.3,0.8
	c-1,0-1.8-0.3-2.3-0.8c-0.6-0.6-0.9-1.3-0.9-2.2v-5.1c0-0.9,0.3-1.7,0.9-2.2c0.6-0.5,1.4-0.8,2.3-0.8c1,0,1.8,0.3,2.3,0.8
	c0.6,0.5,0.9,1.3,0.9,2.2V92.4z M65.6,87.2c0-1.5-1-2.5-2.6-2.5c-1.6,0-2.6,0.9-2.6,2.5v5.2c0,1.5,1,2.4,2.6,2.4
	c1.6,0,2.6-0.9,2.6-2.4V87.2z"/>
<path id="path1267" inkscape:connector-curvature="0" d="M70.2,89.9c-0.2,0-0.3-0.1-0.3-0.3c0-0.2,0.1-0.3,0.3-0.3h0.2
	c0.7,0,1.3-0.2,1.8-0.6c0.5-0.4,0.7-1,0.7-1.6c0-1.4-0.8-2.3-2.2-2.3c-0.7,0-1.4,0.1-2.2,0.5c-0.1,0-0.1,0-0.1,0
	c-0.1,0-0.3-0.1-0.3-0.3c0-0.1,0.1-0.2,0.2-0.2c0.9-0.5,1.6-0.6,2.5-0.6c0.8,0,1.6,0.3,2.1,0.8c0.5,0.5,0.8,1.2,0.8,2.1
	c0,0.8-0.3,1.5-0.9,2c-0.2,0.2-0.5,0.4-0.7,0.5c0.3,0.1,0.7,0.3,1,0.6c0.7,0.6,1,1.3,1,2.2c0,0.9-0.3,1.7-0.9,2.3
	c-0.6,0.5-1.4,0.8-2.3,0.8c-1,0-1.8-0.2-2.6-0.6c-0.1-0.1-0.2-0.2-0.2-0.3c0-0.1,0.1-0.3,0.3-0.3c0.1,0,0.1,0,0.1,0
	c0.7,0.4,1.4,0.5,2.3,0.5c1.6,0,2.5-1,2.5-2.5c0-0.7-0.3-1.3-0.8-1.8c-0.5-0.5-1.2-0.7-1.9-0.7L70.2,89.9L70.2,89.9z"/>
<path id="path1269" inkscape:connector-curvature="0" d="M46.5,105.4c-0.2,0-0.3-0.1-0.3-0.3c0-0.2,0.1-0.3,0.3-0.3h0.2
	c0.7,0,1.3-0.2,1.8-0.6c0.5-0.4,0.7-1,0.7-1.6c0-1.4-0.8-2.3-2.2-2.3c-0.7,0-1.4,0.1-2.2,0.5c-0.1,0-0.1,0-0.1,0
	c-0.1,0-0.3-0.1-0.3-0.3c0-0.1,0.1-0.2,0.2-0.2c0.9-0.5,1.6-0.6,2.5-0.6c0.8,0,1.6,0.3,2.1,0.8c0.5,0.5,0.8,1.2,0.8,2.1
	c0,0.8-0.3,1.5-0.9,2c-0.2,0.2-0.5,0.4-0.7,0.5c0.3,0.1,0.7,0.3,1,0.6c0.7,0.6,1,1.3,1,2.2c0,0.9-0.3,1.7-0.9,2.3
	c-0.6,0.5-1.4,0.8-2.3,0.8c-1,0-1.8-0.2-2.6-0.6c-0.1-0.1-0.2-0.2-0.2-0.3c0-0.1,0.1-0.3,0.3-0.3c0.1,0,0.1,0,0.1,0
	c0.7,0.4,1.4,0.5,2.3,0.5c1.6,0,2.5-1,2.5-2.5c0-0.7-0.3-1.3-0.8-1.8c-0.5-0.5-1.2-0.7-1.9-0.7L46.5,105.4L46.5,105.4z"/>
<path id="path1271" inkscape:connector-curvature="0" d="M75.8,95.3c-0.2,0-0.4-0.2-0.4-0.4c0-0.1,0-0.2,0.1-0.2l4.1-5.4
	c0.4-0.5,0.9-1.3,0.9-2.2c0-1.3-0.8-2.2-2.2-2.2c-0.7,0-1.4,0.1-2.2,0.5c-0.1,0-0.1,0-0.1,0c-0.2,0-0.3-0.1-0.3-0.3
	c0-0.1,0.1-0.2,0.2-0.3c1-0.5,1.6-0.5,2.5-0.5c0.8,0,1.6,0.3,2.1,0.8c0.5,0.5,0.8,1.2,0.8,2c0,1.1-0.6,2-1,2.6l-3.9,5.2h4.7
	c0.2,0,0.3,0.1,0.3,0.3c0,0.2-0.1,0.3-0.3,0.3L75.8,95.3L75.8,95.3z"/>
<path id="path1273" inkscape:connector-curvature="0" d="M52.8,111c-0.3,0-0.5-0.2-0.5-0.5c0-0.3,0.2-0.5,0.5-0.5s0.5,0.2,0.5,0.5
	C53.4,110.7,53.1,111,52.8,111z"/>
<path id="path1275" inkscape:connector-curvature="0" d="M62.1,107.9c0,0.9-0.3,1.7-0.9,2.2c-0.6,0.5-1.4,0.8-2.3,0.8
	c-1,0-1.8-0.3-2.3-0.8c-0.6-0.6-0.9-1.3-0.9-2.2v-5.1c0-0.9,0.3-1.7,0.9-2.2c0.6-0.5,1.4-0.8,2.3-0.8c1,0,1.8,0.3,2.3,0.8
	c0.6,0.5,0.9,1.3,0.9,2.2V107.9z M61.5,102.8c0-1.5-1-2.5-2.6-2.5c-1.6,0-2.6,0.9-2.6,2.5v5.2c0,1.5,1,2.4,2.6,2.4
	c1.6,0,2.6-0.9,2.6-2.4V102.8z"/>
<path id="path1277" inkscape:connector-curvature="0" d="M63.5,100.2c0-0.1,0-0.1,0-0.2c0-0.1,0.1-0.3,0.3-0.3
	c0.2,0,0.3,0.1,0.3,0.2l3.2,9.9l3.2-9.9c0-0.1,0.2-0.2,0.3-0.2c0.2,0,0.3,0.2,0.3,0.3c0,0,0,0.1,0,0.2l-3.4,10.5
	c-0.1,0.2-0.2,0.3-0.4,0.3c-0.2,0-0.3-0.1-0.4-0.3L63.5,100.2z"/>
<path id="path1279" inkscape:connector-curvature="0" fill="#4D4D4D" d="M84.6,20.9l7.9,4.8l6.3,5l5.7,7H85.7c-0.6,0-1-0.4-1-1
	L84.6,20.9L84.6,20.9z M30.4,21.6l-8.2,4l-7.6,7.2l-4.8,4.9h19.6c0.6,0,1-0.4,1-1L30.4,21.6L30.4,21.6z"/>
<path id="path1281" inkscape:connector-curvature="0" fill="#333333" d="M79.4,123.4l-14.9,4v-2.8c0-0.8,0.6-1.5,1.5-1.6
	c2-0.2,5.7-0.7,10.4-2.5c5-1.9,8.5-4.3,9.7-5.2c0.3-0.3,0.8-0.4,1.2-0.4l6.9,0.5L79.4,123.4z M35.6,123.4l14.9,4v-2.8
	c0-0.8-0.6-1.5-1.5-1.6c-2-0.2-5.7-0.7-10.4-2.5c-5-1.9-8.5-4.3-9.7-5.2c-0.3-0.3-0.8-0.4-1.2-0.4l-6.9,0.5L35.6,123.4z"/>
</svg>
