<?xml version="1.0" encoding="UTF-8"?>
<!DOCTYPE svg PUBLIC "-//W3C//DTD SVG 1.1//EN" "http://www.w3.org/Graphics/SVG/1.1/DTD/svg11.dtd">
<!-- Creator: CorelDRAW 2019 -->
<svg xmlns="http://www.w3.org/2000/svg" xml:space="preserve" width="86.6986mm" height="86.6986mm" version="1.1" style="shape-rendering:geometricPrecision; text-rendering:geometricPrecision; image-rendering:optimizeQuality; fill-rule:evenodd; clip-rule:evenodd"
viewBox="0 0 8669.86 8669.86"
 xmlns:xlink="http://www.w3.org/1999/xlink">
 <defs>
  <style type="text/css">
   <![CDATA[
    .fil2 {fill:#2A2D70}
    .fil1 {fill:#343434}
    .fil0 {fill:#48A1D1}
    .fil3 {fill:#9CAEAA}
    .fil4 {fill:#B3B3B3}
   ]]>
  </style>
 </defs>
 <g id="Layer_x0020_1">
  <metadata id="CorelCorpID_0Corel-Layer"/>
  <g id="_1105126480">
   <rect class="fil0" x="1527.2" y="155.2" width="5205.35" height="6328.62" rx="338.66" ry="136.91"/>
   <rect class="fil1" x="3087.3" y="155.2" width="432.96" height="1049.79"/>
   <rect class="fil2" x="3087.3" y="155.2" width="432.96" height="203.19"/>
   <rect class="fil3" x="3087.3" y="924.4" width="432.96" height="283.01"/>
   <rect class="fil1" transform="matrix(3.87393E-14 -1.38918 1.46272 3.67919E-14 1515.12 2137.44)" width="296" height="717.7"/>
   <rect class="fil2" transform="matrix(3.87393E-14 -1.38918 0.283107 7.12103E-15 1515.12 2137.44)" width="296" height="717.7"/>
   <rect class="fil3" transform="matrix(3.87393E-14 -1.38918 0.394324 9.91849E-15 2284.31 2137.44)" width="296" height="717.7"/>
   <rect class="fil1" transform="matrix(3.87393E-14 -1.38918 1.46272 3.67919E-14 1515.12 2949)" width="296" height="717.7"/>
   <rect class="fil2" transform="matrix(3.87393E-14 -1.38918 0.283107 7.12103E-15 1515.12 2949)" width="296" height="717.7"/>
   <rect class="fil3" transform="matrix(3.87393E-14 -1.38918 0.394324 9.91849E-15 2284.31 2949)" width="296" height="717.7"/>
   <rect class="fil1" transform="matrix(3.87393E-14 -1.38918 1.46272 3.67919E-14 1515.12 3795.58)" width="296" height="717.7"/>
   <rect class="fil2" transform="matrix(3.87393E-14 -1.38918 0.283107 7.12103E-15 1515.12 3795.58)" width="296" height="717.7"/>
   <rect class="fil3" transform="matrix(3.87393E-14 -1.38918 0.394324 9.91849E-15 2284.31 3795.58)" width="296" height="717.7"/>
   <rect class="fil1" transform="matrix(3.87393E-14 -1.38918 1.46272 3.67919E-14 1515.12 4618.02)" width="296" height="717.7"/>
   <rect class="fil2" transform="matrix(3.87393E-14 -1.38918 0.283107 7.12103E-15 1515.12 4618.02)" width="296" height="717.7"/>
   <rect class="fil3" transform="matrix(3.87393E-14 -0.670032 0.394324 4.78389E-15 2284.31 4405.15)" width="296" height="717.7"/>
   <rect class="fil1" transform="matrix(3.87393E-14 -1.38918 1.46272 3.67919E-14 1515.12 5447.7)" width="296" height="717.7"/>
   <rect class="fil2" transform="matrix(3.87393E-14 -1.38918 0.283107 7.12103E-15 1515.12 5447.7)" width="296" height="717.7"/>
   <rect class="fil1" transform="matrix(-3.87393E-14 -1.38918 -1.46272 3.67919E-14 6720.43 5462.23)" width="296" height="717.7"/>
   <rect class="fil2" transform="matrix(-3.87393E-14 -1.38918 -0.283107 7.12103E-15 6720.43 5462.23)" width="296" height="717.7"/>
   <rect class="fil1" transform="matrix(-3.87393E-14 -1.38918 -1.46272 3.67919E-14 6720.43 4639.86)" width="296" height="717.7"/>
   <rect class="fil2" transform="matrix(-3.87393E-14 -1.38918 -0.283107 7.12103E-15 6720.43 4639.86)" width="296" height="717.7"/>
   <rect class="fil1" transform="matrix(-3.87393E-14 -1.38918 -1.46272 3.67919E-14 6720.43 3807.75)" width="296" height="717.7"/>
   <rect class="fil2" transform="matrix(-3.87393E-14 -1.38918 -0.283107 7.12103E-15 6720.43 3807.75)" width="296" height="717.7"/>
   <rect class="fil1" transform="matrix(-3.87393E-14 -1.38918 -1.46272 3.67919E-14 6720.43 2985.38)" width="296" height="717.7"/>
   <rect class="fil2" transform="matrix(-3.87393E-14 -1.38918 -0.283107 7.12103E-15 6720.43 2985.38)" width="296" height="717.7"/>
   <rect class="fil1" transform="matrix(-3.87393E-14 -1.38918 -1.46272 3.67919E-14 6720.43 2153.3)" width="296" height="717.7"/>
   <rect class="fil2" transform="matrix(-3.87393E-14 -1.38918 -0.283107 7.12103E-15 6720.43 2153.3)" width="296" height="717.7"/>
   <rect class="fil1" x="4744.22" y="160.18" width="411.2" height="1049.79"/>
   <rect class="fil2" x="4744.22" y="160.18" width="411.2" height="203.19"/>
   <rect class="fil1" x="3891.56" y="155.2" width="432.96" height="1049.79"/>
   <rect class="fil2" x="3891.56" y="155.2" width="432.96" height="203.19"/>
   <rect class="fil3" x="3891.56" y="924.4" width="432.96" height="283.01"/>
   <rect class="fil3" x="3075.18" y="1715.47" width="437.81" height="423.3"/>
   <rect class="fil3" x="3075.18" y="2539.07" width="437.81" height="423.3"/>
   <rect class="fil3" x="3075.18" y="3371.15" width="437.81" height="423.3"/>
   <rect class="fil3" x="3903.61" y="1715.47" width="437.81" height="423.3"/>
   <rect class="fil3" x="3903.61" y="2539.07" width="437.81" height="423.3"/>
   <rect class="fil3" x="3903.61" y="3371.15" width="437.81" height="423.3"/>
   <rect class="fil1" x="4726.02" y="1715.47" width="437.81" height="423.3"/>
   <rect class="fil1" x="4726.02" y="2539.07" width="437.81" height="423.3"/>
   <rect class="fil1" x="4726.02" y="3371.15" width="437.81" height="423.3"/>
   <rect class="fil1" x="4726.02" y="4193.55" width="437.81" height="423.3"/>
   <rect class="fil1" x="4726.02" y="5025.63" width="437.81" height="423.3"/>
   <rect class="fil1" x="3913.3" y="5025.63" width="437.81" height="423.3"/>
   <rect class="fil1" x="3061.86" y="5025.63" width="437.81" height="423.3"/>
   <rect class="fil3" x="3061.86" y="4217.71" width="437.81" height="423.3"/>
   <rect class="fil1" x="3061.86" y="4429.37" width="437.81" height="211.64"/>
   <rect class="fil3" x="3908.46" y="4217.71" width="437.81" height="423.3"/>
   <rect class="fil1" x="3908.46" y="4429.37" width="437.81" height="211.64"/>
   <rect class="fil4" x="2997.57" y="6483.82" width="280.58" height="2062.41"/>
   <rect class="fil4" x="4057.01" y="6483.82" width="280.58" height="2062.41"/>
   <rect class="fil4" x="5017.28" y="6483.82" width="280.58" height="2062.41"/>
  </g>
 </g>
</svg>
