<svg xmlns="http://www.w3.org/2000/svg" viewBox="0 0 842 385.93">
  <defs>
    <style>
      .cls-1 {
        fill: #666;
      }

      .cls-2 {
        fill: #333;
      }

      .cls-3 {
        fill: #f2f2f2;
      }
    </style>
  </defs>
  <g id="Layer_2" data-name="Layer 2">
    <g id="Layer_1-2" data-name="Layer 1">
      <g>
        <g>
          <g>
            <g>
              <g>
                <rect x="0.5" y="54.5" width="841" height="278"/>
                <path d="M841,55V332H1V55H841m1-1H0V333H842V54Z"/>
              </g>
              <g>
                <g>
                  <rect class="cls-1" x="12.7" y="14.93" width="29.85" height="29.85"/>
                  <polygon class="cls-1" points="53 61.2 2.25 61.2 13.07 44.03 42.18 44.03 53 61.2"/>
                </g>
                <rect class="cls-1" x="25.39" width="4.48" height="20.9"/>
              </g>
              <g>
                <g>
                  <rect class="cls-1" x="129.2" y="14.93" width="29.85" height="29.85"/>
                  <polygon class="cls-1" points="169.5 61.2 118.75 61.2 129.57 44.03 158.68 44.03 169.5 61.2"/>
                </g>
                <rect class="cls-1" x="141.89" width="4.48" height="20.9"/>
              </g>
              <g>
                <g>
                  <rect class="cls-1" x="238.2" y="14.93" width="29.85" height="29.85"/>
                  <polygon class="cls-1" points="278.5 61.2 227.75 61.2 238.57 44.03 267.68 44.03 278.5 61.2"/>
                </g>
                <rect class="cls-1" x="250.89" width="4.48" height="20.9"/>
              </g>
              <g>
                <g>
                  <rect class="cls-1" x="340.2" y="14.93" width="29.85" height="29.85"/>
                  <polygon class="cls-1" points="380.5 61.2 329.75 61.2 340.57 44.03 369.68 44.03 380.5 61.2"/>
                </g>
                <rect class="cls-1" x="352.89" width="4.48" height="20.9"/>
              </g>
              <g>
                <g>
                  <rect class="cls-1" x="446.2" y="14.93" width="29.85" height="29.85"/>
                  <polygon class="cls-1" points="486.5 61.2 435.75 61.2 446.57 44.03 475.68 44.03 486.5 61.2"/>
                </g>
                <rect class="cls-1" x="458.89" width="4.48" height="20.9"/>
              </g>
              <g>
                <g>
                  <rect class="cls-1" x="560.2" y="14.93" width="29.85" height="29.85"/>
                  <polygon class="cls-1" points="600.5 61.2 549.75 61.2 560.58 44.03 589.68 44.03 600.5 61.2"/>
                </g>
                <rect class="cls-1" x="572.89" width="4.48" height="20.9"/>
              </g>
              <g>
                <g>
                  <rect class="cls-1" x="681.2" y="14.93" width="29.85" height="29.85"/>
                  <polygon class="cls-1" points="721.5 61.2 670.75 61.2 681.58 44.03 710.68 44.03 721.5 61.2"/>
                </g>
                <rect class="cls-1" x="693.89" width="4.48" height="20.9"/>
              </g>
              <g>
                <g>
                  <rect class="cls-1" x="799.2" y="14.93" width="29.85" height="29.85"/>
                  <polygon class="cls-1" points="839.5 61.2 788.75 61.2 799.58 44.03 828.68 44.03 839.5 61.2"/>
                </g>
                <rect class="cls-1" x="811.89" width="4.48" height="20.9"/>
              </g>
            </g>
            <g>
              <g>
                <rect class="cls-1" x="798.21" y="341.15" width="29.85" height="29.85"/>
                <polygon class="cls-1" points="787.76 324.73 838.51 324.73 827.69 341.9 798.59 341.9 787.76 324.73"/>
              </g>
              <rect class="cls-1" x="810.9" y="365.03" width="4.48" height="20.9" transform="translate(1626.28 750.96) rotate(180)"/>
            </g>
            <g>
              <g>
                <rect class="cls-1" x="681.71" y="341.15" width="29.85" height="29.85"/>
                <polygon class="cls-1" points="671.26 324.73 722.01 324.73 711.19 341.9 682.08 341.9 671.26 324.73"/>
              </g>
              <rect class="cls-1" x="694.4" y="365.03" width="4.48" height="20.9" transform="translate(1393.27 750.96) rotate(180)"/>
            </g>
            <g>
              <g>
                <rect class="cls-1" x="572.71" y="341.15" width="29.85" height="29.85"/>
                <polygon class="cls-1" points="562.26 324.73 613.01 324.73 602.19 341.9 573.08 341.9 562.26 324.73"/>
              </g>
              <rect class="cls-1" x="585.4" y="365.03" width="4.48" height="20.9" transform="translate(1175.27 750.96) rotate(180)"/>
            </g>
            <g>
              <g>
                <rect class="cls-1" x="470.71" y="341.15" width="29.85" height="29.85"/>
                <polygon class="cls-1" points="460.26 324.73 511.01 324.73 500.19 341.9 471.08 341.9 460.26 324.73"/>
              </g>
              <rect class="cls-1" x="483.4" y="365.03" width="4.48" height="20.9" transform="translate(971.27 750.96) rotate(180)"/>
            </g>
            <g>
              <g>
                <rect class="cls-1" x="364.71" y="341.15" width="29.85" height="29.85"/>
                <polygon class="cls-1" points="354.26 324.73 405.01 324.73 394.19 341.9 365.08 341.9 354.26 324.73"/>
              </g>
              <rect class="cls-1" x="377.4" y="365.03" width="4.48" height="20.9" transform="translate(759.27 750.96) rotate(180)"/>
            </g>
            <g>
              <g>
                <rect class="cls-1" x="250.71" y="341.15" width="29.85" height="29.85"/>
                <polygon class="cls-1" points="240.26 324.73 291.01 324.73 280.19 341.9 251.08 341.9 240.26 324.73"/>
              </g>
              <rect class="cls-1" x="263.4" y="365.03" width="4.48" height="20.9" transform="translate(531.27 750.96) rotate(180)"/>
            </g>
            <g>
              <g>
                <rect class="cls-1" x="129.71" y="341.15" width="29.85" height="29.85"/>
                <polygon class="cls-1" points="119.26 324.73 170.01 324.73 159.19 341.9 130.08 341.9 119.26 324.73"/>
              </g>
              <rect class="cls-1" x="142.4" y="365.03" width="4.48" height="20.9" transform="translate(289.27 750.96) rotate(180)"/>
            </g>
            <g>
              <g>
                <rect class="cls-1" x="11.71" y="341.15" width="29.85" height="29.85"/>
                <polygon class="cls-1" points="1.26 324.73 52.01 324.73 41.19 341.9 12.08 341.9 1.26 324.73"/>
              </g>
              <rect class="cls-1" x="24.4" y="365.03" width="4.48" height="20.9" transform="translate(53.27 750.96) rotate(180)"/>
            </g>
          </g>
          <rect class="cls-2" y="74" width="842" height="236"/>
        </g>
        <g>
          <path class="cls-3" d="M231.48,135.89h13.2V226h43.2v11h-56.4Z"/>
          <path class="cls-3" d="M297.78,237v-8.1l10.35-10c24.9-23.7,36.3-36.3,36.3-51,0-9.9-4.65-19.05-19.2-19.05-8.85,0-16.2,4.5-20.7,8.25l-4.2-9.3a43.19,43.19,0,0,1,27.45-9.9c21,0,29.85,14.4,29.85,28.35,0,18-13.05,32.55-33.6,52.35l-7.65,7.2v.3H360v11Z"/>
          <path class="cls-3" d="M382.38,227.69a55.08,55.08,0,0,0,10.65-.45,35.76,35.76,0,0,0,20.39-9.45c6.45-5.85,11.1-14.4,12.9-25.8h-.45c-5.4,6.6-13.2,10.35-23.09,10.35-17.4,0-28.65-13.2-28.65-29.85,0-18.45,13.35-34.65,33.29-34.65s32.25,16,32.25,41.25c0,21.3-7.2,36.3-16.8,45.6a48.74,48.74,0,0,1-28.34,13.05,61.48,61.48,0,0,1-12.15.75Zm4.8-55.95c0,12.15,7.35,20.7,18.74,20.7,8.85,0,15.75-4.35,19.2-10.2a9.27,9.27,0,0,0,1.2-5c0-16.65-6.15-29.4-20.1-29.4C395.13,147.89,387.18,157.79,387.18,171.74Z"/>
          <path class="cls-3" d="M454.82,222a45.42,45.42,0,0,0,21.6,6c16.8,0,22.2-10.65,22.05-18.9-.15-13.65-12.45-19.5-25.2-19.5h-7.35v-9.9h7.35c9.6,0,21.75-4.95,21.75-16.5,0-7.8-4.95-14.7-17.1-14.7a35.81,35.81,0,0,0-19.5,6.45l-3.6-9.6c5.25-3.75,15.15-7.5,25.65-7.5,19.2,0,27.9,11.4,27.9,23.25,0,10.2-6.15,18.75-18,23.1v.3c12,2.25,21.6,11.25,21.75,24.9,0,15.6-12.3,29.25-35.55,29.25-10.95,0-20.55-3.45-25.35-6.6Z"/>
          <path class="cls-3" d="M533.27,137.39A167.48,167.48,0,0,1,561,135.14c18.75,0,32.1,4.5,41,12.6,9.15,8.25,14.4,19.95,14.4,36.3,0,16.5-5.25,30-14.55,39.3-9.6,9.45-25.2,14.55-44.85,14.55a208.68,208.68,0,0,1-23.7-1.2Zm13.05,89.4a108.54,108.54,0,0,0,13.2.6c28.05,0,43.05-15.6,43.05-42.9.15-23.85-13.35-39-41-39a74.15,74.15,0,0,0-15.3,1.35Z"/>
        </g>
      </g>
    </g>
  </g>
</svg>
