<?xml version="1.0" encoding="utf-8"?>
<!-- Generator: Adobe Illustrator 18.0.0, SVG Export Plug-In . SVG Version: 6.00 Build 0)  -->
<!DOCTYPE svg PUBLIC "-//W3C//DTD SVG 1.1//EN" "http://www.w3.org/Graphics/SVG/1.1/DTD/svg11.dtd">
<svg version="1.1" id="Layer_1" xmlns="http://www.w3.org/2000/svg" xmlns:xlink="http://www.w3.org/1999/xlink" x="0px" y="0px"
	 viewBox="0 0 137.8 111.4" enable-background="new 0 0 137.8 111.4" xml:space="preserve">
<g>
	<g>
		<g transform="translate(-10, 0) rotate(180)">
			<path fill="none" stroke="#8C8C8C" stroke-width="2" stroke-linecap="round" stroke-miterlimit="10" d="M-64.4-106"/>
			<path fill="#333333" d="M-68.7-109.9c0-0.8,0.7-1.5,1.5-1.5h5.8c0.8,0,1.5,0.7,1.5,1.5v8.7h-8.7V-109.9z"/>
		</g>
		<g transform="translate(10, 0) rotate(180)">
			<path fill="none" stroke="#8C8C8C" stroke-width="2" stroke-linecap="round" stroke-miterlimit="10" d="M-73.4-106"/>
			<path fill="#AF2024" d="M-77.8-109.9c0-0.8,0.7-1.5,1.5-1.5h5.8c0.8,0,1.5,0.7,1.5,1.5v8.7h-8.7V-109.9z"/>
		</g>
		<g transform="translate(0,-45)">
			<path fill="#A9A8A8" d="M24.9,147.3c-1.4,0-2.8-0.6-3.7-1.6c-12.2-13-19-30.2-19-48.4s6.7-35.4,19-48.4c1-1,2.3-1.6,3.7-1.6h88
				c1.4,0,2.8,0.6,3.7,1.6c12.2,13,19,30.2,19,48.4s-6.7,35.4-19,48.4c-1,1-2.3,1.6-3.7,1.6H24.9z"/>
			<path fill="#969393" d="M112.9,49.4c0.8,0,1.6,0.3,2.1,0.9c11.9,12.6,18.4,29.3,18.4,46.9s-6.5,34.3-18.4,46.9
				c-0.6,0.6-1.3,0.9-2.1,0.9h-88c-0.8,0-1.6-0.3-2.1-0.9C10.9,131.5,4.4,114.9,4.4,97.2s6.5-34.3,18.4-46.9
				c0.6-0.6,1.3-0.9,2.1-0.9H112.9 M112.9,45h-88c-2,0-3.9,0.8-5.3,2.3C7.5,60.2,0,77.8,0,97.2s7.5,37,19.6,49.9
				c1.4,1.5,3.3,2.3,5.3,2.3h88c2,0,3.9-0.8,5.3-2.3c12.1-12.9,19.6-30.5,19.6-49.9s-7.5-37-19.6-49.9C116.8,45.8,114.9,45,112.9,45
				L112.9,45z"/>
			<circle fill="#636464" cx="68.9" cy="63.4" r="7.5"/>
			<circle fill="#636464" cx="31.2" cy="97.2" r="8.7"/>
			<circle fill="#636464" cx="106.6" cy="97.2" r="8.7"/>
		</g>
	</g>
</g>
</svg>
