<?xml version="1.0" encoding="utf-8"?>
<!-- Generator: Adobe Illustrator 18.0.0, SVG Export Plug-In . SVG Version: 6.00 Build 0)  -->
<!DOCTYPE svg PUBLIC "-//W3C//DTD SVG 1.1//EN" "http://www.w3.org/Graphics/SVG/1.1/DTD/svg11.dtd">
<svg version="1.1" id="Layer_1" xmlns="http://www.w3.org/2000/svg" xmlns:xlink="http://www.w3.org/1999/xlink" x="0px" y="0px"
	 viewBox="0 0 42.8 41.8" enable-background="new 0 0 42.8 41.8" xml:space="preserve">
<path fill="#E8CC3A" stroke="#BCA131" stroke-width="0.4" stroke-miterlimit="10" d="M4.9,31.9l2.4-3.2c1-1.4,0.2-3.3-1.5-3.6
	l-4-0.6c-2.4-0.4-2.6-3.7-0.3-4.4l3.9-1.2c1.6-0.5,2.1-2.6,0.9-3.8l-2.9-2.8c-1.7-1.7,0.1-4.5,2.3-3.7L9.7,10c1.6,0.6,3.2-0.8,3-2.5
	l-0.7-4c-0.4-2.4,2.7-3.6,4.1-1.7l2.3,3.3c1,1.4,3.1,1.3,3.9-0.3L24,1.2c1.1-2.1,4.3-1.3,4.3,1.1l-0.1,4c0,1.7,1.8,2.8,3.3,2L35,6.5
	c2.1-1.1,4.3,1.4,2.8,3.4l-2.4,3.2c-1,1.4-0.2,3.3,1.5,3.6l4,0.6c2.4,0.4,2.6,3.7,0.3,4.4l-3.9,1.2c-1.6,0.5-2.1,2.6-0.9,3.8
	l2.9,2.8c1.7,1.7-0.1,4.5-2.3,3.7l-3.8-1.3c-1.6-0.6-3.2,0.8-3,2.5l0.7,4c0.4,2.4-2.7,3.6-4.1,1.7l-2.3-3.3c-1-1.4-3.1-1.3-3.9,0.3
	l-1.8,3.6c-1.1,2.1-4.3,1.3-4.3-1.1l0.1-4c0-1.7-1.8-2.8-3.3-2l-3.6,1.9C5.6,36.3,3.5,33.8,4.9,31.9z"/>
<circle fill="#BCBCBC" stroke="#8E8D8D" stroke-width="0.4" stroke-miterlimit="10" enable-background="new    " cx="21.9" cy="21.5" r="8.1"/>
</svg>
