<?xml version="1.0" encoding="utf-8"?>
<!-- Generator: Adobe Illustrator 18.0.0, SVG Export Plug-In . SVG Version: 6.00 Build 0)  -->
<!DOCTYPE svg PUBLIC "-//W3C//DTD SVG 1.1//EN" "http://www.w3.org/Graphics/SVG/1.1/DTD/svg11.dtd">
<svg version="1.1"
	 id="svg4700" xmlns:sodipodi="http://sodipodi.sourceforge.net/DTD/sodipodi-0.dtd" xmlns:inkscape="http://www.inkscape.org/namespaces/inkscape" xmlns:cc="http://creativecommons.org/ns#" xmlns:svg="http://www.w3.org/2000/svg" xmlns:rdf="http://www.w3.org/1999/02/22-rdf-syntax-ns#" xmlns:dc="http://purl.org/dc/elements/1.1/" sodipodi:docname="Photoresistor.svg" inkscape:version="0.92.5 (2060ec1f9f, 2020-04-08)"
	 xmlns="http://www.w3.org/2000/svg" xmlns:xlink="http://www.w3.org/1999/xlink" x="0px" y="0px" viewBox="0 0 67 159"
	 enable-background="new 0 0 67 159" xml:space="preserve">
<g id="layer1" inkscape:label="Layer 1" inkscape:groupmode="layer">
	<g id="g5277">
		
			<path id="path3198" inkscape:connector-curvature="0" sodipodi:nodetypes="csssssc" fill="none" stroke="#8C8C8C" stroke-width="2.1819" stroke-linecap="round" stroke-miterlimit="10" d="
			M18.6,157.9l-1-93.3C17.5,56.1,9.4,44,9.4,30.8C9.4,17.5,19.5,4.6,32,4.6S54.6,16,54.6,30.7s-8.3,24.1-8.2,33.9l0.5,93.6"/>
		<ellipse id="ellipse3204" fill="#AA5A24" cx="33.1" cy="30.3" rx="33.1" ry="30.3"/>
		<ellipse id="ellipse3206" fill="#DBDDAF" cx="33.1" cy="30.3" rx="28.8" ry="25.8"/>
		<ellipse id="circle3208" fill="#CECCB3" cx="10.8" cy="30.2" rx="2.9" ry="3"/>
		<ellipse id="circle3210" fill="#CECCB3" cx="55.4" cy="30.4" rx="2.9" ry="3"/>
		
			<path id="path3212" inkscape:connector-curvature="0" fill="none" stroke="#B4622B" stroke-width="1.5624" stroke-miterlimit="10" d="
			M48,51.9c0-2.1-1.6-3.8-3.6-3.8H20.8c-2,0-3.6-1.7-3.6-3.8c0-2.1,1.6-3.8,3.6-3.8h23.7c2,0,3.6-1.7,3.6-3.8c0-2.1-1.6-3.8-3.6-3.8
			H20.8c-2,0-3.6-1.7-3.6-3.8c0-2.1,1.6-3.8,3.6-3.8h23.7c2,0,3.6-1.7,3.6-3.8s-1.6-3.8-3.6-3.8H20.8c-2,0-3.6-1.7-3.6-3.8
			s1.6-3.8,3.6-3.8h23.7c2,0,3.6-1.7,3.6-3.8"/>
	</g>
</g>
</svg>
