<svg xmlns="http://www.w3.org/2000/svg" viewBox="0 0 224 218.13">
  <defs>
    <style>
      .cls-1 {
        fill: gray;
        stroke-width: 0.5px;
      }

      .cls-1, .cls-3 {
        stroke: #666;
      }

      .cls-1, .cls-2, .cls-3 {
        stroke-miterlimit: 10;
      }

      .cls-2 {
        fill: #ffe083;
        stroke: #c1272d;
        stroke-width: 8px;
      }

      .cls-3 {
        fill: none;
        stroke-width: 7px;
      }
    </style>
  </defs>
  <g id="Layer_2" data-name="Layer 2">
    <g id="Layer_1-2" data-name="Layer 1">
      <g>
        <g>
          <g>
            <g>
              <rect class="cls-1" x="72.48" y="133.88" width="17" height="69"/>
              <rect class="cls-1" x="134.48" y="133.88" width="17" height="69"/>
            </g>
            <path class="cls-2" d="M220,69.26c0,23.62-13,44.93-33.83,60-2.58,1.86-5.28,3.63-8.09,5.28H45.92c-2.81-1.65-5.52-3.42-8.1-5.29C17,114.18,4,92.88,4,69.26s13-44.93,33.82-60c2.58-1.87,5.29-3.64,8.1-5.3H178.08q4.21,2.49,8.09,5.29C207,24.33,220,45.63,220,69.26Z"/>
          </g>
          <path class="cls-3" d="M50,6.88c-.36,1.54-.72,7.09-1.08,8.63a6.82,6.82,0,0,0,6.64,8.37H170.14A6.81,6.81,0,0,1,177,30.7v8.36a6.81,6.81,0,0,1-6.81,6.82H51.77A6.82,6.82,0,0,0,45,52.7v6.36a6.82,6.82,0,0,0,6.82,6.82H173.14A6.81,6.81,0,0,1,180,72.7V84.06a6.81,6.81,0,0,1-6.81,6.82H50.77A6.82,6.82,0,0,0,44,97.7v9.36a6.82,6.82,0,0,0,6.82,6.82H169.1a6.81,6.81,0,0,1,6.74,7.78l-.89,9.22"/>
        </g>
        <path class="cls-1" d="M143.55,217.88h-1.14a2.43,2.43,0,0,1-2.43-2.43l-1-12.57h8l-1,12.57A2.43,2.43,0,0,1,143.55,217.88Z"/>
        <path class="cls-1" d="M81.55,217.88H80.41A2.43,2.43,0,0,1,78,215.45l-1-12.57h8l-1,12.57A2.43,2.43,0,0,1,81.55,217.88Z"/>
      </g>
    </g>
  </g>
</svg>
