<?xml version="1.0" encoding="utf-8"?>
<!-- Generator: Adobe Illustrator 18.0.0, SVG Export Plug-In . SVG Version: 6.00 Build 0)  -->
<!DOCTYPE svg PUBLIC "-//W3C//DTD SVG 1.1//EN" "http://www.w3.org/Graphics/SVG/1.1/DTD/svg11.dtd">
<svg version="1.1" id="Layer_1" xmlns="http://www.w3.org/2000/svg" xmlns:xlink="http://www.w3.org/1999/xlink" x="0px" y="0px"
	 viewBox="0 0 198 169" enable-background="new 0 0 198 169" xml:space="preserve">
<g>
	<path fill="none" stroke="#CDCCCC" stroke-width="2.5" stroke-linecap="round" d="M84.7,128.5V168"/>
	<path fill="#010101" stroke="#131313" stroke-width="4" d="M80.5,129.9V144"/>
	<path fill="#010101" stroke="#676767" stroke-width="4" d="M88.9,129.9V144"/>
	<path fill="#010101" stroke="#333333" stroke-width="6" d="M84.7,129.9V144"/>
	<path fill="none" stroke="#CDCCCC" stroke-width="2.5" stroke-linecap="round" d="M84.7,128.5V168"/>
	<path fill="#010101" stroke="#131313" stroke-width="4" d="M80.5,129.9V144"/>
	<path fill="#010101" stroke="#676767" stroke-width="4" d="M88.9,129.9V144"/>
	<path fill="#010101" stroke="#333333" stroke-width="6" d="M84.7,129.9V144"/>
	<path fill="none" stroke="#CDCCCC" stroke-width="2.5" stroke-linecap="round" d="M98.8,128.5V168"/>
	<path fill="#010101" stroke="#131313" stroke-width="4" d="M94.6,129.9V144"/>
	<path fill="#010101" stroke="#676767" stroke-width="4" d="M103.1,129.9V144"/>
	<path fill="#010101" stroke="#333333" stroke-width="6" d="M98.8,129.9V144"/>
	<path fill="none" stroke="#CDCCCC" stroke-width="2.5" stroke-linecap="round" d="M84.7,128.5V168"/>
	<path fill="#010101" stroke="#131313" stroke-width="4" d="M80.5,129.9V144"/>
	<path fill="#010101" stroke="#676767" stroke-width="4" d="M88.9,129.9V144"/>
	<path fill="#010101" stroke="#333333" stroke-width="6" d="M84.7,129.9V144"/>
	<path fill="none" stroke="#CDCCCC" stroke-width="2.5" stroke-linecap="round" d="M84.7,128.5V168"/>
	<path fill="#010101" stroke="#131313" stroke-width="4" d="M80.5,129.9V144"/>
	<path fill="#010101" stroke="#676767" stroke-width="4" d="M88.9,129.9V144"/>
	<path fill="#010101" stroke="#333333" stroke-width="6" d="M84.7,129.9V144"/>
	<path fill="none" stroke="#CDCCCC" stroke-width="2.5" stroke-linecap="round" d="M98.8,128.5V168"/>
	<path fill="#010101" stroke="#131313" stroke-width="4" d="M94.6,129.9V144"/>
	<path fill="#010101" stroke="#676767" stroke-width="4" d="M103.1,129.9V144"/>
	<path fill="#010101" stroke="#333333" stroke-width="6" d="M98.8,129.9V144"/>
	<path fill="none" stroke="#CDCCCC" stroke-width="2.5" stroke-linecap="round" d="M112.9,128.5V168"/>
	<path fill="#010101" stroke="#131313" stroke-width="4" d="M108.7,129.9V144"/>
	<path fill="#010101" stroke="#676767" stroke-width="4" d="M117.2,129.9V144"/>
	<path fill="#010101" stroke="#333333" stroke-width="6" d="M112.9,129.9V144"/>
	<path display="none" fill="none" stroke="#438DCB" stroke-width="3" stroke-linecap="round" stroke-linejoin="round" d="M0,0h197.6
		v138.4H0V0z M188.3,69.2c0-3.4-2.8-6.2-6.2-6.2c-3.4,0-6.2,2.8-6.2,6.2c0,3.4,2.8,6.2,6.2,6.2C185.5,75.4,188.3,72.6,188.3,69.2z
		 M21.7,69.2c0-3.4-2.8-6.2-6.2-6.2c-3.4,0-6.2,2.8-6.2,6.2c0,3.4,2.8,6.2,6.2,6.2C19,75.4,21.7,72.6,21.7,69.2z"/>
	<path fill="#11542B" d="M0,0h197.6v138.4H0V0z M188.3,69.2c0-3.4-2.8-6.2-6.2-6.2c-3.4,0-6.2,2.8-6.2,6.2c0,3.4,2.8,6.2,6.2,6.2
		C185.5,75.4,188.3,72.6,188.3,69.2z M21.7,69.2c0-3.4-2.8-6.2-6.2-6.2c-3.4,0-6.2,2.8-6.2,6.2c0,3.4,2.8,6.2,6.2,6.2
		C19,75.4,21.7,72.6,21.7,69.2z"/>
	<path fill="none" stroke="#1F562B" stroke-width="2" d="M1.4,1.4h194.8v135.5H1.4V1.4z"/>
	<path display="none" fill="#ED2224" fill-opacity="0" d="M0,0h197.6v138.4H0V0z M188.3,69.2c0-3.4-2.8-6.2-6.2-6.2
		c-3.4,0-6.2,2.8-6.2,6.2c0,3.4,2.8,6.2,6.2,6.2C185.5,75.4,188.3,72.6,188.3,69.2z M21.7,69.2c0-3.4-2.8-6.2-6.2-6.2
		c-3.4,0-6.2,2.8-6.2,6.2c0,3.4,2.8,6.2,6.2,6.2C19,75.4,21.7,72.6,21.7,69.2z"/>
	<path fill="none" stroke="#CDCCCC" stroke-width="3" d="M190.4,69.2c0-4.6-3.7-8.3-8.3-8.3c-4.6,0-8.3,3.7-8.3,8.3
		c0,4.6,3.7,8.3,8.3,8.3C186.7,77.5,190.4,73.8,190.4,69.2z M23.9,69.2c0-4.6-3.7-8.3-8.3-8.3s-8.3,3.7-8.3,8.3
		c0,4.6,3.7,8.3,8.3,8.3C20.1,77.5,23.9,73.8,23.9,69.2z"/>
	<g transform="translate(-60,-37)">
		<circle fill="#C0BFBF" cx="74.1" cy="53.9" r="4.2"/>
		<path opacity="0.3" fill="#010101" enable-background="new    " d="M72.4,55.5c0.1,0.9,0.8,1.6,1.7,1.6c0.9,0,1.7-0.8,1.7-1.7
			v-1.4h-3.4C72.4,53.9,72.4,55.4,72.4,55.5z"/>
		<circle fill="#DEDEDD" stroke="#898989" stroke-width="0.15" stroke-miterlimit="10" cx="74.1" cy="53.9" r="1.7"/>
	</g>
	<g transform="translate(-60,-29)">
		<circle fill="#C0BFBF" cx="74.1" cy="57.2" r="4.2"/>
		<path opacity="0.3" fill="#010101" enable-background="new    " d="M72.4,58.8c0.1,0.9,0.8,1.6,1.7,1.6c0.9,0,1.7-0.8,1.7-1.7
			v-1.4h-3.4C72.4,57.2,72.4,58.7,72.4,58.8z"/>
		<circle fill="#DEDEDD" stroke="#898989" stroke-width="0.15" stroke-miterlimit="10" cx="74.1" cy="57.2" r="1.7"/>
	</g>
	<g transform="translate(-60,-21)">
		<circle fill="#C0BFBF" cx="74.1" cy="60.5" r="4.2"/>
		<path opacity="0.3" fill="#010101" enable-background="new    " d="M72.4,62.1c0.1,0.9,0.8,1.6,1.7,1.6c0.9,0,1.7-0.8,1.7-1.7
			v-1.4h-3.4C72.4,60.5,72.4,62,72.4,62.1z"/>
		<circle fill="#DEDEDD" stroke="#898989" stroke-width="0.15" stroke-miterlimit="10" cx="74.1" cy="60.5" r="1.7"/>
	</g>
	<path fill="none" stroke="#E3E3E3" d="M88.2,43.8h21.2V26.1H88.2V43.8z"/>
	<path fill="none" stroke="#E3E3E3" d="M77.6,118.6H120V76.2H77.6V118.6 M77.6,104.5H120 M105.9,76.2v42.4 M91.8,118.6V76.2"/>
	<g transform="translate(0,0)">
		<path fill="#E0EDDF" stroke="#F1F0F0" stroke-width="4" d="M36.7,7.1h124.2c0.8,0,1.4,0.6,1.4,1.4v121.4c0,0.8-0.6,1.4-1.4,1.4
			H36.7c-0.8,0-1.4-0.6-1.4-1.4V8.5C35.3,7.7,35.9,7.1,36.7,7.1z"/>
		<path opacity="0.25" fill="#010101" enable-background="new    " d="M160.9,69.2H36.7l0,0v7.1c0,34.3,27.8,62.1,62.1,62.1
			s62.1-27.8,62.1-62.1V69.2z"/>
		<circle fill="#F7F8F8" cx="98.8" cy="69.2" r="62.1"/>
		<circle opacity="0.5" fill="#F7F8F8" enable-background="new    " cx="98.8" cy="69.2" r="62.1"/>
		<path opacity="0.5" fill="#D4D4D4" enable-background="new    " d="M144.4,68.8c-0.1-16-8.7-30.8-22.5-38.9l6.2-10.7
			c17.6,10.3,28.5,29.2,28.6,49.6H144.4z"/>
		<path opacity="0.5" fill="#DEDEDD" enable-background="new    " d="M121.3,29.6c-13.9-7.9-31-7.9-44.9,0l-6.2-10.7
			c17.8-10.1,39.5-10.1,57.3,0L121.3,29.6z"/>
		<path opacity="0.5" fill="#D4D4D4" enable-background="new    " d="M53.3,68.8c0.1-16,8.7-30.8,22.5-38.9l-6.2-10.7
			C51.9,29.6,41.1,48.4,40.9,68.8H53.3z"/>
		<path opacity="0.5" fill="#D4D4D4" enable-background="new    " d="M53.3,69.5c0.1,16,8.7,30.8,22.5,38.9l-6.2,10.7
			C51.9,108.8,41.1,90,40.9,69.5H53.3z"/>
		<path opacity="0.5" fill="#DEDEDD" enable-background="new    " d="M76.4,108.8c13.9,7.9,31,7.9,44.9,0l6.2,10.7
			c-17.8,10.1-39.5,10.1-57.3,0L76.4,108.8z"/>
		<path opacity="0.5" fill="#D4D4D4" enable-background="new    " d="M144.4,69.5c-0.1,16-8.7,30.8-22.5,38.9l6.2,10.7
			c17.6-10.3,28.5-29.2,28.6-49.6H144.4z"/>
		<path opacity="0.5" fill="#D4D4D4" enable-background="new    " d="M116.1,68.8c-0.1-3.4-1.1-6.7-3.1-9.5l22.3-16.2
			c5.4,7.5,8.3,16.5,8.4,25.7H116.1z"/>
		<path opacity="0.5" fill="#DEDEDD" enable-background="new    " d="M112.6,58.7c-2.1-2.7-4.9-4.8-8.1-5.9l8.5-26.2
			c8.8,2.9,16.4,8.5,21.9,15.9L112.6,58.7z"/>
		<path opacity="0.5" fill="#D4D4D4" enable-background="new    " d="M103.8,52.6c-3.3-0.9-6.8-0.8-10,0.3l-8.5-26.4
			c8.8-2.8,18.2-2.8,27,0L103.8,52.6z"/>
		<path opacity="0.5" fill="#DEDEDD" enable-background="new    " d="M85,58.7c2.1-2.7,4.9-4.8,8.1-5.9l-8.5-26.2
			c-8.8,2.9-16.4,8.5-21.9,15.9L85,58.7z"/>
		<path opacity="0.5" fill="#D4D4D4" enable-background="new    " d="M81.5,68.8c0.1-3.4,1.1-6.7,3.1-9.5L62.4,43.1
			C57,50.6,54.1,59.6,54,68.8H81.5z"/>
		<path opacity="0.5" fill="#DEDEDD" enable-background="new    " d="M85,79.6c2.1,2.7,4.9,4.8,8.1,5.9l-8.5,26.2
			c-8.8-2.9-16.4-8.5-21.9-15.9L85,79.6z"/>
		<path opacity="0.5" fill="#DEDEDD" enable-background="new    " d="M112.6,79.6c-2.1,2.7-4.9,4.8-8.1,5.9l8.5,26.2
			c8.8-2.9,16.4-8.5,21.9-15.9L112.6,79.6z"/>
		<path opacity="0.5" fill="#D4D4D4" enable-background="new    " d="M103.8,85.7c-3.3,0.9-6.8,0.8-10-0.3l-8.5,26.4
			c8.8,2.8,18.2,2.8,27,0L103.8,85.7z"/>
		<path opacity="0.5" fill="#D4D4D4" enable-background="new    " d="M81.5,69.5c0.1,3.4,1.1,6.7,3.1,9.5L62.4,95.2
			C57,87.7,54.1,78.8,54,69.5H81.5z"/>
		<path opacity="0.5" fill="#D4D4D4" enable-background="new    " d="M116.1,69.5c-0.1,3.4-1.1,6.7-3.1,9.5l22.3,16.2
			c5.4-7.5,8.3-16.5,8.4-25.7H116.1z"/>
		<circle fill="#DEDEDD" cx="98.8" cy="69.2" r="16.6"/>
		<circle fill="#EFEEEE" cx="98.8" cy="69.2" r="1.4"/>
		<path opacity="4.000000e-002" fill="#010101" enable-background="new    " d="M160.9,69.2c-18.5,20.6-61.3,28.3-95.6,17.2
			c-12.1-3.9-22.1-9.9-28.6-17.2c18.5,34.3,61.3,47.1,95.6,28.6C144.5,91.2,154.4,81.3,160.9,69.2z"/>
		<path opacity="7.000000e-002" fill="#010101" enable-background="new    " d="M160.9,69.2c-18.5,48-61.3,65.9-95.6,40
			c-12.1-9.2-22.1-23.1-28.6-40c18.5,34.3,61.3,47.1,95.6,28.6C144.5,91.2,154.4,81.3,160.9,69.2z"/>
		<path opacity="0.1" fill="#010101" enable-background="new    " d="M160.9,69.2c-18.5,48-61.3,65.9-95.6,40
			c-12.1-9.2-22.1-23.1-28.6-40c0,34.3,27.8,62.1,62.1,62.1S160.9,103.5,160.9,69.2z"/>
		<g transform="rotate(90, 65,-45)">
			<g transform="translate(0,0)">
				
					<path fill="none" stroke="#E3E3E3" stroke-width="1.3" stroke-linecap="round" stroke-linejoin="round" stroke-miterlimit="10" d="
					M116.4-168.1v-5.1h1.6c0,0,1.2-0.1,1.2,1.2c0,1.1-0.2,1.6-1.3,1.6"/>
				
					<line fill="none" stroke="#E3E3E3" stroke-width="1.3" stroke-linecap="round" stroke-linejoin="round" stroke-miterlimit="10" x1="117.8" y1="-170.4" x2="116.4" y2="-170.4"/>
			</g>
			<g transform="translate(6,0)">
				
					<line fill="none" stroke="#E3E3E3" stroke-width="1.3" stroke-linecap="round" stroke-linejoin="round" stroke-miterlimit="10" x1="115.6" y1="-173.3" x2="115.6" y2="-168.1"/>
			</g>
			<g transform="translate(9.5,0)">
				
					<path fill="none" stroke="#E3E3E3" stroke-width="1.3" stroke-linecap="round" stroke-linejoin="round" stroke-miterlimit="10" d="
					M114.8-168.1v-5.1h1.6c0,0,1.2,0,1.2,1c0,1.1-0.5,1.4-1.3,1.4h-1.3"/>
				
					<line fill="none" stroke="#E3E3E3" stroke-width="1.3" stroke-linecap="round" stroke-linejoin="round" stroke-miterlimit="10" x1="117.8" y1="-168.1" x2="116.3" y2="-170.8"/>
			</g>
			<g transform="translate(18.5,0)">
				
					<path fill="none" stroke="#E3E3E3" stroke-width="1.3" stroke-linecap="round" stroke-linejoin="round" stroke-miterlimit="10" d="
					M116.3-173.1c0,0-1.8-0.9-2.5,0.2c-0.7,1.1,0.4,1.9,1,2c0.6,0.2,1.5,0.3,1.5,1.4c0,1-0.8,1.4-1.4,1.3c-0.7-0.1-1.5-0.5-1.5-0.5"
					/>
			</g>
			<g transform="translate(24.5,2.15) scale(1,.75)">
				
					<polyline fill="none" stroke="#E3E3E3" stroke-width="1.3" stroke-linecap="round" stroke-linejoin="round" stroke-miterlimit="10" points="
					115,-226.8 112.5,-226.8 112.5,-231.9 115,-231.9 				"/>
				
					<line fill="none" stroke="#E3E3E3" stroke-width="1.3" stroke-linecap="round" stroke-linejoin="round" stroke-miterlimit="10" x1="114.6" y1="-229.4" x2="112.6" y2="-229.4"/>
			</g>
			<g transform="translate(30.5,2.15) scale(1,.75)">
				
					<polyline fill="none" stroke="#E3E3E3" stroke-width="1.3" stroke-linecap="round" stroke-linejoin="round" stroke-miterlimit="10" points="
					111.5,-226.8 111.5,-232 114.6,-226.8 114.6,-232 				"/>
			</g>
			<g transform="translate(37,2.15) scale(1,.75)">
				
					<path fill="none" stroke="#E3E3E3" stroke-width="1.3" stroke-linecap="round" stroke-linejoin="round" stroke-miterlimit="10" d="
					M113.5-231.8c0,0-1.8-0.9-2.5,0.2c-0.7,1.1,0.4,1.9,1,2c0.6,0.2,1.5,0.3,1.5,1.4c0,1-0.8,1.4-1.4,1.3c-0.7-0.1-1.5-0.5-1.5-0.5"
					/>
			</g>
			<g transform="translate(43,2.15) scale(1,.75)">
				
					<path fill="none" stroke="#E3E3E3" stroke-width="1.3" stroke-linecap="round" stroke-linejoin="round" stroke-miterlimit="10" d="
					M111.4-226.8H111c-0.8,0-1.5-0.7-1.5-1.5v-2.2c0-0.8,0.7-1.5,1.5-1.5h0.3c0.8,0,1.5,0.7,1.5,1.5v2.2
					C112.9-227.5,112.2-226.8,111.4-226.8z"/>
			</g>
			<g transform="translate(49.5,2.15) scale(1,.75)">
				
					<path fill="none" stroke="#E3E3E3" stroke-width="1.3" stroke-linecap="round" stroke-linejoin="round" stroke-miterlimit="10" d="
					M108.7-226.8v-5.1h1.6c0,0,1.2,0,1.2,1c0,1.1-0.5,1.4-1.3,1.4H109"/>
				
					<line fill="none" stroke="#E3E3E3" stroke-width="1.3" stroke-linecap="round" stroke-linejoin="round" stroke-miterlimit="10" x1="111.7" y1="-226.8" x2="110.1" y2="-229.5"/>
			</g>
		</g>
		<g transform="rotate(90, 57,-40)">
			<g transform="translate(0,0)">
				
					<path fill="none" stroke="#E3E3E3" stroke-width="1.3" stroke-linecap="round" stroke-linejoin="round" stroke-miterlimit="10" d="
					M110.8-159.6v-5.1h1.6c0,0,1.2,0,1.2,1c0,1.1-0.5,1.4-1.3,1.4h-1.3"/>
				
					<line fill="none" stroke="#E3E3E3" stroke-width="1.3" stroke-linecap="round" stroke-linejoin="round" stroke-miterlimit="10" x1="113.8" y1="-159.6" x2="112.2" y2="-162.3"/>
			</g>
			<g transform="translate(6,2.15) scale(1,.75)">
				
					<polyline fill="none" stroke="#E3E3E3" stroke-width="1.3" stroke-linecap="round" stroke-linejoin="round" stroke-miterlimit="10" points="
					112.3,-215.5 109.8,-215.5 109.8,-220.6 112.3,-220.6 				"/>
				
					<line fill="none" stroke="#E3E3E3" stroke-width="1.3" stroke-linecap="round" stroke-linejoin="round" stroke-miterlimit="10" x1="112" y1="-218" x2="109.9" y2="-218"/>
			</g>
			<g transform="translate(12,2.15) scale(1,.75)">
				
					<polyline fill="none" stroke="#E3E3E3" stroke-width="1.3" stroke-linecap="round" stroke-linejoin="round" stroke-miterlimit="10" points="
					112.3,-220.6 110.7,-215.7 109,-220.6 				"/>
			</g>
			<g transform="translate(21.5,0)">
				
					<path fill="none" stroke="#E3E3E3" stroke-width="1.3" stroke-linecap="round" stroke-linejoin="round" stroke-miterlimit="10" d="
					M107.5-162.4c0,0,1.1,0,1.4,0c0.6,0,0.9-0.5,0.9-1.4c0-1.1-1.1-1.1-1.1-1.1h-1.4v5h1.6c0,0,1.1,0,1.1-1.1c0-1.2-1.1-1.4-1.1-1.4
					H107.5z"/>
			</g>
		</g>
		<g transform="rotate(90, -58,28)">
			<g transform="translate(0,0)">
				
					<path fill="none" stroke="#E3E3E3" stroke-width="1.3" stroke-linecap="round" stroke-linejoin="round" stroke-miterlimit="10" d="
					M2.7-44.2v-5.1h1.6c0,0,1.2-0.1,1.2,1.2c0,1.1-0.2,1.6-1.3,1.6"/>
				
					<line fill="none" stroke="#E3E3E3" stroke-width="1.3" stroke-linecap="round" stroke-linejoin="round" stroke-miterlimit="10" x1="4.2" y1="-46.6" x2="2.8" y2="-46.6"/>
			</g>
			<g transform="translate(6,0)">
				
					<polyline fill="none" stroke="#E3E3E3" stroke-width="1.3" stroke-linecap="round" stroke-linejoin="round" stroke-miterlimit="10" points="
					1.5,-44.4 3.4,-49.6 5.3,-44.4 				"/>
				
					<line fill="none" stroke="#E3E3E3" stroke-width="1.3" stroke-linecap="round" stroke-linejoin="round" stroke-miterlimit="10" x1="2.2" y1="-46" x2="4.7" y2="-46"/>
			</g>
			<g transform="translate(12,0)">
				
					<path fill="none" stroke="#E3E3E3" stroke-width="1.3" stroke-linecap="round" stroke-linejoin="round" stroke-miterlimit="10" d="
					M0.8-44.2v-5.1h1.6c0,0,1.2,0,1.2,1c0,1.1-0.5,1.4-1.3,1.4H1.1"/>
				
					<line fill="none" stroke="#E3E3E3" stroke-width="1.3" stroke-linecap="round" stroke-linejoin="round" stroke-miterlimit="10" x1="3.7" y1="-44.2" x2="2.2" y2="-46.9"/>
			</g>
			<g transform="translate(18,0)">
				
					<polyline fill="none" stroke="#E3E3E3" stroke-width="1.3" stroke-linecap="round" stroke-linejoin="round" stroke-miterlimit="10" points="
					-0.3,-44.4 1.6,-49.6 3.4,-44.4 				"/>
				
					<line fill="none" stroke="#E3E3E3" stroke-width="1.3" stroke-linecap="round" stroke-linejoin="round" stroke-miterlimit="10" x1="0.3" y1="-46" x2="2.9" y2="-46"/>
			</g>
			<g transform="translate(24,0)">
				
					<polyline fill="none" stroke="#E3E3E3" stroke-width="1.3" stroke-linecap="round" stroke-linejoin="round" stroke-miterlimit="10" points="
					-0.4,-49.4 -0.4,-44.2 2.2,-44.2 				"/>
			</g>
			<g transform="translate(31,0)">
				
					<polyline fill="none" stroke="#E3E3E3" stroke-width="1.3" stroke-linecap="round" stroke-linejoin="round" stroke-miterlimit="10" points="
					-1.4,-49.4 -1.4,-44.2 1.1,-44.2 				"/>
			</g>
			<g transform="translate(38,0)">
				
					<polyline fill="none" stroke="#E3E3E3" stroke-width="1.3" stroke-linecap="round" stroke-linejoin="round" stroke-miterlimit="10" points="
					-3.3,-44.4 -1.5,-49.6 0.4,-44.4 				"/>
				
					<line fill="none" stroke="#E3E3E3" stroke-width="1.3" stroke-linecap="round" stroke-linejoin="round" stroke-miterlimit="10" x1="-2.7" y1="-46" x2="-0.2" y2="-46"/>
			</g>
			<g transform="translate(44,0)">
				
					<line fill="none" stroke="#E3E3E3" stroke-width="1.3" stroke-linecap="round" stroke-linejoin="round" stroke-miterlimit="10" x1="-0.7" y1="-44.4" x2="-4.3" y2="-49.4"/>
				
					<line fill="none" stroke="#E3E3E3" stroke-width="1.3" stroke-linecap="round" stroke-linejoin="round" stroke-miterlimit="10" x1="-4.3" y1="-44.4" x2="-0.7" y2="-49.4"/>
			</g>
		</g>
		<g transform="rotate(0, -60,-44)">
			<g transform="translate(0,0)">
				
					<path fill="none" stroke="#E3E3E3" stroke-width="1.3" stroke-linecap="round" stroke-linejoin="round" stroke-miterlimit="10" d="
					M14.8,5c0,0-1.8-0.9-2.5,0.2s0.4,1.9,1,2c0.6,0.2,1.5,0.3,1.5,1.4c0,1-0.8,1.4-1.4,1.3c-0.7-0.1-1.5-0.5-1.5-0.5"/>
			</g>
		</g>
		<g transform="rotate(0, -60,-14)">
			<g transform="translate(0,0)">
				
					<polyline fill="none" stroke="#E3E3E3" stroke-width="1.3" stroke-linecap="round" stroke-linejoin="round" stroke-miterlimit="10" points="
					12.3,47.2 12.3,52.4 14.8,52.4 				"/>
			</g>
		</g>
	</g>
</g>
</svg>
