<?xml version="1.0" encoding="utf-8"?>
<!-- Generator: Adobe Illustrator 18.0.0, SVG Export Plug-In . SVG Version: 6.00 Build 0)  -->
<!DOCTYPE svg PUBLIC "-//W3C//DTD SVG 1.0//EN" "http://www.w3.org/TR/2001/REC-SVG-20010904/DTD/svg10.dtd">
<svg version="1.0" id="Layer_1" xmlns="http://www.w3.org/2000/svg" xmlns:xlink="http://www.w3.org/1999/xlink" x="0px" y="0px"
	 viewBox="0 0 339 339" enable-background="new 0 0 339 339" xml:space="preserve">
<path fill="none" stroke="#5A2F10" stroke-width="10" d="M170.8,333.8c-2.7,0-5.7-0.1-9.5-0.3h-0.4l-0.9-20.6c-0.3,0-0.6,0-0.8-0.1
	c-0.6,0-0.9-0.1-1.5-0.1l-4,20.4l-0.5-0.1c-3.5-0.4-7.3-0.9-11.3-1.7l-0.5-0.1l1.6-20.6c-0.6-0.1-1.2-0.2-1.8-0.4
	c-0.1,0-0.4-0.1-0.5-0.1l-6.4,19.7l-0.4-0.1c-1-0.3-2.1-0.5-3-0.8c-2.7-0.6-5.4-1.3-8.1-2.1l-0.4-0.1l4-20.4
	c-0.6-0.1-1.1-0.4-1.6-0.6c-0.2-0.1-0.4-0.1-0.6-0.1l-8.8,19l-0.4-0.1c-3.8-1.4-7.4-2.7-10.7-4.2l-0.4-0.1l6.4-19.8
	c-0.4-0.2-0.7-0.3-1-0.4c-0.4-0.2-0.7-0.3-1-0.4l-10.8,17.6l-0.4-0.2c-3.6-1.8-6.9-3.7-10.1-5.4l-0.4-0.2l8.6-18.8
	c-0.3-0.1-0.6-0.3-0.8-0.4c-0.4-0.2-0.7-0.4-1.1-0.6l-12.7,16.1l-0.4-0.2c-3.1-2-6.4-4.4-9.3-6.6l-0.4-0.3l10.7-17.5
	c-0.4-0.2-0.6-0.4-0.9-0.6s-0.6-0.4-0.9-0.6l-14.6,14.6l-0.4-0.4c-2.8-2.3-5.7-4.9-8.4-7.8l-0.3-0.3l12.7-16.3
	c-0.1-0.1-0.1-0.1-0.3-0.3c-0.2-0.2-0.4-0.3-0.6-0.5c-0.2-0.2-0.4-0.4-0.5-0.6c-0.1-0.1-0.1-0.1-0.3-0.3l-16.2,12.7l-0.4-0.4
	c-2.5-2.7-5.3-5.6-7.7-8.4l0,0L57.3,259c-0.2-0.4-0.4-0.6-0.6-0.9s-0.4-0.6-0.6-0.9l-17.5,10.7l-0.6-0.7c-2.2-2.9-4.4-5.9-6.4-8.9
	l-0.2-0.4l16.3-12.8c-0.4-0.6-0.7-1.3-1.1-1.8l-0.1-0.1l-19,8.6l-0.2-0.4c-1.9-3.3-3.8-6.6-5.4-10.1l-0.2-0.4l17.6-10.8
	c-0.3-0.7-0.7-1.4-1-2l-19.8,6.2l-0.1-0.4c-1.6-3.5-2.9-7.1-4.2-10.7l-0.1-0.4l0.4-0.2l18.4-8.5l-0.7-2.1l-20.4,4l-0.1-0.4
	c-1.1-3.5-2-7.1-2.8-11.1l-0.1-0.4l19.7-6.4c-0.1-0.6-0.2-1.2-0.4-1.8c0-0.1-0.1-0.4-0.1-0.5L7.4,197L7,195.2
	c-0.6-3.3-1.2-6.7-1.4-10v-0.4l20.4-4c0-0.4,0-0.7,0-1.1s0-0.7-0.1-1.1l-20.6-0.9v-0.4c-0.2-4.6-0.3-8.2-0.3-11.5v-0.4l20.7-1.5
	c0-0.7,0-1.6,0.1-2.3l-20.5-3.4l0.1-0.5c0.3-3.8,0.6-7.6,1.2-11.4l0.1-0.5l20.9,1.3c0.1-0.4,0-0.7,0.2-1.1c0-0.4,0.1-0.8,0.1-1.1
	L8,139.1l0.1-0.5c0.6-3.5,1.6-6.9,2.6-11.1l0.1-0.4l20.4,3.4c0.1-0.4,0.1-0.7,0.3-1c0.1-0.4,0.1-0.7,0.3-1.1l-19-8.1l0.1-0.4
	c1.1-3.7,2.3-7.2,3.7-10.8l0.1-0.4l19.7,5.7c0.1-0.6,0.4-1.1,0.7-1.6c0.1-0.2,0.2-0.4,0.2-0.5l-18-10.3l0.1-0.4
	c1.4-3.3,3.1-6.9,4.9-10.3l0.2-0.4L43.6,99c0.2-0.4,0.4-0.6,0.6-1s0.4-0.6,0.6-1L28.1,84.7l0.2-0.4c2.2-3.6,4.2-6.7,6.2-9.6l0.2-0.4
	l18,10.3c0.2-0.4,0.4-0.6,0.6-0.9s0.4-0.6,0.6-0.9L38.8,68.6l0.3-0.4c2.1-2.7,4.5-5.5,7.4-8.7l0.1-0.1l16.5,12.3
	c0.4-0.6,1-1.1,1.5-1.8L51.2,54l0.4-0.4c0.1-0.1,0.3-0.3,0.4-0.4c0.1-0.1,0.2-0.4,0.4-0.5c1.7-1.7,3.5-3.2,5.2-4.7
	c0.9-0.8,1.8-1.5,2.6-2.3l0.4-0.4l15.1,14.2c0.3-0.3,0.5-0.5,0.8-0.7c0.3-0.3,0.6-0.6,0.9-0.8L66.6,41l0.4-0.3
	c3-2.3,6.2-4.6,9.3-6.6l0.4-0.2l13.2,15.8c0.4-0.3,0.8-0.5,1.2-0.8c0.4-0.2,0.6-0.3,0.8-0.6l-9.2-18.5l0.4-0.2
	c3.7-2.5,6.8-4.2,9.8-5.9l0.4-0.2l11.3,17.4c0.4-0.2,0.7-0.3,1.1-0.5c0.4-0.2,0.7-0.3,1.1-0.5l-6.6-19.6l0.4-0.2
	c3.8-1.8,7.2-3.4,10.5-4.6l0.4-0.1l9.2,18.7c0.8-0.2,1.5-0.6,2.2-0.8l-4.6-20.2l0.4-0.1c4.2-1.4,7.8-2.4,11-3.1l0.4-0.1l6.9,19.5
	c0.7-0.1,1.5-0.4,2.2-0.5l-2.1-20.6l0.4-0.1c4.1-0.8,7.9-1.4,11.2-1.8l0.5-0.1l4.8,20.2l2.3-0.2l0.3-20.6h0.4
	c3.8-0.3,7.6-0.5,11.5-0.6h0.4l2.1,20.5c0.3,0,0.6,0,0.7,0c0.6,0.1,1.1,0.1,1.6,0.1l1.9-20.3h0.4c4.3,0.1,8.1,0.3,11.5,0.7l0.5,0.1
	l0,20.6c0.6,0.1,1.1,0.1,1.6,0.2c0.2,0.1,0.5,0.1,0.6,0.1L195,6.8l0.5,0.1c3.7,0.6,7.5,1.3,11.2,2.2l0.4,0.1l-2.8,20.6
	c0.7,0.1,1.5,0.4,2.2,0.5l7.5-19.4l0.4,0.1c3.6,1.1,7.3,2.3,10.8,3.6l0.4,0.1l-5.2,20c0.7,0.1,1.4,0.6,2.2,0.8l9.8-18.2l0.4,0.1
	c3.4,1.4,6.7,3,10.4,4.9l0.4,0.2l-7.5,19.2c0.7,0.3,1.4,0.7,2.1,1.2L250,26l0.4,0.2c0.8,0.4,1.6,0.8,2.3,1.3c2.5,1.5,5.1,3,7.6,4.6
	l0.4,0.2l-9.8,18.4c0.4,0.2,0.6,0.5,1,0.7s0.6,0.4,0.9,0.6l13.8-15.2L267,37c2.8,2.1,6.1,4.4,9.1,7l0.3,0.3l-11.9,17
	c0.3,0.3,0.5,0.5,0.9,0.8c0.3,0.3,0.5,0.5,0.8,0.7L281.7,49l0.3,0.3c0.4,0.4,1,0.8,1.4,1.3c1,0.8,2,1.7,2.8,2.5
	c0.7,0.7,1.3,1.4,1.9,2.2c0.6,0.7,1.3,1.4,1.9,2.1l0.4,0.4l-13.8,15.3c0.5,0.6,1.1,1.2,1.7,1.7l17-12l0.4,0.4c2.4,3,4.7,6,7,9.1
	l0.3,0.4l-15.4,13.8c0.2,0.4,0.4,0.6,0.6,0.9s0.5,0.6,0.7,1l18.4-9.8l0.2,0.4c1.8,2.7,3.3,5.4,4.9,8.1l1.3,2.1L296.8,101
	c0.3,0.7,0.7,1.4,1.1,2l19.2-7.5l0.2,0.4c1.8,3.7,3.5,7.1,4.9,10.4l0.1,0.4l-18.2,9.8c0.1,0.7,0.6,1.4,0.8,2.2l20-5.2l0.1,0.4
	c1.5,4,2.6,7.7,3.5,10.9l0.1,0.4l-19.4,7.5c0.1,0.7,0.4,1.5,0.5,2.2l20.6-2.8l0.1,0.4c0.9,4.3,1.7,7.9,2.2,11.2l0.1,0.5l-20.2,5.2
	l0.2,2.3l20.7-0.2l0.1,0.5c0.4,3,0.4,6.1,0.6,9.1l0.2,2.8l-20.5,2.7c0,0.3,0.1,0.5,0,0.7c0.1,0.6,0.1,1.1,0.1,1.7l20.5,2.1v0.4
	c-0.1,3.7-0.3,7.6-0.6,11.5v0.4l-20.2,0.7c-0.1,0.6-0.1,1.1-0.2,1.6c-0.1,0.2-0.1,0.5-0.1,0.6l20.2,4.6l-0.4,2.5
	c-0.5,3-0.8,6.2-1.4,9.3l-0.1,0.4l-21.6-3.3c-0.1,0.7-0.4,1.5-0.5,2.2l19.5,6.9l-0.1,0.4c-0.9,3.7-2.1,7.4-3.1,11l-0.1,0.4
	l-20.2-4.6c-0.1,0.4-0.2,0.8-0.4,1.1c-0.1,0.4-0.2,0.8-0.4,1.1l18.7,9.3l-0.1,0.4c-1.4,3.7-3.2,7.4-4.6,10.5l-0.1,0.4l-19.5-7.1
	c-0.1,0.2-0.2,0.5-0.2,0.6c-0.2,0.5-0.4,1-0.7,1.4l17.4,11.3l-0.2,0.4c-1.4,2.5-3,5.1-4.5,7.6c-0.5,0.8-0.8,1.6-1.4,2.3l-0.2,0.4
	l-18.6-9.1c-0.3,0.4-0.5,0.8-0.8,1.2c-0.2,0.4-0.3,0.6-0.6,0.8l15.8,13.2l-0.2,0.4c-2.1,2.9-4.1,5.9-6.8,9.2l-0.3,0.4l-17.3-11.2
	c-0.3,0.3-0.6,0.6-0.8,0.9c-0.3,0.3-0.5,0.5-0.7,0.8l14.3,15l-0.3,0.3c-2.2,2.6-4.5,5.2-7,7.7c-0.1,0.1-0.3,0.3-0.5,0.4
	c-0.1,0.1-0.3,0.3-0.4,0.4l-0.4,0.4l-16-13.2c-0.6,0.6-1.1,1-1.8,1.5l12.3,16.5l-0.4,0.4c-3.3,3-6.1,5.4-8.7,7.4l-0.4,0.3l-14-14.8
	c-0.6,0.4-1.2,0.9-1.8,1.3l10.3,18l-0.4,0.2c-3,2.1-6.3,4.2-9.6,6.2l-0.4,0.2l-12.4-16.4c-0.6,0.4-1.3,0.8-1.9,1.2l8.1,19.1
	l-0.4,0.2c-3.4,1.8-7,3.5-10.3,4.9l-0.4,0.1l-10.3-18c-0.7,0.3-1.4,0.7-2.1,1l5.7,19.7l-0.4,0.1c-3.7,1.4-7.6,2.7-10.8,3.7l-0.4,0.1
	l-8.1-19c-0.6,0.1-1.1,0.3-1.7,0.4c-0.1,0-0.4,0.1-0.5,0.1l3.4,20.4l-0.4,0.1c-3.7,1-7.4,2-11.1,2.6l-0.5,0.1l-5.8-19.9
	c-0.8,0.1-1.5,0.2-2.3,0.3l1,20.6l-0.5,0.1c-3.7,0.6-7.4,0.9-11.4,1.2h-0.4l-3.4-20.5c-0.7,0-1.6,0.1-2.3,0.1l-1.5,20.7h-0.4
	C172.2,333.7,171.5,333.7,170.8,333.8z M161.8,332.6c4.2,0.2,7.5,0.3,10.6,0.3l1.5-20.7h0.4c0.8,0,1.8-0.1,2.7-0.1h0.7l3.4,20.5
	c3.7-0.2,7.2-0.7,10.6-1.1l-1-20.6l0.5-0.1c1-0.1,2.1-0.2,3-0.5l0.5-0.1l5.8,19.9c3.5-0.6,6.9-1.6,10.3-2.4l-3.4-20.4l0.4-0.1
	c0.4-0.1,0.6-0.1,0.8-0.1c0.7-0.1,1.3-0.4,2.1-0.5l0.4-0.1l8.1,19c3-0.9,6.5-2.1,10-3.5l-5.7-19.7l0.4-0.1c0.9-0.4,1.8-0.8,2.8-1.3
	l0.4-0.1l10.3,18c3.3-1.4,6.5-2.8,9.6-4.5l-7.9-19.2l0.4-0.2c0.9-0.5,1.8-1.1,2.6-1.6l0.4-0.3l12.3,16.7c3.2-1.9,6.1-3.8,8.9-5.8
	l-10.3-18l0.4-0.3c0.8-0.6,1.7-1.1,2.5-1.8l0.4-0.4l14.2,15.1c2.5-1.9,5.1-4.2,8.1-6.9l-12.3-16.5l0.1-0.1c0.8-0.6,1.6-1.3,2.3-2.1
	l0.4-0.4l16,13.2c0.1-0.1,0.1-0.1,0.1-0.1c0.1-0.1,0.3-0.3,0.4-0.4c2.3-2.3,4.5-4.9,6.6-7.4l-14.3-15l0.2-0.2c0.3-0.4,0.6-0.8,1-1.1
	c0.4-0.4,0.7-0.7,1-1.1l0.3-0.3l17.3,11.2c2.3-3,4.5-5.9,6.3-8.6l-15.8-13.4l0.2-0.4c0.3-0.4,0.5-0.8,0.8-1.2
	c0.3-0.4,0.6-1.1,0.9-1.5l0.2-0.4l18.6,9.1c0.4-0.6,0.8-1.3,1.3-2c1.4-2.3,2.9-4.7,4.2-7.1l-17.4-11l0.3-0.4
	c0.3-0.6,0.6-1.1,0.8-1.7c0.1-0.4,0.3-0.7,0.4-1.1l0.1-0.4l19.5,6.9c1.3-2.9,2.9-6.3,4.2-9.6l-18.8-9.2l0.1-0.4
	c0.1-0.6,0.3-1,0.6-1.6c0.2-0.5,0.3-1,0.6-1.4l0.1-0.4l20.2,4.6c1.1-3.4,2.1-6.7,3-10.2L309,203l0.1-0.4c0.3-1,0.5-2.1,0.7-3
	l0.1-0.5l20.6,2.1c0.6-2.9,1-5.9,1.3-8.8l0.2-1.6l-20.2-4.6l0.1-0.5c0.1-0.4,0-0.7,0.1-1c0-0.7,0.2-1.3,0.1-2v-0.4l20.6-0.3
	c0.2-3.5,0.5-7,0.5-10.5l-20.5-2.1V169c0-0.7,0-1.3-0.1-2.1c0-0.4,0-0.7-0.1-1.1v-0.4l20.5-2.7l-0.1-2c-0.1-2.8-0.3-5.8-0.6-8.6
	l-20.6,0.2l-0.5-3.9l20.2-5.2c-0.6-3.1-1.1-6.4-2-10.3l-20.6,2.8l-0.1-0.4c-0.2-0.9-0.5-2.1-0.7-3l-0.1-0.4l19.4-7.5
	c-0.8-3-1.9-6.3-3.3-10.1l-20.4,5.2l-0.1-0.4c-0.4-1.1-0.7-2-1-3l-0.1-0.4l18.2-9.8c-1.3-3.1-2.8-6.3-4.5-9.5l-19.2,7.5l-0.2-0.4
	c-0.5-0.9-1.1-1.8-1.5-2.8l-0.2-0.4l16.9-11.8l-0.7-1.4c-1.4-2.5-2.9-5.2-4.6-7.7l-18.4,9.8l-0.2-0.4c-0.3-0.4-0.6-0.8-0.9-1.2
	s-0.6-0.9-0.8-1.3l-0.2-0.4l15.4-13.7c-2.2-2.9-4.2-5.7-6.5-8.5l-16.9,11.8l-0.3-0.3c-0.8-0.6-1.6-1.5-2.3-2.3l-0.3-0.3L289,57.1
	c-0.6-0.6-1.1-1.2-1.7-1.8c-0.6-0.7-1.3-1.4-1.9-2.1c-0.9-0.9-1.9-1.8-2.8-2.5c-0.4-0.4-0.8-0.6-1.1-1L266,63.5l-0.3-0.3
	c-0.4-0.4-0.8-0.7-1.1-1c-0.4-0.4-0.8-0.6-1.1-1l-0.4-0.4l11.9-17c-2.8-2.4-5.8-4.7-8.5-6.5l-13.7,15.4l-0.4-0.2
	c-0.4-0.3-0.8-0.6-1.3-0.8s-0.8-0.6-1.2-0.9l-0.4-0.2l9.8-18.4c-2.3-1.6-4.7-2.9-7.1-4.3c-0.6-0.4-1.3-0.8-1.9-1.2l-11.7,17
	l-0.4-0.2c-0.9-0.5-1.8-1.1-2.8-1.5l-0.4-0.1l7.5-19.2c-3.4-1.7-6.5-3.1-9.5-4.5l-9.8,18.2l-0.4-0.1c-1.1-0.4-2-0.7-3-1l-0.4-0.1
	l0.1-0.4l5.1-19.4c-3.3-1.2-6.6-2.4-10-3.4l-7.5,19.4l-0.4-0.1c-1-0.3-2.1-0.5-3-0.7l-0.5-0.1L206,9.9c-3.4-0.8-6.9-1.4-10.3-2
	l-5.2,20.2h-0.4c-0.4-0.1-0.7,0-1-0.1c-0.7,0-1.3-0.2-2.1-0.2l-0.5-0.1L186.7,7c-3.2-0.4-6.6-0.6-10.5-0.6l-2.7,20.3h-0.4
	c-0.7,0-1.3-0.1-2.1-0.1c-0.4,0-0.7,0-1.1-0.1h-0.4L167.4,6c-3.6,0.1-7.1,0.3-10.5,0.5l-0.3,20.7l-3.9,0.5l-4.5-20.4
	c-3.1,0.4-6.8,0.8-10.4,1.6l2.1,20.6l-0.4,0.1c-1,0.3-2.1,0.5-3,0.7l-0.4,0.1l-6.9-19.5c-3,0.7-6.3,1.6-10.2,3l4.6,20.2l-0.4,0.1
	c-1,0.3-1.9,0.6-3,1l-0.4,0.1l-9.2-18.5c-3,1.2-6.2,2.5-9.7,4.2l6.9,19.5l-0.4,0.1c-0.5,0.2-1,0.4-1.4,0.7c-0.5,0.2-0.9,0.4-1.4,0.7
	l-0.4,0.2L92.9,24.8c-2.8,1.5-5.7,3.3-9.1,5.4L93,48.7l-0.4,0.2c-0.4,0.3-0.8,0.5-1.2,0.8s-1,0.6-1.5,0.9l-0.4,0.3l-13-16.1
	c-3,2.1-5.9,3.9-8.6,6.2l11.2,17.3l-0.3,0.3c-0.4,0.4-0.8,0.6-1.1,1c-0.4,0.4-0.8,0.7-1.1,1l-0.3,0.3L61.2,46.7
	c-0.8,0.6-1.5,1.3-2.3,2c-1.8,1.5-3.5,3-5.2,4.6c-0.1,0.1-0.3,0.3-0.4,0.4s-0.1,0.1-0.1,0.1l13.4,15.9l-0.4,0.4
	c-0.7,0.7-1.4,1.6-2.1,2.3l-0.4,0.4L47.2,60.5c-2.7,3-4.9,5.6-6.9,8.1l15.1,14.2l-0.2,0.4c-0.3,0.4-0.6,0.8-0.8,1.3
	s-0.6,0.8-0.9,1.2l-0.3,0.4l-18-10.3c-2,2.7-3.8,5.7-5.8,8.9L46.1,97l-0.2,0.4c-0.2,0.5-0.5,0.9-0.8,1.3c-0.3,0.4-0.6,0.8-0.8,1.3
	l-0.2,0.4L25,92.3c-1.7,3.3-3.2,6.6-4.5,9.6l18,10.3l-0.1,0.4c-0.1,0.3-0.3,0.6-0.4,0.8c-0.3,0.7-0.6,1.3-0.8,1.8l-0.1,0.4
	l-19.7-5.7c-1.3,3.4-2.4,6.6-3.5,10l19,8.1l-0.1,0.4c-0.2,0.5-0.2,0.9-0.4,1.4c-0.1,0.6-0.3,1-0.4,1.6l-0.1,0.4l-20.2-3.7
	c-1.1,3.9-1.8,7.1-2.4,10.3l19.9,5.8l-0.1,0.5c-0.1,0.5-0.2,0.9-0.2,1.5c-0.1,0.6-0.1,1-0.3,1.6l-0.1,0.4l-20.6-1
	c-0.5,3.5-0.8,7.1-1.1,10.6l20.5,3.4v0.4c-0.1,0.9-0.1,2.1-0.1,3.1v0.4l-20.6,1.5c-0.1,3,0,6.5,0.3,10.6l20.6,0.9v0.4
	c0,0.6,0,1,0.1,1.6c0,0.6,0,1,0.1,1.5v0.4l-20.4,3.7c0.4,3.2,0.8,6.4,1.4,9.5l0.2,0.9l20.6-1.6l0.1,0.4c0.1,0.4,0.1,0.6,0.1,0.8
	c0.1,0.7,0.4,1.5,0.4,2.3v0.4l-19.7,6.4c0.8,3.7,1.6,7.1,2.5,10.3l20.2-4.1l1.3,3.7l-18.8,8.6c1.2,3.3,2.4,6.6,3.8,9.9l19.7-6.3
	l0.1,0.4c0.3,0.7,0.8,1.6,1.3,2.7l0.3,0.4l-17.6,10.8c1.6,3.3,3.3,6.2,5.1,9.3l18.8-8.6l0.4,0.8c0.4,0.7,0.7,1.4,1.3,2.1l0.3,0.4
	L32.8,258c2,3,4,5.8,6.2,8.6l0.1,0.1L56.6,256l0.3,0.3c0.3,0.4,0.6,0.8,0.8,1.3c0.3,0.4,0.6,0.8,0.9,1.2l0.4,0.4l-14.6,14.6
	c2.3,2.7,4.7,5.4,7.2,7.9L67.9,269l0.3,0.3c0.2,0.2,0.4,0.4,0.5,0.6c0.2,0.2,0.4,0.4,0.5,0.5c0.2,0.2,0.4,0.4,0.5,0.5
	c0.2,0.2,0.4,0.3,0.6,0.5l0.3,0.3l-13,16.4c2.5,2.6,5.1,5.1,7.8,7.2L80,280.7l0.4,0.4c0.4,0.4,0.8,0.6,1.2,0.9s0.8,0.6,1.3,0.8
	l0.3,0.3l-10.8,17.6c2.8,2.1,5.7,4.3,8.6,6.2l12.8-16.3l0.4,0.3c0.4,0.3,0.9,0.5,1.3,0.8c0.4,0.3,0.8,0.4,1.3,0.7l0.4,0.2l-8.6,18.8
	c3,1.8,6.1,3.4,9.3,5.1l10.8-17.6l0.4,0.1c0.5,0.2,0.9,0.4,1.4,0.7c0.5,0.2,0.8,0.4,1.3,0.6l0.4,0.1l-6.4,19.8
	c3.1,1.3,6.4,2.5,9.9,3.8l8.8-19l0.4,0.1c0.4,0.1,0.6,0.2,1,0.3c0.6,0.2,1.2,0.5,1.9,0.6l0.4,0.1l-4,20.4c2.5,0.7,5.1,1.4,7.6,1.9
	c0.9,0.2,1.8,0.4,2.8,0.6l6.4-19.7l0.4,0.1c0.4,0.1,0.6,0.1,0.8,0.1c0.7,0.1,1.5,0.4,2.2,0.4l0.5,0.1l-1.6,20.6
	c3.7,0.6,7.2,1.1,10.5,1.6l4-20.4l0.5,0.1c0.6,0.1,1.1,0.1,1.8,0.1c0.4,0,0.8,0.1,1.3,0h0.4L161.8,332.6z"/>
<path fill="#5A2F10" d="M86.3,285.7c-3.2,3.6-23.9,13-35,1.9c-11.1-11.1-1.6-31.8,2-34.9l75.6-62.4c3.6-3.2,9.3-3,12.7,0.4l6.9,6.9
	c3.4,3.4,3.5,9.1,0.4,12.7L86.3,285.7z"/>
</svg>
