<?xml version="1.0" encoding="utf-8"?>
<!-- Generator: Adobe Illustrator 18.0.0, SVG Export Plug-In . SVG Version: 6.00 Build 0)  -->
<!DOCTYPE svg PUBLIC "-//W3C//DTD SVG 1.0//EN" "http://www.w3.org/TR/2001/REC-SVG-20010904/DTD/svg10.dtd">
<svg version="1.0" id="Layer_1" xmlns="http://www.w3.org/2000/svg" xmlns:xlink="http://www.w3.org/1999/xlink" x="0px" y="0px"
	 viewBox="0 0 24 100" enable-background="new 0 0 24 100" xml:space="preserve">
<line fill="none" stroke="#8C8C8C" stroke-width="2" stroke-linecap="round" stroke-miterlimit="10" x1="12" y1="0" x2="12" y2="100"/>
<path fill="#D9B477" d="M21.2,40.8c0-5.4,2.8-6.7,2.8-13.8s-8.4-9.5-8.9-11.4c-0.4-1.3-0.5-2.4-0.5-2.4s0.1-0.6-1.4-0.7
	c-1.5-0.1-3.7,0.7-3.7,0.7s-0.1,1-0.5,2.4C8.4,17.5,0,19.8,0,27s2.8,8.4,2.8,13.8c0,2.5,0,15.1,0,17.6c0,5.4-2.8,6.7-2.8,13.8
	c0,7.1,8.4,9.5,8.9,11.4C9.4,84.9,9.4,86,9.4,86s0,1,1.3,1s3.9-1,3.9-1s0.1-1,0.5-2.4c0.6-1.8,9-4.2,9-11.4c0-7.2-2.8-8.4-2.8-13.8
	C21.2,56,21.2,43.3,21.2,40.8z"/>
<path display="none" fill="#8C471F" d="M21.2,46.3H2.8c0,1.3,0,3.7,0,6.1h18.5C21.2,50,21.2,47.7,21.2,46.3z"/>
<path display="none" fill="#818181" d="M21.2,59.4c0-0.6,0-1.8,0-3.3H2.8c0,1.5,0,2.7,0,3.3c0,1.2-0.1,2.2-0.4,3.1h19.2
	C21.4,61.6,21.2,60.6,21.2,59.4z"/>
<path display="none" fill="#F6EB16" d="M24,72.3c0-1.8-0.2-3.1-0.4-4.3H0.4C0.2,69.1,0,70.5,0,72.3c0,0.8,0.1,1.4,0.3,2.1h23.5
	C23.9,73.7,24,73,24,72.3z"/>
<path display="none" fill="#AD9F4E" d="M0,27c0,0.5,0,1,0.1,1.5h23.8c0-0.5,0.1-1,0.1-1.5c0-0.3,0-0.6-0.1-0.9H0.1
	C0,26.4,0,26.7,0,27z"/>
<path display="none" fill="#818181" d="M21.6,36.7H2.4c0.2,0.9,0.4,1.9,0.4,3.1c0,0.6,0,1.8,0,3.3h18.5c0-1.5,0-2.7,0-3.3
	C21.2,38.6,21.4,37.6,21.6,36.7z"/>
</svg>
