<?xml version="1.0" encoding="utf-8"?>
<!-- Generator: Adobe Illustrator 18.0.0, SVG Export Plug-In . SVG Version: 6.00 Build 0)  -->
<!DOCTYPE svg PUBLIC "-//W3C//DTD SVG 1.1//EN" "http://www.w3.org/Graphics/SVG/1.1/DTD/svg11.dtd">
<svg version="1.1"
	 id="svg1836" inkscape:version="0.92.5 (2060ec1f9f, 2020-04-08)" sodipodi:docname="rbgled.svg" xmlns:inkscape="http://www.inkscape.org/namespaces/inkscape" xmlns:sodipodi="http://sodipodi.sourceforge.net/DTD/sodipodi-0.dtd" xmlns:cc="http://creativecommons.org/ns#" xmlns:rdf="http://www.w3.org/1999/02/22-rdf-syntax-ns#" xmlns:svg="http://www.w3.org/2000/svg" xmlns:dc="http://purl.org/dc/elements/1.1/"
	 xmlns="http://www.w3.org/2000/svg" xmlns:xlink="http://www.w3.org/1999/xlink" x="0px" y="0px" viewBox="0 0 50 104"
	 enable-background="new 0 0 50 104" xml:space="preserve">
<path id="path1086" sodipodi:nodetypes="cssc" inkscape:connector-curvature="0" fill="none" stroke="#8C8C8C" stroke-width="1.9613" stroke-linecap="round" stroke-miterlimit="10" d="
	M1,102.8V57c0-3.4,13.6-8.2,13.6-11.4v-5.1"/>
<path id="path1088" sodipodi:nodetypes="cssc" inkscape:connector-curvature="0" fill="none" stroke="#8C8C8C" stroke-width="1.9613" stroke-linecap="round" stroke-miterlimit="10" d="
	M16,102.8L15.8,56c0-2.2,5.1-6.6,5.1-8.6v-5.8"/>
<path id="path1090" sodipodi:nodetypes="cssc" inkscape:connector-curvature="0" fill="none" stroke="#8C8C8C" stroke-width="1.9613" stroke-linecap="round" stroke-miterlimit="10" d="
	M48.8,102.7L49,56.9c0-3.4-14.3-8.2-14.3-11.3v-5.1"/>
<path id="path1092" sodipodi:nodetypes="cssc" inkscape:connector-curvature="0" fill="none" stroke="#8C8C8C" stroke-width="1.9613" stroke-linecap="round" stroke-miterlimit="10" d="
	M33,102.7l-0.2-46.8c0-2.2-4.5-6.6-4.5-8.5v-5.8"/>
<path id="path1104" inkscape:connector-curvature="0" fill="#8C8C8C" d="M30.2,36.2c-0.4,0-0.7-0.3-0.7-0.7V34
	c0-0.4-0.2-0.9-0.4-1.2l-2.2-2.5c-0.2-0.3-0.4-0.8-0.4-1.2V25c0-0.4,0.2-0.9,0.5-1.1l2.1-2c0.3-0.3,0.5-0.8,0.5-1.1v-1.3
	c0-0.4,0.3-0.7,0.7-0.7H32c0.4,0,0.7,0.3,0.7,0.7V22c0,0.4-0.2,0.9-0.4,1.2l-1.9,2.4c-0.2,0.3-0.4,0.8-0.4,1.2l0,1.3
	c0,0.4,0.2,0.9,0.4,1.2l2.7,3.3c0.2,0.3,0.4,0.8,0.4,1.2v1.9c0,0.4-0.3,0.7-0.7,0.7L30.2,36.2z"/>
<path id="path1106" inkscape:connector-curvature="0" fill="#8C8C8C" d="M18.4,36.2c0.4,0,0.7-0.3,0.7-0.7V34c0-0.4,0.2-0.9,0.4-1.2
	l2.2-2.5c0.2-0.3,0.4-0.8,0.4-1.2V25c0-0.4,0.3-0.7,0.7-0.7h1.4c0.4,0,0.9-0.2,1.1-0.5l2.1-2c0.3-0.3,0.5-0.8,0.5-1.1v-1.2
	c0-0.4-0.3-0.7-0.7-0.7H16.6c-0.4,0-0.7,0.3-0.7,0.7V22c0,0.4,0.2,0.9,0.4,1.2l1.9,2.4c0.2,0.3,0.4,0.8,0.4,1.2l0,1.3
	c0,0.4-0.2,0.9-0.4,1.2l-2.7,3.3c-0.2,0.3-0.4,0.8-0.4,1.2v1.9c0,0.4,0.3,0.7,0.7,0.7L18.4,36.2z"/>
<path id="path1114" inkscape:connector-curvature="0" opacity="0.1" enable-background="new" d="M24.5,31.2
	c7.9,0,14.4,2.9,14.4,6.5v-4.5c-2.9-2.6-8.2-4.3-14.4-4.3s-11.5,1.7-14.4,4.3v4.5C10.2,34.1,16.6,31.2,24.5,31.2z"/>
<path id="path1122" inkscape:connector-curvature="0" fill="none" stroke="#888888" stroke-width="0.1471" d="M38.9,33.3v4.5
	c0,3.6-6.4,6.5-14.4,6.5c-7.9,0-14.4-2.9-14.4-6.5v4.5c2.9,2.6,8.2,4.3,14.4,4.3c9.2,0,16.7-4,16.7-8.8
	C41.2,36.1,40.4,34.6,38.9,33.3z"/>

</svg>
