<?xml version="1.0" encoding="utf-8"?>
<!-- Generator: Adobe Illustrator 18.0.0, SVG Export Plug-In . SVG Version: 6.00 Build 0)  -->
<!DOCTYPE svg PUBLIC "-//W3C//DTD SVG 1.0//EN" "http://www.w3.org/TR/2001/REC-SVG-20010904/DTD/svg10.dtd">
<svg version="1.0" id="Layer_1" xmlns="http://www.w3.org/2000/svg" xmlns:xlink="http://www.w3.org/1999/xlink" x="0px" y="0px"
	 viewBox="0 0 146 548" enable-background="new 0 0 146 548" xml:space="preserve">
<rect x="65.5" y="75.2" fill="#9B1C20" width="15.2" height="276.7"/>
<path fill="#D37636" d="M96,351.9H80.7v-197c0-17.7,3.8-28,7.5-37.8C92,106.8,96,96.3,96,75.2h15.2c0,23.8-4.6,36.2-8.7,47.2
	c-3.5,9.4-6.5,17.6-6.5,32.5V351.9z"/>
<path fill="#67392E" d="M65.5,351.9H50.3V166.7c0-15.3-3.3-26.6-6.7-38.5c-4-13.8-8.5-29.5-8.5-53h15.2c0,21.4,4,35.3,7.9,48.8
	c3.6,12.4,7.3,25.3,7.3,42.7V351.9z"/>
<path fill="#282828" stroke="#282828" stroke-width="0.4" stroke-miterlimit="10" d="M117.3,0H28.9c-1.7,0-3,1.4-3,3v86.6
	c0,1.7,1.4,3,3,3h88.3c1.7,0,3-1.4,3-3V3C120.3,1.4,119,0,117.3,0z"/>
<path fill="#333333" stroke="#282828" stroke-width="0.4" stroke-miterlimit="10" d="M117.3,0H28.9c-1.7,0-3,1.4-3,3v32.6h94.4V3
	C120.3,1.4,119,0,117.3,0z"/>
<g transform="translate(0,-35)">
	<path opacity="0.2" fill="#FFFFFF" enable-background="new    " d="M77.7,57.6h-9.1l-5.2,5.2c0.6,0.6,1.3,0.9,2.2,0.9h15.2
		c0.8,0,1.6-0.3,2.2-0.9L77.7,57.6z"/>
	<path opacity="0.25" fill="#010101" enable-background="new    " d="M68.5,57.6v-9.1l-5.2-5.2c-0.6,0.6-0.9,1.3-0.9,2.2v15.2
		c0,0.8,0.3,1.6,0.9,2.2L68.5,57.6z"/>
	<path opacity="0.35" fill="#010101" enable-background="new    " d="M77.7,48.5l5.2-5.2c-0.6-0.6-1.3-0.9-2.2-0.9H65.5
		c-0.8,0-1.6,0.3-2.2,0.9l5.2,5.2H77.7z"/>
	<path opacity="0.15" fill="#FFFFFF" enable-background="new    " d="M82.9,43.3l-5.2,5.2v9.1l5.2,5.2c0.6-0.6,0.9-1.3,0.9-2.2V45.4
		C83.8,44.6,83.4,43.8,82.9,43.3z"/>
	<rect x="68.5" y="48.5" fill="#191919" width="9.1" height="9.1"/>
</g>
<g transform="translate(0,-35)">
	<path opacity="0.2" fill="#FFFFFF" enable-background="new    " d="M47.2,57.6h-9.1l-5.2,5.2c0.6,0.6,1.3,0.9,2.2,0.9h15.2
		c0.8,0,1.6-0.3,2.2-0.9L47.2,57.6z"/>
	<path opacity="0.25" fill="#010101" enable-background="new    " d="M38.1,57.6v-9.1l-5.2-5.2c-0.6,0.6-0.9,1.3-0.9,2.2v15.2
		c0,0.8,0.3,1.6,0.9,2.2L38.1,57.6z"/>
	<path opacity="0.35" fill="#010101" enable-background="new    " d="M47.2,48.5l5.2-5.2c-0.6-0.6-1.3-0.9-2.2-0.9H35
		c-0.8,0-1.6,0.3-2.2,0.9l5.2,5.2H47.2z"/>
	<path opacity="0.15" fill="#FFFFFF" enable-background="new    " d="M52.4,43.3l-5.2,5.2v9.1l5.2,5.2c0.6-0.6,0.9-1.3,0.9-2.2V45.4
		C53.3,44.6,53,43.8,52.4,43.3z"/>
	<rect x="38.1" y="48.5" fill="#191919" width="9.1" height="9.1"/>
</g>
<g transform="translate(0,-35)">
	<path opacity="0.2" fill="#FFFFFF" enable-background="new    " d="M108.1,57.6H99l-5.2,5.2c0.6,0.6,1.3,0.9,2.2,0.9h15.2
		c0.8,0,1.6-0.3,2.2-0.9L108.1,57.6z"/>
	<path opacity="0.25" fill="#010101" enable-background="new    " d="M99,57.6v-9.1l-5.2-5.2c-0.6,0.6-0.9,1.3-0.9,2.2v15.2
		c0,0.8,0.3,1.6,0.9,2.2L99,57.6z"/>
	<path opacity="0.35" fill="#010101" enable-background="new    " d="M108.1,48.5l5.2-5.2c-0.6-0.6-1.3-0.9-2.2-0.9H96
		c-0.8,0-1.6,0.3-2.2,0.9l5.2,5.2H108.1z"/>
	<path opacity="0.15" fill="#FFFFFF" enable-background="new    " d="M113.3,43.3l-5.2,5.2v9.1l5.2,5.2c0.6-0.6,0.9-1.3,0.9-2.2
		V45.4C114.2,44.6,113.9,43.8,113.3,43.3z"/>
	<rect x="99" y="48.5" fill="#191919" width="9.1" height="9.1"/>
</g>
<line fill="none" stroke="#333333" stroke-linecap="round" stroke-miterlimit="10" x1="33.8" y1="64.5" x2="112.4" y2="64.5"/>
<path fill="#2C86C7" d="M87.5,542.7c6.3-4.6,10-11.9,10-19.6c0-13.4-10.9-24.4-24.4-24.4l-0.4,0c-6.4,0.1-12.7,3-17.3,8
	c-4.6,5-7,11.5-6.6,17.9c0.4,7.3,4.1,13.8,9.9,18.1H6.1c-0.8,0-1.5-0.7-1.5-1.5V164.5c0-0.8,0.7-1.5,1.5-1.5h52.6
	c-6.3,4.6-10,11.9-10,19.6c0,6.5,2.5,12.6,7.1,17.2c4.6,4.6,10.7,7.1,17.2,7.1l0.4,0c6.4-0.1,12.7-3,17.3-8c4.6-5,7-11.5,6.6-17.9
	c-0.4-7.3-4.1-13.8-9.9-18.1h52.6c0.8,0,1.5,0.7,1.5,1.5v376.6c0,0.8-0.7,1.5-1.5,1.5L87.5,542.7L87.5,542.7z"/>
<path fill="#1D5D8A" d="M137.1,538.1H102v-42.6H44.2v42.6h-35V170.6c0-1.7,1.4-3,3-3h32v42.7l57.8,0v-42.6h32c1.7,0,3,1.4,3,3V538.1
	z M140.1,158.5H82.9c-0.8,0-1.5,0.7-1.5,1.5v1c0,2.2,1.2,4.2,3,5.4c4.8,3.4,8.1,8.8,8.5,15c0.7,10.9-8.6,20.9-19.5,21
	c-0.1,0-0.2,0-0.3,0c-10.9,0-19.8-8.9-19.8-19.8c0-6.8,3.4-12.7,8.6-16.3c1.8-1.2,3-3.2,3-5.4v-1c0-0.8-0.7-1.5-1.5-1.5H6.1
	c-3.4,0-6.1,2.7-6.1,6.1v376.6c0,3.4,2.7,6.1,6.1,6.1h57.2c0.8,0,1.5-0.7,1.5-1.5v-1c0-2.2-1.2-4.2-3-5.4c-4.8-3.4-8.1-8.8-8.5-15
	c-0.7-10.9,8.6-20.9,19.5-21c0.1,0,0.2,0,0.3,0c10.9,0,19.8,8.9,19.8,19.8c0,6.8-3.4,12.7-8.6,16.3c-1.8,1.2-3,3.2-3,5.4v1
	c0,0.8,0.7,1.5,1.5,1.5h57.2c3.4,0,6.1-2.7,6.1-6.1V164.5C146.2,161.2,143.5,158.5,140.1,158.5L140.1,158.5z"/>
<path fill="#1D5D8A" d="M146.2,210.2H0v285.2h146.2V210.2z M135.6,475c-5.4,0-9.7,4.3-9.7,9.7c0,0.6,0.1,1.1,0.2,1.7H19.9
	c0.1-0.5,0.2-1.1,0.2-1.7c0-5.4-4.3-9.7-9.7-9.7c-0.4,0-0.9,0.1-1.3,0.1V230.2c0.4,0.1,0.8,0.1,1.3,0.1c5.4,0,9.7-4.3,9.7-9.7
	c0-0.4-0.1-0.8-0.1-1.3h106.1c-0.1,0.4-0.1,0.8-0.1,1.3c0,5.4,4.3,9.7,9.7,9.7c0.5,0,1-0.1,1.4-0.1v245
	C136.6,475.1,136.1,475,135.6,475z"/>
<path fill="#2989CA" d="M73.8,220.6h-1.3c-35.4,0-64.1,28.7-64.1,64.1v1.3c0,24.2,13.4,45.2,33.2,56.1c6.3,3.5,10.2,10.2,10.2,17.4
	v12.2c0,11.7,9.5,21.2,21.2,21.2h0.4c11.7,0,21.2-9.5,21.2-21.2v-12.2c0-7.2,3.9-13.9,10.2-17.4c19.8-10.9,33.2-31.9,33.2-56.1v-1.3
	C137.9,249.3,109.2,220.6,73.8,220.6z"/>
<path fill="none" stroke="#1D5D8A" stroke-width="3" stroke-miterlimit="10" d="M73.8,220.6h-1.3c-35.4,0-64.1,28.7-64.1,64.1v1.3
	c0,24.2,13.4,45.2,33.2,56.1c6.3,3.5,10.2,10.2,10.2,17.4v12.2c0,11.7,9.5,21.2,21.2,21.2h0.4c11.7,0,21.2-9.5,21.2-21.2v-12.2
	c0-7.2,3.9-13.9,10.2-17.4c19.8-10.9,33.2-31.9,33.2-56.1v-1.3C137.9,249.3,109.2,220.6,73.8,220.6z"/>
</svg>
