<?xml version="1.0" encoding="utf-8"?>
<!-- Generator: Adobe Illustrator 18.0.0, SVG Export Plug-In . SVG Version: 6.00 Build 0)  -->
<!DOCTYPE svg PUBLIC "-//W3C//DTD SVG 1.0//EN" "http://www.w3.org/TR/2001/REC-SVG-20010904/DTD/svg10.dtd">
<svg version="1.0" id="Layer_1" xmlns="http://www.w3.org/2000/svg" xmlns:xlink="http://www.w3.org/1999/xlink" x="0px" y="0px"
	 viewBox="0 0 171 356" enable-background="new 0 0 171 356" xml:space="preserve">
<g transform="translate(0, 87.5) rotate(0)">
	<path fill="#EDEDED" stroke="#5B5C61" stroke-width="0.5" stroke-miterlimit="10" d="M105.8,249.3l6.9-124.9
		c0.5-6.8,6.3-12.1,13.1-12.1H148c12,0,22.5-9.3,22.8-21.3c0.4-12.4-9.6-22.6-21.9-22.6h-22.4c-6.9,0-12.6-5.3-13.1-12.2
		c-3.6-47.7-7.6-124.8-7.6-124.8s-0.3-19-20.4-19S65-68.5,65-68.5S61,8.7,57.4,56.3c-0.5,6.9-6.2,12.2-13.1,12.2H22.9
		c-12,0-22.5,9.3-22.8,21.3c-0.4,12.4,9.6,22.6,21.9,22.6H45c6.9,0,12.6,5.3,13.1,12.1L65,249.4c0,0,0.4,19,20.4,19
		C105.4,268.3,105.8,249.3,105.8,249.3z M80.7-70.9c0-2.6,2.1-4.7,4.7-4.7c2.6,0,4.7,2.1,4.7,4.7s-2.1,4.7-4.7,4.7
		C82.8-66.2,80.7-68.3,80.7-70.9z M80.7-51.9c0-2.6,2.1-4.7,4.7-4.7c2.6,0,4.7,2.1,4.7,4.7c0,2.6-2.1,4.7-4.7,4.7
		C82.8-47.2,80.7-49.3,80.7-51.9z M80.7-32.9c0-2.6,2.1-4.7,4.7-4.7c2.6,0,4.7,2.1,4.7,4.7c0,2.6-2.1,4.7-4.7,4.7
		C82.8-28.2,80.7-30.3,80.7-32.9z M80.7-13.9c0-2.6,2.1-4.7,4.7-4.7c2.6,0,4.7,2.1,4.7,4.7S88-9.3,85.4-9.3
		C82.8-9.3,80.7-11.3,80.7-13.9z M80.7,5.1c0-2.6,2.1-4.7,4.7-4.7c2.6,0,4.7,2.1,4.7,4.7S88,9.7,85.4,9.7
		C82.8,9.7,80.7,7.6,80.7,5.1z M80.7,24c0-2.6,2.1-4.7,4.7-4.7c2.6,0,4.7,2.1,4.7,4.7s-2.1,4.7-4.7,4.7C82.8,28.7,80.7,26.6,80.7,24
		z M80.7,43c0-2.6,2.1-4.7,4.7-4.7c2.6,0,4.7,2.1,4.7,4.7c0,2.6-2.1,4.7-4.7,4.7C82.8,47.7,80.7,45.6,80.7,43z M156.2,90.4
		c0,2.6-2.1,4.7-4.7,4.7s-4.7-2.1-4.7-4.7c0-2.6,2.1-4.7,4.7-4.7S156.2,87.8,156.2,90.4z M42.3,90.4c0,2.6-2.1,4.7-4.7,4.7
		c-2.6,0-4.7-2.1-4.7-4.7c0-2.6,2.1-4.7,4.7-4.7C40.2,85.7,42.3,87.8,42.3,90.4z M14,90.5c0-2.6,2.1-4.7,4.7-4.7s4.7,2.1,4.7,4.7
		c0,2.6-2.1,4.7-4.7,4.7C16,95.1,14,93,14,90.5z M127.8,90.5c0-2.6,2.1-4.7,4.7-4.7s4.7,2.1,4.7,4.7c0,2.6-2.1,4.7-4.7,4.7
		S127.8,93,127.8,90.5z M80.7,137.9c0-2.6,2.1-4.7,4.7-4.7c2.6,0,4.7,2.1,4.7,4.7c0,2.6-2.1,4.7-4.7,4.7
		C82.8,142.6,80.7,140.5,80.7,137.9z M80.7,156.9c0-2.6,2.1-4.7,4.7-4.7c2.6,0,4.7,2.1,4.7,4.7s-2.1,4.7-4.7,4.7
		C82.8,161.6,80.7,159.5,80.7,156.9z M80.7,175.9c0-2.6,2.1-4.7,4.7-4.7c2.6,0,4.7,2.1,4.7,4.7s-2.1,4.7-4.7,4.7
		C82.8,180.6,80.7,178.5,80.7,175.9z M80.7,194.9c0-2.6,2.1-4.7,4.7-4.7c2.6,0,4.7,2.1,4.7,4.7s-2.1,4.7-4.7,4.7
		C82.8,199.5,80.7,197.4,80.7,194.9z M80.7,213.8c0-2.6,2.1-4.7,4.7-4.7c2.6,0,4.7,2.1,4.7,4.7s-2.1,4.7-4.7,4.7
		C82.8,218.5,80.7,216.4,80.7,213.8z M80.7,232.8c0-2.6,2.1-4.7,4.7-4.7c2.6,0,4.7,2.1,4.7,4.7s-2.1,4.7-4.7,4.7
		C82.8,237.5,80.7,235.4,80.7,232.8z M80.7,251.8c0-2.6,2.1-4.7,4.7-4.7c2.6,0,4.7,2.1,4.7,4.7c0,2.6-2.1,4.7-4.7,4.7
		C82.8,256.5,80.7,254.4,80.7,251.8z"/>
	<circle fill="#E0E1E0" stroke="#636464" stroke-width="0.5" stroke-miterlimit="10" cx="85.4" cy="90.4" r="29"/>
	<circle fill="#CDCCCC" stroke="#636464" stroke-width="0.5" stroke-miterlimit="10" cx="85.4" cy="90.5" r="15.3"/>
	<line fill="none" stroke="#636464" stroke-linecap="round" stroke-miterlimit="10" x1="77.6" y1="90.4" x2="93.3" y2="90.4"/>
	<line fill="none" stroke="#636464" stroke-linecap="round" stroke-miterlimit="10" x1="85.4" y1="82.5" x2="85.4" y2="98.3"/>
</g>
</svg>
