<?xml version="1.0" encoding="utf-8"?>
<!-- Generator: Adobe Illustrator 18.0.0, SVG Export Plug-In . SVG Version: 6.00 Build 0)  -->
<!DOCTYPE svg PUBLIC "-//W3C//DTD SVG 1.1//EN" "http://www.w3.org/Graphics/SVG/1.1/DTD/svg11.dtd">
<svg version="1.1"
	 id="svg2367" xmlns:sodipodi="http://sodipodi.sourceforge.net/DTD/sodipodi-0.dtd" xmlns:inkscape="http://www.inkscape.org/namespaces/inkscape" xmlns:cc="http://creativecommons.org/ns#" xmlns:svg="http://www.w3.org/2000/svg" xmlns:rdf="http://www.w3.org/1999/02/22-rdf-syntax-ns#" xmlns:dc="http://purl.org/dc/elements/1.1/" inkscape:version="0.92.5 (2060ec1f9f, 2020-04-08)" sodipodi:docname="Tmp36Temperature Sensor.svg"
	 xmlns="http://www.w3.org/2000/svg" xmlns:xlink="http://www.w3.org/1999/xlink" x="0px" y="0px" viewBox="0 0 68 148"
	 enable-background="new 0 0 68 148" xml:space="preserve">
<sodipodi:namedview  id="base" inkscape:window-y="-9" inkscape:window-x="-9" inkscape:window-height="1001" inkscape:window-width="1920" inkscape:current-layer="layer1" inkscape:document-units="mm" inkscape:pageshadow="2" inkscape:pageopacity="0.0" inkscape:window-maximized="1" borderopacity="1.0" bordercolor="#666666" pagecolor="#ffffff" inkscape:cy="938.5386" inkscape:cx="-8.66486" showgrid="false" inkscape:zoom="1.4">
	<inkscape:grid  id="grid5858" type="xygrid"></inkscape:grid>
</sodipodi:namedview>
<g id="layer1" inkscape:label="Layer 1" inkscape:groupmode="layer">
	<g id="g5868">

			<path id="path1168" sodipodi:nodetypes="cssc" inkscape:connector-curvature="0" fill="none" stroke="#8C8C8C" stroke-width="4" stroke-linecap="round" stroke-miterlimit="10" d="
			M59.6,145.5L59.2,85c0-4.7-10-4.7-10-9V62.4"/>

			<path id="path1170" sodipodi:nodetypes="cssc" inkscape:connector-curvature="0" fill="none" stroke="#8C8C8C" stroke-width="4" stroke-linecap="round" stroke-miterlimit="10" d="
			M7.6,145L7.2,84.7c0-4.7,10.1-4.7,10.1-9.1V62.1"/>

			<path id="path1172" sodipodi:nodetypes="cc" inkscape:connector-curvature="0" fill="none" stroke="#8C8C8C" stroke-width="4" stroke-linecap="round" stroke-miterlimit="10" d="
			M33.3,145.5l0-98.1"/>
		<path id="path1182" inkscape:connector-curvature="0" fill="#333333" d="M64.8,65.1c1.5-1.5,2.4-3.1,2.4-4.7V14.5
			c0-7.1-15-12.9-33.6-12.9C15,1.6,0,7.4,0,14.5v45.9c0,1.7,0.9,3.3,2.4,4.7H64.8z"/>
		<path id="path1184" inkscape:connector-curvature="0" fill="#595959" d="M60.7,20.9v41h-54v-41H60.7 M65,17.6H2.4v47.5H65L65,17.6
			z"/>
		<path id="path1186" inkscape:connector-curvature="0" fill="#595959" d="M6.2,17.6l0-1.6c-1.2-1-1.8-2.1-1.8-3.1
			c0-4.5,12.5-9.6,29.3-9.6c16.8,0,29.3,5.1,29.3,9.6c0,1-0.7,2.1-1.8,3.1l0,1.4l3.8,0.1c1.4-1.4,2.3-3,2.3-4.6
			C67.2,5.8,52.2,0,33.6,0C15.1,0,0,5.8,0,12.9c0,1.7,0.9,3.2,2.3,4.7L6.2,17.6z"/>
		<text transform="matrix(0.5666 0 0 1 15.3643 44.2813)" fill="#FFFFFF" font-family="'ArialMT'" font-size="20">TMP36</text>
	</g>
</g>
</svg>
