<?xml version="1.0" encoding="UTF-8"?>
<svg xmlns="http://www.w3.org/2000/svg" xmlns:xlink="http://www.w3.org/1999/xlink"
     width="1500" height="2500" viewBox="-750.0 -1250.0 1500 2500">
<defs>
</defs>
<path d="M-300,-700 L300,-700 L300,800 L-300,800 L-300,-700" stroke-width="10" stroke="black" fill-opacity="0" />
<text x="-400.0" y="560" font-size="50.0" fill="black" text-anchor="middle" transform="translate(0,15.0)">1</text>
<text x="-221" y="600" font-size="50.0" fill="black" text-anchor="middle" transform="translate(0,15.0)">STX</text>
<path d="M-500,600 L-300,600" stroke="black" stroke-width="5" />
<text x="400.0" y="-140" font-size="50.0" fill="black" text-anchor="middle" transform="translate(0,15.0)">10</text>
<text x="247" y="-100" font-size="50.0" fill="black" text-anchor="middle" transform="translate(0,15.0)">W</text>
<path d="M500,-100 L300,-100" stroke="black" stroke-width="5" />
<text x="-400.0" y="160" font-size="50.0" fill="black" text-anchor="middle" transform="translate(0,15.0)">11</text>
<text x="-234" y="200" font-size="50.0" fill="black" text-anchor="middle" transform="translate(0,15.0)">Y3</text>
<path d="M-500,200 L-300,200" stroke="black" stroke-width="5" />
<text x="-400.0" y="60" font-size="50.0" fill="black" text-anchor="middle" transform="translate(0,15.0)">12</text>
<text x="-234" y="100" font-size="50.0" fill="black" text-anchor="middle" transform="translate(0,15.0)">Y2</text>
<path d="M-500,100 L-300,100" stroke="black" stroke-width="5" />
<text x="-400.0" y="-40" font-size="50.0" fill="black" text-anchor="middle" transform="translate(0,15.0)">13</text>
<text x="-234" y="0" font-size="50.0" fill="black" text-anchor="middle" transform="translate(0,15.0)">Y1</text>
<path d="M-500,0 L-300,0" stroke="black" stroke-width="5" />
<text x="-400.0" y="-140" font-size="50.0" fill="black" text-anchor="middle" transform="translate(0,15.0)">14</text>
<text x="-234" y="-100" font-size="50.0" fill="black" text-anchor="middle" transform="translate(0,15.0)">Y0</text>
<path d="M-500,-100 L-300,-100" stroke="black" stroke-width="5" />
<text x="-400.0" y="660" font-size="50.0" fill="black" text-anchor="middle" transform="translate(0,15.0)">15</text>
<text x="-221" y="700" font-size="50.0" fill="black" text-anchor="middle" transform="translate(0,15.0)">STY</text>
<path d="M-500,700 L-300,700" stroke="black" stroke-width="5" />
<text x="-40" y="-800.0" font-size="50.0" fill="black" text-anchor="middle" transform="translate(0,15.0)">16</text>
<text x="0" y="-621" font-size="50.0" fill="black" text-anchor="middle" transform="translate(0,15.0)">VDD</text>
<path d="M0,-900 L0,-700" stroke="black" stroke-width="5" />
<text x="-400.0" y="-640" font-size="50.0" fill="black" text-anchor="middle" transform="translate(0,15.0)">2</text>
<text x="-234" y="-600" font-size="50.0" fill="black" text-anchor="middle" transform="translate(0,15.0)">X0</text>
<path d="M-500,-600 L-300,-600" stroke="black" stroke-width="5" />
<text x="-400.0" y="-540" font-size="50.0" fill="black" text-anchor="middle" transform="translate(0,15.0)">3</text>
<text x="-234" y="-500" font-size="50.0" fill="black" text-anchor="middle" transform="translate(0,15.0)">X1</text>
<path d="M-500,-500 L-300,-500" stroke="black" stroke-width="5" />
<text x="-400.0" y="-440" font-size="50.0" fill="black" text-anchor="middle" transform="translate(0,15.0)">4</text>
<text x="-234" y="-400" font-size="50.0" fill="black" text-anchor="middle" transform="translate(0,15.0)">X2</text>
<path d="M-500,-400 L-300,-400" stroke="black" stroke-width="5" />
<text x="-400.0" y="-340" font-size="50.0" fill="black" text-anchor="middle" transform="translate(0,15.0)">5</text>
<text x="-234" y="-300" font-size="50.0" fill="black" text-anchor="middle" transform="translate(0,15.0)">X3</text>
<path d="M-500,-300 L-300,-300" stroke="black" stroke-width="5" />
<text x="-400.0" y="360" font-size="50.0" fill="black" text-anchor="middle" transform="translate(0,15.0)">6</text>
<text x="-247" y="400" font-size="50.0" fill="black" text-anchor="middle" transform="translate(0,15.0)">A</text>
<path d="M-500,400 L-300,400" stroke="black" stroke-width="5" />
<text x="-400.0" y="460" font-size="50.0" fill="black" text-anchor="middle" transform="translate(0,15.0)">7</text>
<text x="-247" y="500" font-size="50.0" fill="black" text-anchor="middle" transform="translate(0,15.0)">B</text>
<path d="M-500,500 L-300,500" stroke="black" stroke-width="5" />
<text x="-40" y="900.0" font-size="50.0" fill="black" text-anchor="middle" transform="translate(0,15.0)">8</text>
<text x="0" y="721" font-size="50.0" fill="black" text-anchor="middle" transform="translate(0,15.0)">VSS</text>
<path d="M0,1000 L0,800" stroke="black" stroke-width="5" />
<text x="400.0" y="-640" font-size="50.0" fill="black" text-anchor="middle" transform="translate(0,15.0)">9</text>
<text x="247" y="-600" font-size="50.0" fill="black" text-anchor="middle" transform="translate(0,15.0)">Z</text>
<path d="M500,-600 L300,-600" stroke="black" stroke-width="5" />
</svg>