<?xml version="1.0" encoding="UTF-8"?>
<svg xmlns="http://www.w3.org/2000/svg" xmlns:xlink="http://www.w3.org/1999/xlink"
     width="1500" height="2500" viewBox="-750.0 -1250.0 1 1">
<defs>
</defs>
<path d="M-200,-300 L200,-300 L200,300 L-200,300 L-200,-300" stroke-width="10" stroke="black" fill-opacity="0.3" />
<path d="M-25,-50 L-25,50" stroke="black" stroke-width="0" fill-opacity="0" />
<path d="M25,-50 L-25,-50" stroke="black" stroke-width="0" fill-opacity="0" />
<path d="M-150,150 L-150,-150" stroke="black" stroke-width="10" fill-opacity="0.3" />
<path d="M150,0 L-150,150" stroke="black" stroke-width="10" fill-opacity="0.3" />
<path d="M-150,-150 L150,0" stroke="black" stroke-width="10" fill-opacity="0.3" />
<path d="M-150,-150 L-150,-150" stroke="black" stroke-width="10" fill-opacity="0.3" />
<path d="M25,50 L-50,50" stroke="black" stroke-width="0" fill-opacity="0" />
<path d="M25,-50 L25,50" stroke="black" stroke-width="0" fill-opacity="0" />
<path d="M50,-50 L25,-50" stroke="black" stroke-width="0" fill-opacity="0" />
<path d="M-25,-50 L-25,50" stroke="black" stroke-width="0" fill-opacity="0" />
<path d="M25,-50 L-25,-50" stroke="black" stroke-width="0" fill-opacity="0" />
<path d="M-150,150 L-150,-150" stroke="black" stroke-width="10" fill-opacity="0.3" />
<path d="M150,0 L-150,150" stroke="black" stroke-width="10" fill-opacity="0.3" />
<path d="M-150,-150 L150,0" stroke="black" stroke-width="10" fill-opacity="0.3" />
<path d="M-150,-150 L-150,-150" stroke="black" stroke-width="10" fill-opacity="0.3" />
<path d="M25,50 L-50,50" stroke="black" stroke-width="0" fill-opacity="0" />
<path d="M25,-50 L25,50" stroke="black" stroke-width="0" fill-opacity="0" />
<path d="M50,-50 L25,-50" stroke="black" stroke-width="0" fill-opacity="0" />
<path d="M-25,-50 L-25,50" stroke="black" stroke-width="0" fill-opacity="0" />
<path d="M25,-50 L-25,-50" stroke="black" stroke-width="0" fill-opacity="0" />
<path d="M-150,150 L-150,-150" stroke="black" stroke-width="10" fill-opacity="0.3" />
<path d="M150,0 L-150,150" stroke="black" stroke-width="10" fill-opacity="0.3" />
<path d="M-150,-150 L150,0" stroke="black" stroke-width="10" fill-opacity="0.3" />
<path d="M-150,-150 L-150,-150" stroke="black" stroke-width="10" fill-opacity="0.3" />
<path d="M25,50 L-50,50" stroke="black" stroke-width="0" fill-opacity="0" />
<path d="M25,-50 L25,50" stroke="black" stroke-width="0" fill-opacity="0" />
<path d="M50,-50 L25,-50" stroke="black" stroke-width="0" fill-opacity="0" />
<path d="M-25,-50 L-25,50" stroke="black" stroke-width="0" fill-opacity="0" />
<path d="M25,-50 L-25,-50" stroke="black" stroke-width="0" fill-opacity="0" />
<path d="M-150,150 L-150,-150" stroke="black" stroke-width="10" fill-opacity="0.3" />
<path d="M150,0 L-150,150" stroke="black" stroke-width="10" fill-opacity="0.3" />
<path d="M-150,-150 L150,0" stroke="black" stroke-width="10" fill-opacity="0.3" />
<path d="M-150,-150 L-150,-150" stroke="black" stroke-width="10" fill-opacity="0.3" />
<path d="M25,50 L-50,50" stroke="black" stroke-width="0" fill-opacity="0" />
<path d="M25,-50 L25,50" stroke="black" stroke-width="0" fill-opacity="0" />
<path d="M50,-50 L25,-50" stroke="black" stroke-width="0" fill-opacity="0" />
<path d="M-25,-50 L-25,50" stroke="black" stroke-width="0" fill-opacity="0" />
<path d="M25,-50 L-25,-50" stroke="black" stroke-width="0" fill-opacity="0" />
<path d="M-150,150 L-150,-150" stroke="black" stroke-width="10" fill-opacity="0.3" />
<path d="M150,0 L-150,150" stroke="black" stroke-width="10" fill-opacity="0.3" />
<path d="M-150,-150 L150,0" stroke="black" stroke-width="10" fill-opacity="0.3" />
<path d="M-150,-150 L-150,-150" stroke="black" stroke-width="10" fill-opacity="0.3" />
<path d="M25,50 L-50,50" stroke="black" stroke-width="0" fill-opacity="0" />
<path d="M25,-50 L25,50" stroke="black" stroke-width="0" fill-opacity="0" />
<path d="M50,-50 L25,-50" stroke="black" stroke-width="0" fill-opacity="0" />
<path d="M-25,-50 L-25,50" stroke="black" stroke-width="0" fill-opacity="0" />
<path d="M25,-50 L-25,-50" stroke="black" stroke-width="0" fill-opacity="0" />
<path d="M-150,150 L-150,-150" stroke="black" stroke-width="10" fill-opacity="0.3" />
<path d="M150,0 L-150,150" stroke="black" stroke-width="10" fill-opacity="0.3" />
<path d="M-150,-150 L150,0" stroke="black" stroke-width="10" fill-opacity="0.3" />
<path d="M-150,-150 L-150,-150" stroke="black" stroke-width="10" fill-opacity="0.3" />
<path d="M25,50 L-50,50" stroke="black" stroke-width="0" fill-opacity="0" />
<path d="M25,-50 L25,50" stroke="black" stroke-width="0" fill-opacity="0" />
<path d="M50,-50 L25,-50" stroke="black" stroke-width="0" fill-opacity="0" />
<text x="-225.0" y="-40" font-size="50.0" fill="black" text-anchor="middle" transform="translate(0,15.0)">1</text>
<path d="M-300,0 L-150,0" stroke="black" stroke-width="5" />
<text x="225.0" y="-40" font-size="50.0" fill="black" text-anchor="middle" transform="translate(0,15.0)">2</text>
<path d="M300,0 L150,0" stroke="black" stroke-width="5" />
<text x="-225.0" y="-40" font-size="50.0" fill="black" text-anchor="middle" transform="translate(0,15.0)">3</text>
<path d="M-300,0 L-150,0" stroke="black" stroke-width="5" />
<text x="225.0" y="-40" font-size="50.0" fill="black" text-anchor="middle" transform="translate(0,15.0)">4</text>
<path d="M300,0 L150,0" stroke="black" stroke-width="5" />
<text x="-225.0" y="-40" font-size="50.0" fill="black" text-anchor="middle" transform="translate(0,15.0)">5</text>
<path d="M-300,0 L-150,0" stroke="black" stroke-width="5" />
<text x="225.0" y="-40" font-size="50.0" fill="black" text-anchor="middle" transform="translate(0,15.0)">6</text>
<path d="M300,0 L150,0" stroke="black" stroke-width="5" />
<text x="225.0" y="-40" font-size="50.0" fill="black" text-anchor="middle" transform="translate(0,15.0)">8</text>
<path d="M300,0 L150,0" stroke="black" stroke-width="5" />
<text x="-225.0" y="-40" font-size="50.0" fill="black" text-anchor="middle" transform="translate(0,15.0)">9</text>
<path d="M-300,0 L-150,0" stroke="black" stroke-width="5" />
<text x="225.0" y="-40" font-size="50.0" fill="black" text-anchor="middle" transform="translate(0,15.0)">10</text>
<path d="M300,0 L150,0" stroke="black" stroke-width="5" />
<text x="-225.0" y="-40" font-size="50.0" fill="black" text-anchor="middle" transform="translate(0,15.0)">11</text>
<path d="M-300,0 L-150,0" stroke="black" stroke-width="5" />
<text x="225.0" y="-40" font-size="50.0" fill="black" text-anchor="middle" transform="translate(0,15.0)">12</text>
<path d="M300,0 L150,0" stroke="black" stroke-width="5" />
<text x="-225.0" y="-40" font-size="50.0" fill="black" text-anchor="middle" transform="translate(0,15.0)">13</text>
<path d="M-300,0 L-150,0" stroke="black" stroke-width="5" />
<text x="-40" y="-400.0" font-size="50.0" fill="black" text-anchor="middle" transform="translate(0,15.0)">14</text>
<text x="0" y="-260" font-size="50.0" fill="black" text-anchor="middle" transform="translate(0,15.0)">VDD</text>
<path d="M0,-500 L0,-300" stroke="black" stroke-width="5" />
<text x="-40" y="400.0" font-size="50.0" fill="black" text-anchor="middle" transform="translate(0,15.0)">7</text>
<text x="0" y="260" font-size="50.0" fill="black" text-anchor="middle" transform="translate(0,15.0)">VSS</text>
<path d="M0,500 L0,300" stroke="black" stroke-width="5" />
</svg>
