<?xml version="1.0" encoding="UTF-8"?>
<svg xmlns="http://www.w3.org/2000/svg" xmlns:xlink="http://www.w3.org/1999/xlink"
     width="1500" height="2500" viewBox="-750.0 -1250.0 1500 2500">
<defs>
</defs>
<path d="M-200,-200 L200,-200 L200,200 L-200,200 L-200,-200" stroke-width="10" stroke="black" fill-opacity="0" />
<text x="250.0" y="-140" font-size="50.0" fill="black" text-anchor="middle" transform="translate(0,15.0)">1</text>
<text x="147" y="-100" font-size="50.0" fill="black" text-anchor="middle" transform="translate(0,15.0)">Q</text>
<path d="M300,-100 L200,-100" stroke="black" stroke-width="5" />
<text x="250.0" y="60" font-size="50.0" fill="black" text-anchor="middle" transform="translate(0,15.0)">2</text>
<text x="134" y="100" font-size="50.0" fill="black" text-anchor="middle" transform="translate(0,15.0)">~Q</text>
<path d="M300,100 L200,100" stroke="black" stroke-width="5" />
<text x="-250.0" y="-40" font-size="50.0" fill="black" text-anchor="middle" transform="translate(0,15.0)">3</text>
<text x="-147" y="0" font-size="50.0" fill="black" text-anchor="middle" transform="translate(0,15.0)">C</text>
<path d="M-300,0 L-200,0" stroke="black" stroke-width="5" />
<text x="-40" y="250.0" font-size="50.0" fill="black" text-anchor="middle" transform="translate(0,15.0)">4</text>
<text x="0" y="147" font-size="50.0" fill="black" text-anchor="middle" transform="translate(0,15.0)">R</text>
<path d="M0,300 L0,200" stroke="black" stroke-width="5" />
<text x="-250.0" y="-140" font-size="50.0" fill="black" text-anchor="middle" transform="translate(0,15.0)">5</text>
<text x="-147" y="-100" font-size="50.0" fill="black" text-anchor="middle" transform="translate(0,15.0)">D</text>
<path d="M-300,-100 L-200,-100" stroke="black" stroke-width="5" />
<text x="-40" y="-250.0" font-size="50.0" fill="black" text-anchor="middle" transform="translate(0,15.0)">6</text>
<text x="0" y="-147" font-size="50.0" fill="black" text-anchor="middle" transform="translate(0,15.0)">S</text>
<path d="M0,-300 L0,-200" stroke="black" stroke-width="5" />
</svg>