<?xml version="1.0" encoding="UTF-8"?>
<svg xmlns="http://www.w3.org/2000/svg" xmlns:xlink="http://www.w3.org/1999/xlink"
     width="150.0" height="200.0" viewBox="-750.0 -1000.0 1500 2000">
<defs>
</defs>
<path d="M-300,-700 L300,-700 L300,700 L-300,700 L-300,-700" stroke-width="10" stroke="black" fill-opacity="0" />
<text x="-350.0" y="560" font-size="50.0" fill="black" text-anchor="middle" transform="translate(0,15.0)">1</text>
<text x="-254" y="600" font-size="50.0" fill="black" text-anchor="middle" transform="translate(0,15.0)">D7</text>
<path d="M-400,600 L-300,600" stroke="black" stroke-width="5" />
<text x="-350.0" y="-640" font-size="50.0" fill="black" text-anchor="middle" transform="translate(0,15.0)">10</text>
<text x="-254" y="-600" font-size="50.0" fill="black" text-anchor="middle" transform="translate(0,15.0)">CP</text>
<path d="M-400,-600 L-300,-600" stroke="black" stroke-width="5" />
<text x="-350.0" y="-340" font-size="50.0" fill="black" text-anchor="middle" transform="translate(0,15.0)">11</text>
<text x="-254" y="-300" font-size="50.0" fill="black" text-anchor="middle" transform="translate(0,15.0)">DS</text>
<path d="M-400,-300 L-300,-300" stroke="black" stroke-width="5" />
<text x="350.0" y="-540" font-size="50.0" fill="black" text-anchor="middle" transform="translate(0,15.0)">12</text>
<text x="254" y="-500" font-size="50.0" fill="black" text-anchor="middle" transform="translate(0,15.0)">Q6</text>
<path d="M400,-500 L300,-500" stroke="black" stroke-width="5" />
<text x="-350.0" y="260" font-size="50.0" fill="black" text-anchor="middle" transform="translate(0,15.0)">13</text>
<text x="-254" y="300" font-size="50.0" fill="black" text-anchor="middle" transform="translate(0,15.0)">D4</text>
<path d="M-400,300 L-300,300" stroke="black" stroke-width="5" />
<text x="-350.0" y="360" font-size="50.0" fill="black" text-anchor="middle" transform="translate(0,15.0)">14</text>
<text x="-254" y="400" font-size="50.0" fill="black" text-anchor="middle" transform="translate(0,15.0)">D5</text>
<path d="M-400,400 L-300,400" stroke="black" stroke-width="5" />
<text x="-350.0" y="460" font-size="50.0" fill="black" text-anchor="middle" transform="translate(0,15.0)">15</text>
<text x="-254" y="500" font-size="50.0" fill="black" text-anchor="middle" transform="translate(0,15.0)">D6</text>
<path d="M-400,500 L-300,500" stroke="black" stroke-width="5" />
<text x="-40" y="-750.0" font-size="50.0" fill="black" text-anchor="middle" transform="translate(0,15.0)">16</text>
<text x="0" y="-641" font-size="50.0" fill="black" text-anchor="middle" transform="translate(0,15.0)">VDD</text>
<path d="M0,-800 L0,-700" stroke="black" stroke-width="5" />
<text x="350.0" y="-640" font-size="50.0" fill="black" text-anchor="middle" transform="translate(0,15.0)">2</text>
<text x="254" y="-600" font-size="50.0" fill="black" text-anchor="middle" transform="translate(0,15.0)">Q5</text>
<path d="M400,-600 L300,-600" stroke="black" stroke-width="5" />
<text x="350.0" y="-440" font-size="50.0" fill="black" text-anchor="middle" transform="translate(0,15.0)">3</text>
<text x="254" y="-400" font-size="50.0" fill="black" text-anchor="middle" transform="translate(0,15.0)">Q7</text>
<path d="M400,-400 L300,-400" stroke="black" stroke-width="5" />
<text x="-350.0" y="160" font-size="50.0" fill="black" text-anchor="middle" transform="translate(0,15.0)">4</text>
<text x="-254" y="200" font-size="50.0" fill="black" text-anchor="middle" transform="translate(0,15.0)">D3</text>
<path d="M-400,200 L-300,200" stroke="black" stroke-width="5" />
<text x="-350.0" y="60" font-size="50.0" fill="black" text-anchor="middle" transform="translate(0,15.0)">5</text>
<text x="-254" y="100" font-size="50.0" fill="black" text-anchor="middle" transform="translate(0,15.0)">D2</text>
<path d="M-400,100 L-300,100" stroke="black" stroke-width="5" />
<text x="-350.0" y="-40" font-size="50.0" fill="black" text-anchor="middle" transform="translate(0,15.0)">6</text>
<text x="-254" y="0" font-size="50.0" fill="black" text-anchor="middle" transform="translate(0,15.0)">D1</text>
<path d="M-400,0 L-300,0" stroke="black" stroke-width="5" />
<text x="-350.0" y="-140" font-size="50.0" fill="black" text-anchor="middle" transform="translate(0,15.0)">7</text>
<text x="-254" y="-100" font-size="50.0" fill="black" text-anchor="middle" transform="translate(0,15.0)">D0</text>
<path d="M-400,-100 L-300,-100" stroke="black" stroke-width="5" />
<text x="-40" y="750.0" font-size="50.0" fill="black" text-anchor="middle" transform="translate(0,15.0)">8</text>
<text x="0" y="641" font-size="50.0" fill="black" text-anchor="middle" transform="translate(0,15.0)">VSS</text>
<path d="M0,800 L0,700" stroke="black" stroke-width="5" />
<text x="-350.0" y="-440" font-size="50.0" fill="black" text-anchor="middle" transform="translate(0,15.0)">9</text>
<text x="-254" y="-400" font-size="50.0" fill="black" text-anchor="middle" transform="translate(0,15.0)">PL</text>
<path d="M-400,-400 L-300,-400" stroke="black" stroke-width="5" />
</svg>