<?xml version="1.0" encoding="UTF-8"?>
<svg xmlns="http://www.w3.org/2000/svg" xmlns:xlink="http://www.w3.org/1999/xlink"
     width="1500" height="2500" viewBox="-750.0 -1250.0 1500 2500">
<defs>
</defs>
<path d="M-200,-200 L200,-200 L200,200 L-200,200 L-200,-200" stroke-width="10" stroke="red" fill-opacity="0.3" />
<path d="M-200,-200 L200,-200 L200,200 L-200,200 L-200,-200" stroke-width="10" stroke="red" fill-opacity="0.3" />
<path d="M-200,-300 L200,-300 L200,300 L-200,300 L-200,-300" stroke-width="10" stroke="red" fill-opacity="0.3" />
<text x="-40" y="-350.0" font-size="50.0" fill="black" text-anchor="middle" transform="translate(0,15.0)">16</text>
<text x="0" y="-260" font-size="50.0" fill="black" text-anchor="middle" transform="translate(0,15.0)">VDD</text>
<path d="M0,-400 L0,-300" stroke="black" stroke-width="5" />
<text x="-40" y="350.0" font-size="50.0" fill="black" text-anchor="middle" transform="translate(0,15.0)">8</text>
<text x="0" y="260" font-size="50.0" fill="black" text-anchor="middle" transform="translate(0,15.0)">VSS</text>
<path d="M0,400 L0,300" stroke="black" stroke-width="5" />
<text x="250.0" y="-130" font-size="50.0" fill="black" text-anchor="middle" transform="translate(0,15.0)">1</text>
<text x="160" y="-100" font-size="50.0" fill="black" text-anchor="middle" transform="translate(0,15.0)">Q</text>
<path d="M300,-100 L200,-100" stroke="black" stroke-width="5" />
<text x="250.0" y="70" font-size="50.0" fill="black" text-anchor="middle" transform="translate(0,15.0)">2</text>
<text x="160" y="100" font-size="50.0" fill="black" text-anchor="middle" transform="translate(0,15.0)">~Q</text>
<path d="M300,100 L200,100" stroke="black" stroke-width="5" />
<text x="-160" y="0" font-size="50.0" fill="black" text-anchor="middle" transform="translate(0,15.0)">C</text>
<text x="-250.0" y="-30" font-size="50.0" fill="black" text-anchor="middle" transform="translate(0,15.0)">3</text>
<path d="M-300,0 L-200,0" stroke="black" stroke-width="5" />
<text x="-40" y="250.0" font-size="50.0" fill="black" text-anchor="middle" transform="translate(0,15.0)">4</text>
<text x="0" y="160" font-size="50.0" fill="black" text-anchor="middle" transform="translate(0,15.0)">R</text>
<path d="M0,300 L0,200" stroke="black" stroke-width="5" />
<text x="-160" y="100" font-size="50.0" fill="black" text-anchor="middle" transform="translate(0,15.0)">K</text>
<text x="-250.0" y="70" font-size="50.0" fill="black" text-anchor="middle" transform="translate(0,15.0)">5</text>
<path d="M-300,100 L-200,100" stroke="black" stroke-width="5" />
<text x="-160" y="-100" font-size="50.0" fill="black" text-anchor="middle" transform="translate(0,15.0)">J</text>
<text x="-250.0" y="-130" font-size="50.0" fill="black" text-anchor="middle" transform="translate(0,15.0)">6</text>
<path d="M-300,-100 L-200,-100" stroke="black" stroke-width="5" />
<text x="-40" y="-250.0" font-size="50.0" fill="black" text-anchor="middle" transform="translate(0,15.0)">7</text>
<text x="0" y="-160" font-size="50.0" fill="black" text-anchor="middle" transform="translate(0,15.0)">S</text>
<path d="M0,-300 L0,-200" stroke="black" stroke-width="5" />
<text x="-160" y="-100" font-size="50.0" fill="black" text-anchor="middle" transform="translate(0,15.0)">J</text>
<text x="-250.0" y="-130" font-size="50.0" fill="black" text-anchor="middle" transform="translate(0,15.0)">10</text>
<path d="M-300,-100 L-200,-100" stroke="black" stroke-width="5" />
<text x="-160" y="100" font-size="50.0" fill="black" text-anchor="middle" transform="translate(0,15.0)">K</text>
<text x="-250.0" y="70" font-size="50.0" fill="black" text-anchor="middle" transform="translate(0,15.0)">11</text>
<path d="M-300,100 L-200,100" stroke="black" stroke-width="5" />
<text x="-40" y="250.0" font-size="50.0" fill="black" text-anchor="middle" transform="translate(0,15.0)">12</text>
<text x="0" y="160" font-size="50.0" fill="black" text-anchor="middle" transform="translate(0,15.0)">R</text>
<path d="M0,300 L0,200" stroke="black" stroke-width="5" />
<text x="-160" y="0" font-size="50.0" fill="black" text-anchor="middle" transform="translate(0,15.0)">C</text>
<text x="-250.0" y="-30" font-size="50.0" fill="black" text-anchor="middle" transform="translate(0,15.0)">13</text>
<path d="M-300,0 L-200,0" stroke="black" stroke-width="5" />
<text x="250.0" y="70" font-size="50.0" fill="black" text-anchor="middle" transform="translate(0,15.0)">14</text>
<text x="160" y="100" font-size="50.0" fill="black" text-anchor="middle" transform="translate(0,15.0)">~Q</text>
<path d="M300,100 L200,100" stroke="black" stroke-width="5" />
<text x="250.0" y="-130" font-size="50.0" fill="black" text-anchor="middle" transform="translate(0,15.0)">15</text>
<text x="160" y="-100" font-size="50.0" fill="black" text-anchor="middle" transform="translate(0,15.0)">Q</text>
<path d="M300,-100 L200,-100" stroke="black" stroke-width="5" />
<text x="-40" y="-250.0" font-size="50.0" fill="black" text-anchor="middle" transform="translate(0,15.0)">9</text>
<text x="0" y="-160" font-size="50.0" fill="black" text-anchor="middle" transform="translate(0,15.0)">S</text>
<path d="M0,-300 L0,-200" stroke="black" stroke-width="5" />
</svg>