<?xml version="1.0" encoding="UTF-8"?>
<svg xmlns="http://www.w3.org/2000/svg" xmlns:xlink="http://www.w3.org/1999/xlink"
     width="1500" height="2500" viewBox="-750.0 -1250.0 1500 2500">
<defs>
</defs>
<path d="M-400,-900 L400,-900 L400,900 L-400,900 L-400,-900" stroke-width="10" stroke="black" fill-opacity="0" />
<text x="-500.0" y="460" font-size="50.0" fill="black" text-anchor="middle" transform="translate(0,15.0)">1</text>
<text x="-347" y="500" font-size="50.0" fill="black" text-anchor="middle" transform="translate(0,15.0)">C</text>
<path d="M-600,500 L-400,500" stroke="black" stroke-width="5" />
<text x="500.0" y="-340" font-size="50.0" fill="black" text-anchor="middle" transform="translate(0,15.0)">10</text>
<text x="347" y="-300" font-size="50.0" fill="black" text-anchor="middle" transform="translate(0,15.0)">Q</text>
<path d="M600,-300 L400,-300" stroke="black" stroke-width="5" />
<text x="500.0" y="-140" font-size="50.0" fill="black" text-anchor="middle" transform="translate(0,15.0)">11</text>
<text x="334" y="-100" font-size="50.0" fill="black" text-anchor="middle" transform="translate(0,15.0)">~Q</text>
<path d="M600,-100 L400,-100" stroke="black" stroke-width="5" />
<text x="-500.0" y="-140" font-size="50.0" fill="black" text-anchor="middle" transform="translate(0,15.0)">12</text>
<text x="-243" y="-100" font-size="50.0" fill="black" text-anchor="middle" transform="translate(0,15.0)">RETRIGGER</text>
<path d="M-600,-100 L-400,-100" stroke="black" stroke-width="5" />
<text x="500.0" y="-740" font-size="50.0" fill="black" text-anchor="middle" transform="translate(0,15.0)">13</text>
<text x="269" y="-700" font-size="50.0" fill="black" text-anchor="middle" transform="translate(0,15.0)">OSC_OUT</text>
<path d="M600,-700 L400,-700" stroke="black" stroke-width="5" />
<text x="-40" y="-1000.0" font-size="50.0" fill="black" text-anchor="middle" transform="translate(0,15.0)">14</text>
<text x="0" y="-821" font-size="50.0" fill="black" text-anchor="middle" transform="translate(0,15.0)">VDD</text>
<path d="M0,-1100 L0,-900" stroke="black" stroke-width="5" />
<text x="-500.0" y="260" font-size="50.0" fill="black" text-anchor="middle" transform="translate(0,15.0)">2</text>
<text x="-347" y="300" font-size="50.0" fill="black" text-anchor="middle" transform="translate(0,15.0)">R</text>
<path d="M-600,300 L-400,300" stroke="black" stroke-width="5" />
<text x="-500.0" y="660" font-size="50.0" fill="black" text-anchor="middle" transform="translate(0,15.0)">3</text>
<text x="-243" y="700" font-size="50.0" fill="black" text-anchor="middle" transform="translate(0,15.0)">RC_COMMON</text>
<path d="M-600,700 L-400,700" stroke="black" stroke-width="5" />
<text x="-500.0" y="-640" font-size="50.0" fill="black" text-anchor="middle" transform="translate(0,15.0)">4</text>
<text x="-256" y="-600" font-size="50.0" fill="black" text-anchor="middle" transform="translate(0,15.0)">~ASTABLE</text>
<path d="M-600,-600 L-400,-600" stroke="black" stroke-width="5" />
<text x="-500.0" y="-740" font-size="50.0" fill="black" text-anchor="middle" transform="translate(0,15.0)">5</text>
<text x="-269" y="-700" font-size="50.0" fill="black" text-anchor="middle" transform="translate(0,15.0)">ASTABLE</text>
<path d="M-600,-700 L-400,-700" stroke="black" stroke-width="5" />
<text x="-500.0" y="-440" font-size="50.0" fill="black" text-anchor="middle" transform="translate(0,15.0)">6</text>
<text x="-256" y="-400" font-size="50.0" fill="black" text-anchor="middle" transform="translate(0,15.0)">-TRIGGER</text>
<path d="M-600,-400 L-400,-400" stroke="black" stroke-width="5" />
<text x="-40" y="1000.0" font-size="50.0" fill="black" text-anchor="middle" transform="translate(0,15.0)">7</text>
<text x="0" y="821" font-size="50.0" fill="black" text-anchor="middle" transform="translate(0,15.0)">VSS</text>
<path d="M0,1100 L0,900" stroke="black" stroke-width="5" />
<text x="-500.0" y="-340" font-size="50.0" fill="black" text-anchor="middle" transform="translate(0,15.0)">8</text>
<text x="-256" y="-300" font-size="50.0" fill="black" text-anchor="middle" transform="translate(0,15.0)">+TRIGGER</text>
<path d="M-600,-300 L-400,-300" stroke="black" stroke-width="5" />
<text x="-500.0" y="60" font-size="50.0" fill="black" text-anchor="middle" transform="translate(0,15.0)">9</text>
<text x="-243" y="100" font-size="50.0" fill="black" text-anchor="middle" transform="translate(0,15.0)">EXT_RESET</text>
<path d="M-600,100 L-400,100" stroke="black" stroke-width="5" />
</svg>