<?xml version="1.0" encoding="UTF-8"?>
<svg xmlns="http://www.w3.org/2000/svg" xmlns:xlink="http://www.w3.org/1999/xlink"
     width="1500" height="2500" viewBox="-750.0 -1250.0 1500 2500">
<defs>
</defs>
<path d="M-300,-400 L300,-400 L300,400 L-300,400 L-300,-400" stroke-width="6" stroke="black" fill-opacity="0" />
<text x="-350.0" y="-340" font-size="50.0" fill="black" text-anchor="middle" transform="translate(0,15.0)">1</text>
<text x="-241" y="-300" font-size="50.0" fill="black" text-anchor="middle" transform="translate(0,15.0)">Cx1</text>
<path d="M-400,-300 L-300,-300" stroke="black" stroke-width="5" />
<text x="-350.0" y="-240" font-size="50.0" fill="black" text-anchor="middle" transform="translate(0,15.0)">2</text>
<text x="-189" y="-200" font-size="50.0" fill="black" text-anchor="middle" transform="translate(0,15.0)">Rx1_Cx1</text>
<path d="M-400,-200 L-300,-200" stroke="black" stroke-width="5" />
<text x="-350.0" y="-40" font-size="50.0" fill="black" text-anchor="middle" transform="translate(0,15.0)">3</text>
<text x="-189" y="0" font-size="50.0" fill="black" text-anchor="middle" transform="translate(0,15.0)">~Reset1</text>
<path d="M-400,0 L-300,0" stroke="black" stroke-width="5" />
<text x="-350.0" y="160" font-size="50.0" fill="black" text-anchor="middle" transform="translate(0,15.0)">4</text>
<text x="-228" y="200" font-size="50.0" fill="black" text-anchor="middle" transform="translate(0,15.0)">+TR1</text>
<path d="M-400,200 L-300,200" stroke="black" stroke-width="5" />
<text x="-350.0" y="260" font-size="50.0" fill="black" text-anchor="middle" transform="translate(0,15.0)">5</text>
<text x="-228" y="300" font-size="50.0" fill="black" text-anchor="middle" transform="translate(0,15.0)">-TR1</text>
<path d="M-400,300 L-300,300" stroke="black" stroke-width="5" />
<text x="350.0" y="-140" font-size="50.0" fill="black" text-anchor="middle" transform="translate(0,15.0)">6</text>
<text x="254" y="-100" font-size="50.0" fill="black" text-anchor="middle" transform="translate(0,15.0)">Q1</text>
<path d="M400,-100 L300,-100" stroke="black" stroke-width="5" />
<text x="350.0" y="60" font-size="50.0" fill="black" text-anchor="middle" transform="translate(0,15.0)">7</text>
<text x="241" y="100" font-size="50.0" fill="black" text-anchor="middle" transform="translate(0,15.0)">~Q1</text>
<path d="M400,100 L300,100" stroke="black" stroke-width="5" />
</svg>