<?xml version="1.0" encoding="UTF-8"?>
<svg xmlns="http://www.w3.org/2000/svg" xmlns:xlink="http://www.w3.org/1999/xlink"
     width="150.0" height="200.0" viewBox="-750.0 -1000.0 1500 2000">
<defs>
</defs>
<path d="M-350,-800 L350,-800 L350,800 L-350,800 L-350,-800" stroke-width="10" stroke="black" fill-opacity="0" />
<path d="M-40,500 L-140,500" stroke="black" stroke-width="6" />
<path d="M-40,300 L-140,300" stroke="black" stroke-width="6" />
<path d="M-40,100 L-140,100" stroke="black" stroke-width="6" />
<path d="M-40,-100 L-140,-100" stroke="black" stroke-width="6" />
<path d="M-40,-300 L-140,-300" stroke="black" stroke-width="6" />
<path d="M-40,-500 L-140,-500" stroke="black" stroke-width="6" />
<path d="M130,500 L30,500" stroke="black" stroke-width="6" />
<path d="M130,300 L30,300" stroke="black" stroke-width="6" />
<path d="M130,100 L30,100" stroke="black" stroke-width="6" />
<path d="M130,-100 L30,-100" stroke="black" stroke-width="6" />
<path d="M130,-300 L30,-300" stroke="black" stroke-width="6" />
<path d="M130,-500 L30,-500" stroke="black" stroke-width="6" />
<path d="M-40,540 L30,500" stroke="black" stroke-width="6" />
<path d="M-40,460 L-40,540" stroke="black" stroke-width="6" />
<path d="M30,500 L-40,460" stroke="black" stroke-width="6" />
<path d="M-40,340 L30,300" stroke="black" stroke-width="6" />
<path d="M-40,260 L-40,340" stroke="black" stroke-width="6" />
<path d="M30,300 L-40,260" stroke="black" stroke-width="6" />
<path d="M-40,140 L30,100" stroke="black" stroke-width="6" />
<path d="M-40,60 L-40,140" stroke="black" stroke-width="6" />
<path d="M30,100 L-40,60" stroke="black" stroke-width="6" />
<path d="M-40,-60 L30,-100" stroke="black" stroke-width="6" />
<path d="M-40,-140 L-40,-60" stroke="black" stroke-width="6" />
<path d="M30,-100 L-40,-140" stroke="black" stroke-width="6" />
<path d="M-40,-260 L30,-300" stroke="black" stroke-width="6" />
<path d="M-40,-340 L-40,-260" stroke="black" stroke-width="6" />
<path d="M30,-300 L-40,-340" stroke="black" stroke-width="6" />
<path d="M-40,-460 L30,-500" stroke="black" stroke-width="6" />
<path d="M-40,-540 L-40,-460" stroke="black" stroke-width="6" />
<path d="M30,-500 L-40,-540" stroke="black" stroke-width="6" />
<text x="-140" y="-850.0" font-size="50.0" fill="black" text-anchor="middle" transform="translate(0,15.0)">1</text>
<text x="-100" y="-741" font-size="50.0" fill="black" text-anchor="middle" transform="translate(0,15.0)">VCC</text>
<path d="M-100,-900 L-100,-800" stroke="black" stroke-width="5" />
<text x="400.0" y="60" font-size="50.0" fill="black" text-anchor="middle" transform="translate(0,15.0)">10</text>
<text x="278" y="100" font-size="50.0" fill="black" text-anchor="middle" transform="translate(0,15.0)">Dout</text>
<path d="M450,100 L350,100" stroke="black" stroke-width="5" />
<text x="-400.0" y="260" font-size="50.0" fill="black" text-anchor="middle" transform="translate(0,15.0)">11</text>
<text x="-291" y="300" font-size="50.0" fill="black" text-anchor="middle" transform="translate(0,15.0)">Ein</text>
<path d="M-450,300 L-350,300" stroke="black" stroke-width="5" />
<text x="400.0" y="260" font-size="50.0" fill="black" text-anchor="middle" transform="translate(0,15.0)">12</text>
<text x="278" y="300" font-size="50.0" fill="black" text-anchor="middle" transform="translate(0,15.0)">Eout</text>
<path d="M450,300 L350,300" stroke="black" stroke-width="5" />
<text x="-400.0" y="660" font-size="50.0" fill="black" text-anchor="middle" transform="translate(0,15.0)">13</text>
<text x="-252" y="700" font-size="50.0" fill="black" text-anchor="middle" transform="translate(0,15.0)">Select</text>
<path d="M-450,700 L-350,700" stroke="black" stroke-width="5" />
<text x="-400.0" y="460" font-size="50.0" fill="black" text-anchor="middle" transform="translate(0,15.0)">14</text>
<text x="-291" y="500" font-size="50.0" fill="black" text-anchor="middle" transform="translate(0,15.0)">Fin</text>
<path d="M-450,500 L-350,500" stroke="black" stroke-width="5" />
<text x="400.0" y="460" font-size="50.0" fill="black" text-anchor="middle" transform="translate(0,15.0)">15</text>
<text x="278" y="500" font-size="50.0" fill="black" text-anchor="middle" transform="translate(0,15.0)">Fout</text>
<path d="M450,500 L350,500" stroke="black" stroke-width="5" />
<text x="60" y="-850.0" font-size="50.0" fill="black" text-anchor="middle" transform="translate(0,15.0)">16</text>
<text x="100" y="-741" font-size="50.0" fill="black" text-anchor="middle" transform="translate(0,15.0)">VDD</text>
<path d="M100,-900 L100,-800" stroke="black" stroke-width="5" />
<text x="400.0" y="-540" font-size="50.0" fill="black" text-anchor="middle" transform="translate(0,15.0)">2</text>
<text x="278" y="-500" font-size="50.0" fill="black" text-anchor="middle" transform="translate(0,15.0)">Aout</text>
<path d="M450,-500 L350,-500" stroke="black" stroke-width="5" />
<text x="-400.0" y="-540" font-size="50.0" fill="black" text-anchor="middle" transform="translate(0,15.0)">3</text>
<text x="-291" y="-500" font-size="50.0" fill="black" text-anchor="middle" transform="translate(0,15.0)">Ain</text>
<path d="M-450,-500 L-350,-500" stroke="black" stroke-width="5" />
<text x="400.0" y="-340" font-size="50.0" fill="black" text-anchor="middle" transform="translate(0,15.0)">4</text>
<text x="278" y="-300" font-size="50.0" fill="black" text-anchor="middle" transform="translate(0,15.0)">Bout</text>
<path d="M450,-300 L350,-300" stroke="black" stroke-width="5" />
<text x="-400.0" y="-340" font-size="50.0" fill="black" text-anchor="middle" transform="translate(0,15.0)">5</text>
<text x="-291" y="-300" font-size="50.0" fill="black" text-anchor="middle" transform="translate(0,15.0)">Bin</text>
<path d="M-450,-300 L-350,-300" stroke="black" stroke-width="5" />
<text x="400.0" y="-140" font-size="50.0" fill="black" text-anchor="middle" transform="translate(0,15.0)">6</text>
<text x="278" y="-100" font-size="50.0" fill="black" text-anchor="middle" transform="translate(0,15.0)">Cout</text>
<path d="M450,-100 L350,-100" stroke="black" stroke-width="5" />
<text x="-400.0" y="-140" font-size="50.0" fill="black" text-anchor="middle" transform="translate(0,15.0)">7</text>
<text x="-291" y="-100" font-size="50.0" fill="black" text-anchor="middle" transform="translate(0,15.0)">Cin</text>
<path d="M-450,-100 L-350,-100" stroke="black" stroke-width="5" />
<text x="-40" y="850.0" font-size="50.0" fill="black" text-anchor="middle" transform="translate(0,15.0)">8</text>
<text x="0" y="741" font-size="50.0" fill="black" text-anchor="middle" transform="translate(0,15.0)">VSS</text>
<path d="M0,900 L0,800" stroke="black" stroke-width="5" />
<text x="-400.0" y="60" font-size="50.0" fill="black" text-anchor="middle" transform="translate(0,15.0)">9</text>
<text x="-291" y="100" font-size="50.0" fill="black" text-anchor="middle" transform="translate(0,15.0)">Din</text>
<path d="M-450,100 L-350,100" stroke="black" stroke-width="5" />
</svg>