<?xml version="1.0" encoding="UTF-8"?>
<svg xmlns="http://www.w3.org/2000/svg" xmlns:xlink="http://www.w3.org/1999/xlink"
     width="150.0" height="200.0" viewBox="-750.0 -1000.0 1500 2000">
<defs>
</defs>
<path d="M-300,-200 L300,-200 L300,300 L-300,300 L-300,-200" stroke-width="10" stroke="black" fill-opacity="0" />
<text x="-400.0" y="-40" font-size="50.0" fill="black" text-anchor="middle" transform="translate(0,15.0)">1</text>
<text x="-234" y="0" font-size="50.0" fill="black" text-anchor="middle" transform="translate(0,15.0)">CK</text>
<path d="M-500,0 L-300,0" stroke="black" stroke-width="5" />
<text x="-400.0" y="160" font-size="50.0" fill="black" text-anchor="middle" transform="translate(0,15.0)">2</text>
<text x="-182" y="200" font-size="50.0" fill="black" text-anchor="middle" transform="translate(0,15.0)">Enable</text>
<path d="M-500,200 L-300,200" stroke="black" stroke-width="5" />
<text x="400.0" y="-140" font-size="50.0" fill="black" text-anchor="middle" transform="translate(0,15.0)">3</text>
<text x="234" y="-100" font-size="50.0" fill="black" text-anchor="middle" transform="translate(0,15.0)">Q1</text>
<path d="M500,-100 L300,-100" stroke="black" stroke-width="5" />
<text x="400.0" y="-40" font-size="50.0" fill="black" text-anchor="middle" transform="translate(0,15.0)">4</text>
<text x="234" y="0" font-size="50.0" fill="black" text-anchor="middle" transform="translate(0,15.0)">Q2</text>
<path d="M500,0 L300,0" stroke="black" stroke-width="5" />
<text x="400.0" y="60" font-size="50.0" fill="black" text-anchor="middle" transform="translate(0,15.0)">5</text>
<text x="234" y="100" font-size="50.0" fill="black" text-anchor="middle" transform="translate(0,15.0)">Q3</text>
<path d="M500,100 L300,100" stroke="black" stroke-width="5" />
<text x="400.0" y="160" font-size="50.0" fill="black" text-anchor="middle" transform="translate(0,15.0)">6</text>
<text x="234" y="200" font-size="50.0" fill="black" text-anchor="middle" transform="translate(0,15.0)">Q4</text>
<path d="M500,200 L300,200" stroke="black" stroke-width="5" />
<text x="-400.0" y="60" font-size="50.0" fill="black" text-anchor="middle" transform="translate(0,15.0)">7</text>
<text x="-195" y="100" font-size="50.0" fill="black" text-anchor="middle" transform="translate(0,15.0)">Reset</text>
<path d="M-500,100 L-300,100" stroke="black" stroke-width="5" />
</svg>