<?xml version="1.0" encoding="UTF-8"?>
<svg xmlns="http://www.w3.org/2000/svg" xmlns:xlink="http://www.w3.org/1999/xlink"
     width="1500" height="2500" viewBox="-750.0 -1250.0 1500 2500">
<defs>
</defs>
<path d="M-300,-400 L300,-400 L300,400 L-300,400 L-300,-400" stroke-width="10" stroke="red" fill-opacity="0.3" />
<text x="-260" y="100" font-size="50.0" fill="black" text-anchor="middle" transform="translate(0,15.0)">~LE</text>
<text x="-400.0" y="70" font-size="50.0" fill="black" text-anchor="middle" transform="translate(0,15.0)">1</text>
<path d="M-500,100 L-300,100" stroke="black" stroke-width="5" />
<text x="400.0" y="-230" font-size="50.0" fill="black" text-anchor="middle" transform="translate(0,15.0)">10</text>
<text x="260" y="-200" font-size="50.0" fill="black" text-anchor="middle" transform="translate(0,15.0)">Qb</text>
<path d="M500,-200 L300,-200" stroke="black" stroke-width="5" />
<text x="400.0" y="-130" font-size="50.0" fill="black" text-anchor="middle" transform="translate(0,15.0)">11</text>
<text x="260" y="-100" font-size="50.0" fill="black" text-anchor="middle" transform="translate(0,15.0)">Qc</text>
<path d="M500,-100 L300,-100" stroke="black" stroke-width="5" />
<text x="400.0" y="-30" font-size="50.0" fill="black" text-anchor="middle" transform="translate(0,15.0)">12</text>
<text x="260" y="0" font-size="50.0" fill="black" text-anchor="middle" transform="translate(0,15.0)">Qd</text>
<path d="M500,0 L300,0" stroke="black" stroke-width="5" />
<text x="400.0" y="70" font-size="50.0" fill="black" text-anchor="middle" transform="translate(0,15.0)">13</text>
<text x="260" y="100" font-size="50.0" fill="black" text-anchor="middle" transform="translate(0,15.0)">Qe</text>
<path d="M500,100 L300,100" stroke="black" stroke-width="5" />
<text x="400.0" y="270" font-size="50.0" fill="black" text-anchor="middle" transform="translate(0,15.0)">14</text>
<text x="260" y="300" font-size="50.0" fill="black" text-anchor="middle" transform="translate(0,15.0)">Qg</text>
<path d="M500,300 L300,300" stroke="black" stroke-width="5" />
<text x="400.0" y="170" font-size="50.0" fill="black" text-anchor="middle" transform="translate(0,15.0)">15</text>
<text x="260" y="200" font-size="50.0" fill="black" text-anchor="middle" transform="translate(0,15.0)">Qf</text>
<path d="M500,200 L300,200" stroke="black" stroke-width="5" />
<text x="-40" y="-500.0" font-size="50.0" fill="black" text-anchor="middle" transform="translate(0,15.0)">16</text>
<text x="0" y="-360" font-size="50.0" fill="black" text-anchor="middle" transform="translate(0,15.0)">VDD</text>
<path d="M0,-600 L0,-400" stroke="black" stroke-width="5" />
<text x="-260" y="-100" font-size="50.0" fill="black" text-anchor="middle" transform="translate(0,15.0)">D2</text>
<text x="-400.0" y="-130" font-size="50.0" fill="black" text-anchor="middle" transform="translate(0,15.0)">2</text>
<path d="M-500,-100 L-300,-100" stroke="black" stroke-width="5" />
<text x="-260" y="-200" font-size="50.0" fill="black" text-anchor="middle" transform="translate(0,15.0)">D1</text>
<text x="-400.0" y="-230" font-size="50.0" fill="black" text-anchor="middle" transform="translate(0,15.0)">3</text>
<path d="M-500,-200 L-300,-200" stroke="black" stroke-width="5" />
<text x="-260" y="0" font-size="50.0" fill="black" text-anchor="middle" transform="translate(0,15.0)">D3</text>
<text x="-400.0" y="-30" font-size="50.0" fill="black" text-anchor="middle" transform="translate(0,15.0)">4</text>
<path d="M-500,0 L-300,0" stroke="black" stroke-width="5" />
<text x="-260" y="-300" font-size="50.0" fill="black" text-anchor="middle" transform="translate(0,15.0)">D0</text>
<text x="-400.0" y="-330" font-size="50.0" fill="black" text-anchor="middle" transform="translate(0,15.0)">5</text>
<path d="M-500,-300 L-300,-300" stroke="black" stroke-width="5" />
<text x="-260" y="300" font-size="50.0" fill="black" text-anchor="middle" transform="translate(0,15.0)">PH</text>
<text x="-400.0" y="270" font-size="50.0" fill="black" text-anchor="middle" transform="translate(0,15.0)">6</text>
<path d="M-500,300 L-300,300" stroke="black" stroke-width="5" />
<text x="-260" y="200" font-size="50.0" fill="black" text-anchor="middle" transform="translate(0,15.0)">BL</text>
<text x="-400.0" y="170" font-size="50.0" fill="black" text-anchor="middle" transform="translate(0,15.0)">7</text>
<path d="M-500,200 L-300,200" stroke="black" stroke-width="5" />
<text x="-40" y="500.0" font-size="50.0" fill="black" text-anchor="middle" transform="translate(0,15.0)">8</text>
<text x="0" y="360" font-size="50.0" fill="black" text-anchor="middle" transform="translate(0,15.0)">VSS</text>
<path d="M0,600 L0,400" stroke="black" stroke-width="5" />
<text x="400.0" y="-330" font-size="50.0" fill="black" text-anchor="middle" transform="translate(0,15.0)">9</text>
<text x="260" y="-300" font-size="50.0" fill="black" text-anchor="middle" transform="translate(0,15.0)">Qa</text>
<path d="M500,-300 L300,-300" stroke="black" stroke-width="5" />
</svg>